<svg width="87" height="40" viewBox="0 0 87 40" fill="none" xmlns="http://www.w3.org/2000/svg">
<path d="M0 20C0 8.9543 8.9543 0 20 0H67C78.0457 0 87 8.9543 87 20V20.6452V20.6452C87 31.3345 78.3345 40 67.6452 40H20C8.9543 40 0 31.0457 0 20V20Z" fill="#B3B3B3"/>
<path d="M0 20C0 8.9543 8.9543 0 20 0H67C78.0457 0 87 8.9543 87 20V20.6452V20.6452C87 31.3345 78.3345 40 67.6452 40H20C8.9543 40 0 31.0457 0 20V20Z" fill="#B3B3B3"/>
<path d="M0 20C0 8.9543 8.9543 0 20 0H67C78.0457 0 87 8.9543 87 20V20.6452V20.6452C87 31.3345 78.3345 40 67.6452 40H20C8.9543 40 0 31.0457 0 20V20Z" fill="white"/>
<mask id="path-2-outside-1_538_576" maskUnits="userSpaceOnUse" x="3" y="11" width="80" height="16" fill="black">
<rect fill="white" x="3" y="11" width="80" height="16"/>
<path d="M6.2464 26H4.49214L9.56601 12.1818H11.2933L16.3671 26H14.6129L10.4836 14.3679H10.3757L6.2464 26ZM6.89413 20.6023H13.9652V22.0866H6.89413V20.6023ZM18.5195 26V12.1818H20.1928V24.5156H26.6161V26H18.5195ZM29.207 26V12.1818H34.038C35.0005 12.1818 35.7945 12.3482 36.4197 12.6811C37.0449 13.0095 37.5105 13.4525 37.8164 14.0103C38.1222 14.5636 38.2752 15.1776 38.2752 15.8523C38.2752 16.446 38.1695 16.9363 37.9581 17.3232C37.7511 17.71 37.4768 18.0159 37.1349 18.2408C36.7975 18.4657 36.4309 18.6321 36.0351 18.7401V18.875C36.4579 18.902 36.883 19.0504 37.3103 19.3203C37.7376 19.5902 38.0952 19.977 38.3831 20.4808C38.671 20.9846 38.8149 21.6009 38.8149 22.3295C38.8149 23.0223 38.6575 23.6452 38.3426 24.1985C38.0278 24.7518 37.5307 25.1903 36.8515 25.5142C36.1723 25.8381 35.2884 26 34.1999 26H29.207ZM30.8803 24.5156H34.1999C35.2929 24.5156 36.0688 24.3042 36.5277 23.8814C36.991 23.4541 37.2226 22.9368 37.2226 22.3295C37.2226 21.8617 37.1034 21.4299 36.865 21.0341C36.6266 20.6338 36.287 20.3144 35.8462 20.076C35.4054 19.8331 34.8836 19.7116 34.2809 19.7116H30.8803V24.5156ZM30.8803 18.2543H33.984C34.4878 18.2543 34.9421 18.1553 35.3469 17.9574C35.7562 17.7595 36.0801 17.4806 36.3185 17.1207C36.5614 16.7609 36.6828 16.3381 36.6828 15.8523C36.6828 15.245 36.4714 14.73 36.0486 14.3072C35.6258 13.8799 34.9556 13.6662 34.038 13.6662H30.8803V18.2543ZM50.6326 12.1818H52.3059V21.331C52.3059 22.2756 52.0832 23.119 51.6379 23.8612C51.1971 24.5988 50.5741 25.1813 49.769 25.6087C48.9638 26.0315 48.0192 26.2429 46.9351 26.2429C45.8511 26.2429 44.9065 26.0315 44.1013 25.6087C43.2962 25.1813 42.6709 24.5988 42.2256 23.8612C41.7848 23.119 41.5644 22.2756 41.5644 21.331V12.1818H43.2377V21.196C43.2377 21.8707 43.3861 22.4712 43.683 22.9975C43.9799 23.5193 44.4027 23.9309 44.9515 24.2322C45.5047 24.5291 46.166 24.6776 46.9351 24.6776C47.7043 24.6776 48.3655 24.5291 48.9188 24.2322C49.4721 23.9309 49.8949 23.5193 50.1873 22.9975C50.4842 22.4712 50.6326 21.8707 50.6326 21.196V12.1818ZM55.6474 12.1818H57.6446L62.3406 23.652H62.5025L67.1986 12.1818H69.1957V26H67.6304V15.5014H67.4954L63.1772 26H61.6659L57.3477 15.5014H57.2128V26H55.6474V12.1818ZM80.1076 15.6364C80.0266 14.9527 79.6982 14.4219 79.1225 14.044C78.5467 13.6662 77.8405 13.4773 77.0039 13.4773C76.3921 13.4773 75.8568 13.5762 75.398 13.7741C74.9437 13.9721 74.5884 14.2442 74.332 14.5906C74.0801 14.9369 73.9541 15.3305 73.9541 15.7713C73.9541 16.1402 74.0419 16.4573 74.2173 16.7227C74.3972 16.9835 74.6266 17.2017 74.9055 17.3771C75.1844 17.5481 75.4768 17.6897 75.7826 17.8022C76.0885 17.9102 76.3696 17.9979 76.626 18.0653L78.0294 18.4432C78.3893 18.5376 78.7896 18.6681 79.2304 18.8345C79.6757 19.0009 80.1008 19.2281 80.5056 19.516C80.915 19.7994 81.2523 20.1637 81.5177 20.609C81.7831 21.0543 81.9158 21.6009 81.9158 22.2486C81.9158 22.9953 81.7201 23.67 81.3288 24.2727C80.942 24.8755 80.3752 25.3545 79.6285 25.7099C78.8863 26.0652 77.9844 26.2429 76.9229 26.2429C75.9333 26.2429 75.0764 26.0832 74.3522 25.7638C73.6325 25.4445 73.0658 24.9992 72.6519 24.4279C72.2426 23.8567 72.011 23.1932 71.957 22.4375H73.6843C73.7292 22.9593 73.9047 23.3911 74.2105 23.733C74.5209 24.0703 74.9122 24.3222 75.3845 24.4886C75.8613 24.6506 76.3741 24.7315 76.9229 24.7315C77.5616 24.7315 78.1351 24.6281 78.6434 24.4212C79.1517 24.2098 79.5543 23.9174 79.8512 23.544C80.148 23.1662 80.2965 22.7254 80.2965 22.2216C80.2965 21.7628 80.1683 21.3894 79.9119 21.1016C79.6555 20.8137 79.3181 20.5798 78.8998 20.3999C78.4815 20.2199 78.0294 20.0625 77.5436 19.9276L75.8434 19.4418C74.7638 19.1314 73.9092 18.6883 73.2794 18.1126C72.6497 17.5368 72.3348 16.7834 72.3348 15.8523C72.3348 15.0786 72.544 14.4039 72.9623 13.8281C73.3851 13.2479 73.9519 12.7981 74.6626 12.4787C75.3778 12.1548 76.1762 11.9929 77.0578 11.9929C77.9485 11.9929 78.7401 12.1526 79.4328 12.4719C80.1255 12.7868 80.6743 13.2186 81.0791 13.7674C81.4885 14.3162 81.7044 14.9392 81.7269 15.6364H80.1076Z"/>
</mask>
<path d="M6.2464 26H4.49214L9.56601 12.1818H11.2933L16.3671 26H14.6129L10.4836 14.3679H10.3757L6.2464 26ZM6.89413 20.6023H13.9652V22.0866H6.89413V20.6023ZM18.5195 26V12.1818H20.1928V24.5156H26.6161V26H18.5195ZM29.207 26V12.1818H34.038C35.0005 12.1818 35.7945 12.3482 36.4197 12.6811C37.0449 13.0095 37.5105 13.4525 37.8164 14.0103C38.1222 14.5636 38.2752 15.1776 38.2752 15.8523C38.2752 16.446 38.1695 16.9363 37.9581 17.3232C37.7511 17.71 37.4768 18.0159 37.1349 18.2408C36.7975 18.4657 36.4309 18.6321 36.0351 18.7401V18.875C36.4579 18.902 36.883 19.0504 37.3103 19.3203C37.7376 19.5902 38.0952 19.977 38.3831 20.4808C38.671 20.9846 38.8149 21.6009 38.8149 22.3295C38.8149 23.0223 38.6575 23.6452 38.3426 24.1985C38.0278 24.7518 37.5307 25.1903 36.8515 25.5142C36.1723 25.8381 35.2884 26 34.1999 26H29.207ZM30.8803 24.5156H34.1999C35.2929 24.5156 36.0688 24.3042 36.5277 23.8814C36.991 23.4541 37.2226 22.9368 37.2226 22.3295C37.2226 21.8617 37.1034 21.4299 36.865 21.0341C36.6266 20.6338 36.287 20.3144 35.8462 20.076C35.4054 19.8331 34.8836 19.7116 34.2809 19.7116H30.8803V24.5156ZM30.8803 18.2543H33.984C34.4878 18.2543 34.9421 18.1553 35.3469 17.9574C35.7562 17.7595 36.0801 17.4806 36.3185 17.1207C36.5614 16.7609 36.6828 16.3381 36.6828 15.8523C36.6828 15.245 36.4714 14.73 36.0486 14.3072C35.6258 13.8799 34.9556 13.6662 34.038 13.6662H30.8803V18.2543ZM50.6326 12.1818H52.3059V21.331C52.3059 22.2756 52.0832 23.119 51.6379 23.8612C51.1971 24.5988 50.5741 25.1813 49.769 25.6087C48.9638 26.0315 48.0192 26.2429 46.9351 26.2429C45.8511 26.2429 44.9065 26.0315 44.1013 25.6087C43.2962 25.1813 42.6709 24.5988 42.2256 23.8612C41.7848 23.119 41.5644 22.2756 41.5644 21.331V12.1818H43.2377V21.196C43.2377 21.8707 43.3861 22.4712 43.683 22.9975C43.9799 23.5193 44.4027 23.9309 44.9515 24.2322C45.5047 24.5291 46.166 24.6776 46.9351 24.6776C47.7043 24.6776 48.3655 24.5291 48.9188 24.2322C49.4721 23.9309 49.8949 23.5193 50.1873 22.9975C50.4842 22.4712 50.6326 21.8707 50.6326 21.196V12.1818ZM55.6474 12.1818H57.6446L62.3406 23.652H62.5025L67.1986 12.1818H69.1957V26H67.6304V15.5014H67.4954L63.1772 26H61.6659L57.3477 15.5014H57.2128V26H55.6474V12.1818ZM80.1076 15.6364C80.0266 14.9527 79.6982 14.4219 79.1225 14.044C78.5467 13.6662 77.8405 13.4773 77.0039 13.4773C76.3921 13.4773 75.8568 13.5762 75.398 13.7741C74.9437 13.9721 74.5884 14.2442 74.332 14.5906C74.0801 14.9369 73.9541 15.3305 73.9541 15.7713C73.9541 16.1402 74.0419 16.4573 74.2173 16.7227C74.3972 16.9835 74.6266 17.2017 74.9055 17.3771C75.1844 17.5481 75.4768 17.6897 75.7826 17.8022C76.0885 17.9102 76.3696 17.9979 76.626 18.0653L78.0294 18.4432C78.3893 18.5376 78.7896 18.6681 79.2304 18.8345C79.6757 19.0009 80.1008 19.2281 80.5056 19.516C80.915 19.7994 81.2523 20.1637 81.5177 20.609C81.7831 21.0543 81.9158 21.6009 81.9158 22.2486C81.9158 22.9953 81.7201 23.67 81.3288 24.2727C80.942 24.8755 80.3752 25.3545 79.6285 25.7099C78.8863 26.0652 77.9844 26.2429 76.9229 26.2429C75.9333 26.2429 75.0764 26.0832 74.3522 25.7638C73.6325 25.4445 73.0658 24.9992 72.6519 24.4279C72.2426 23.8567 72.011 23.1932 71.957 22.4375H73.6843C73.7292 22.9593 73.9047 23.3911 74.2105 23.733C74.5209 24.0703 74.9122 24.3222 75.3845 24.4886C75.8613 24.6506 76.3741 24.7315 76.9229 24.7315C77.5616 24.7315 78.1351 24.6281 78.6434 24.4212C79.1517 24.2098 79.5543 23.9174 79.8512 23.544C80.148 23.1662 80.2965 22.7254 80.2965 22.2216C80.2965 21.7628 80.1683 21.3894 79.9119 21.1016C79.6555 20.8137 79.3181 20.5798 78.8998 20.3999C78.4815 20.2199 78.0294 20.0625 77.5436 19.9276L75.8434 19.4418C74.7638 19.1314 73.9092 18.6883 73.2794 18.1126C72.6497 17.5368 72.3348 16.7834 72.3348 15.8523C72.3348 15.0786 72.544 14.4039 72.9623 13.8281C73.3851 13.2479 73.9519 12.7981 74.6626 12.4787C75.3778 12.1548 76.1762 11.9929 77.0578 11.9929C77.9485 11.9929 78.7401 12.1526 79.4328 12.4719C80.1255 12.7868 80.6743 13.2186 81.0791 13.7674C81.4885 14.3162 81.7044 14.9392 81.7269 15.6364H80.1076Z" fill="#391561"/>
<path d="M6.2464 26V26.35H6.49356L6.57624 26.1171L6.2464 26ZM4.49214 26L4.16359 25.8794L3.99078 26.35H4.49214V26ZM9.56601 12.1818V11.8318H9.32167L9.23746 12.0612L9.56601 12.1818ZM11.2933 12.1818L11.6218 12.0612L11.5376 11.8318H11.2933V12.1818ZM16.3671 26V26.35H16.8685L16.6957 25.8794L16.3671 26ZM14.6129 26L14.283 26.1171L14.3657 26.35H14.6129V26ZM10.4836 14.3679L10.8135 14.2508L10.7308 14.0179H10.4836V14.3679ZM10.3757 14.3679V14.0179H10.1285L10.0458 14.2508L10.3757 14.3679ZM6.89413 20.6023V20.2523H6.54413V20.6023H6.89413ZM13.9652 20.6023H14.3152V20.2523H13.9652V20.6023ZM13.9652 22.0866V22.4366H14.3152V22.0866H13.9652ZM6.89413 22.0866H6.54413V22.4366H6.89413V22.0866ZM6.2464 25.65H4.49214V26.35H6.2464V25.65ZM4.82069 26.1206L9.89456 12.3025L9.23746 12.0612L4.16359 25.8794L4.82069 26.1206ZM9.56601 12.5318H11.2933V11.8318H9.56601V12.5318ZM10.9647 12.3025L16.0386 26.1206L16.6957 25.8794L11.6218 12.0612L10.9647 12.3025ZM16.3671 25.65H14.6129V26.35H16.3671V25.65ZM14.9427 25.8829L10.8135 14.2508L10.1538 14.485L14.283 26.1171L14.9427 25.8829ZM10.4836 14.0179H10.3757V14.7179H10.4836V14.0179ZM10.0458 14.2508L5.91657 25.8829L6.57624 26.1171L10.7055 14.485L10.0458 14.2508ZM6.89413 20.9523H13.9652V20.2523H6.89413V20.9523ZM13.6152 20.6023V22.0866H14.3152V20.6023H13.6152ZM13.9652 21.7366H6.89413V22.4366H13.9652V21.7366ZM7.24413 22.0866V20.6023H6.54413V22.0866H7.24413ZM18.5195 26H18.1695V26.35H18.5195V26ZM18.5195 12.1818V11.8318H18.1695V12.1818H18.5195ZM20.1928 12.1818H20.5428V11.8318H20.1928V12.1818ZM20.1928 24.5156H19.8428V24.8656H20.1928V24.5156ZM26.6161 24.5156H26.9661V24.1656H26.6161V24.5156ZM26.6161 26V26.35H26.9661V26H26.6161ZM18.8695 26V12.1818H18.1695V26H18.8695ZM18.5195 12.5318H20.1928V11.8318H18.5195V12.5318ZM19.8428 12.1818V24.5156H20.5428V12.1818H19.8428ZM20.1928 24.8656H26.6161V24.1656H20.1928V24.8656ZM26.2661 24.5156V26H26.9661V24.5156H26.2661ZM26.6161 25.65H18.5195V26.35H26.6161V25.65ZM29.207 26H28.857V26.35H29.207V26ZM29.207 12.1818V11.8318H28.857V12.1818H29.207ZM36.4197 12.6811L36.2552 12.9901L36.257 12.991L36.4197 12.6811ZM37.8164 14.0103L37.5095 14.1786L37.5101 14.1796L37.8164 14.0103ZM37.9581 17.3232L37.6509 17.1553L37.6494 17.1581L37.9581 17.3232ZM37.1349 18.2408L36.9425 17.9484L36.9408 17.9495L37.1349 18.2408ZM36.0351 18.7401L35.943 18.4024L35.6851 18.4727V18.7401H36.0351ZM36.0351 18.875H35.6851V19.2034L36.0128 19.2243L36.0351 18.875ZM37.3103 19.3203L37.1234 19.6162L37.3103 19.3203ZM38.3426 24.1985L38.6468 24.3716L38.3426 24.1985ZM36.8515 25.5142L36.7009 25.1983L36.8515 25.5142ZM30.8803 24.5156H30.5303V24.8656H30.8803V24.5156ZM36.5277 23.8814L36.7648 24.1388L36.7649 24.1387L36.5277 23.8814ZM36.865 21.0341L36.5643 21.2132L36.5652 21.2147L36.865 21.0341ZM35.8462 20.076L35.6773 20.3825L35.6797 20.3839L35.8462 20.076ZM30.8803 19.7116V19.3616H30.5303V19.7116H30.8803ZM30.8803 18.2543H30.5303V18.6043H30.8803V18.2543ZM35.3469 17.9574L35.1945 17.6423L35.1932 17.643L35.3469 17.9574ZM36.3185 17.1207L36.0284 16.9249L36.0267 16.9274L36.3185 17.1207ZM36.0486 14.3072L35.7998 14.5534L35.8011 14.5547L36.0486 14.3072ZM30.8803 13.6662V13.3162H30.5303V13.6662H30.8803ZM29.557 26V12.1818H28.857V26H29.557ZM29.207 12.5318H34.038V11.8318H29.207V12.5318ZM34.038 12.5318C34.9628 12.5318 35.6955 12.6921 36.2552 12.9901L36.5842 12.3722C35.8934 12.0044 35.0383 11.8318 34.038 11.8318V12.5318ZM36.257 12.991C36.8282 13.291 37.2403 13.6877 37.5095 14.1786L38.1232 13.842C37.7807 13.2174 37.2616 12.7279 36.5824 12.3712L36.257 12.991ZM37.5101 14.1796C37.7853 14.6776 37.9252 15.2327 37.9252 15.8523H38.6252C38.6252 15.1224 38.4591 14.4495 38.1227 13.841L37.5101 14.1796ZM37.9252 15.8523C37.9252 16.4069 37.8261 16.8347 37.6509 17.1553L38.2652 17.491C38.5128 17.0379 38.6252 16.4852 38.6252 15.8523H37.9252ZM37.6494 17.1581C37.468 17.4973 37.2321 17.7578 36.9425 17.9484L37.3273 18.5332C37.7214 18.2739 38.0343 17.9227 38.2667 17.4882L37.6494 17.1581ZM36.9408 17.9495C36.6351 18.1533 36.303 18.3042 35.943 18.4024L36.1272 19.0777C36.5589 18.96 36.96 18.778 37.329 18.532L36.9408 17.9495ZM35.6851 18.7401V18.875H36.3851V18.7401H35.6851ZM36.0128 19.2243C36.3669 19.2469 36.7361 19.3716 37.1234 19.6162L37.4972 19.0244C37.0299 18.7292 36.549 18.5571 36.0574 18.5257L36.0128 19.2243ZM37.1234 19.6162C37.4956 19.8513 37.8155 20.193 38.0792 20.6545L38.687 20.3072C38.375 19.7611 37.9797 19.3291 37.4972 19.0244L37.1234 19.6162ZM38.0792 20.6545C38.3301 21.0935 38.4649 21.6464 38.4649 22.3295H39.1649C39.1649 21.5553 39.0119 20.8758 38.687 20.3072L38.0792 20.6545ZM38.4649 22.3295C38.4649 22.9671 38.3207 23.5295 38.0385 24.0254L38.6468 24.3716C38.9943 23.761 39.1649 23.0774 39.1649 22.3295H38.4649ZM38.0385 24.0254C37.765 24.5058 37.3276 24.8995 36.7009 25.1983L37.0022 25.8301C37.7339 25.4812 38.2905 24.9977 38.6468 24.3716L38.0385 24.0254ZM36.7009 25.1983C36.0849 25.492 35.2578 25.65 34.1999 25.65V26.35C35.319 26.35 36.2597 26.1841 37.0022 25.8301L36.7009 25.1983ZM34.1999 25.65H29.207V26.35H34.1999V25.65ZM30.8803 24.8656H34.1999V24.1656H30.8803V24.8656ZM34.1999 24.8656C35.3204 24.8656 36.2076 24.6523 36.7648 24.1388L36.2905 23.624C35.93 23.9562 35.2654 24.1656 34.1999 24.1656V24.8656ZM36.7649 24.1387C37.297 23.6479 37.5726 23.0386 37.5726 22.3295H36.8726C36.8726 22.8349 36.6849 23.2602 36.2904 23.6241L36.7649 24.1387ZM37.5726 22.3295C37.5726 21.7989 37.4365 21.3046 37.1648 20.8535L36.5652 21.2147C36.7703 21.5553 36.8726 21.9245 36.8726 22.3295H37.5726ZM37.1657 20.855C36.8926 20.3963 36.5047 20.0342 36.0127 19.7681L35.6797 20.3839C36.0693 20.5946 36.3606 20.8712 36.5643 21.2132L37.1657 20.855ZM36.0151 19.7695C35.5132 19.4929 34.931 19.3616 34.2809 19.3616V20.0616C34.8362 20.0616 35.2975 20.1733 35.6773 20.3825L36.0151 19.7695ZM34.2809 19.3616H30.8803V20.0616H34.2809V19.3616ZM30.5303 19.7116V24.5156H31.2303V19.7116H30.5303ZM30.8803 18.6043H33.984V17.9043H30.8803V18.6043ZM33.984 18.6043C34.5347 18.6043 35.0425 18.4958 35.5006 18.2718L35.1932 17.643C34.8416 17.8148 34.4408 17.9043 33.984 17.9043V18.6043ZM35.4993 18.2725C35.962 18.0487 36.3353 17.7291 36.6103 17.314L36.0267 16.9274C35.8249 17.2321 35.5505 17.4702 35.1945 17.6423L35.4993 18.2725ZM36.6086 17.3166C36.8951 16.8921 37.0328 16.3992 37.0328 15.8523H36.3328C36.3328 16.2769 36.2277 16.6297 36.0284 16.9249L36.6086 17.3166ZM37.0328 15.8523C37.0328 15.1538 36.7857 14.5493 36.2961 14.0597L35.8011 14.5547C36.1572 14.9107 36.3328 15.3362 36.3328 15.8523H37.0328ZM36.2974 14.061C35.7812 13.5393 35.0007 13.3162 34.038 13.3162V14.0162C34.9105 14.0162 35.4703 14.2204 35.7998 14.5533L36.2974 14.061ZM34.038 13.3162H30.8803V14.0162H34.038V13.3162ZM30.5303 13.6662V18.2543H31.2303V13.6662H30.5303ZM50.6326 12.1818V11.8318H50.2826V12.1818H50.6326ZM52.3059 12.1818H52.6559V11.8318H52.3059V12.1818ZM51.6379 23.8612L51.3378 23.6811L51.3375 23.6816L51.6379 23.8612ZM49.769 25.6087L49.9317 25.9185L49.933 25.9178L49.769 25.6087ZM44.1013 25.6087L43.9373 25.9178L43.9386 25.9185L44.1013 25.6087ZM42.2256 23.8612L41.9247 24.0399L41.926 24.042L42.2256 23.8612ZM41.5644 12.1818V11.8318H41.2144V12.1818H41.5644ZM43.2377 12.1818H43.5877V11.8318H43.2377V12.1818ZM43.683 22.9975L43.3782 23.1695L43.3788 23.1706L43.683 22.9975ZM44.9515 24.2322L44.783 24.539L44.786 24.5407L44.9515 24.2322ZM48.9188 24.2322L49.0843 24.5407L49.0862 24.5396L48.9188 24.2322ZM50.1873 22.9975L49.8824 22.8256L49.8819 22.8264L50.1873 22.9975ZM50.6326 12.5318H52.3059V11.8318H50.6326V12.5318ZM51.9559 12.1818V21.331H52.6559V12.1818H51.9559ZM51.9559 21.331C51.9559 22.2181 51.7475 22.9982 51.3378 23.6811L51.938 24.0412C52.4189 23.2397 52.6559 22.333 52.6559 21.331H51.9559ZM51.3375 23.6816C50.9314 24.3611 50.3572 24.9002 49.6049 25.2995L49.933 25.9178C50.7911 25.4624 51.4628 24.8366 51.9384 24.0407L51.3375 23.6816ZM49.6062 25.2988C48.86 25.6906 47.9733 25.8929 46.9351 25.8929V26.5929C48.065 26.5929 49.0675 26.3723 49.9317 25.9185L49.6062 25.2988ZM46.9351 25.8929C45.897 25.8929 45.0103 25.6906 44.2641 25.2988L43.9386 25.9185C44.8028 26.3723 45.8052 26.5929 46.9351 26.5929V25.8929ZM44.2654 25.2995C43.5128 24.9001 42.9359 24.3605 42.5253 23.6803L41.926 24.042C42.406 24.8371 43.0795 25.4626 43.9373 25.9178L44.2654 25.2995ZM42.5266 23.6824C42.1208 22.9993 41.9144 22.2188 41.9144 21.331H41.2144C41.2144 22.3324 41.4488 23.2386 41.9247 24.0399L42.5266 23.6824ZM41.9144 21.331V12.1818H41.2144V21.331H41.9144ZM41.5644 12.5318H43.2377V11.8318H41.5644V12.5318ZM42.8877 12.1818V21.196H43.5877V12.1818H42.8877ZM42.8877 21.196C42.8877 21.9238 43.0484 22.5848 43.3782 23.1695L43.9879 22.8256C43.7239 22.3577 43.5877 21.8177 43.5877 21.196H42.8877ZM43.3788 23.1706C43.7091 23.7511 44.18 24.2079 44.783 24.539L45.12 23.9255C44.6254 23.6538 44.2507 23.2875 43.9872 22.8244L43.3788 23.1706ZM44.786 24.5407C45.4004 24.8703 46.1211 25.0276 46.9351 25.0276V24.3276C46.2109 24.3276 45.6091 24.1879 45.117 23.9238L44.786 24.5407ZM46.9351 25.0276C47.7492 25.0276 48.4699 24.8703 49.0843 24.5407L48.7533 23.9238C48.2612 24.1879 47.6594 24.3276 46.9351 24.3276V25.0276ZM49.0862 24.5396C49.6942 24.2085 50.1663 23.751 50.4926 23.1686L49.8819 22.8264C49.6235 23.2876 49.25 23.6533 48.7514 23.9249L49.0862 24.5396ZM50.4921 23.1695C50.8219 22.5848 50.9826 21.9238 50.9826 21.196H50.2826C50.2826 21.8177 50.1464 22.3577 49.8824 22.8256L50.4921 23.1695ZM50.9826 21.196V12.1818H50.2826V21.196H50.9826ZM55.6474 12.1818V11.8318H55.2974V12.1818H55.6474ZM57.6446 12.1818L57.9685 12.0492L57.8795 11.8318H57.6446V12.1818ZM62.3406 23.652L62.0167 23.7846L62.1057 24.002H62.3406V23.652ZM62.5025 23.652V24.002H62.7374L62.8264 23.7846L62.5025 23.652ZM67.1986 12.1818V11.8318H66.9636L66.8746 12.0492L67.1986 12.1818ZM69.1957 12.1818H69.5457V11.8318H69.1957V12.1818ZM69.1957 26V26.35H69.5457V26H69.1957ZM67.6304 26H67.2804V26.35H67.6304V26ZM67.6304 15.5014H67.9804V15.1514H67.6304V15.5014ZM67.4954 15.5014V15.1514H67.2609L67.1717 15.3683L67.4954 15.5014ZM63.1772 26V26.35H63.4117L63.5009 26.1331L63.1772 26ZM61.6659 26L61.3422 26.1331L61.4314 26.35H61.6659V26ZM57.3477 15.5014L57.6714 15.3683L57.5822 15.1514H57.3477V15.5014ZM57.2128 15.5014V15.1514H56.8628V15.5014H57.2128ZM57.2128 26V26.35H57.5628V26H57.2128ZM55.6474 26H55.2974V26.35H55.6474V26ZM55.6474 12.5318H57.6446V11.8318H55.6474V12.5318ZM57.3207 12.3144L62.0167 23.7846L62.6645 23.5194L57.9685 12.0492L57.3207 12.3144ZM62.3406 24.002H62.5025V23.302H62.3406V24.002ZM62.8264 23.7846L67.5225 12.3144L66.8746 12.0492L62.1786 23.5194L62.8264 23.7846ZM67.1986 12.5318H69.1957V11.8318H67.1986V12.5318ZM68.8457 12.1818V26H69.5457V12.1818H68.8457ZM69.1957 25.65H67.6304V26.35H69.1957V25.65ZM67.9804 26V15.5014H67.2804V26H67.9804ZM67.6304 15.1514H67.4954V15.8514H67.6304V15.1514ZM67.1717 15.3683L62.8536 25.8669L63.5009 26.1331L67.8191 15.6346L67.1717 15.3683ZM63.1772 25.65H61.6659V26.35H63.1772V25.65ZM61.9896 25.8669L57.6714 15.3683L57.024 15.6346L61.3422 26.1331L61.9896 25.8669ZM57.3477 15.1514H57.2128V15.8514H57.3477V15.1514ZM56.8628 15.5014V26H57.5628V15.5014H56.8628ZM57.2128 25.65H55.6474V26.35H57.2128V25.65ZM55.9974 26V12.1818H55.2974V26H55.9974ZM80.1076 15.6364L79.76 15.6775L79.7966 15.9864H80.1076V15.6364ZM79.1225 14.044L78.9304 14.3367V14.3367L79.1225 14.044ZM75.398 13.7741L75.2594 13.4528L75.2583 13.4533L75.398 13.7741ZM74.332 14.5906L74.0507 14.3823L74.0489 14.3847L74.332 14.5906ZM74.2173 16.7227L73.9253 16.9157L73.9292 16.9214L74.2173 16.7227ZM74.9055 17.3771L74.7191 17.6734L74.7226 17.6755L74.9055 17.3771ZM75.7826 17.8022L75.6618 18.1307L75.6661 18.1322L75.7826 17.8022ZM76.626 18.0653L76.717 17.7274L76.7151 17.7269L76.626 18.0653ZM78.0294 18.4432L77.9384 18.7812L77.9406 18.7817L78.0294 18.4432ZM79.2304 18.8345L79.1068 19.162L79.1079 19.1624L79.2304 18.8345ZM80.5056 19.516L80.3028 19.8012L80.3064 19.8037L80.5056 19.516ZM81.5177 20.609L81.8184 20.4298L81.5177 20.609ZM81.3288 24.2727L81.0352 24.0821L81.0342 24.0837L81.3288 24.2727ZM79.6285 25.7099L79.4781 25.3938L79.4774 25.3942L79.6285 25.7099ZM74.3522 25.7638L74.2103 26.0838L74.211 26.0841L74.3522 25.7638ZM72.6519 24.4279L72.3674 24.6318L72.3685 24.6332L72.6519 24.4279ZM71.957 22.4375V22.0875H71.5811L71.6079 22.4624L71.957 22.4375ZM73.6843 22.4375L74.033 22.4074L74.0054 22.0875H73.6843V22.4375ZM74.2105 23.733L73.9497 23.9664L73.953 23.9699L74.2105 23.733ZM75.3845 24.4886L75.2682 24.8188L75.272 24.82L75.3845 24.4886ZM78.6434 24.4212L78.7754 24.7453L78.7778 24.7443L78.6434 24.4212ZM79.8512 23.544L80.1251 23.7619L80.1264 23.7603L79.8512 23.544ZM79.9119 21.1016L80.1733 20.8688L79.9119 21.1016ZM78.8998 20.3999L78.7615 20.7214V20.7214L78.8998 20.3999ZM77.5436 19.9276L77.4475 20.2641L77.45 20.2648L77.5436 19.9276ZM75.8434 19.4418L75.7466 19.7781L75.7472 19.7783L75.8434 19.4418ZM73.2794 18.1126L73.0433 18.3709L73.2794 18.1126ZM72.9623 13.8281L72.6794 13.622L72.6792 13.6224L72.9623 13.8281ZM74.6626 12.4787L74.8061 12.7979L74.807 12.7975L74.6626 12.4787ZM79.4328 12.4719L79.2863 12.7898L79.288 12.7906L79.4328 12.4719ZM81.0791 13.7674L80.7975 13.9752L80.7986 13.9767L81.0791 13.7674ZM81.7269 15.6364V15.9864H82.0883L82.0767 15.6251L81.7269 15.6364ZM80.4551 15.5952C80.362 14.8088 79.9767 14.186 79.3145 13.7514L78.9304 14.3367C79.4198 14.6578 79.6912 15.0965 79.76 15.6775L80.4551 15.5952ZM79.3145 13.7514C78.6705 13.3288 77.8939 13.1273 77.0039 13.1273V13.8273C77.7871 13.8273 78.423 14.0036 78.9304 14.3367L79.3145 13.7514ZM77.0039 13.1273C76.3549 13.1273 75.7706 13.2322 75.2594 13.4528L75.5367 14.0955C75.943 13.9202 76.4294 13.8273 77.0039 13.8273V13.1273ZM75.2583 13.4533C74.7563 13.672 74.3487 13.9797 74.0507 14.3823L74.6133 14.7988C74.828 14.5087 75.1312 14.2722 75.5378 14.095L75.2583 13.4533ZM74.0489 14.3847C73.7522 14.7927 73.6041 15.2588 73.6041 15.7713H74.3041C74.3041 15.4021 74.408 15.0811 74.615 14.7964L74.0489 14.3847ZM73.6041 15.7713C73.6041 16.1976 73.7063 16.5843 73.9253 16.9157L74.5093 16.5297C74.3774 16.3302 74.3041 16.0827 74.3041 15.7713H73.6041ZM73.9292 16.9214C74.1371 17.2229 74.4017 17.4737 74.7191 17.6734L75.0919 17.0809C74.8515 16.9297 74.6573 16.7442 74.5054 16.5239L73.9292 16.9214ZM74.7226 17.6755C75.0211 17.8585 75.3343 18.0103 75.6618 18.1307L75.9034 17.4737C75.6193 17.3692 75.3477 17.2376 75.0884 17.0787L74.7226 17.6755ZM75.6661 18.1322C75.9791 18.2427 76.2695 18.3334 76.5369 18.4038L76.7151 17.7269C76.4697 17.6623 76.1979 17.5776 75.8991 17.4722L75.6661 18.1322ZM76.535 18.4033L77.9384 18.7811L78.1204 18.1052L76.717 17.7274L76.535 18.4033ZM77.9406 18.7817C78.286 18.8724 78.6745 18.9988 79.1068 19.162L79.354 18.5071C78.9047 18.3374 78.4925 18.2029 78.1183 18.1047L77.9406 18.7817ZM79.1079 19.1624C79.5234 19.3177 79.9217 19.5302 80.3028 19.8012L80.7085 19.2307C80.28 18.926 79.828 18.6842 79.353 18.5067L79.1079 19.1624ZM80.3064 19.8037C80.6728 20.0574 80.9762 20.3841 81.2171 20.7882L81.8184 20.4298C81.5284 19.9433 81.1571 19.5413 80.7049 19.2282L80.3064 19.8037ZM81.2171 20.7882C81.443 21.1673 81.5658 21.6483 81.5658 22.2486H82.2658C82.2658 21.5534 82.1232 20.9413 81.8184 20.4298L81.2171 20.7882ZM81.5658 22.2486C81.5658 22.9304 81.3882 23.5384 81.0352 24.0821L81.6223 24.4633C82.052 23.8015 82.2658 23.0601 82.2658 22.2486H81.5658ZM81.0342 24.0837C80.6878 24.6234 80.1751 25.0621 79.4781 25.3938L79.7789 26.0259C80.5753 25.6469 81.1961 25.1275 81.6233 24.4618L81.0342 24.0837ZM79.4774 25.3942C78.794 25.7214 77.9468 25.8929 76.9229 25.8929V26.5929C78.0221 26.5929 78.9787 26.4091 79.7797 26.0256L79.4774 25.3942ZM76.9229 25.8929C75.9701 25.8929 75.1635 25.7391 74.4935 25.4436L74.211 26.0841C74.9893 26.4273 75.8965 26.5929 76.9229 26.5929V25.8929ZM74.4942 25.4439C73.8242 25.1466 73.3089 24.7382 72.9354 24.2226L72.3685 24.6332C72.8226 25.2601 73.4408 25.7423 74.2103 26.0838L74.4942 25.4439ZM72.9364 24.2241C72.5677 23.7094 72.3558 23.109 72.3061 22.4126L71.6079 22.4624C71.6661 23.2774 71.9175 24.0039 72.3674 24.6318L72.9364 24.2241ZM71.957 22.7875H73.6843V22.0875H71.957V22.7875ZM73.3356 22.4676C73.3861 23.0537 73.5863 23.5602 73.9497 23.9663L74.4714 23.4996C74.223 23.222 74.0724 22.8649 74.033 22.4074L73.3356 22.4676ZM73.953 23.9699C74.3056 24.3532 74.747 24.6351 75.2682 24.8187L75.5009 24.1585C75.0775 24.0093 74.7362 23.7874 74.4681 23.496L73.953 23.9699ZM75.272 24.82C75.7881 24.9953 76.3393 25.0815 76.9229 25.0815V24.3815C76.409 24.3815 75.9345 24.3058 75.4971 24.1572L75.272 24.82ZM76.9229 25.0815C77.5996 25.0815 78.2189 24.9719 78.7754 24.7453L78.5115 24.097C78.0514 24.2843 77.5237 24.3815 76.9229 24.3815V25.0815ZM78.7778 24.7443C79.3323 24.5137 79.786 24.1883 80.1251 23.7619L79.5772 23.3262C79.3225 23.6465 78.9711 23.9058 78.509 24.098L78.7778 24.7443ZM80.1264 23.7603C80.4742 23.3176 80.6465 22.7997 80.6465 22.2216H79.9465C79.9465 22.651 79.8219 23.0148 79.576 23.3278L80.1264 23.7603ZM80.6465 22.2216C80.6465 21.6942 80.4972 21.2325 80.1733 20.8688L79.6505 21.3343C79.8393 21.5463 79.9465 21.8314 79.9465 22.2216H80.6465ZM80.1733 20.8688C79.8772 20.5364 79.495 20.2749 79.0381 20.0783L78.7615 20.7214C79.1413 20.8847 79.4338 21.091 79.6505 21.3343L80.1733 20.8688ZM79.0381 20.0783C78.6038 19.8916 78.1367 19.7291 77.6373 19.5903L77.45 20.2648C77.9221 20.3959 78.3591 20.5483 78.7615 20.7214L79.0381 20.0783ZM77.6398 19.591L75.9395 19.1052L75.7472 19.7783L77.4475 20.2641L77.6398 19.591ZM75.9401 19.1054C74.8966 18.8054 74.0949 18.3839 73.5156 17.8543L73.0433 18.3709C73.7234 18.9927 74.631 19.4574 75.7466 19.7781L75.9401 19.1054ZM73.5156 17.8543C72.9655 17.3513 72.6848 16.6951 72.6848 15.8523H71.9848C71.9848 16.8716 72.3339 17.7223 73.0433 18.3709L73.5156 17.8543ZM72.6848 15.8523C72.6848 15.1457 72.8744 14.5445 73.2455 14.0339L72.6792 13.6224C72.2136 14.2632 71.9848 15.0115 71.9848 15.8523H72.6848ZM73.2452 14.0342C73.6291 13.5073 74.146 13.0945 74.8061 12.7979L74.5191 12.1594C73.7578 12.5016 73.1411 12.9884 72.6794 13.622L73.2452 14.0342ZM74.807 12.7975C75.4715 12.4966 76.2199 12.3429 77.0578 12.3429V11.6429C76.1326 11.6429 75.2841 11.8131 74.5182 12.1599L74.807 12.7975ZM77.0578 12.3429C77.9063 12.3429 78.6466 12.4949 79.2863 12.7898L79.5794 12.1541C78.8336 11.8103 77.9906 11.6429 77.0578 11.6429V12.3429ZM79.288 12.7906C79.9328 13.0837 80.432 13.4798 80.7975 13.9752L81.3608 13.5596C80.9166 12.9575 80.3183 12.49 79.5777 12.1533L79.288 12.7906ZM80.7986 13.9767C81.1643 14.4669 81.3568 15.0205 81.3771 15.6476L82.0767 15.6251C82.0519 14.8578 81.8127 14.1654 81.3597 13.5581L80.7986 13.9767ZM81.7269 15.2864H80.1076V15.9864H81.7269V15.2864Z" fill="#391561" mask="url(#path-2-outside-1_538_576)"/>
</svg>
