<svg width="87" height="40" viewBox="0 0 87 40" fill="none" xmlns="http://www.w3.org/2000/svg">
<path d="M0 20C0 8.9543 8.9543 0 20 0H67C78.0457 0 87 8.9543 87 20V20.6452V20.6452C87 31.3345 78.3345 40 67.6452 40H20C8.9543 40 0 31.0457 0 20V20Z" fill="#B3B3B3"/>
<path d="M0 20C0 8.9543 8.9543 0 20 0H67C78.0457 0 87 8.9543 87 20V20.6452V20.6452C87 31.3345 78.3345 40 67.6452 40H20C8.9543 40 0 31.0457 0 20V20Z" fill="#B3B3B3"/>
<path d="M0 20C0 8.9543 8.9543 0 20 0H67C78.0457 0 87 8.9543 87 20V20.6452V20.6452C87 31.3345 78.3345 40 67.6452 40H20C8.9543 40 0 31.0457 0 20V20Z" fill="white"/>
<mask id="path-2-outside-1_538_575" maskUnits="userSpaceOnUse" x="4" y="10" width="79" height="16" fill="black">
<rect fill="white" x="4" y="10" width="79" height="16"/>
<path d="M6.42267 25H4.66841L9.74228 11.1818H11.4695L16.5434 25H14.7892L10.6599 13.3679H10.5519L6.42267 25ZM7.0704 19.6023H14.1414V21.0866H7.0704V19.6023ZM18.6958 25V11.1818H23.3648C24.4443 11.1818 25.3305 11.3662 26.0232 11.7351C26.7159 12.0994 27.2287 12.601 27.5615 13.2397C27.8944 13.8784 28.0608 14.6049 28.0608 15.419C28.0608 16.2332 27.8944 16.9551 27.5615 17.5849C27.2287 18.2146 26.7181 18.7094 26.0299 19.0692C25.3417 19.4246 24.4623 19.6023 23.3918 19.6023H19.6134V18.0909H23.3378C24.0755 18.0909 24.6692 17.983 25.1191 17.767C25.5734 17.5511 25.9017 17.2453 26.1041 16.8494C26.3111 16.4491 26.4145 15.9723 26.4145 15.419C26.4145 14.8658 26.3111 14.3822 26.1041 13.9684C25.8972 13.5546 25.5666 13.2352 25.1123 13.0103C24.658 12.7809 24.0575 12.6662 23.3108 12.6662H20.3691V25H18.6958ZM25.2 18.7926L28.6006 25H26.6574L23.3108 18.7926H25.2ZM30.0934 12.6662V11.1818H40.457V12.6662H36.1119V25H34.4386V12.6662H30.0934ZM44.7128 11.1818V25H43.0395V11.1818H44.7128ZM55.6246 14.6364C55.5437 13.9527 55.2153 13.4219 54.6396 13.044C54.0638 12.6662 53.3576 12.4773 52.521 12.4773C51.9092 12.4773 51.3739 12.5762 50.9151 12.7741C50.4608 12.9721 50.1055 13.2442 49.8491 13.5906C49.5972 13.9369 49.4712 14.3305 49.4712 14.7713C49.4712 15.1402 49.5589 15.4573 49.7344 15.7227C49.9143 15.9835 50.1437 16.2017 50.4226 16.3771C50.7015 16.5481 50.9938 16.6897 51.2997 16.8022C51.6056 16.9102 51.8867 16.9979 52.1431 17.0653L53.5465 17.4432C53.9064 17.5376 54.3067 17.6681 54.7475 17.8345C55.1928 18.0009 55.6179 18.2281 56.0227 18.516C56.4321 18.7994 56.7694 19.1637 57.0348 19.609C57.3002 20.0543 57.4329 20.6009 57.4329 21.2486C57.4329 21.9953 57.2372 22.67 56.8459 23.2727C56.459 23.8755 55.8923 24.3545 55.1456 24.7099C54.4034 25.0652 53.5015 25.2429 52.44 25.2429C51.4504 25.2429 50.5935 25.0832 49.8693 24.7638C49.1496 24.4445 48.5829 23.9992 48.169 23.4279C47.7597 22.8567 47.5281 22.1932 47.4741 21.4375H49.2013C49.2463 21.9593 49.4218 22.3911 49.7276 22.733C50.038 23.0703 50.4293 23.3222 50.9016 23.4886C51.3784 23.6506 51.8912 23.7315 52.44 23.7315C53.0787 23.7315 53.6522 23.6281 54.1605 23.4212C54.6688 23.2098 55.0714 22.9174 55.3683 22.544C55.6651 22.1662 55.8136 21.7254 55.8136 21.2216C55.8136 20.7628 55.6854 20.3894 55.429 20.1016C55.1726 19.8137 54.8352 19.5798 54.4169 19.3999C53.9986 19.2199 53.5465 19.0625 53.0607 18.9276L51.3604 18.4418C50.2809 18.1314 49.4263 17.6883 48.7965 17.1126C48.1668 16.5368 47.8519 15.7834 47.8519 14.8523C47.8519 14.0786 48.0611 13.4039 48.4794 12.8281C48.9022 12.2479 49.469 11.7981 50.1797 11.4787C50.8949 11.1548 51.6933 10.9929 52.5749 10.9929C53.4656 10.9929 54.2572 11.1526 54.9499 11.4719C55.6426 11.7868 56.1914 12.2186 56.5962 12.7674C57.0056 13.3162 57.2215 13.9392 57.244 14.6364H55.6246ZM59.4284 12.6662V11.1818H69.792V12.6662H65.4468V25H63.7735V12.6662H59.4284ZM79.9313 14.6364C79.8503 13.9527 79.522 13.4219 78.9462 13.044C78.3704 12.6662 77.6642 12.4773 76.8276 12.4773C76.2159 12.4773 75.6806 12.5762 75.2218 12.7741C74.7675 12.9721 74.4121 13.2442 74.1557 13.5906C73.9038 13.9369 73.7779 14.3305 73.7779 14.7713C73.7779 15.1402 73.8656 15.4573 74.041 15.7227C74.2209 15.9835 74.4503 16.2017 74.7292 16.3771C75.0081 16.5481 75.3005 16.6897 75.6064 16.8022C75.9122 16.9102 76.1934 16.9979 76.4498 17.0653L77.8532 17.4432C78.213 17.5376 78.6133 17.6681 79.0542 17.8345C79.4995 18.0009 79.9245 18.2281 80.3294 18.516C80.7387 18.7994 81.0761 19.1637 81.3414 19.609C81.6068 20.0543 81.7395 20.6009 81.7395 21.2486C81.7395 21.9953 81.5439 22.67 81.1525 23.2727C80.7657 23.8755 80.1989 24.3545 79.4522 24.7099C78.7101 25.0652 77.8082 25.2429 76.7466 25.2429C75.757 25.2429 74.9002 25.0832 74.176 24.7638C73.4563 24.4445 72.8895 23.9992 72.4757 23.4279C72.0663 22.8567 71.8347 22.1932 71.7807 21.4375H73.508C73.553 21.9593 73.7284 22.3911 74.0343 22.733C74.3446 23.0703 74.736 23.3222 75.2083 23.4886C75.6851 23.6506 76.1979 23.7315 76.7466 23.7315C77.3854 23.7315 77.9589 23.6281 78.4672 23.4212C78.9754 23.2098 79.378 22.9174 79.6749 22.544C79.9718 22.1662 80.1202 21.7254 80.1202 21.2216C80.1202 20.7628 79.992 20.3894 79.7356 20.1016C79.4792 19.8137 79.1419 19.5798 78.7235 19.3999C78.3052 19.2199 77.8532 19.0625 77.3674 18.9276L75.6671 18.4418C74.5875 18.1314 73.7329 17.6883 73.1032 17.1126C72.4734 16.5368 72.1586 15.7834 72.1586 14.8523C72.1586 14.0786 72.3677 13.4039 72.786 12.8281C73.2089 12.2479 73.7756 11.7981 74.4863 11.4787C75.2015 11.1548 75.9999 10.9929 76.8816 10.9929C77.7722 10.9929 78.5639 11.1526 79.2566 11.4719C79.9493 11.7868 80.498 12.2186 80.9029 12.7674C81.3122 13.3162 81.5281 13.9392 81.5506 14.6364H79.9313Z"/>
</mask>
<path d="M6.42267 25H4.66841L9.74228 11.1818H11.4695L16.5434 25H14.7892L10.6599 13.3679H10.5519L6.42267 25ZM7.0704 19.6023H14.1414V21.0866H7.0704V19.6023ZM18.6958 25V11.1818H23.3648C24.4443 11.1818 25.3305 11.3662 26.0232 11.7351C26.7159 12.0994 27.2287 12.601 27.5615 13.2397C27.8944 13.8784 28.0608 14.6049 28.0608 15.419C28.0608 16.2332 27.8944 16.9551 27.5615 17.5849C27.2287 18.2146 26.7181 18.7094 26.0299 19.0692C25.3417 19.4246 24.4623 19.6023 23.3918 19.6023H19.6134V18.0909H23.3378C24.0755 18.0909 24.6692 17.983 25.1191 17.767C25.5734 17.5511 25.9017 17.2453 26.1041 16.8494C26.3111 16.4491 26.4145 15.9723 26.4145 15.419C26.4145 14.8658 26.3111 14.3822 26.1041 13.9684C25.8972 13.5546 25.5666 13.2352 25.1123 13.0103C24.658 12.7809 24.0575 12.6662 23.3108 12.6662H20.3691V25H18.6958ZM25.2 18.7926L28.6006 25H26.6574L23.3108 18.7926H25.2ZM30.0934 12.6662V11.1818H40.457V12.6662H36.1119V25H34.4386V12.6662H30.0934ZM44.7128 11.1818V25H43.0395V11.1818H44.7128ZM55.6246 14.6364C55.5437 13.9527 55.2153 13.4219 54.6396 13.044C54.0638 12.6662 53.3576 12.4773 52.521 12.4773C51.9092 12.4773 51.3739 12.5762 50.9151 12.7741C50.4608 12.9721 50.1055 13.2442 49.8491 13.5906C49.5972 13.9369 49.4712 14.3305 49.4712 14.7713C49.4712 15.1402 49.5589 15.4573 49.7344 15.7227C49.9143 15.9835 50.1437 16.2017 50.4226 16.3771C50.7015 16.5481 50.9938 16.6897 51.2997 16.8022C51.6056 16.9102 51.8867 16.9979 52.1431 17.0653L53.5465 17.4432C53.9064 17.5376 54.3067 17.6681 54.7475 17.8345C55.1928 18.0009 55.6179 18.2281 56.0227 18.516C56.4321 18.7994 56.7694 19.1637 57.0348 19.609C57.3002 20.0543 57.4329 20.6009 57.4329 21.2486C57.4329 21.9953 57.2372 22.67 56.8459 23.2727C56.459 23.8755 55.8923 24.3545 55.1456 24.7099C54.4034 25.0652 53.5015 25.2429 52.44 25.2429C51.4504 25.2429 50.5935 25.0832 49.8693 24.7638C49.1496 24.4445 48.5829 23.9992 48.169 23.4279C47.7597 22.8567 47.5281 22.1932 47.4741 21.4375H49.2013C49.2463 21.9593 49.4218 22.3911 49.7276 22.733C50.038 23.0703 50.4293 23.3222 50.9016 23.4886C51.3784 23.6506 51.8912 23.7315 52.44 23.7315C53.0787 23.7315 53.6522 23.6281 54.1605 23.4212C54.6688 23.2098 55.0714 22.9174 55.3683 22.544C55.6651 22.1662 55.8136 21.7254 55.8136 21.2216C55.8136 20.7628 55.6854 20.3894 55.429 20.1016C55.1726 19.8137 54.8352 19.5798 54.4169 19.3999C53.9986 19.2199 53.5465 19.0625 53.0607 18.9276L51.3604 18.4418C50.2809 18.1314 49.4263 17.6883 48.7965 17.1126C48.1668 16.5368 47.8519 15.7834 47.8519 14.8523C47.8519 14.0786 48.0611 13.4039 48.4794 12.8281C48.9022 12.2479 49.469 11.7981 50.1797 11.4787C50.8949 11.1548 51.6933 10.9929 52.5749 10.9929C53.4656 10.9929 54.2572 11.1526 54.9499 11.4719C55.6426 11.7868 56.1914 12.2186 56.5962 12.7674C57.0056 13.3162 57.2215 13.9392 57.244 14.6364H55.6246ZM59.4284 12.6662V11.1818H69.792V12.6662H65.4468V25H63.7735V12.6662H59.4284ZM79.9313 14.6364C79.8503 13.9527 79.522 13.4219 78.9462 13.044C78.3704 12.6662 77.6642 12.4773 76.8276 12.4773C76.2159 12.4773 75.6806 12.5762 75.2218 12.7741C74.7675 12.9721 74.4121 13.2442 74.1557 13.5906C73.9038 13.9369 73.7779 14.3305 73.7779 14.7713C73.7779 15.1402 73.8656 15.4573 74.041 15.7227C74.2209 15.9835 74.4503 16.2017 74.7292 16.3771C75.0081 16.5481 75.3005 16.6897 75.6064 16.8022C75.9122 16.9102 76.1934 16.9979 76.4498 17.0653L77.8532 17.4432C78.213 17.5376 78.6133 17.6681 79.0542 17.8345C79.4995 18.0009 79.9245 18.2281 80.3294 18.516C80.7387 18.7994 81.0761 19.1637 81.3414 19.609C81.6068 20.0543 81.7395 20.6009 81.7395 21.2486C81.7395 21.9953 81.5439 22.67 81.1525 23.2727C80.7657 23.8755 80.1989 24.3545 79.4522 24.7099C78.7101 25.0652 77.8082 25.2429 76.7466 25.2429C75.757 25.2429 74.9002 25.0832 74.176 24.7638C73.4563 24.4445 72.8895 23.9992 72.4757 23.4279C72.0663 22.8567 71.8347 22.1932 71.7807 21.4375H73.508C73.553 21.9593 73.7284 22.3911 74.0343 22.733C74.3446 23.0703 74.736 23.3222 75.2083 23.4886C75.6851 23.6506 76.1979 23.7315 76.7466 23.7315C77.3854 23.7315 77.9589 23.6281 78.4672 23.4212C78.9754 23.2098 79.378 22.9174 79.6749 22.544C79.9718 22.1662 80.1202 21.7254 80.1202 21.2216C80.1202 20.7628 79.992 20.3894 79.7356 20.1016C79.4792 19.8137 79.1419 19.5798 78.7235 19.3999C78.3052 19.2199 77.8532 19.0625 77.3674 18.9276L75.6671 18.4418C74.5875 18.1314 73.7329 17.6883 73.1032 17.1126C72.4734 16.5368 72.1586 15.7834 72.1586 14.8523C72.1586 14.0786 72.3677 13.4039 72.786 12.8281C73.2089 12.2479 73.7756 11.7981 74.4863 11.4787C75.2015 11.1548 75.9999 10.9929 76.8816 10.9929C77.7722 10.9929 78.5639 11.1526 79.2566 11.4719C79.9493 11.7868 80.498 12.2186 80.9029 12.7674C81.3122 13.3162 81.5281 13.9392 81.5506 14.6364H79.9313Z" fill="#391561"/>
<path d="M6.42267 25V25.35H6.66983L6.75251 25.1171L6.42267 25ZM4.66841 25L4.33986 24.8794L4.16705 25.35H4.66841V25ZM9.74228 11.1818V10.8318H9.49794L9.41373 11.0612L9.74228 11.1818ZM11.4695 11.1818L11.7981 11.0612L11.7139 10.8318H11.4695V11.1818ZM16.5434 25V25.35H17.0448L16.872 24.8794L16.5434 25ZM14.7892 25L14.4593 25.1171L14.542 25.35H14.7892V25ZM10.6599 13.3679L10.9897 13.2508L10.907 13.0179H10.6599V13.3679ZM10.5519 13.3679V13.0179H10.3048L10.2221 13.2508L10.5519 13.3679ZM7.0704 19.6023V19.2523H6.7204V19.6023H7.0704ZM14.1414 19.6023H14.4914V19.2523H14.1414V19.6023ZM14.1414 21.0866V21.4366H14.4914V21.0866H14.1414ZM7.0704 21.0866H6.7204V21.4366H7.0704V21.0866ZM6.42267 24.65H4.66841V25.35H6.42267V24.65ZM4.99696 25.1206L10.0708 11.3025L9.41373 11.0612L4.33986 24.8794L4.99696 25.1206ZM9.74228 11.5318H11.4695V10.8318H9.74228V11.5318ZM11.141 11.3025L16.2149 25.1206L16.872 24.8794L11.7981 11.0612L11.141 11.3025ZM16.5434 24.65H14.7892V25.35H16.5434V24.65ZM15.119 24.8829L10.9897 13.2508L10.3301 13.485L14.4593 25.1171L15.119 24.8829ZM10.6599 13.0179H10.5519V13.7179H10.6599V13.0179ZM10.2221 13.2508L6.09284 24.8829L6.75251 25.1171L10.8818 13.485L10.2221 13.2508ZM7.0704 19.9523H14.1414V19.2523H7.0704V19.9523ZM13.7914 19.6023V21.0866H14.4914V19.6023H13.7914ZM14.1414 20.7366H7.0704V21.4366H14.1414V20.7366ZM7.4204 21.0866V19.6023H6.7204V21.0866H7.4204ZM18.6958 25H18.3458V25.35H18.6958V25ZM18.6958 11.1818V10.8318H18.3458V11.1818H18.6958ZM26.0232 11.7351L25.8587 12.044L25.8602 12.0448L26.0232 11.7351ZM27.5615 13.2397L27.2511 13.4015V13.4015L27.5615 13.2397ZM27.5615 17.5849L27.2521 17.4213L27.5615 17.5849ZM26.0299 19.0692L26.1905 19.3802L26.1921 19.3794L26.0299 19.0692ZM19.6134 19.6023H19.2634V19.9523H19.6134V19.6023ZM19.6134 18.0909V17.7409H19.2634V18.0909H19.6134ZM25.1191 17.767L24.9688 17.4509L24.9676 17.4515L25.1191 17.767ZM26.1041 16.8494L25.7932 16.6887L25.7925 16.6901L26.1041 16.8494ZM25.1123 13.0103L24.9545 13.3227L24.957 13.324L25.1123 13.0103ZM20.3691 12.6662V12.3162H20.0191V12.6662H20.3691ZM20.3691 25V25.35H20.7191V25H20.3691ZM25.2 18.7926L25.507 18.6245L25.4074 18.4426H25.2V18.7926ZM28.6006 25V25.35H29.1914L28.9075 24.8318L28.6006 25ZM26.6574 25L26.3493 25.1661L26.4485 25.35H26.6574V25ZM23.3108 18.7926V18.4426H22.7245L23.0027 18.9587L23.3108 18.7926ZM19.0458 25V11.1818H18.3458V25H19.0458ZM18.6958 11.5318H23.3648V10.8318H18.6958V11.5318ZM23.3648 11.5318C24.4074 11.5318 25.232 11.7103 25.8587 12.044L26.1877 11.4262C25.4289 11.0221 24.4812 10.8318 23.3648 10.8318V11.5318ZM25.8602 12.0448C26.4956 12.379 26.9541 12.8314 27.2511 13.4015L27.8719 13.078C27.5032 12.3705 26.9361 11.8198 26.1861 11.4253L25.8602 12.0448ZM27.2511 13.4015C27.5547 13.984 27.7108 14.6538 27.7108 15.419H28.4108C28.4108 14.556 28.234 13.7728 27.8719 13.078L27.2511 13.4015ZM27.7108 15.419C27.7108 16.1844 27.5547 16.8488 27.2521 17.4213L27.871 17.7484C28.2341 17.0615 28.4108 16.282 28.4108 15.419H27.7108ZM27.2521 17.4213C26.9553 17.9827 26.4991 18.429 25.8677 18.7591L26.1921 19.3794C26.9372 18.9898 27.502 18.4465 27.871 17.7484L27.2521 17.4213ZM25.8693 18.7583C25.2461 19.0801 24.4267 19.2523 23.3918 19.2523V19.9523C24.498 19.9523 25.4374 19.7691 26.1905 19.3802L25.8693 18.7583ZM23.3918 19.2523H19.6134V19.9523H23.3918V19.2523ZM19.9634 19.6023V18.0909H19.2634V19.6023H19.9634ZM19.6134 18.4409H23.3378V17.7409H19.6134V18.4409ZM23.3378 18.4409C24.1049 18.4409 24.7563 18.3294 25.2705 18.0826L24.9676 17.4515C24.5822 17.6365 24.0461 17.7409 23.3378 17.7409V18.4409ZM25.2693 18.0832C25.7836 17.8387 26.1737 17.4821 26.4158 17.0088L25.7925 16.6901C25.6297 17.0084 25.3631 17.2635 24.9688 17.4509L25.2693 18.0832ZM26.4151 17.0101C26.6529 16.5501 26.7645 16.0157 26.7645 15.419H26.0645C26.0645 15.9289 25.9692 16.3481 25.7932 16.6887L26.4151 17.0101ZM26.7645 15.419C26.7645 14.822 26.6527 14.2829 26.4172 13.8119L25.7911 14.1249C25.9694 14.4815 26.0645 14.9096 26.0645 15.419H26.7645ZM26.4172 13.8119C26.1729 13.3233 25.7833 12.9519 25.2676 12.6966L24.957 13.324C25.3499 13.5185 25.6215 13.7858 25.7911 14.1249L26.4172 13.8119ZM25.2701 12.6979C24.7494 12.4349 24.0886 12.3162 23.3108 12.3162V13.0162C24.0264 13.0162 24.5666 13.1268 24.9545 13.3227L25.2701 12.6979ZM23.3108 12.3162H20.3691V13.0162H23.3108V12.3162ZM20.0191 12.6662V25H20.7191V12.6662H20.0191ZM20.3691 24.65H18.6958V25.35H20.3691V24.65ZM24.8931 18.9608L28.2936 25.1682L28.9075 24.8318L25.507 18.6245L24.8931 18.9608ZM28.6006 24.65H26.6574V25.35H28.6006V24.65ZM26.9655 24.8339L23.6189 18.6265L23.0027 18.9587L26.3493 25.1661L26.9655 24.8339ZM23.3108 19.1426H25.2V18.4426H23.3108V19.1426ZM30.0934 12.6662H29.7434V13.0162H30.0934V12.6662ZM30.0934 11.1818V10.8318H29.7434V11.1818H30.0934ZM40.457 11.1818H40.807V10.8318H40.457V11.1818ZM40.457 12.6662V13.0162H40.807V12.6662H40.457ZM36.1119 12.6662V12.3162H35.7619V12.6662H36.1119ZM36.1119 25V25.35H36.4619V25H36.1119ZM34.4386 25H34.0886V25.35H34.4386V25ZM34.4386 12.6662H34.7886V12.3162H34.4386V12.6662ZM30.4434 12.6662V11.1818H29.7434V12.6662H30.4434ZM30.0934 11.5318H40.457V10.8318H30.0934V11.5318ZM40.107 11.1818V12.6662H40.807V11.1818H40.107ZM40.457 12.3162H36.1119V13.0162H40.457V12.3162ZM35.7619 12.6662V25H36.4619V12.6662H35.7619ZM36.1119 24.65H34.4386V25.35H36.1119V24.65ZM34.7886 25V12.6662H34.0886V25H34.7886ZM34.4386 12.3162H30.0934V13.0162H34.4386V12.3162ZM44.7128 11.1818H45.0628V10.8318H44.7128V11.1818ZM44.7128 25V25.35H45.0628V25H44.7128ZM43.0395 25H42.6895V25.35H43.0395V25ZM43.0395 11.1818V10.8318H42.6895V11.1818H43.0395ZM44.3628 11.1818V25H45.0628V11.1818H44.3628ZM44.7128 24.65H43.0395V25.35H44.7128V24.65ZM43.3895 25V11.1818H42.6895V25H43.3895ZM43.0395 11.5318H44.7128V10.8318H43.0395V11.5318ZM55.6246 14.6364L55.2771 14.6775L55.3136 14.9864H55.6246V14.6364ZM54.6396 13.044L54.4475 13.3367V13.3367L54.6396 13.044ZM50.9151 12.7741L50.7765 12.4528L50.7753 12.4533L50.9151 12.7741ZM49.8491 13.5906L49.5678 13.3823L49.566 13.3847L49.8491 13.5906ZM49.7344 15.7227L49.4423 15.9157L49.4463 15.9214L49.7344 15.7227ZM50.4226 16.3771L50.2362 16.6734L50.2397 16.6755L50.4226 16.3771ZM51.2997 16.8022L51.1789 17.1307L51.1832 17.1322L51.2997 16.8022ZM52.1431 17.0653L52.2341 16.7274L52.2322 16.7269L52.1431 17.0653ZM53.5465 17.4432L53.4555 17.7812L53.4577 17.7817L53.5465 17.4432ZM54.7475 17.8345L54.6239 18.162L54.625 18.1624L54.7475 17.8345ZM56.0227 18.516L55.8199 18.8012L55.8235 18.8037L56.0227 18.516ZM57.0348 19.609L57.3355 19.4298L57.0348 19.609ZM56.8459 23.2727L56.5523 23.0821L56.5513 23.0837L56.8459 23.2727ZM55.1456 24.7099L54.9952 24.3938L54.9945 24.3942L55.1456 24.7099ZM49.8693 24.7638L49.7274 25.0838L49.7281 25.0841L49.8693 24.7638ZM48.169 23.4279L47.8845 23.6318L47.8856 23.6332L48.169 23.4279ZM47.4741 21.4375V21.0875H47.0982L47.125 21.4624L47.4741 21.4375ZM49.2014 21.4375L49.5501 21.4074L49.5225 21.0875H49.2014V21.4375ZM49.7276 22.733L49.4668 22.9664L49.4701 22.9699L49.7276 22.733ZM50.9016 23.4886L50.7853 23.8188L50.7891 23.82L50.9016 23.4886ZM54.1605 23.4212L54.2925 23.7453L54.2949 23.7443L54.1605 23.4212ZM55.3683 22.544L55.6422 22.7619L55.6435 22.7603L55.3683 22.544ZM55.429 20.1016L55.6903 19.8688L55.429 20.1016ZM54.4169 19.3999L54.2786 19.7214V19.7214L54.4169 19.3999ZM53.0607 18.9276L52.9646 19.2641L52.967 19.2648L53.0607 18.9276ZM51.3604 18.4418L51.2637 18.7781L51.2643 18.7783L51.3604 18.4418ZM48.7965 17.1126L48.5604 17.3709L48.7965 17.1126ZM48.4794 12.8281L48.1965 12.622L48.1963 12.6224L48.4794 12.8281ZM50.1797 11.4787L50.3231 11.7979L50.3241 11.7975L50.1797 11.4787ZM54.9499 11.4719L54.8034 11.7898L54.8051 11.7906L54.9499 11.4719ZM56.5962 12.7674L56.3146 12.9752L56.3157 12.9767L56.5962 12.7674ZM57.244 14.6364V14.9864H57.6054L57.5938 14.6251L57.244 14.6364ZM55.9722 14.5952C55.8791 13.8088 55.4938 13.186 54.8316 12.7514L54.4475 13.3367C54.9369 13.6578 55.2083 14.0965 55.2771 14.6775L55.9722 14.5952ZM54.8316 12.7514C54.1876 12.3288 53.411 12.1273 52.521 12.1273V12.8273C53.3042 12.8273 53.94 13.0036 54.4475 13.3367L54.8316 12.7514ZM52.521 12.1273C51.872 12.1273 51.2877 12.2322 50.7765 12.4528L51.0538 13.0955C51.4601 12.9202 51.9465 12.8273 52.521 12.8273V12.1273ZM50.7753 12.4533C50.2734 12.672 49.8658 12.9797 49.5678 13.3823L50.1304 13.7988C50.3451 13.5087 50.6483 13.2722 51.0549 13.095L50.7753 12.4533ZM49.566 13.3847C49.2693 13.7927 49.1212 14.2588 49.1212 14.7713H49.8212C49.8212 14.4021 49.9251 14.0811 50.1321 13.7964L49.566 13.3847ZM49.1212 14.7713C49.1212 15.1976 49.2234 15.5843 49.4424 15.9157L50.0264 15.5297C49.8945 15.3302 49.8212 15.0827 49.8212 14.7713H49.1212ZM49.4463 15.9214C49.6542 16.2229 49.9188 16.4737 50.2362 16.6734L50.6089 16.0809C50.3686 15.9297 50.1744 15.7442 50.0225 15.5239L49.4463 15.9214ZM50.2397 16.6755C50.5382 16.8585 50.8513 17.0103 51.1789 17.1307L51.4205 16.4737C51.1363 16.3692 50.8648 16.2376 50.6055 16.0787L50.2397 16.6755ZM51.1832 17.1322C51.4962 17.2427 51.7866 17.3334 52.054 17.4038L52.2322 16.7269C51.9868 16.6623 51.715 16.5776 51.4162 16.4722L51.1832 17.1322ZM52.0521 17.4033L53.4555 17.7811L53.6375 17.1052L52.2341 16.7274L52.0521 17.4033ZM53.4577 17.7817C53.8031 17.8724 54.1916 17.9988 54.6239 18.162L54.8711 17.5071C54.4218 17.3374 54.0096 17.2029 53.6354 17.1047L53.4577 17.7817ZM54.625 18.1624C55.0405 18.3177 55.4388 18.5302 55.8199 18.8012L56.2256 18.2307C55.797 17.926 55.3451 17.6842 54.87 17.5067L54.625 18.1624ZM55.8235 18.8037C56.1899 19.0574 56.4933 19.3841 56.7341 19.7882L57.3355 19.4298C57.0455 18.9433 56.6742 18.5413 56.222 18.2282L55.8235 18.8037ZM56.7341 19.7882C56.9601 20.1673 57.0829 20.6483 57.0829 21.2486H57.7829C57.7829 20.5534 57.6403 19.9413 57.3355 19.4298L56.7341 19.7882ZM57.0829 21.2486C57.0829 21.9304 56.9053 22.5384 56.5523 23.0821L57.1394 23.4633C57.5691 22.8015 57.7829 22.0601 57.7829 21.2486H57.0829ZM56.5513 23.0837C56.2049 23.6234 55.6922 24.0621 54.9952 24.3938L55.296 25.0259C56.0923 24.6469 56.7132 24.1275 57.1404 23.4618L56.5513 23.0837ZM54.9945 24.3942C54.3111 24.7214 53.4639 24.8929 52.44 24.8929V25.5929C53.5392 25.5929 54.4957 25.4091 55.2967 25.0256L54.9945 24.3942ZM52.44 24.8929C51.4872 24.8929 50.6806 24.7391 50.0105 24.4436L49.7281 25.0841C50.5064 25.4273 51.4136 25.5929 52.44 25.5929V24.8929ZM50.0113 24.4439C49.3413 24.1466 48.826 23.7382 48.4525 23.2226L47.8856 23.6332C48.3397 24.2601 48.9579 24.7423 49.7274 25.0838L50.0113 24.4439ZM48.4535 23.2241C48.0848 22.7094 47.8729 22.109 47.8232 21.4126L47.125 21.4624C47.1832 22.2774 47.4346 23.0039 47.8845 23.6318L48.4535 23.2241ZM47.4741 21.7875H49.2014V21.0875H47.4741V21.7875ZM48.8526 21.4676C48.9032 22.0537 49.1034 22.5602 49.4668 22.9663L49.9885 22.4996C49.7401 22.222 49.5895 21.8649 49.5501 21.4074L48.8526 21.4676ZM49.4701 22.9699C49.8227 23.3532 50.2641 23.6351 50.7853 23.8187L51.018 23.1585C50.5945 23.0093 50.2533 22.7874 49.9852 22.496L49.4701 22.9699ZM50.7891 23.82C51.3052 23.9953 51.8564 24.0815 52.44 24.0815V23.3815C51.9261 23.3815 51.4516 23.3058 51.0142 23.1572L50.7891 23.82ZM52.44 24.0815C53.1166 24.0815 53.736 23.9719 54.2925 23.7453L54.0285 23.097C53.5685 23.2843 53.0408 23.3815 52.44 23.3815V24.0815ZM54.2949 23.7443C54.8494 23.5137 55.3031 23.1883 55.6422 22.7619L55.0943 22.3262C54.8396 22.6465 54.4882 22.9058 54.0261 23.098L54.2949 23.7443ZM55.6435 22.7603C55.9913 22.3176 56.1636 21.7997 56.1636 21.2216H55.4636C55.4636 21.651 55.339 22.0148 55.093 22.3278L55.6435 22.7603ZM56.1636 21.2216C56.1636 20.6942 56.0143 20.2325 55.6903 19.8688L55.1676 20.3343C55.3564 20.5463 55.4636 20.8314 55.4636 21.2216H56.1636ZM55.6903 19.8688C55.3943 19.5364 55.0121 19.2749 54.5552 19.0783L54.2786 19.7214C54.6584 19.8847 54.9509 20.091 55.1676 20.3343L55.6903 19.8688ZM54.5552 19.0783C54.1209 18.8916 53.6538 18.7291 53.1544 18.5903L52.967 19.2648C53.4392 19.3959 53.8762 19.5483 54.2786 19.7214L54.5552 19.0783ZM53.1569 18.591L51.4566 18.1052L51.2643 18.7783L52.9646 19.2641L53.1569 18.591ZM51.4571 18.1054C50.4137 17.8054 49.612 17.3839 49.0327 16.8543L48.5604 17.3709C49.2405 17.9927 50.1481 18.4574 51.2637 18.7781L51.4571 18.1054ZM49.0327 16.8543C48.4826 16.3513 48.2019 15.6951 48.2019 14.8523H47.5019C47.5019 15.8716 47.851 16.7223 48.5604 17.3709L49.0327 16.8543ZM48.2019 14.8523C48.2019 14.1457 48.3915 13.5445 48.7626 13.0339L48.1963 12.6224C47.7307 13.2632 47.5019 14.0115 47.5019 14.8523H48.2019ZM48.7623 13.0342C49.1462 12.5073 49.6631 12.0945 50.3231 11.7979L50.0362 11.1594C49.2749 11.5016 48.6582 11.9884 48.1965 12.622L48.7623 13.0342ZM50.3241 11.7975C50.9886 11.4966 51.737 11.3429 52.5749 11.3429V10.6429C51.6496 10.6429 50.8011 10.8131 50.0353 11.1599L50.3241 11.7975ZM52.5749 11.3429C53.4234 11.3429 54.1637 11.4949 54.8034 11.7898L55.0965 11.1541C54.3507 10.8103 53.5077 10.6429 52.5749 10.6429V11.3429ZM54.8051 11.7906C55.4499 12.0837 55.9491 12.4798 56.3146 12.9752L56.8779 12.5596C56.4337 11.9575 55.8354 11.49 55.0948 11.1533L54.8051 11.7906ZM56.3157 12.9767C56.6814 13.4669 56.8739 14.0205 56.8941 14.6476L57.5938 14.6251C57.569 13.8578 57.3298 13.1654 56.8768 12.5581L56.3157 12.9767ZM57.244 14.2864H55.6246V14.9864H57.244V14.2864ZM59.4284 12.6662H59.0784V13.0162H59.4284V12.6662ZM59.4284 11.1818V10.8318H59.0784V11.1818H59.4284ZM69.792 11.1818H70.142V10.8318H69.792V11.1818ZM69.792 12.6662V13.0162H70.142V12.6662H69.792ZM65.4468 12.6662V12.3162H65.0968V12.6662H65.4468ZM65.4468 25V25.35H65.7968V25H65.4468ZM63.7735 25H63.4235V25.35H63.7735V25ZM63.7735 12.6662H64.1235V12.3162H63.7735V12.6662ZM59.7784 12.6662V11.1818H59.0784V12.6662H59.7784ZM59.4284 11.5318H69.792V10.8318H59.4284V11.5318ZM69.442 11.1818V12.6662H70.142V11.1818H69.442ZM69.792 12.3162H65.4468V13.0162H69.792V12.3162ZM65.0968 12.6662V25H65.7968V12.6662H65.0968ZM65.4468 24.65H63.7735V25.35H65.4468V24.65ZM64.1235 25V12.6662H63.4235V25H64.1235ZM63.7735 12.3162H59.4284V13.0162H63.7735V12.3162ZM79.9313 14.6364L79.5837 14.6775L79.6203 14.9864H79.9313V14.6364ZM78.9462 13.044L78.7542 13.3367V13.3367L78.9462 13.044ZM75.2218 12.7741L75.0831 12.4528L75.082 12.4533L75.2218 12.7741ZM74.1557 13.5906L73.8744 13.3823L73.8727 13.3847L74.1557 13.5906ZM74.041 15.7227L73.749 15.9157L73.7529 15.9214L74.041 15.7227ZM74.7292 16.3771L74.5429 16.6734L74.5463 16.6755L74.7292 16.3771ZM75.6064 16.8022L75.4856 17.1307L75.4899 17.1322L75.6064 16.8022ZM76.4498 17.0653L76.5407 16.7274L76.5388 16.7269L76.4498 17.0653ZM77.8532 17.4432L77.7622 17.7812L77.7643 17.7817L77.8532 17.4432ZM79.0542 17.8345L78.9305 18.162L78.9316 18.1624L79.0542 17.8345ZM80.3294 18.516L80.1265 18.8012L80.1301 18.8037L80.3294 18.516ZM81.3414 19.609L81.6421 19.4298L81.3414 19.609ZM81.1525 23.2727L80.859 23.0821L80.858 23.0837L81.1525 23.2727ZM79.4522 24.7099L79.3018 24.3938L79.3011 24.3942L79.4522 24.7099ZM74.176 24.7638L74.034 25.0838L74.0347 25.0841L74.176 24.7638ZM72.4757 23.4279L72.1912 23.6318L72.1922 23.6332L72.4757 23.4279ZM71.7807 21.4375V21.0875H71.4048L71.4316 21.4624L71.7807 21.4375ZM73.508 21.4375L73.8567 21.4074L73.8291 21.0875H73.508V21.4375ZM74.0343 22.733L73.7734 22.9664L73.7767 22.9699L74.0343 22.733ZM75.2083 23.4886L75.0919 23.8188L75.0957 23.82L75.2083 23.4886ZM78.4672 23.4212L78.5991 23.7453L78.6016 23.7443L78.4672 23.4212ZM79.6749 22.544L79.9488 22.7619L79.9501 22.7603L79.6749 22.544ZM79.7356 20.1016L79.997 19.8688L79.7356 20.1016ZM78.7235 19.3999L78.5853 19.7214V19.7214L78.7235 19.3999ZM77.3674 18.9276L77.2712 19.2641L77.2737 19.2648L77.3674 18.9276ZM75.6671 18.4418L75.5704 18.7781L75.5709 18.7783L75.6671 18.4418ZM73.1032 17.1126L72.867 17.3709L73.1032 17.1126ZM72.786 12.8281L72.5032 12.622L72.5029 12.6224L72.786 12.8281ZM74.4863 11.4787L74.6298 11.7979L74.6307 11.7975L74.4863 11.4787ZM79.2566 11.4719L79.11 11.7898L79.1117 11.7906L79.2566 11.4719ZM80.9029 12.7674L80.6212 12.9752L80.6223 12.9767L80.9029 12.7674ZM81.5506 14.6364V14.9864H81.9121L81.9004 14.6251L81.5506 14.6364ZM80.2789 14.5952C80.1857 13.8088 79.8004 13.186 79.1382 12.7514L78.7542 13.3367C79.2435 13.6578 79.5149 14.0965 79.5837 14.6775L80.2789 14.5952ZM79.1382 12.7514C78.4942 12.3288 77.7177 12.1273 76.8276 12.1273V12.8273C77.6108 12.8273 78.2467 13.0036 78.7542 13.3367L79.1382 12.7514ZM76.8276 12.1273C76.1786 12.1273 75.5944 12.2322 75.0831 12.4528L75.3604 13.0955C75.7668 12.9202 76.2531 12.8273 76.8276 12.8273V12.1273ZM75.082 12.4533C74.58 12.672 74.1725 12.9797 73.8744 13.3823L74.437 13.7988C74.6518 13.5087 74.9549 13.2722 75.3616 13.095L75.082 12.4533ZM73.8727 13.3847C73.5759 13.7927 73.4279 14.2588 73.4279 14.7713H74.1279C74.1279 14.4021 74.2317 14.0811 74.4388 13.7964L73.8727 13.3847ZM73.4279 14.7713C73.4279 15.1976 73.53 15.5843 73.749 15.9157L74.333 15.5297C74.2012 15.3302 74.1279 15.0827 74.1279 14.7713H73.4279ZM73.7529 15.9214C73.9608 16.2229 74.2254 16.4737 74.5429 16.6734L74.9156 16.0809C74.6753 15.9297 74.481 15.7442 74.3291 15.5239L73.7529 15.9214ZM74.5463 16.6755C74.8448 16.8585 75.158 17.0103 75.4856 17.1307L75.7271 16.4737C75.443 16.3692 75.1714 16.2376 74.9121 16.0787L74.5463 16.6755ZM75.4899 17.1322C75.8029 17.2427 76.0933 17.3334 76.3607 17.4038L76.5388 16.7269C76.2934 16.6623 76.0216 16.5776 75.7228 16.4722L75.4899 17.1322ZM76.3588 17.4033L77.7622 17.7811L77.9442 17.1052L76.5407 16.7274L76.3588 17.4033ZM77.7643 17.7817C78.1098 17.8724 78.4983 17.9988 78.9305 18.162L79.1778 17.5071C78.7284 17.3374 78.3163 17.2029 77.942 17.1047L77.7643 17.7817ZM78.9316 18.1624C79.3472 18.3177 79.7454 18.5302 80.1265 18.8012L80.5322 18.2307C80.1037 17.926 79.6518 17.6842 79.1767 17.5067L78.9316 18.1624ZM80.1301 18.8037C80.4966 19.0574 80.8 19.3841 81.0408 19.7882L81.6421 19.4298C81.3521 18.9433 80.9808 18.5413 80.5286 18.2282L80.1301 18.8037ZM81.0408 19.7882C81.2667 20.1673 81.3895 20.6483 81.3895 21.2486H82.0895C82.0895 20.5534 81.9469 19.9413 81.6421 19.4298L81.0408 19.7882ZM81.3895 21.2486C81.3895 21.9304 81.212 22.5384 80.859 23.0821L81.4461 23.4633C81.8757 22.8015 82.0895 22.0601 82.0895 21.2486H81.3895ZM80.858 23.0837C80.5116 23.6234 79.9989 24.0621 79.3018 24.3938L79.6026 25.0259C80.399 24.6469 81.0198 24.1275 81.4471 23.4618L80.858 23.0837ZM79.3011 24.3942C78.6177 24.7214 77.7705 24.8929 76.7466 24.8929V25.5929C77.8459 25.5929 78.8024 25.4091 79.6034 25.0256L79.3011 24.3942ZM76.7466 24.8929C75.7939 24.8929 74.9872 24.7391 74.3172 24.4436L74.0347 25.0841C74.8131 25.4273 75.7202 25.5929 76.7466 25.5929V24.8929ZM74.3179 24.4439C73.648 24.1466 73.1326 23.7382 72.7591 23.2226L72.1922 23.6332C72.6464 24.2601 73.2646 24.7423 74.034 25.0838L74.3179 24.4439ZM72.7602 23.2241C72.3914 22.7094 72.1796 22.109 72.1298 21.4126L71.4316 21.4624C71.4898 22.2774 71.7413 23.0039 72.1912 23.6318L72.7602 23.2241ZM71.7807 21.7875H73.508V21.0875H71.7807V21.7875ZM73.1593 21.4676C73.2098 22.0537 73.41 22.5602 73.7734 22.9663L74.2951 22.4996C74.0468 22.222 73.8961 21.8649 73.8567 21.4074L73.1593 21.4676ZM73.7767 22.9699C74.1293 23.3532 74.5708 23.6351 75.0919 23.8187L75.3246 23.1585C74.9012 23.0093 74.56 22.7874 74.2918 22.496L73.7767 22.9699ZM75.0957 23.82C75.6119 23.9953 76.163 24.0815 76.7466 24.0815V23.3815C76.2327 23.3815 75.7583 23.3058 75.3208 23.1572L75.0957 23.82ZM76.7466 24.0815C77.4233 24.0815 78.0426 23.9719 78.5991 23.7453L78.3352 23.097C77.8751 23.2843 77.3474 23.3815 76.7466 23.3815V24.0815ZM78.6016 23.7443C79.156 23.5137 79.6098 23.1883 79.9488 22.7619L79.4009 22.3262C79.1463 22.6465 78.7949 22.9058 78.3327 23.098L78.6016 23.7443ZM79.9501 22.7603C80.2979 22.3176 80.4702 21.7997 80.4702 21.2216H79.7702C79.7702 21.651 79.6456 22.0148 79.3997 22.3278L79.9501 22.7603ZM80.4702 21.2216C80.4702 20.6942 80.321 20.2325 79.997 19.8688L79.4743 20.3343C79.6631 20.5463 79.7702 20.8314 79.7702 21.2216H80.4702ZM79.997 19.8688C79.7009 19.5364 79.3187 19.2749 78.8618 19.0783L78.5853 19.7214C78.965 19.8847 79.2575 20.091 79.4743 20.3343L79.997 19.8688ZM78.8618 19.0783C78.4276 18.8916 77.9604 18.7291 77.461 18.5903L77.2737 19.2648C77.7459 19.3959 78.1829 19.5483 78.5853 19.7214L78.8618 19.0783ZM77.4635 18.591L75.7632 18.1052L75.5709 18.7783L77.2712 19.2641L77.4635 18.591ZM75.7638 18.1054C74.7204 17.8054 73.9187 17.3839 73.3393 16.8543L72.867 17.3709C73.5471 17.9927 74.4547 18.4574 75.5704 18.7781L75.7638 18.1054ZM73.3393 16.8543C72.7892 16.3513 72.5086 15.6951 72.5086 14.8523H71.8086C71.8086 15.8716 72.1577 16.7223 72.867 17.3709L73.3393 16.8543ZM72.5086 14.8523C72.5086 14.1457 72.6982 13.5445 73.0692 13.0339L72.5029 12.6224C72.0373 13.2632 71.8086 14.0115 71.8086 14.8523H72.5086ZM73.0689 13.0342C73.4529 12.5073 73.9697 12.0945 74.6298 11.7979L74.3429 11.1594C73.5815 11.5016 72.9649 11.9884 72.5032 12.622L73.0689 13.0342ZM74.6307 11.7975C75.2953 11.4966 76.0436 11.3429 76.8816 11.3429V10.6429C75.9563 10.6429 75.1078 10.8131 74.3419 11.1599L74.6307 11.7975ZM76.8816 11.3429C77.73 11.3429 78.4703 11.4949 79.11 11.7898L79.4031 11.1541C78.6574 10.8103 77.8144 10.6429 76.8816 10.6429V11.3429ZM79.1117 11.7906C79.7566 12.0837 80.2558 12.4798 80.6212 12.9752L81.1845 12.5596C80.7403 11.9575 80.142 11.49 79.4014 11.1533L79.1117 11.7906ZM80.6223 12.9767C80.988 13.4669 81.1806 14.0205 81.2008 14.6476L81.9004 14.6251C81.8757 13.8578 81.6364 13.1654 81.1834 12.5581L80.6223 12.9767ZM81.5506 14.2864H79.9313V14.9864H81.5506V14.2864Z" fill="#391561" mask="url(#path-2-outside-1_538_575)"/>
</svg>
