<svg width="87" height="40" viewBox="0 0 87 40" fill="none" xmlns="http://www.w3.org/2000/svg">
<path d="M0 20C0 8.9543 8.9543 0 20 0H67C78.0457 0 87 8.9543 87 20V20.6452V20.6452C87 31.3345 78.3345 40 67.6452 40H20C8.9543 40 0 31.0457 0 20V20Z" fill="#B3B3B3"/>
<path d="M0 20C0 8.9543 8.9543 0 20 0H67C78.0457 0 87 8.9543 87 20V20.6452V20.6452C87 31.3345 78.3345 40 67.6452 40H20C8.9543 40 0 31.0457 0 20V20Z" fill="#B3B3B3"/>
<path d="M0 20C0 8.9543 8.9543 0 20 0H67C78.0457 0 87 8.9543 87 20V20.6452V20.6452C87 31.3345 78.3345 40 67.6452 40H20C8.9543 40 0 31.0457 0 20V20Z" fill="white"/>
<mask id="path-2-outside-1_538_573" maskUnits="userSpaceOnUse" x="18" y="12" width="51" height="16" fill="black">
<rect fill="white" x="18" y="12" width="51" height="16"/>
<path d="M19.104 27V13.1818H20.7773V25.5156H27.2006V27H19.104ZM31.4648 13.1818V27H29.7915V13.1818H31.4648ZM42.3766 16.6364C42.2956 15.9527 41.9673 15.4219 41.3915 15.044C40.8158 14.6662 40.1096 14.4773 39.2729 14.4773C38.6612 14.4773 38.1259 14.5762 37.6671 14.7741C37.2128 14.9721 36.8574 15.2442 36.601 15.5906C36.3491 15.9369 36.2232 16.3305 36.2232 16.7713C36.2232 17.1402 36.3109 17.4573 36.4863 17.7227C36.6663 17.9835 36.8957 18.2017 37.1745 18.3771C37.4534 18.5481 37.7458 18.6897 38.0517 18.8022C38.3575 18.9102 38.6387 18.9979 38.8951 19.0653L40.2985 19.4432C40.6583 19.5376 41.0587 19.6681 41.4995 19.8345C41.9448 20.0009 42.3699 20.2281 42.7747 20.516C43.184 20.7994 43.5214 21.1637 43.7868 21.609C44.0521 22.0543 44.1848 22.6009 44.1848 23.2486C44.1848 23.9953 43.9892 24.67 43.5978 25.2727C43.211 25.8755 42.6442 26.3545 41.8976 26.7099C41.1554 27.0652 40.2535 27.2429 39.1919 27.2429C38.2024 27.2429 37.3455 27.0832 36.6213 26.7638C35.9016 26.4445 35.3348 25.9992 34.921 25.4279C34.5117 24.8567 34.28 24.1932 34.226 23.4375H35.9533C35.9983 23.9593 36.1737 24.3911 36.4796 24.733C36.79 25.0703 37.1813 25.3222 37.6536 25.4886C38.1304 25.6506 38.6432 25.7315 39.1919 25.7315C39.8307 25.7315 40.4042 25.6281 40.9125 25.4212C41.4208 25.2098 41.8233 24.9174 42.1202 24.544C42.4171 24.1662 42.5655 23.7254 42.5655 23.2216C42.5655 22.7628 42.4373 22.3894 42.1809 22.1016C41.9245 21.8137 41.5872 21.5798 41.1689 21.3999C40.7505 21.2199 40.2985 21.0625 39.8127 20.9276L38.1124 20.4418C37.0328 20.1314 36.1782 19.6883 35.5485 19.1126C34.9187 18.5368 34.6039 17.7834 34.6039 16.8523C34.6039 16.0786 34.813 15.4039 35.2314 14.8281C35.6542 14.2479 36.2209 13.7981 36.9316 13.4787C37.6468 13.1548 38.4453 12.9929 39.3269 12.9929C40.2175 12.9929 41.0092 13.1526 41.7019 13.4719C42.3946 13.7868 42.9434 14.2186 43.3482 14.7674C43.7575 15.3162 43.9734 15.9392 43.9959 16.6364H42.3766ZM46.1803 14.6662V13.1818H56.5439V14.6662H52.1988V27H50.5255V14.6662H46.1803ZM66.6832 16.6364C66.6023 15.9527 66.2739 15.4219 65.6982 15.044C65.1224 14.6662 64.4162 14.4773 63.5795 14.4773C62.9678 14.4773 62.4325 14.5762 61.9737 14.7741C61.5194 14.9721 61.1641 15.2442 60.9077 15.5906C60.6558 15.9369 60.5298 16.3305 60.5298 16.7713C60.5298 17.1402 60.6175 17.4573 60.793 17.7227C60.9729 17.9835 61.2023 18.2017 61.4812 18.3771C61.7601 18.5481 62.0524 18.6897 62.3583 18.8022C62.6642 18.9102 62.9453 18.9979 63.2017 19.0653L64.6051 19.4432C64.965 19.5376 65.3653 19.6681 65.8061 19.8345C66.2514 20.0009 66.6765 20.2281 67.0813 20.516C67.4906 20.7994 67.828 21.1637 68.0934 21.609C68.3588 22.0543 68.4915 22.6009 68.4915 23.2486C68.4915 23.9953 68.2958 24.67 67.9045 25.2727C67.5176 25.8755 66.9509 26.3545 66.2042 26.7099C65.462 27.0652 64.5601 27.2429 63.4986 27.2429C62.509 27.2429 61.6521 27.0832 60.9279 26.7638C60.2082 26.4445 59.6415 25.9992 59.2276 25.4279C58.8183 24.8567 58.5866 24.1932 58.5327 23.4375H60.2599C60.3049 23.9593 60.4804 24.3911 60.7862 24.733C61.0966 25.0703 61.4879 25.3222 61.9602 25.4886C62.437 25.6506 62.9498 25.7315 63.4986 25.7315C64.1373 25.7315 64.7108 25.6281 65.2191 25.4212C65.7274 25.2098 66.13 24.9174 66.4268 24.544C66.7237 24.1662 66.8722 23.7254 66.8722 23.2216C66.8722 22.7628 66.744 22.3894 66.4876 22.1016C66.2312 21.8137 65.8938 21.5798 65.4755 21.3999C65.0572 21.2199 64.6051 21.0625 64.1193 20.9276L62.419 20.4418C61.3395 20.1314 60.4848 19.6883 59.8551 19.1126C59.2254 18.5368 58.9105 17.7834 58.9105 16.8523C58.9105 16.0786 59.1197 15.4039 59.538 14.8281C59.9608 14.2479 60.5276 13.7981 61.2383 13.4787C61.9535 13.1548 62.7519 12.9929 63.6335 12.9929C64.5241 12.9929 65.3158 13.1526 66.0085 13.4719C66.7012 13.7868 67.25 14.2186 67.6548 14.7674C68.0642 15.3162 68.2801 15.9392 68.3026 16.6364H66.6832Z"/>
</mask>
<path d="M19.104 27V13.1818H20.7773V25.5156H27.2006V27H19.104ZM31.4648 13.1818V27H29.7915V13.1818H31.4648ZM42.3766 16.6364C42.2956 15.9527 41.9673 15.4219 41.3915 15.044C40.8158 14.6662 40.1096 14.4773 39.2729 14.4773C38.6612 14.4773 38.1259 14.5762 37.6671 14.7741C37.2128 14.9721 36.8574 15.2442 36.601 15.5906C36.3491 15.9369 36.2232 16.3305 36.2232 16.7713C36.2232 17.1402 36.3109 17.4573 36.4863 17.7227C36.6663 17.9835 36.8957 18.2017 37.1745 18.3771C37.4534 18.5481 37.7458 18.6897 38.0517 18.8022C38.3575 18.9102 38.6387 18.9979 38.8951 19.0653L40.2985 19.4432C40.6583 19.5376 41.0587 19.6681 41.4995 19.8345C41.9448 20.0009 42.3699 20.2281 42.7747 20.516C43.184 20.7994 43.5214 21.1637 43.7868 21.609C44.0521 22.0543 44.1848 22.6009 44.1848 23.2486C44.1848 23.9953 43.9892 24.67 43.5978 25.2727C43.211 25.8755 42.6442 26.3545 41.8976 26.7099C41.1554 27.0652 40.2535 27.2429 39.1919 27.2429C38.2024 27.2429 37.3455 27.0832 36.6213 26.7638C35.9016 26.4445 35.3348 25.9992 34.921 25.4279C34.5117 24.8567 34.28 24.1932 34.226 23.4375H35.9533C35.9983 23.9593 36.1737 24.3911 36.4796 24.733C36.79 25.0703 37.1813 25.3222 37.6536 25.4886C38.1304 25.6506 38.6432 25.7315 39.1919 25.7315C39.8307 25.7315 40.4042 25.6281 40.9125 25.4212C41.4208 25.2098 41.8233 24.9174 42.1202 24.544C42.4171 24.1662 42.5655 23.7254 42.5655 23.2216C42.5655 22.7628 42.4373 22.3894 42.1809 22.1016C41.9245 21.8137 41.5872 21.5798 41.1689 21.3999C40.7505 21.2199 40.2985 21.0625 39.8127 20.9276L38.1124 20.4418C37.0328 20.1314 36.1782 19.6883 35.5485 19.1126C34.9187 18.5368 34.6039 17.7834 34.6039 16.8523C34.6039 16.0786 34.813 15.4039 35.2314 14.8281C35.6542 14.2479 36.2209 13.7981 36.9316 13.4787C37.6468 13.1548 38.4453 12.9929 39.3269 12.9929C40.2175 12.9929 41.0092 13.1526 41.7019 13.4719C42.3946 13.7868 42.9434 14.2186 43.3482 14.7674C43.7575 15.3162 43.9734 15.9392 43.9959 16.6364H42.3766ZM46.1803 14.6662V13.1818H56.5439V14.6662H52.1988V27H50.5255V14.6662H46.1803ZM66.6832 16.6364C66.6023 15.9527 66.2739 15.4219 65.6982 15.044C65.1224 14.6662 64.4162 14.4773 63.5795 14.4773C62.9678 14.4773 62.4325 14.5762 61.9737 14.7741C61.5194 14.9721 61.1641 15.2442 60.9077 15.5906C60.6558 15.9369 60.5298 16.3305 60.5298 16.7713C60.5298 17.1402 60.6175 17.4573 60.793 17.7227C60.9729 17.9835 61.2023 18.2017 61.4812 18.3771C61.7601 18.5481 62.0524 18.6897 62.3583 18.8022C62.6642 18.9102 62.9453 18.9979 63.2017 19.0653L64.6051 19.4432C64.965 19.5376 65.3653 19.6681 65.8061 19.8345C66.2514 20.0009 66.6765 20.2281 67.0813 20.516C67.4906 20.7994 67.828 21.1637 68.0934 21.609C68.3588 22.0543 68.4915 22.6009 68.4915 23.2486C68.4915 23.9953 68.2958 24.67 67.9045 25.2727C67.5176 25.8755 66.9509 26.3545 66.2042 26.7099C65.462 27.0652 64.5601 27.2429 63.4986 27.2429C62.509 27.2429 61.6521 27.0832 60.9279 26.7638C60.2082 26.4445 59.6415 25.9992 59.2276 25.4279C58.8183 24.8567 58.5866 24.1932 58.5327 23.4375H60.2599C60.3049 23.9593 60.4804 24.3911 60.7862 24.733C61.0966 25.0703 61.4879 25.3222 61.9602 25.4886C62.437 25.6506 62.9498 25.7315 63.4986 25.7315C64.1373 25.7315 64.7108 25.6281 65.2191 25.4212C65.7274 25.2098 66.13 24.9174 66.4268 24.544C66.7237 24.1662 66.8722 23.7254 66.8722 23.2216C66.8722 22.7628 66.744 22.3894 66.4876 22.1016C66.2312 21.8137 65.8938 21.5798 65.4755 21.3999C65.0572 21.2199 64.6051 21.0625 64.1193 20.9276L62.419 20.4418C61.3395 20.1314 60.4848 19.6883 59.8551 19.1126C59.2254 18.5368 58.9105 17.7834 58.9105 16.8523C58.9105 16.0786 59.1197 15.4039 59.538 14.8281C59.9608 14.2479 60.5276 13.7981 61.2383 13.4787C61.9535 13.1548 62.7519 12.9929 63.6335 12.9929C64.5241 12.9929 65.3158 13.1526 66.0085 13.4719C66.7012 13.7868 67.25 14.2186 67.6548 14.7674C68.0642 15.3162 68.2801 15.9392 68.3026 16.6364H66.6832Z" fill="#391561"/>
<path d="M19.104 27H18.754V27.35H19.104V27ZM19.104 13.1818V12.8318H18.754V13.1818H19.104ZM20.7773 13.1818H21.1273V12.8318H20.7773V13.1818ZM20.7773 25.5156H20.4273V25.8656H20.7773V25.5156ZM27.2006 25.5156H27.5506V25.1656H27.2006V25.5156ZM27.2006 27V27.35H27.5506V27H27.2006ZM19.454 27V13.1818H18.754V27H19.454ZM19.104 13.5318H20.7773V12.8318H19.104V13.5318ZM20.4273 13.1818V25.5156H21.1273V13.1818H20.4273ZM20.7773 25.8656H27.2006V25.1656H20.7773V25.8656ZM26.8506 25.5156V27H27.5506V25.5156H26.8506ZM27.2006 26.65H19.104V27.35H27.2006V26.65ZM31.4648 13.1818H31.8148V12.8318H31.4648V13.1818ZM31.4648 27V27.35H31.8148V27H31.4648ZM29.7915 27H29.4415V27.35H29.7915V27ZM29.7915 13.1818V12.8318H29.4415V13.1818H29.7915ZM31.1148 13.1818V27H31.8148V13.1818H31.1148ZM31.4648 26.65H29.7915V27.35H31.4648V26.65ZM30.1415 27V13.1818H29.4415V27H30.1415ZM29.7915 13.5318H31.4648V12.8318H29.7915V13.5318ZM42.3766 16.6364L42.029 16.6775L42.0656 16.9864H42.3766V16.6364ZM41.3915 15.044L41.1995 15.3367V15.3367L41.3915 15.044ZM37.6671 14.7741L37.5284 14.4528L37.5273 14.4533L37.6671 14.7741ZM36.601 15.5906L36.3197 15.3823L36.318 15.3847L36.601 15.5906ZM36.4863 17.7227L36.1943 17.9157L36.1982 17.9214L36.4863 17.7227ZM37.1745 18.3771L36.9882 18.6734L36.9916 18.6755L37.1745 18.3771ZM38.0517 18.8022L37.9309 19.1307L37.9352 19.1322L38.0517 18.8022ZM38.8951 19.0653L38.9861 18.7274L38.9841 18.7269L38.8951 19.0653ZM40.2985 19.4432L40.2075 19.7812L40.2096 19.7817L40.2985 19.4432ZM41.4995 19.8345L41.3758 20.162L41.3769 20.1624L41.4995 19.8345ZM42.7747 20.516L42.5718 20.8012L42.5755 20.8037L42.7747 20.516ZM43.7868 21.609L44.0874 21.4298L43.7868 21.609ZM43.5978 25.2727L43.3043 25.0821L43.3033 25.0837L43.5978 25.2727ZM41.8976 26.7099L41.7471 26.3938L41.7464 26.3942L41.8976 26.7099ZM36.6213 26.7638L36.4793 27.0838L36.48 27.0841L36.6213 26.7638ZM34.921 25.4279L34.6365 25.6318L34.6375 25.6332L34.921 25.4279ZM34.226 23.4375V23.0875H33.8501L33.8769 23.4624L34.226 23.4375ZM35.9533 23.4375L36.302 23.4074L36.2744 23.0875H35.9533V23.4375ZM36.4796 24.733L36.2187 24.9664L36.222 24.9699L36.4796 24.733ZM37.6536 25.4886L37.5373 25.8188L37.541 25.82L37.6536 25.4886ZM40.9125 25.4212L41.0444 25.7453L41.0469 25.7443L40.9125 25.4212ZM42.1202 24.544L42.3942 24.7619L42.3954 24.7603L42.1202 24.544ZM42.1809 22.1016L42.4423 21.8688L42.1809 22.1016ZM41.1689 21.3999L41.0306 21.7214V21.7214L41.1689 21.3999ZM39.8127 20.9276L39.7165 21.2641L39.719 21.2648L39.8127 20.9276ZM38.1124 20.4418L38.0157 20.7781L38.0162 20.7783L38.1124 20.4418ZM35.5485 19.1126L35.3123 19.3709L35.5485 19.1126ZM35.2314 14.8281L34.9485 14.622L34.9482 14.6224L35.2314 14.8281ZM36.9316 13.4787L37.0751 13.7979L37.076 13.7975L36.9316 13.4787ZM41.7019 13.4719L41.5553 13.7898L41.5571 13.7906L41.7019 13.4719ZM43.3482 14.7674L43.0665 14.9752L43.0676 14.9767L43.3482 14.7674ZM43.9959 16.6364V16.9864H44.3574L44.3457 16.6251L43.9959 16.6364ZM42.7242 16.5952C42.631 15.8088 42.2457 15.186 41.5835 14.7514L41.1995 15.3367C41.6888 15.6578 41.9602 16.0965 42.029 16.6775L42.7242 16.5952ZM41.5835 14.7514C40.9395 14.3288 40.163 14.1273 39.2729 14.1273V14.8273C40.0561 14.8273 40.692 15.0036 41.1995 15.3367L41.5835 14.7514ZM39.2729 14.1273C38.6239 14.1273 38.0397 14.2322 37.5285 14.4528L37.8057 15.0955C38.2121 14.9202 38.6984 14.8273 39.2729 14.8273V14.1273ZM37.5273 14.4533C37.0253 14.672 36.6178 14.9797 36.3197 15.3823L36.8823 15.7988C37.0971 15.5087 37.4002 15.2722 37.8069 15.095L37.5273 14.4533ZM36.318 15.3847C36.0212 15.7927 35.8732 16.2588 35.8732 16.7713H36.5732C36.5732 16.4021 36.677 16.0811 36.8841 15.7964L36.318 15.3847ZM35.8732 16.7713C35.8732 17.1976 35.9753 17.5843 36.1944 17.9157L36.7783 17.5297C36.6465 17.3302 36.5732 17.0827 36.5732 16.7713H35.8732ZM36.1982 17.9214C36.4062 18.2229 36.6707 18.4737 36.9882 18.6734L37.3609 18.0809C37.1206 17.9297 36.9264 17.7442 36.7745 17.5239L36.1982 17.9214ZM36.9916 18.6755C37.2901 18.8585 37.6033 19.0103 37.9309 19.1307L38.1724 18.4737C37.8883 18.3692 37.6167 18.2376 37.3574 18.0787L36.9916 18.6755ZM37.9352 19.1322C38.2482 19.2427 38.5386 19.3334 38.806 19.4038L38.9841 18.7269C38.7388 18.6623 38.4669 18.5776 38.1682 18.4722L37.9352 19.1322ZM38.8041 19.4033L40.2075 19.7811L40.3895 19.1052L38.9861 18.7274L38.8041 19.4033ZM40.2096 19.7817C40.5551 19.8724 40.9436 19.9988 41.3758 20.162L41.6231 19.5071C41.1737 19.3374 40.7616 19.2029 40.3873 19.1047L40.2096 19.7817ZM41.3769 20.1624C41.7925 20.3177 42.1907 20.5302 42.5718 20.8012L42.9775 20.2307C42.549 19.926 42.0971 19.6842 41.622 19.5067L41.3769 20.1624ZM42.5755 20.8037C42.9419 21.0574 43.2453 21.3841 43.4861 21.7882L44.0874 21.4298C43.7975 20.9433 43.4261 20.5413 42.9739 20.2282L42.5755 20.8037ZM43.4861 21.7882C43.712 22.1673 43.8348 22.6483 43.8348 23.2486H44.5348C44.5348 22.5534 44.3922 21.9413 44.0874 21.4298L43.4861 21.7882ZM43.8348 23.2486C43.8348 23.9304 43.6573 24.5384 43.3043 25.0821L43.8914 25.4633C44.3211 24.8015 44.5348 24.0601 44.5348 23.2486H43.8348ZM43.3033 25.0837C42.9569 25.6234 42.4442 26.0621 41.7471 26.3938L42.048 27.0259C42.8443 26.6469 43.4651 26.1275 43.8924 25.4618L43.3033 25.0837ZM41.7464 26.3942C41.063 26.7214 40.2158 26.8929 39.1919 26.8929V27.5929C40.2912 27.5929 41.2477 27.4091 42.0487 27.0256L41.7464 26.3942ZM39.1919 26.8929C38.2392 26.8929 37.4325 26.7391 36.7625 26.4436L36.48 27.0841C37.2584 27.4273 38.1655 27.5929 39.1919 27.5929V26.8929ZM36.7632 26.4439C36.0933 26.1466 35.578 25.7382 35.2044 25.2226L34.6375 25.6332C35.0917 26.2601 35.7099 26.7423 36.4793 27.0838L36.7632 26.4439ZM35.2055 25.2241C34.8367 24.7094 34.6249 24.109 34.5751 23.4126L33.8769 23.4624C33.9351 24.2774 34.1866 25.0039 34.6365 25.6318L35.2055 25.2241ZM34.226 23.7875H35.9533V23.0875H34.226V23.7875ZM35.6046 23.4676C35.6551 24.0537 35.8553 24.5602 36.2187 24.9663L36.7404 24.4996C36.4921 24.222 36.3414 23.8649 36.302 23.4074L35.6046 23.4676ZM36.222 24.9699C36.5746 25.3532 37.0161 25.6351 37.5373 25.8187L37.7699 25.1585C37.3465 25.0093 37.0053 24.7874 36.7372 24.496L36.222 24.9699ZM37.541 25.82C38.0572 25.9953 38.6083 26.0815 39.1919 26.0815V25.3815C38.678 25.3815 38.2036 25.3058 37.7661 25.1572L37.541 25.82ZM39.1919 26.0815C39.8686 26.0815 40.488 25.9719 41.0444 25.7453L40.7805 25.097C40.3204 25.2843 39.7927 25.3815 39.1919 25.3815V26.0815ZM41.0469 25.7443C41.6013 25.5137 42.0551 25.1883 42.3942 24.7619L41.8463 24.3262C41.5916 24.6465 41.2402 24.9058 40.7781 25.098L41.0469 25.7443ZM42.3954 24.7603C42.7432 24.3176 42.9155 23.7997 42.9155 23.2216H42.2155C42.2155 23.651 42.091 24.0148 41.845 24.3278L42.3954 24.7603ZM42.9155 23.2216C42.9155 22.6942 42.7663 22.2325 42.4423 21.8688L41.9196 22.3343C42.1084 22.5463 42.2155 22.8314 42.2155 23.2216H42.9155ZM42.4423 21.8688C42.1462 21.5364 41.7641 21.2749 41.3071 21.0783L41.0306 21.7214C41.4103 21.8847 41.7028 22.091 41.9196 22.3343L42.4423 21.8688ZM41.3071 21.0783C40.8729 20.8916 40.4058 20.7291 39.9064 20.5903L39.719 21.2648C40.1912 21.3959 40.6282 21.5483 41.0306 21.7214L41.3071 21.0783ZM39.9088 20.591L38.2085 20.1052L38.0162 20.7783L39.7165 21.2641L39.9088 20.591ZM38.2091 20.1054C37.1657 19.8054 36.364 19.3839 35.7846 18.8543L35.3123 19.3709C35.9924 19.9927 36.9 20.4574 38.0157 20.7781L38.2091 20.1054ZM35.7846 18.8543C35.2345 18.3513 34.9539 17.6951 34.9539 16.8523H34.2539C34.2539 17.8716 34.603 18.7223 35.3123 19.3709L35.7846 18.8543ZM34.9539 16.8523C34.9539 16.1457 35.1435 15.5445 35.5145 15.0339L34.9482 14.6224C34.4826 15.2632 34.2539 16.0115 34.2539 16.8523H34.9539ZM35.5142 15.0342C35.8982 14.5073 36.415 14.0945 37.0751 13.7979L36.7882 13.1594C36.0268 13.5016 35.4102 13.9884 34.9485 14.622L35.5142 15.0342ZM37.076 13.7975C37.7406 13.4966 38.4889 13.3429 39.3269 13.3429V12.6429C38.4016 12.6429 37.5531 12.8131 36.7873 13.1599L37.076 13.7975ZM39.3269 13.3429C40.1753 13.3429 40.9157 13.4949 41.5553 13.7898L41.8484 13.1541C41.1027 12.8103 40.2597 12.6429 39.3269 12.6429V13.3429ZM41.5571 13.7906C42.2019 14.0837 42.7011 14.4798 43.0665 14.9752L43.6298 14.5596C43.1856 13.9575 42.5873 13.49 41.8467 13.1533L41.5571 13.7906ZM43.0676 14.9767C43.4333 15.4669 43.6259 16.0205 43.6461 16.6476L44.3457 16.6251C44.321 15.8578 44.0817 15.1654 43.6287 14.5581L43.0676 14.9767ZM43.9959 16.2864H42.3766V16.9864H43.9959V16.2864ZM46.1803 14.6662H45.8303V15.0162H46.1803V14.6662ZM46.1803 13.1818V12.8318H45.8303V13.1818H46.1803ZM56.5439 13.1818H56.8939V12.8318H56.5439V13.1818ZM56.5439 14.6662V15.0162H56.8939V14.6662H56.5439ZM52.1988 14.6662V14.3162H51.8488V14.6662H52.1988ZM52.1988 27V27.35H52.5488V27H52.1988ZM50.5255 27H50.1755V27.35H50.5255V27ZM50.5255 14.6662H50.8755V14.3162H50.5255V14.6662ZM46.5303 14.6662V13.1818H45.8303V14.6662H46.5303ZM46.1803 13.5318H56.5439V12.8318H46.1803V13.5318ZM56.1939 13.1818V14.6662H56.8939V13.1818H56.1939ZM56.5439 14.3162H52.1988V15.0162H56.5439V14.3162ZM51.8488 14.6662V27H52.5488V14.6662H51.8488ZM52.1988 26.65H50.5255V27.35H52.1988V26.65ZM50.8755 27V14.6662H50.1755V27H50.8755ZM50.5255 14.3162H46.1803V15.0162H50.5255V14.3162ZM66.6832 16.6364L66.3357 16.6775L66.3722 16.9864H66.6832V16.6364ZM65.6982 15.044L65.5061 15.3367V15.3367L65.6982 15.044ZM61.9737 14.7741L61.8351 14.4528L61.8339 14.4533L61.9737 14.7741ZM60.9077 15.5906L60.6264 15.3823L60.6246 15.3847L60.9077 15.5906ZM60.793 17.7227L60.5009 17.9157L60.5048 17.9214L60.793 17.7227ZM61.4812 18.3771L61.2948 18.6734L61.2983 18.6755L61.4812 18.3771ZM62.3583 18.8022L62.2375 19.1307L62.2418 19.1322L62.3583 18.8022ZM63.2017 19.0653L63.2927 18.7274L63.2908 18.7269L63.2017 19.0653ZM64.6051 19.4432L64.5141 19.7812L64.5163 19.7817L64.6051 19.4432ZM65.8061 19.8345L65.6825 20.162L65.6836 20.1624L65.8061 19.8345ZM67.0813 20.516L66.8785 20.8012L66.8821 20.8037L67.0813 20.516ZM68.0934 21.609L68.3941 21.4298L68.0934 21.609ZM67.9045 25.2727L67.6109 25.0821L67.6099 25.0837L67.9045 25.2727ZM66.2042 26.7099L66.0538 26.3938L66.053 26.3942L66.2042 26.7099ZM60.9279 26.7638L60.7859 27.0838L60.7867 27.0841L60.9279 26.7638ZM59.2276 25.4279L58.9431 25.6318L58.9442 25.6332L59.2276 25.4279ZM58.5327 23.4375V23.0875H58.1568L58.1836 23.4624L58.5327 23.4375ZM60.2599 23.4375L60.6087 23.4074L60.5811 23.0875H60.2599V23.4375ZM60.7862 24.733L60.5254 24.9664L60.5286 24.9699L60.7862 24.733ZM61.9602 25.4886L61.8439 25.8188L61.8477 25.82L61.9602 25.4886ZM65.2191 25.4212L65.3511 25.7453L65.3535 25.7443L65.2191 25.4212ZM66.4268 24.544L66.7008 24.7619L66.7021 24.7603L66.4268 24.544ZM66.4876 22.1016L66.7489 21.8688L66.4876 22.1016ZM65.4755 21.3999L65.3372 21.7214V21.7214L65.4755 21.3999ZM64.1193 20.9276L64.0232 21.2641L64.0256 21.2648L64.1193 20.9276ZM62.419 20.4418L62.3223 20.7781L62.3229 20.7783L62.419 20.4418ZM59.8551 19.1126L59.6189 19.3709L59.8551 19.1126ZM59.538 14.8281L59.2551 14.622L59.2548 14.6224L59.538 14.8281ZM61.2383 13.4787L61.3817 13.7979L61.3827 13.7975L61.2383 13.4787ZM66.0085 13.4719L65.862 13.7898L65.8637 13.7906L66.0085 13.4719ZM67.6548 14.7674L67.3732 14.9752L67.3743 14.9767L67.6548 14.7674ZM68.3026 16.6364V16.9864H68.664L68.6524 16.6251L68.3026 16.6364ZM67.0308 16.5952C66.9377 15.8088 66.5524 15.186 65.8902 14.7514L65.5061 15.3367C65.9955 15.6578 66.2669 16.0965 66.3357 16.6775L67.0308 16.5952ZM65.8902 14.7514C65.2462 14.3288 64.4696 14.1273 63.5795 14.1273V14.8273C64.3628 14.8273 64.9986 15.0036 65.5061 15.3367L65.8902 14.7514ZM63.5795 14.1273C62.9305 14.1273 62.3463 14.2322 61.8351 14.4528L62.1124 15.0955C62.5187 14.9202 63.0051 14.8273 63.5795 14.8273V14.1273ZM61.8339 14.4533C61.3319 14.672 60.9244 14.9797 60.6264 15.3823L61.189 15.7988C61.4037 15.5087 61.7069 15.2722 62.1135 15.095L61.8339 14.4533ZM60.6246 15.3847C60.3279 15.7927 60.1798 16.2588 60.1798 16.7713H60.8798C60.8798 16.4021 60.9837 16.0811 61.1907 15.7964L60.6246 15.3847ZM60.1798 16.7713C60.1798 17.1976 60.282 17.5843 60.501 17.9157L61.0849 17.5297C60.9531 17.3302 60.8798 17.0827 60.8798 16.7713H60.1798ZM60.5048 17.9214C60.7128 18.2229 60.9774 18.4737 61.2948 18.6734L61.6675 18.0809C61.4272 17.9297 61.233 17.7442 61.0811 17.5239L60.5048 17.9214ZM61.2983 18.6755C61.5968 18.8585 61.9099 19.0103 62.2375 19.1307L62.4791 18.4737C62.1949 18.3692 61.9234 18.2376 61.6641 18.0787L61.2983 18.6755ZM62.2418 19.1322C62.5548 19.2427 62.8452 19.3334 63.1126 19.4038L63.2908 18.7269C63.0454 18.6623 62.7736 18.5776 62.4748 18.4722L62.2418 19.1322ZM63.1107 19.4033L64.5141 19.7811L64.6961 19.1052L63.2927 18.7274L63.1107 19.4033ZM64.5163 19.7817C64.8617 19.8724 65.2502 19.9988 65.6825 20.162L65.9297 19.5071C65.4804 19.3374 65.0682 19.2029 64.694 19.1047L64.5163 19.7817ZM65.6836 20.1624C66.0991 20.3177 66.4973 20.5302 66.8785 20.8012L67.2842 20.2307C66.8556 19.926 66.4037 19.6842 65.9286 19.5067L65.6836 20.1624ZM66.8821 20.8037C67.2485 21.0574 67.5519 21.3841 67.7927 21.7882L68.3941 21.4298C68.1041 20.9433 67.7328 20.5413 67.2805 20.2282L66.8821 20.8037ZM67.7927 21.7882C68.0187 22.1673 68.1415 22.6483 68.1415 23.2486H68.8415C68.8415 22.5534 68.6989 21.9413 68.3941 21.4298L67.7927 21.7882ZM68.1415 23.2486C68.1415 23.9304 67.9639 24.5384 67.6109 25.0821L68.198 25.4633C68.6277 24.8015 68.8415 24.0601 68.8415 23.2486H68.1415ZM67.6099 25.0837C67.2635 25.6234 66.7508 26.0621 66.0538 26.3938L66.3546 27.0259C67.1509 26.6469 67.7718 26.1275 68.199 25.4618L67.6099 25.0837ZM66.053 26.3942C65.3697 26.7214 64.5224 26.8929 63.4986 26.8929V27.5929C64.5978 27.5929 65.5543 27.4091 66.3553 27.0256L66.053 26.3942ZM63.4986 26.8929C62.5458 26.8929 61.7392 26.7391 61.0691 26.4436L60.7867 27.0841C61.565 27.4273 62.4722 27.5929 63.4986 27.5929V26.8929ZM61.0699 26.4439C60.3999 26.1466 59.8846 25.7382 59.5111 25.2226L58.9442 25.6332C59.3983 26.2601 60.0165 26.7423 60.7859 27.0838L61.0699 26.4439ZM59.5121 25.2241C59.1434 24.7094 58.9315 24.109 58.8818 23.4126L58.1836 23.4624C58.2418 24.2774 58.4932 25.0039 58.9431 25.6318L59.5121 25.2241ZM58.5327 23.7875H60.2599V23.0875H58.5327V23.7875ZM59.9112 23.4676C59.9618 24.0537 60.162 24.5602 60.5254 24.9663L61.0471 24.4996C60.7987 24.222 60.6481 23.8649 60.6087 23.4074L59.9112 23.4676ZM60.5286 24.9699C60.8813 25.3532 61.3227 25.6351 61.8439 25.8187L62.0765 25.1585C61.6531 25.0093 61.3119 24.7874 61.0438 24.496L60.5286 24.9699ZM61.8477 25.82C62.3638 25.9953 62.915 26.0815 63.4986 26.0815V25.3815C62.9847 25.3815 62.5102 25.3058 62.0728 25.1572L61.8477 25.82ZM63.4986 26.0815C64.1752 26.0815 64.7946 25.9719 65.3511 25.7453L65.0871 25.097C64.627 25.2843 64.0994 25.3815 63.4986 25.3815V26.0815ZM65.3535 25.7443C65.908 25.5137 66.3617 25.1883 66.7008 24.7619L66.1529 24.3262C65.8982 24.6465 65.5468 24.9058 65.0847 25.098L65.3535 25.7443ZM66.7021 24.7603C67.0499 24.3176 67.2222 23.7997 67.2222 23.2216H66.5222C66.5222 23.651 66.3976 24.0148 66.1516 24.3278L66.7021 24.7603ZM67.2222 23.2216C67.2222 22.6942 67.0729 22.2325 66.7489 21.8688L66.2262 22.3343C66.415 22.5463 66.5222 22.8314 66.5222 23.2216H67.2222ZM66.7489 21.8688C66.4529 21.5364 66.0707 21.2749 65.6138 21.0783L65.3372 21.7214C65.7169 21.8847 66.0095 22.091 66.2262 22.3343L66.7489 21.8688ZM65.6138 21.0783C65.1795 20.8916 64.7124 20.7291 64.213 20.5903L64.0256 21.2648C64.4978 21.3959 64.9348 21.5483 65.3372 21.7214L65.6138 21.0783ZM64.2155 20.591L62.5152 20.1052L62.3229 20.7783L64.0232 21.2641L64.2155 20.591ZM62.5157 20.1054C61.4723 19.8054 60.6706 19.3839 60.0913 18.8543L59.6189 19.3709C60.2991 19.9927 61.2067 20.4574 62.3223 20.7781L62.5157 20.1054ZM60.0913 18.8543C59.5411 18.3513 59.2605 17.6951 59.2605 16.8523H58.5605C58.5605 17.8716 58.9096 18.7223 59.6189 19.3709L60.0913 18.8543ZM59.2605 16.8523C59.2605 16.1457 59.4501 15.5445 59.8212 15.0339L59.2548 14.6224C58.7892 15.2632 58.5605 16.0115 58.5605 16.8523H59.2605ZM59.8209 15.0342C60.2048 14.5073 60.7217 14.0945 61.3817 13.7979L61.0948 13.1594C60.3335 13.5016 59.7168 13.9884 59.2551 14.622L59.8209 15.0342ZM61.3827 13.7975C62.0472 13.4966 62.7955 13.3429 63.6335 13.3429V12.6429C62.7082 12.6429 61.8597 12.8131 61.0939 13.1599L61.3827 13.7975ZM63.6335 13.3429C64.482 13.3429 65.2223 13.4949 65.862 13.7898L66.1551 13.1541C65.4093 12.8103 64.5663 12.6429 63.6335 12.6429V13.3429ZM65.8637 13.7906C66.5085 14.0837 67.0077 14.4798 67.3732 14.9752L67.9365 14.5596C67.4923 13.9575 66.894 13.49 66.1534 13.1533L65.8637 13.7906ZM67.3743 14.9767C67.74 15.4669 67.9325 16.0205 67.9527 16.6476L68.6524 16.6251C68.6276 15.8578 68.3884 15.1654 67.9354 14.5581L67.3743 14.9767ZM68.3026 16.2864H66.6832V16.9864H68.3026V16.2864Z" fill="#391561" mask="url(#path-2-outside-1_538_573)"/>
</svg>
