<svg width="87" height="40" viewBox="0 0 87 40" fill="none" xmlns="http://www.w3.org/2000/svg">
<path d="M0 20C0 8.9543 8.9543 0 20 0H67C78.0457 0 87 8.9543 87 20V20.6452V20.6452C87 31.3345 78.3345 40 67.6452 40H20C8.9543 40 0 31.0457 0 20V20Z" fill="#B3B3B3"/>
<path d="M0 20C0 8.9543 8.9543 0 20 0H67C78.0457 0 87 8.9543 87 20V20.6452V20.6452C87 31.3345 78.3345 40 67.6452 40H20C8.9543 40 0 31.0457 0 20V20Z" fill="#B3B3B3"/>
<path d="M0 20C0 8.9543 8.9543 0 20 0H67C78.0457 0 87 8.9543 87 20V20.6452V20.6452C87 31.3345 78.3345 40 67.6452 40H20C8.9543 40 0 31.0457 0 20V20Z" fill="white"/>
<mask id="path-2-outside-1_538_574" maskUnits="userSpaceOnUse" x="11" y="11" width="66" height="16" fill="black">
<rect fill="white" x="11" y="11" width="66" height="16"/>
<path d="M19.6647 15.6364C19.5837 14.9527 19.2554 14.4219 18.6796 14.044C18.1038 13.6662 17.3976 13.4773 16.561 13.4773C15.9492 13.4773 15.414 13.5762 14.9552 13.7741C14.5009 13.9721 14.1455 14.2442 13.8891 14.5906C13.6372 14.9369 13.5113 15.3305 13.5113 15.7713C13.5113 16.1402 13.599 16.4573 13.7744 16.7227C13.9543 16.9835 14.1837 17.2017 14.4626 17.3771C14.7415 17.5481 15.0339 17.6897 15.3398 17.8022C15.6456 17.9102 15.9268 17.9979 16.1831 18.0653L17.5866 18.4432C17.9464 18.5376 18.3467 18.6681 18.7876 18.8345C19.2329 19.0009 19.6579 19.2281 20.0628 19.516C20.4721 19.7994 20.8095 20.1637 21.0748 20.609C21.3402 21.0543 21.4729 21.6009 21.4729 22.2486C21.4729 22.9953 21.2773 23.67 20.8859 24.2727C20.4991 24.8755 19.9323 25.3545 19.1856 25.7099C18.4434 26.0652 17.5416 26.2429 16.48 26.2429C15.4904 26.2429 14.6336 26.0832 13.9094 25.7638C13.1897 25.4445 12.6229 24.9992 12.2091 24.4279C11.7997 23.8567 11.5681 23.1932 11.5141 22.4375H13.2414C13.2864 22.9593 13.4618 23.3911 13.7677 23.733C14.078 24.0703 14.4694 24.3222 14.9417 24.4886C15.4185 24.6506 15.9313 24.7315 16.48 24.7315C17.1188 24.7315 17.6923 24.6281 18.2006 24.4212C18.7088 24.2098 19.1114 23.9174 19.4083 23.544C19.7052 23.1662 19.8536 22.7254 19.8536 22.2216C19.8536 21.7628 19.7254 21.3894 19.469 21.1016C19.2126 20.8137 18.8753 20.5798 18.4569 20.3999C18.0386 20.2199 17.5866 20.0625 17.1008 19.9276L15.4005 19.4418C14.3209 19.1314 13.4663 18.6883 12.8366 18.1126C12.2068 17.5368 11.892 16.7834 11.892 15.8523C11.892 15.0786 12.1011 14.4039 12.5194 13.8281C12.9423 13.2479 13.509 12.7981 14.2197 12.4787C14.9349 12.1548 15.7333 11.9929 16.615 11.9929C17.5056 11.9929 18.2973 12.1526 18.99 12.4719C19.6827 12.7868 20.2314 13.2186 20.6363 13.7674C21.0456 14.3162 21.2615 14.9392 21.284 15.6364H19.6647ZM35.8832 19.0909C35.8832 20.5483 35.62 21.8078 35.0938 22.8693C34.5675 23.9309 33.8455 24.7495 32.9279 25.3253C32.0103 25.901 30.9622 26.1889 29.7837 26.1889C28.6052 26.1889 27.5572 25.901 26.6396 25.3253C25.7219 24.7495 25 23.9309 24.4737 22.8693C23.9474 21.8078 23.6843 20.5483 23.6843 19.0909C23.6843 17.6335 23.9474 16.3741 24.4737 15.3125C25 14.2509 25.7219 13.4323 26.6396 12.8565C27.5572 12.2808 28.6052 11.9929 29.7837 11.9929C30.9622 11.9929 32.0103 12.2808 32.9279 12.8565C33.8455 13.4323 34.5675 14.2509 35.0938 15.3125C35.62 16.3741 35.8832 17.6335 35.8832 19.0909ZM34.2639 19.0909C34.2639 17.8944 34.0637 16.8846 33.6634 16.0614C33.2675 15.2383 32.73 14.6153 32.0508 14.1925C31.3761 13.7696 30.6204 13.5582 29.7837 13.5582C28.9471 13.5582 28.1892 13.7696 27.5099 14.1925C26.8352 14.6153 26.2977 15.2383 25.8974 16.0614C25.5015 16.8846 25.3036 17.8944 25.3036 19.0909C25.3036 20.2874 25.5015 21.2972 25.8974 22.1204C26.2977 22.9435 26.8352 23.5665 27.5099 23.9893C28.1892 24.4122 28.9471 24.6236 29.7837 24.6236C30.6204 24.6236 31.3761 24.4122 32.0508 23.9893C32.73 23.5665 33.2675 22.9435 33.6634 22.1204C34.0637 21.2972 34.2639 20.2874 34.2639 19.0909ZM49.6541 12.1818V26H48.0348L40.505 15.1506H40.37V26H38.6967V12.1818H40.3161L47.8729 23.0582H48.0078V12.1818H49.6541ZM62.4484 16.5C62.3 16.0457 62.1043 15.6386 61.8614 15.2788C61.623 14.9144 61.3374 14.604 61.0045 14.3477C60.6762 14.0913 60.3028 13.8956 59.8845 13.7607C59.4662 13.6257 59.0074 13.5582 58.5081 13.5582C57.6894 13.5582 56.945 13.7696 56.2748 14.1925C55.6046 14.6153 55.0715 15.2383 54.6757 16.0614C54.2799 16.8846 54.0819 17.8944 54.0819 19.0909C54.0819 20.2874 54.2821 21.2972 54.6824 22.1204C55.0828 22.9435 55.6248 23.5665 56.3085 23.9893C56.9922 24.4122 57.7614 24.6236 58.616 24.6236C59.4077 24.6236 60.1049 24.4549 60.7077 24.1175C61.3149 23.7757 61.7872 23.2944 62.1246 22.6737C62.4664 22.0484 62.6373 21.313 62.6373 20.4673L63.1501 20.5753H58.9939V19.0909H64.2567V20.5753C64.2567 21.7133 64.0138 22.7029 63.528 23.544C63.0467 24.3852 62.3809 25.0374 61.5308 25.5007C60.6852 25.9595 59.7136 26.1889 58.616 26.1889C57.3925 26.1889 56.3175 25.901 55.3909 25.3253C54.4688 24.7495 53.7491 23.9309 53.2318 22.8693C52.719 21.8078 52.4626 20.5483 52.4626 19.0909C52.4626 17.9979 52.6088 17.015 52.9012 16.1424C53.1981 15.2653 53.6164 14.5186 54.1562 13.9023C54.6959 13.2861 55.3347 12.8138 56.0724 12.4854C56.81 12.1571 57.622 11.9929 58.5081 11.9929C59.2368 11.9929 59.916 12.1031 60.5457 12.3235C61.18 12.5394 61.7445 12.8475 62.2393 13.2479C62.7385 13.6437 63.1546 14.1183 63.4875 14.6715C63.8203 15.2203 64.0497 15.8298 64.1757 16.5H62.4484ZM74.6793 15.6364C74.5984 14.9527 74.27 14.4219 73.6942 14.044C73.1185 13.6662 72.4123 13.4773 71.5756 13.4773C70.9639 13.4773 70.4286 13.5762 69.9698 13.7741C69.5155 13.9721 69.1602 14.2442 68.9038 14.5906C68.6519 14.9369 68.5259 15.3305 68.5259 15.7713C68.5259 16.1402 68.6136 16.4573 68.7891 16.7227C68.969 16.9835 69.1984 17.2017 69.4773 17.3771C69.7562 17.5481 70.0485 17.6897 70.3544 17.8022C70.6603 17.9102 70.9414 17.9979 71.1978 18.0653L72.6012 18.4432C72.9611 18.5376 73.3614 18.6681 73.8022 18.8345C74.2475 19.0009 74.6726 19.2281 75.0774 19.516C75.4867 19.7994 75.8241 20.1637 76.0895 20.609C76.3549 21.0543 76.4876 21.6009 76.4876 22.2486C76.4876 22.9953 76.2919 23.67 75.9006 24.2727C75.5137 24.8755 74.947 25.3545 74.2003 25.7099C73.4581 26.0652 72.5562 26.2429 71.4947 26.2429C70.5051 26.2429 69.6482 26.0832 68.924 25.7638C68.2043 25.4445 67.6375 24.9992 67.2237 24.4279C66.8144 23.8567 66.5827 23.1932 66.5288 22.4375H68.256C68.301 22.9593 68.4764 23.3911 68.7823 23.733C69.0927 24.0703 69.484 24.3222 69.9563 24.4886C70.4331 24.6506 70.9459 24.7315 71.4947 24.7315C72.1334 24.7315 72.7069 24.6281 73.2152 24.4212C73.7235 24.2098 74.1261 23.9174 74.4229 23.544C74.7198 23.1662 74.8683 22.7254 74.8683 22.2216C74.8683 21.7628 74.7401 21.3894 74.4837 21.1016C74.2273 20.8137 73.8899 20.5798 73.4716 20.3999C73.0533 20.2199 72.6012 20.0625 72.1154 19.9276L70.4151 19.4418C69.3356 19.1314 68.4809 18.6883 67.8512 18.1126C67.2215 17.5368 66.9066 16.7834 66.9066 15.8523C66.9066 15.0786 67.1158 14.4039 67.5341 13.8281C67.9569 13.2479 68.5237 12.7981 69.2344 12.4787C69.9496 12.1548 70.748 11.9929 71.6296 11.9929C72.5202 11.9929 73.3119 12.1526 74.0046 12.4719C74.6973 12.7868 75.2461 13.2186 75.6509 13.7674C76.0603 14.3162 76.2762 14.9392 76.2987 15.6364H74.6793Z"/>
</mask>
<path d="M19.6647 15.6364C19.5837 14.9527 19.2554 14.4219 18.6796 14.044C18.1038 13.6662 17.3976 13.4773 16.561 13.4773C15.9492 13.4773 15.414 13.5762 14.9552 13.7741C14.5009 13.9721 14.1455 14.2442 13.8891 14.5906C13.6372 14.9369 13.5113 15.3305 13.5113 15.7713C13.5113 16.1402 13.599 16.4573 13.7744 16.7227C13.9543 16.9835 14.1837 17.2017 14.4626 17.3771C14.7415 17.5481 15.0339 17.6897 15.3398 17.8022C15.6456 17.9102 15.9268 17.9979 16.1831 18.0653L17.5866 18.4432C17.9464 18.5376 18.3467 18.6681 18.7876 18.8345C19.2329 19.0009 19.6579 19.2281 20.0628 19.516C20.4721 19.7994 20.8095 20.1637 21.0748 20.609C21.3402 21.0543 21.4729 21.6009 21.4729 22.2486C21.4729 22.9953 21.2773 23.67 20.8859 24.2727C20.4991 24.8755 19.9323 25.3545 19.1856 25.7099C18.4434 26.0652 17.5416 26.2429 16.48 26.2429C15.4904 26.2429 14.6336 26.0832 13.9094 25.7638C13.1897 25.4445 12.6229 24.9992 12.2091 24.4279C11.7997 23.8567 11.5681 23.1932 11.5141 22.4375H13.2414C13.2864 22.9593 13.4618 23.3911 13.7677 23.733C14.078 24.0703 14.4694 24.3222 14.9417 24.4886C15.4185 24.6506 15.9313 24.7315 16.48 24.7315C17.1188 24.7315 17.6923 24.6281 18.2006 24.4212C18.7088 24.2098 19.1114 23.9174 19.4083 23.544C19.7052 23.1662 19.8536 22.7254 19.8536 22.2216C19.8536 21.7628 19.7254 21.3894 19.469 21.1016C19.2126 20.8137 18.8753 20.5798 18.4569 20.3999C18.0386 20.2199 17.5866 20.0625 17.1008 19.9276L15.4005 19.4418C14.3209 19.1314 13.4663 18.6883 12.8366 18.1126C12.2068 17.5368 11.892 16.7834 11.892 15.8523C11.892 15.0786 12.1011 14.4039 12.5194 13.8281C12.9423 13.2479 13.509 12.7981 14.2197 12.4787C14.9349 12.1548 15.7333 11.9929 16.615 11.9929C17.5056 11.9929 18.2973 12.1526 18.99 12.4719C19.6827 12.7868 20.2314 13.2186 20.6363 13.7674C21.0456 14.3162 21.2615 14.9392 21.284 15.6364H19.6647ZM35.8832 19.0909C35.8832 20.5483 35.62 21.8078 35.0938 22.8693C34.5675 23.9309 33.8455 24.7495 32.9279 25.3253C32.0103 25.901 30.9622 26.1889 29.7837 26.1889C28.6052 26.1889 27.5572 25.901 26.6396 25.3253C25.7219 24.7495 25 23.9309 24.4737 22.8693C23.9474 21.8078 23.6843 20.5483 23.6843 19.0909C23.6843 17.6335 23.9474 16.3741 24.4737 15.3125C25 14.2509 25.7219 13.4323 26.6396 12.8565C27.5572 12.2808 28.6052 11.9929 29.7837 11.9929C30.9622 11.9929 32.0103 12.2808 32.9279 12.8565C33.8455 13.4323 34.5675 14.2509 35.0938 15.3125C35.62 16.3741 35.8832 17.6335 35.8832 19.0909ZM34.2639 19.0909C34.2639 17.8944 34.0637 16.8846 33.6634 16.0614C33.2675 15.2383 32.73 14.6153 32.0508 14.1925C31.3761 13.7696 30.6204 13.5582 29.7837 13.5582C28.9471 13.5582 28.1892 13.7696 27.5099 14.1925C26.8352 14.6153 26.2977 15.2383 25.8974 16.0614C25.5015 16.8846 25.3036 17.8944 25.3036 19.0909C25.3036 20.2874 25.5015 21.2972 25.8974 22.1204C26.2977 22.9435 26.8352 23.5665 27.5099 23.9893C28.1892 24.4122 28.9471 24.6236 29.7837 24.6236C30.6204 24.6236 31.3761 24.4122 32.0508 23.9893C32.73 23.5665 33.2675 22.9435 33.6634 22.1204C34.0637 21.2972 34.2639 20.2874 34.2639 19.0909ZM49.6541 12.1818V26H48.0348L40.505 15.1506H40.37V26H38.6967V12.1818H40.3161L47.8729 23.0582H48.0078V12.1818H49.6541ZM62.4484 16.5C62.3 16.0457 62.1043 15.6386 61.8614 15.2788C61.623 14.9144 61.3374 14.604 61.0045 14.3477C60.6762 14.0913 60.3028 13.8956 59.8845 13.7607C59.4662 13.6257 59.0074 13.5582 58.5081 13.5582C57.6894 13.5582 56.945 13.7696 56.2748 14.1925C55.6046 14.6153 55.0715 15.2383 54.6757 16.0614C54.2799 16.8846 54.0819 17.8944 54.0819 19.0909C54.0819 20.2874 54.2821 21.2972 54.6824 22.1204C55.0828 22.9435 55.6248 23.5665 56.3085 23.9893C56.9922 24.4122 57.7614 24.6236 58.616 24.6236C59.4077 24.6236 60.1049 24.4549 60.7077 24.1175C61.3149 23.7757 61.7872 23.2944 62.1246 22.6737C62.4664 22.0484 62.6373 21.313 62.6373 20.4673L63.1501 20.5753H58.9939V19.0909H64.2567V20.5753C64.2567 21.7133 64.0138 22.7029 63.528 23.544C63.0467 24.3852 62.3809 25.0374 61.5308 25.5007C60.6852 25.9595 59.7136 26.1889 58.616 26.1889C57.3925 26.1889 56.3175 25.901 55.3909 25.3253C54.4688 24.7495 53.7491 23.9309 53.2318 22.8693C52.719 21.8078 52.4626 20.5483 52.4626 19.0909C52.4626 17.9979 52.6088 17.015 52.9012 16.1424C53.1981 15.2653 53.6164 14.5186 54.1562 13.9023C54.6959 13.2861 55.3347 12.8138 56.0724 12.4854C56.81 12.1571 57.622 11.9929 58.5081 11.9929C59.2368 11.9929 59.916 12.1031 60.5457 12.3235C61.18 12.5394 61.7445 12.8475 62.2393 13.2479C62.7385 13.6437 63.1546 14.1183 63.4875 14.6715C63.8203 15.2203 64.0497 15.8298 64.1757 16.5H62.4484ZM74.6793 15.6364C74.5984 14.9527 74.27 14.4219 73.6942 14.044C73.1185 13.6662 72.4123 13.4773 71.5756 13.4773C70.9639 13.4773 70.4286 13.5762 69.9698 13.7741C69.5155 13.9721 69.1602 14.2442 68.9038 14.5906C68.6519 14.9369 68.5259 15.3305 68.5259 15.7713C68.5259 16.1402 68.6136 16.4573 68.7891 16.7227C68.969 16.9835 69.1984 17.2017 69.4773 17.3771C69.7562 17.5481 70.0485 17.6897 70.3544 17.8022C70.6603 17.9102 70.9414 17.9979 71.1978 18.0653L72.6012 18.4432C72.9611 18.5376 73.3614 18.6681 73.8022 18.8345C74.2475 19.0009 74.6726 19.2281 75.0774 19.516C75.4867 19.7994 75.8241 20.1637 76.0895 20.609C76.3549 21.0543 76.4876 21.6009 76.4876 22.2486C76.4876 22.9953 76.2919 23.67 75.9006 24.2727C75.5137 24.8755 74.947 25.3545 74.2003 25.7099C73.4581 26.0652 72.5562 26.2429 71.4947 26.2429C70.5051 26.2429 69.6482 26.0832 68.924 25.7638C68.2043 25.4445 67.6375 24.9992 67.2237 24.4279C66.8144 23.8567 66.5827 23.1932 66.5288 22.4375H68.256C68.301 22.9593 68.4764 23.3911 68.7823 23.733C69.0927 24.0703 69.484 24.3222 69.9563 24.4886C70.4331 24.6506 70.9459 24.7315 71.4947 24.7315C72.1334 24.7315 72.7069 24.6281 73.2152 24.4212C73.7235 24.2098 74.1261 23.9174 74.4229 23.544C74.7198 23.1662 74.8683 22.7254 74.8683 22.2216C74.8683 21.7628 74.7401 21.3894 74.4837 21.1016C74.2273 20.8137 73.8899 20.5798 73.4716 20.3999C73.0533 20.2199 72.6012 20.0625 72.1154 19.9276L70.4151 19.4418C69.3356 19.1314 68.4809 18.6883 67.8512 18.1126C67.2215 17.5368 66.9066 16.7834 66.9066 15.8523C66.9066 15.0786 67.1158 14.4039 67.5341 13.8281C67.9569 13.2479 68.5237 12.7981 69.2344 12.4787C69.9496 12.1548 70.748 11.9929 71.6296 11.9929C72.5202 11.9929 73.3119 12.1526 74.0046 12.4719C74.6973 12.7868 75.2461 13.2186 75.6509 13.7674C76.0603 14.3162 76.2762 14.9392 76.2987 15.6364H74.6793Z" fill="#391561"/>
<path d="M19.6647 15.6364L19.3171 15.6775L19.3537 15.9864H19.6647V15.6364ZM18.6796 14.044L18.4876 14.3367V14.3367L18.6796 14.044ZM14.9552 13.7741L14.8165 13.4528L14.8154 13.4533L14.9552 13.7741ZM13.8891 14.5906L13.6078 14.3823L13.6061 14.3847L13.8891 14.5906ZM13.7744 16.7227L13.4824 16.9157L13.4863 16.9214L13.7744 16.7227ZM14.4626 17.3771L14.2763 17.6734L14.2797 17.6755L14.4626 17.3771ZM15.3398 17.8022L15.219 18.1307L15.2233 18.1322L15.3398 17.8022ZM16.1831 18.0653L16.2741 17.7274L16.2722 17.7269L16.1831 18.0653ZM17.5866 18.4432L17.4956 18.7812L17.4977 18.7817L17.5866 18.4432ZM18.7876 18.8345L18.6639 19.162L18.665 19.1624L18.7876 18.8345ZM20.0628 19.516L19.8599 19.8012L19.8635 19.8037L20.0628 19.516ZM21.0748 20.609L21.3755 20.4298L21.0748 20.609ZM20.8859 24.2727L20.5924 24.0821L20.5914 24.0837L20.8859 24.2727ZM19.1856 25.7099L19.0352 25.3938L19.0345 25.3942L19.1856 25.7099ZM13.9094 25.7638L13.7674 26.0838L13.7681 26.0841L13.9094 25.7638ZM12.2091 24.4279L11.9246 24.6318L11.9256 24.6332L12.2091 24.4279ZM11.5141 22.4375V22.0875H11.1382L11.165 22.4624L11.5141 22.4375ZM13.2414 22.4375L13.5901 22.4074L13.5625 22.0875H13.2414V22.4375ZM13.7677 23.733L13.5068 23.9664L13.5101 23.9699L13.7677 23.733ZM14.9417 24.4886L14.8253 24.8188L14.8291 24.82L14.9417 24.4886ZM18.2006 24.4212L18.3325 24.7453L18.335 24.7443L18.2006 24.4212ZM19.4083 23.544L19.6822 23.7619L19.6835 23.7603L19.4083 23.544ZM19.469 21.1016L19.7304 20.8688L19.469 21.1016ZM18.4569 20.3999L18.3187 20.7214V20.7214L18.4569 20.3999ZM17.1008 19.9276L17.0046 20.2641L17.0071 20.2648L17.1008 19.9276ZM15.4005 19.4418L15.3038 19.7781L15.3043 19.7783L15.4005 19.4418ZM12.8366 18.1126L12.6004 18.3709L12.8366 18.1126ZM12.5194 13.8281L12.2366 13.622L12.2363 13.6224L12.5194 13.8281ZM14.2197 12.4787L14.3632 12.7979L14.3641 12.7975L14.2197 12.4787ZM18.99 12.4719L18.8434 12.7898L18.8451 12.7906L18.99 12.4719ZM20.6363 13.7674L20.3546 13.9752L20.3557 13.9767L20.6363 13.7674ZM21.284 15.6364V15.9864H21.6455L21.6338 15.6251L21.284 15.6364ZM20.0123 15.5952C19.9191 14.8088 19.5338 14.186 18.8716 13.7514L18.4876 14.3367C18.9769 14.6578 19.2483 15.0965 19.3171 15.6775L20.0123 15.5952ZM18.8716 13.7514C18.2276 13.3288 17.4511 13.1273 16.561 13.1273V13.8273C17.3442 13.8273 17.9801 14.0036 18.4876 14.3367L18.8716 13.7514ZM16.561 13.1273C15.912 13.1273 15.3278 13.2322 14.8165 13.4528L15.0938 14.0955C15.5002 13.9202 15.9865 13.8273 16.561 13.8273V13.1273ZM14.8154 13.4533C14.3134 13.672 13.9059 13.9797 13.6078 14.3823L14.1704 14.7988C14.3852 14.5087 14.6883 14.2722 15.095 14.095L14.8154 13.4533ZM13.6061 14.3847C13.3093 14.7927 13.1613 15.2588 13.1613 15.7713H13.8613C13.8613 15.4021 13.9651 15.0811 14.1722 14.7964L13.6061 14.3847ZM13.1613 15.7713C13.1613 16.1976 13.2634 16.5843 13.4824 16.9157L14.0664 16.5297C13.9346 16.3302 13.8613 16.0827 13.8613 15.7713H13.1613ZM13.4863 16.9214C13.6942 17.2229 13.9588 17.4737 14.2763 17.6734L14.649 17.0809C14.4087 16.9297 14.2144 16.7442 14.0625 16.5239L13.4863 16.9214ZM14.2797 17.6755C14.5782 17.8585 14.8914 18.0103 15.219 18.1307L15.4605 17.4737C15.1764 17.3692 14.9048 17.2376 14.6455 17.0787L14.2797 17.6755ZM15.2233 18.1322C15.5363 18.2427 15.8267 18.3334 16.0941 18.4038L16.2722 17.7269C16.0268 17.6623 15.755 17.5776 15.4562 17.4722L15.2233 18.1322ZM16.0922 18.4033L17.4956 18.7811L17.6775 18.1052L16.2741 17.7274L16.0922 18.4033ZM17.4977 18.7817C17.8432 18.8724 18.2317 18.9988 18.6639 19.162L18.9112 18.5071C18.4618 18.3374 18.0497 18.2029 17.6754 18.1047L17.4977 18.7817ZM18.665 19.1624C19.0806 19.3177 19.4788 19.5302 19.8599 19.8012L20.2656 19.2307C19.8371 18.926 19.3852 18.6842 18.9101 18.5067L18.665 19.1624ZM19.8635 19.8037C20.23 20.0574 20.5334 20.3841 20.7742 20.7882L21.3755 20.4298C21.0855 19.9433 20.7142 19.5413 20.262 19.2282L19.8635 19.8037ZM20.7742 20.7882C21.0001 21.1673 21.1229 21.6483 21.1229 22.2486H21.8229C21.8229 21.5534 21.6803 20.9413 21.3755 20.4298L20.7742 20.7882ZM21.1229 22.2486C21.1229 22.9304 20.9454 23.5384 20.5924 24.0821L21.1795 24.4633C21.6091 23.8015 21.8229 23.0601 21.8229 22.2486H21.1229ZM20.5914 24.0837C20.245 24.6234 19.7323 25.0621 19.0352 25.3938L19.336 26.0259C20.1324 25.6469 20.7532 25.1275 21.1805 24.4618L20.5914 24.0837ZM19.0345 25.3942C18.3511 25.7214 17.5039 25.8929 16.48 25.8929V26.5929C17.5793 26.5929 18.5358 26.4091 19.3368 26.0256L19.0345 25.3942ZM16.48 25.8929C15.5273 25.8929 14.7206 25.7391 14.0506 25.4436L13.7681 26.0841C14.5465 26.4273 15.4536 26.5929 16.48 26.5929V25.8929ZM14.0513 25.4439C13.3814 25.1466 12.866 24.7382 12.4925 24.2226L11.9256 24.6332C12.3798 25.2601 12.998 25.7423 13.7674 26.0838L14.0513 25.4439ZM12.4936 24.2241C12.1248 23.7094 11.913 23.109 11.8632 22.4126L11.165 22.4624C11.2232 23.2774 11.4747 24.0039 11.9246 24.6318L12.4936 24.2241ZM11.5141 22.7875H13.2414V22.0875H11.5141V22.7875ZM12.8927 22.4676C12.9432 23.0537 13.1434 23.5602 13.5068 23.9663L14.0285 23.4996C13.7802 23.222 13.6295 22.8649 13.5901 22.4074L12.8927 22.4676ZM13.5101 23.9699C13.8627 24.3532 14.3042 24.6351 14.8254 24.8187L15.058 24.1585C14.6346 24.0093 14.2934 23.7874 14.0252 23.496L13.5101 23.9699ZM14.8291 24.82C15.3453 24.9953 15.8964 25.0815 16.48 25.0815V24.3815C15.9661 24.3815 15.4917 24.3058 15.0542 24.1572L14.8291 24.82ZM16.48 25.0815C17.1567 25.0815 17.776 24.9719 18.3325 24.7453L18.0686 24.097C17.6085 24.2843 17.0808 24.3815 16.48 24.3815V25.0815ZM18.335 24.7443C18.8894 24.5137 19.3432 24.1883 19.6822 23.7619L19.1343 23.3262C18.8797 23.6465 18.5283 23.9058 18.0661 24.098L18.335 24.7443ZM19.6835 23.7603C20.0313 23.3176 20.2036 22.7997 20.2036 22.2216H19.5036C19.5036 22.651 19.379 23.0148 19.1331 23.3278L19.6835 23.7603ZM20.2036 22.2216C20.2036 21.6942 20.0544 21.2325 19.7304 20.8688L19.2076 21.3343C19.3965 21.5463 19.5036 21.8314 19.5036 22.2216H20.2036ZM19.7304 20.8688C19.4343 20.5364 19.0521 20.2749 18.5952 20.0783L18.3187 20.7214C18.6984 20.8847 18.9909 21.091 19.2076 21.3343L19.7304 20.8688ZM18.5952 20.0783C18.161 19.8916 17.6939 19.7291 17.1944 19.5903L17.0071 20.2648C17.4793 20.3959 17.9163 20.5483 18.3187 20.7214L18.5952 20.0783ZM17.1969 19.591L15.4966 19.1052L15.3043 19.7783L17.0046 20.2641L17.1969 19.591ZM15.4972 19.1054C14.4538 18.8054 13.6521 18.3839 13.0727 17.8543L12.6004 18.3709C13.2805 18.9927 14.1881 19.4574 15.3038 19.7781L15.4972 19.1054ZM13.0727 17.8543C12.5226 17.3513 12.242 16.6951 12.242 15.8523H11.542C11.542 16.8716 11.8911 17.7223 12.6004 18.3709L13.0727 17.8543ZM12.242 15.8523C12.242 15.1457 12.4315 14.5445 12.8026 14.0339L12.2363 13.6224C11.7707 14.2632 11.542 15.0115 11.542 15.8523H12.242ZM12.8023 14.0342C13.1863 13.5073 13.7031 13.0945 14.3632 12.7979L14.0763 12.1594C13.3149 12.5016 12.6983 12.9884 12.2366 13.622L12.8023 14.0342ZM14.3641 12.7975C15.0287 12.4966 15.777 12.3429 16.615 12.3429V11.6429C15.6897 11.6429 14.8412 11.8131 14.0753 12.1599L14.3641 12.7975ZM16.615 12.3429C17.4634 12.3429 18.2037 12.4949 18.8434 12.7898L19.1365 12.1541C18.3908 11.8103 17.5478 11.6429 16.615 11.6429V12.3429ZM18.8451 12.7906C19.49 13.0837 19.9892 13.4798 20.3546 13.9752L20.9179 13.5596C20.4737 12.9575 19.8754 12.49 19.1348 12.1533L18.8451 12.7906ZM20.3557 13.9767C20.7214 14.4669 20.914 15.0205 20.9342 15.6476L21.6338 15.6251C21.6091 14.8578 21.3698 14.1654 20.9168 13.5581L20.3557 13.9767ZM21.284 15.2864H19.6647V15.9864H21.284V15.2864ZM35.0938 22.8693L34.7802 22.7139V22.7139L35.0938 22.8693ZM32.9279 25.3253L33.1139 25.6218H33.1139L32.9279 25.3253ZM26.6396 25.3253L26.4535 25.6218L26.6396 25.3253ZM24.4737 22.8693L24.7873 22.7139V22.7139L24.4737 22.8693ZM24.4737 15.3125L24.1601 15.157L24.4737 15.3125ZM32.9279 12.8565L33.1139 12.5601H33.1139L32.9279 12.8565ZM35.0938 15.3125L34.7802 15.468L35.0938 15.3125ZM33.6634 16.0614L33.3479 16.2131L33.3486 16.2145L33.6634 16.0614ZM32.0508 14.1925L31.8649 14.489L31.8658 14.4896L32.0508 14.1925ZM27.5099 14.1925L27.325 13.8953L27.3241 13.8959L27.5099 14.1925ZM25.8974 16.0614L25.5826 15.9084L25.5819 15.9098L25.8974 16.0614ZM25.8974 22.1204L25.5819 22.2721L25.5826 22.2735L25.8974 22.1204ZM27.5099 23.9893L27.3241 24.2859L27.325 24.2865L27.5099 23.9893ZM32.0508 23.9893L31.8658 23.6922L31.8649 23.6928L32.0508 23.9893ZM33.6634 22.1204L33.3486 21.9673L33.3479 21.9687L33.6634 22.1204ZM35.5332 19.0909C35.5332 20.5065 35.2776 21.7105 34.7802 22.7139L35.4073 23.0248C35.9624 21.9051 36.2332 20.5901 36.2332 19.0909H35.5332ZM34.7802 22.7139C34.2798 23.7231 33.5997 24.4906 32.7419 25.0288L33.1139 25.6218C34.0913 25.0085 34.8551 24.1386 35.4073 23.0248L34.7802 22.7139ZM32.7419 25.0288C31.8849 25.5665 30.9024 25.8389 29.7837 25.8389V26.5389C31.022 26.5389 32.1357 26.2355 33.1139 25.6218L32.7419 25.0288ZM29.7837 25.8389C28.665 25.8389 27.6826 25.5665 26.8256 25.0288L26.4535 25.6218C27.4318 26.2355 28.5454 26.5389 29.7837 26.5389V25.8389ZM26.8256 25.0288C25.9678 24.4906 25.2877 23.7231 24.7873 22.7139L24.1601 23.0248C24.7123 24.1386 25.4761 25.0085 26.4535 25.6218L26.8256 25.0288ZM24.7873 22.7139C24.2899 21.7105 24.0343 20.5065 24.0343 19.0909H23.3343C23.3343 20.5901 23.605 21.9051 24.1601 23.0248L24.7873 22.7139ZM24.0343 19.0909C24.0343 17.6753 24.2899 16.4714 24.7873 15.468L24.1601 15.157C23.605 16.2768 23.3343 17.5918 23.3343 19.0909H24.0343ZM24.7873 15.468C25.2877 14.4587 25.9678 13.6912 26.8256 13.153L26.4535 12.5601C25.4761 13.1733 24.7123 14.0432 24.1601 15.157L24.7873 15.468ZM26.8256 13.153C27.6826 12.6153 28.665 12.3429 29.7837 12.3429V11.6429C28.5454 11.6429 27.4318 11.9463 26.4535 12.5601L26.8256 13.153ZM29.7837 12.3429C30.9024 12.3429 31.8849 12.6153 32.7419 13.153L33.1139 12.5601C32.1357 11.9463 31.022 11.6429 29.7837 11.6429V12.3429ZM32.7419 13.153C33.5997 13.6912 34.2798 14.4587 34.7802 15.468L35.4073 15.157C34.8551 14.0432 34.0913 13.1733 33.1139 12.5601L32.7419 13.153ZM34.7802 15.468C35.2776 16.4714 35.5332 17.6753 35.5332 19.0909H36.2332C36.2332 17.5918 35.9624 16.2768 35.4073 15.157L34.7802 15.468ZM34.6138 19.0909C34.6138 17.857 34.4076 16.7915 33.9781 15.9084L33.3486 16.2145C33.7197 16.9776 33.9139 17.9318 33.9139 19.0909H34.6138ZM33.9788 15.9098C33.5583 15.0354 32.979 14.3581 32.2358 13.8953L31.8658 14.4896C32.4809 14.8725 32.9767 15.4411 33.3479 16.2131L33.9788 15.9098ZM32.2366 13.8959C31.5033 13.4364 30.6826 13.2082 29.7837 13.2082V13.9082C30.5581 13.9082 31.2488 14.1029 31.8649 14.489L32.2366 13.8959ZM29.7837 13.2082C28.8848 13.2082 28.0623 13.4363 27.325 13.8953L27.6949 14.4896C28.316 14.103 29.0093 13.9082 29.7837 13.9082V13.2082ZM27.3241 13.8959C26.5859 14.3585 26.0072 15.0353 25.5826 15.9084L26.2121 16.2145C26.5882 15.4413 27.0846 14.8721 27.6958 14.489L27.3241 13.8959ZM25.5819 15.9098C25.1574 16.7925 24.9536 17.8575 24.9536 19.0909H25.6536C25.6536 17.9313 25.8456 16.9766 26.2128 16.2131L25.5819 15.9098ZM24.9536 19.0909C24.9536 20.3243 25.1574 21.3893 25.5819 22.2721L26.2128 21.9687C25.8456 21.2052 25.6536 20.2505 25.6536 19.0909H24.9536ZM25.5826 22.2735C26.0072 23.1466 26.5859 23.8233 27.3241 24.2859L27.6958 23.6928C27.0846 23.3097 26.5882 22.7405 26.2121 21.9673L25.5826 22.2735ZM27.325 24.2865C28.0623 24.7455 28.8848 24.9736 29.7837 24.9736V24.2736C29.0093 24.2736 28.316 24.0789 27.6949 23.6922L27.325 24.2865ZM29.7837 24.9736C30.6826 24.9736 31.5033 24.7455 32.2366 24.2859L31.8649 23.6928C31.2488 24.0789 30.5581 24.2736 29.7837 24.2736V24.9736ZM32.2358 24.2865C32.979 23.8238 33.5583 23.1464 33.9788 22.2721L33.3479 21.9687C32.9767 22.7407 32.4809 23.3093 31.8658 23.6922L32.2358 24.2865ZM33.9781 22.2735C34.4076 21.3903 34.6138 20.3248 34.6138 19.0909H33.9139C33.9139 20.25 33.7197 21.2042 33.3486 21.9673L33.9781 22.2735ZM49.6541 12.1818H50.0041V11.8318H49.6541V12.1818ZM49.6541 26V26.35H50.0041V26H49.6541ZM48.0348 26L47.7473 26.1996L47.8517 26.35H48.0348V26ZM40.505 15.1506L40.7925 14.951L40.6881 14.8006H40.505V15.1506ZM40.37 15.1506V14.8006H40.02V15.1506H40.37ZM40.37 26V26.35H40.72V26H40.37ZM38.6967 26H38.3467V26.35H38.6967V26ZM38.6967 12.1818V11.8318H38.3467V12.1818H38.6967ZM40.3161 12.1818L40.6035 11.9821L40.4991 11.8318H40.3161V12.1818ZM47.8729 23.0582L47.5854 23.2579L47.6899 23.4082H47.8729V23.0582ZM48.0078 23.0582V23.4082H48.3578V23.0582H48.0078ZM48.0078 12.1818V11.8318H47.6578V12.1818H48.0078ZM49.3041 12.1818V26H50.0041V12.1818H49.3041ZM49.6541 25.65H48.0348V26.35H49.6541V25.65ZM48.3223 25.8004L40.7925 14.951L40.2174 15.3501L47.7473 26.1996L48.3223 25.8004ZM40.505 14.8006H40.37V15.5006H40.505V14.8006ZM40.02 15.1506V26H40.72V15.1506H40.02ZM40.37 25.65H38.6967V26.35H40.37V25.65ZM39.0467 26V12.1818H38.3467V26H39.0467ZM38.6967 12.5318H40.3161V11.8318H38.6967V12.5318ZM40.0286 12.3815L47.5854 23.2579L48.1603 22.8585L40.6035 11.9821L40.0286 12.3815ZM47.8729 23.4082H48.0078V22.7082H47.8729V23.4082ZM48.3578 23.0582V12.1818H47.6578V23.0582H48.3578ZM48.0078 12.5318H49.6541V11.8318H48.0078V12.5318ZM62.4484 16.5L62.1157 16.6087L62.1946 16.85H62.4484V16.5ZM61.8614 15.2788L61.5685 15.4704L61.5713 15.4746L61.8614 15.2788ZM61.0045 14.3477L60.7891 14.6235L60.7909 14.6249L61.0045 14.3477ZM59.8845 13.7607L59.992 13.4276L59.8845 13.7607ZM54.6757 16.0614L54.9911 16.2131L54.6757 16.0614ZM54.6824 22.1204L54.3677 22.2735L54.6824 22.1204ZM56.3085 23.9893L56.1244 24.287L56.3085 23.9893ZM60.7077 24.1175L60.8786 24.423L60.8794 24.4225L60.7077 24.1175ZM62.1246 22.6737L61.8175 22.5057L61.817 22.5065L62.1246 22.6737ZM62.6373 20.4673L62.7094 20.1248L62.2873 20.036V20.4673H62.6373ZM63.1501 20.5753V20.9253L63.2222 20.2328L63.1501 20.5753ZM58.9939 20.5753H58.6439V20.9253H58.9939V20.5753ZM58.9939 19.0909V18.7409H58.6439V19.0909H58.9939ZM64.2567 19.0909H64.6067V18.7409H64.2567V19.0909ZM63.528 23.544L63.2249 23.369L63.2242 23.3702L63.528 23.544ZM61.5308 25.5007L61.6977 25.8083L61.6983 25.808L61.5308 25.5007ZM55.3909 25.3253L55.2055 25.6222L55.2062 25.6226L55.3909 25.3253ZM53.2318 22.8693L52.9166 23.0216L52.9172 23.0226L53.2318 22.8693ZM52.9012 16.1424L52.5697 16.0302L52.5693 16.0312L52.9012 16.1424ZM54.1562 13.9023L54.4194 14.133L54.1562 13.9023ZM56.0724 12.4854L55.93 12.1657L56.0724 12.4854ZM60.5457 12.3235L60.4301 12.6539L60.4329 12.6548L60.5457 12.3235ZM62.2393 13.2479L62.0191 13.52L62.0218 13.5221L62.2393 13.2479ZM63.4875 14.6715L63.1876 14.852L63.1882 14.853L63.4875 14.6715ZM64.1757 16.5V16.85H64.5976L64.5197 16.4354L64.1757 16.5ZM62.7811 16.3913C62.6236 15.9092 62.4143 15.4723 62.1515 15.0829L61.5713 15.4746C61.7943 15.8049 61.9764 16.1822 62.1157 16.6087L62.7811 16.3913ZM62.1543 15.0871C61.8952 14.6912 61.5831 14.3515 61.2181 14.0704L60.7909 14.6249C61.0916 14.8566 61.3508 15.1376 61.5685 15.4704L62.1543 15.0871ZM61.2199 14.0718C60.8575 13.7888 60.4472 13.5744 59.992 13.4276L59.7771 14.0938C60.1585 14.2168 60.4949 14.3938 60.7891 14.6235L61.2199 14.0718ZM59.992 13.4276C59.5346 13.28 59.039 13.2082 58.5081 13.2082V13.9082C58.9758 13.9082 59.3978 13.9714 59.7771 14.0938L59.992 13.4276ZM58.5081 13.2082C57.6256 13.2082 56.8161 13.4372 56.088 13.8965L56.4615 14.4885C57.0739 14.1021 57.7532 13.9082 58.5081 13.9082V13.2082ZM56.088 13.8965C55.3541 14.3594 54.7801 15.0366 54.3603 15.9098L54.9911 16.2131C55.3629 15.44 55.855 14.8711 56.4615 14.4885L56.088 13.8965ZM54.3603 15.9098C53.9358 16.7925 53.7319 17.8575 53.7319 19.0909H54.4319C54.4319 17.9313 54.624 16.9766 54.9911 16.2131L54.3603 15.9098ZM53.7319 19.0909C53.7319 20.3248 53.9382 21.3903 54.3677 22.2735L54.9972 21.9673C54.626 21.2042 54.4319 20.25 54.4319 19.0909H53.7319ZM54.3677 22.2735C54.7929 23.1477 55.3768 23.8247 56.1244 24.287L56.4926 23.6917C55.8728 23.3084 55.3727 22.7393 54.9972 21.9673L54.3677 22.2735ZM56.1244 24.287C56.867 24.7462 57.7006 24.9736 58.616 24.9736V24.2736C57.8221 24.2736 57.1175 24.0781 56.4926 23.6917L56.1244 24.287ZM58.616 24.9736C59.4587 24.9736 60.2164 24.7936 60.8786 24.423L60.5367 23.8121C59.9934 24.1162 59.3567 24.2736 58.616 24.2736V24.9736ZM60.8794 24.4225C61.5448 24.0479 62.0638 23.5185 62.4321 22.8408L61.817 22.5065C61.5106 23.0703 61.085 23.5034 60.536 23.8126L60.8794 24.4225ZM62.4317 22.8416C62.8065 22.156 62.9873 21.3607 62.9873 20.4673H62.2873C62.2873 21.2652 62.1263 21.9408 61.8175 22.5057L62.4317 22.8416ZM62.5652 20.8098L63.078 20.9178L63.2222 20.2328L62.7094 20.1248L62.5652 20.8098ZM63.1501 20.2253H58.9939V20.9253H63.1501V20.2253ZM59.3439 20.5753V19.0909H58.6439V20.5753H59.3439ZM58.9939 19.4409H64.2567V18.7409H58.9939V19.4409ZM63.9067 19.0909V20.5753H64.6067V19.0909H63.9067ZM63.9067 20.5753C63.9067 21.6625 63.675 22.5896 63.2249 23.369L63.8311 23.7191C64.3525 22.8162 64.6067 21.7641 64.6067 20.5753H63.9067ZM63.2242 23.3702C62.775 24.1551 62.1565 24.7611 61.3633 25.1934L61.6983 25.808C62.6054 25.3137 63.3183 24.6152 63.8318 23.7179L63.2242 23.3702ZM61.3639 25.1931C60.5763 25.6204 59.6636 25.8389 58.616 25.8389V26.5389C59.7636 26.5389 60.794 26.2987 61.6977 25.8083L61.3639 25.1931ZM58.616 25.8389C57.4497 25.8389 56.4402 25.5652 55.5756 25.028L55.2062 25.6226C56.1948 26.2368 57.3354 26.5389 58.616 26.5389V25.8389ZM55.5763 25.0284C54.7146 24.4904 54.0375 23.7238 53.5464 22.716L52.9172 23.0226C53.4606 24.1379 54.2229 25.0086 55.2055 25.6222L55.5763 25.0284ZM53.547 22.7171C53.0619 21.7129 52.8126 20.5078 52.8126 19.0909H52.1126C52.1126 20.5888 52.3762 21.9027 52.9166 23.0216L53.547 22.7171ZM52.8126 19.0909C52.8126 18.0288 52.9547 17.0844 53.2331 16.2536L52.5693 16.0312C52.2629 16.9457 52.1126 17.967 52.1126 19.0909H52.8126ZM53.2327 16.2546C53.5168 15.4154 53.9137 14.7104 54.4194 14.133L53.8929 13.6717C53.3191 14.3268 52.8794 15.1151 52.5697 16.0302L53.2327 16.2546ZM54.4194 14.133C54.9263 13.5543 55.524 13.1126 56.2147 12.8052L55.93 12.1657C55.1454 12.515 54.4655 13.0179 53.8929 13.6717L54.4194 14.133ZM56.2147 12.8052C56.9034 12.4986 57.6662 12.3429 58.5081 12.3429V11.6429C57.5777 11.6429 56.7167 11.8155 55.93 12.1657L56.2147 12.8052ZM58.5081 12.3429C59.201 12.3429 59.8408 12.4476 60.4301 12.6539L60.6613 11.9932C59.9912 11.7586 59.2725 11.6429 58.5081 11.6429V12.3429ZM60.4329 12.6548C61.0302 12.8582 61.558 13.1469 62.0191 13.52L62.4594 12.9758C61.9309 12.5482 61.3297 12.2207 60.6585 11.9922L60.4329 12.6548ZM62.0218 13.5221C62.4878 13.8915 62.8761 14.3342 63.1876 14.852L63.7874 14.4911C63.4332 13.9023 62.9893 13.3959 62.4567 12.9736L62.0218 13.5221ZM63.1882 14.853C63.4979 15.3636 63.713 15.9331 63.8317 16.5646L64.5197 16.4354C64.3864 15.7264 64.1427 15.0769 63.7867 14.49L63.1882 14.853ZM64.1757 16.15H62.4484V16.85H64.1757V16.15ZM74.6793 15.6364L74.3318 15.6775L74.3683 15.9864H74.6793V15.6364ZM73.6942 14.044L73.5022 14.3367V14.3367L73.6942 14.044ZM69.9698 13.7741L69.8312 13.4528L69.83 13.4533L69.9698 13.7741ZM68.9038 14.5906L68.6224 14.3823L68.6207 14.3847L68.9038 14.5906ZM68.7891 16.7227L68.497 16.9157L68.5009 16.9214L68.7891 16.7227ZM69.4773 17.3771L69.2909 17.6734L69.2944 17.6755L69.4773 17.3771ZM70.3544 17.8022L70.2336 18.1307L70.2379 18.1322L70.3544 17.8022ZM71.1978 18.0653L71.2888 17.7274L71.2869 17.7269L71.1978 18.0653ZM72.6012 18.4432L72.5102 18.7812L72.5123 18.7817L72.6012 18.4432ZM73.8022 18.8345L73.6786 19.162L73.6797 19.1624L73.8022 18.8345ZM75.0774 19.516L74.8746 19.8012L74.8782 19.8037L75.0774 19.516ZM76.0895 20.609L76.3901 20.4298L76.0895 20.609ZM75.9006 24.2727L75.607 24.0821L75.606 24.0837L75.9006 24.2727ZM74.2003 25.7099L74.0499 25.3938L74.0491 25.3942L74.2003 25.7099ZM68.924 25.7638L68.782 26.0838L68.7828 26.0841L68.924 25.7638ZM67.2237 24.4279L66.9392 24.6318L66.9403 24.6332L67.2237 24.4279ZM66.5288 22.4375V22.0875H66.1529L66.1797 22.4624L66.5288 22.4375ZM68.256 22.4375L68.6047 22.4074L68.5772 22.0875H68.256V22.4375ZM68.7823 23.733L68.5215 23.9664L68.5247 23.9699L68.7823 23.733ZM69.9563 24.4886L69.84 24.8188L69.8438 24.82L69.9563 24.4886ZM73.2152 24.4212L73.3472 24.7453L73.3496 24.7443L73.2152 24.4212ZM74.4229 23.544L74.6969 23.7619L74.6982 23.7603L74.4229 23.544ZM74.4837 21.1016L74.745 20.8688L74.4837 21.1016ZM73.4716 20.3999L73.3333 20.7214V20.7214L73.4716 20.3999ZM72.1154 19.9276L72.0193 20.2641L72.0217 20.2648L72.1154 19.9276ZM70.4151 19.4418L70.3184 19.7781L70.319 19.7783L70.4151 19.4418ZM67.8512 18.1126L67.615 18.3709L67.8512 18.1126ZM67.5341 13.8281L67.2512 13.622L67.2509 13.6224L67.5341 13.8281ZM69.2344 12.4787L69.3778 12.7979L69.3788 12.7975L69.2344 12.4787ZM74.0046 12.4719L73.8581 12.7898L73.8598 12.7906L74.0046 12.4719ZM75.6509 13.7674L75.3693 13.9752L75.3704 13.9767L75.6509 13.7674ZM76.2987 15.6364V15.9864H76.6601L76.6485 15.6251L76.2987 15.6364ZM75.0269 15.5952C74.9338 14.8088 74.5485 14.186 73.8863 13.7514L73.5022 14.3367C73.9916 14.6578 74.263 15.0965 74.3318 15.6775L75.0269 15.5952ZM73.8863 13.7514C73.2422 13.3288 72.4657 13.1273 71.5756 13.1273V13.8273C72.3589 13.8273 72.9947 14.0036 73.5022 14.3367L73.8863 13.7514ZM71.5756 13.1273C70.9266 13.1273 70.3424 13.2322 69.8312 13.4528L70.1084 14.0955C70.5148 13.9202 71.0012 13.8273 71.5756 13.8273V13.1273ZM69.83 13.4533C69.328 13.672 68.9205 13.9797 68.6225 14.3823L69.1851 14.7988C69.3998 14.5087 69.703 14.2722 70.1096 14.095L69.83 13.4533ZM68.6207 14.3847C68.324 14.7927 68.1759 15.2588 68.1759 15.7713H68.8759C68.8759 15.4021 68.9798 15.0811 69.1868 14.7964L68.6207 14.3847ZM68.1759 15.7713C68.1759 16.1976 68.2781 16.5843 68.4971 16.9157L69.081 16.5297C68.9492 16.3302 68.8759 16.0827 68.8759 15.7713H68.1759ZM68.5009 16.9214C68.7089 17.2229 68.9735 17.4737 69.2909 17.6734L69.6636 17.0809C69.4233 16.9297 69.2291 16.7442 69.0772 16.5239L68.5009 16.9214ZM69.2944 17.6755C69.5928 17.8585 69.906 18.0103 70.2336 18.1307L70.4752 17.4737C70.191 17.3692 69.9195 17.2376 69.6602 17.0787L69.2944 17.6755ZM70.2379 18.1322C70.5509 18.2427 70.8413 18.3334 71.1087 18.4038L71.2869 17.7269C71.0415 17.6623 70.7696 17.5776 70.4709 17.4722L70.2379 18.1322ZM71.1068 18.4033L72.5102 18.7811L72.6922 18.1052L71.2888 17.7274L71.1068 18.4033ZM72.5123 18.7817C72.8578 18.8724 73.2463 18.9988 73.6786 19.162L73.9258 18.5071C73.4765 18.3374 73.0643 18.2029 72.6901 18.1047L72.5123 18.7817ZM73.6797 19.1624C74.0952 19.3177 74.4934 19.5302 74.8746 19.8012L75.2803 19.2307C74.8517 18.926 74.3998 18.6842 73.9247 18.5067L73.6797 19.1624ZM74.8782 19.8037C75.2446 20.0574 75.548 20.3841 75.7888 20.7882L76.3901 20.4298C76.1002 19.9433 75.7289 19.5413 75.2766 19.2282L74.8782 19.8037ZM75.7888 20.7882C76.0148 21.1673 76.1376 21.6483 76.1376 22.2486H76.8376C76.8376 21.5534 76.695 20.9413 76.3901 20.4298L75.7888 20.7882ZM76.1376 22.2486C76.1376 22.9304 75.96 23.5384 75.607 24.0821L76.1941 24.4633C76.6238 23.8015 76.8376 23.0601 76.8376 22.2486H76.1376ZM75.606 24.0837C75.2596 24.6234 74.7469 25.0621 74.0499 25.3938L74.3507 26.0259C75.147 25.6469 75.7678 25.1275 76.1951 24.4618L75.606 24.0837ZM74.0491 25.3942C73.3658 25.7214 72.5185 25.8929 71.4947 25.8929V26.5929C72.5939 26.5929 73.5504 26.4091 74.3514 26.0256L74.0491 25.3942ZM71.4947 25.8929C70.5419 25.8929 69.7353 25.7391 69.0652 25.4436L68.7828 26.0841C69.5611 26.4273 70.4683 26.5929 71.4947 26.5929V25.8929ZM69.066 25.4439C68.396 25.1466 67.8807 24.7382 67.5072 24.2226L66.9403 24.6332C67.3944 25.2601 68.0126 25.7423 68.782 26.0838L69.066 25.4439ZM67.5082 24.2241C67.1395 23.7094 66.9276 23.109 66.8779 22.4126L66.1797 22.4624C66.2379 23.2774 66.4893 24.0039 66.9392 24.6318L67.5082 24.2241ZM66.5288 22.7875H68.256V22.0875H66.5288V22.7875ZM67.9073 22.4676C67.9579 23.0537 68.1581 23.5602 68.5215 23.9663L69.0431 23.4996C68.7948 23.222 68.6442 22.8649 68.6047 22.4074L67.9073 22.4676ZM68.5247 23.9699C68.8774 24.3532 69.3188 24.6351 69.84 24.8187L70.0726 24.1585C69.6492 24.0093 69.308 23.7874 69.0399 23.496L68.5247 23.9699ZM69.8438 24.82C70.3599 24.9953 70.9111 25.0815 71.4947 25.0815V24.3815C70.9808 24.3815 70.5063 24.3058 70.0689 24.1572L69.8438 24.82ZM71.4947 25.0815C72.1713 25.0815 72.7907 24.9719 73.3472 24.7453L73.0832 24.097C72.6231 24.2843 72.0955 24.3815 71.4947 24.3815V25.0815ZM73.3496 24.7443C73.9041 24.5137 74.3578 24.1883 74.6969 23.7619L74.149 23.3262C73.8943 23.6465 73.5429 23.9058 73.0808 24.098L73.3496 24.7443ZM74.6982 23.7603C75.0459 23.3176 75.2183 22.7997 75.2183 22.2216H74.5182C74.5182 22.651 74.3937 23.0148 74.1477 23.3278L74.6982 23.7603ZM75.2183 22.2216C75.2183 21.6942 75.069 21.2325 74.745 20.8688L74.2223 21.3343C74.4111 21.5463 74.5182 21.8314 74.5182 22.2216H75.2183ZM74.745 20.8688C74.449 20.5364 74.0668 20.2749 73.6099 20.0783L73.3333 20.7214C73.713 20.8847 74.0056 21.091 74.2223 21.3343L74.745 20.8688ZM73.6099 20.0783C73.1756 19.8916 72.7085 19.7291 72.2091 19.5903L72.0217 20.2648C72.4939 20.3959 72.9309 20.5483 73.3333 20.7214L73.6099 20.0783ZM72.2116 19.591L70.5113 19.1052L70.319 19.7783L72.0193 20.2641L72.2116 19.591ZM70.5118 19.1054C69.4684 18.8054 68.6667 18.3839 68.0874 17.8543L67.615 18.3709C68.2952 18.9927 69.2027 19.4574 70.3184 19.7781L70.5118 19.1054ZM68.0874 17.8543C67.5372 17.3513 67.2566 16.6951 67.2566 15.8523H66.5566C66.5566 16.8716 66.9057 17.7223 67.615 18.3709L68.0874 17.8543ZM67.2566 15.8523C67.2566 15.1457 67.4462 14.5445 67.8172 14.0339L67.2509 13.6224C66.7853 14.2632 66.5566 15.0115 66.5566 15.8523H67.2566ZM67.817 14.0342C68.2009 13.5073 68.7178 13.0945 69.3778 12.7979L69.0909 12.1594C68.3296 12.5016 67.7129 12.9884 67.2512 13.622L67.817 14.0342ZM69.3788 12.7975C70.0433 12.4966 70.7916 12.3429 71.6296 12.3429V11.6429C70.7043 11.6429 69.8558 11.8131 69.09 12.1599L69.3788 12.7975ZM71.6296 12.3429C72.4781 12.3429 73.2184 12.4949 73.8581 12.7898L74.1512 12.1541C73.4054 11.8103 72.5624 11.6429 71.6296 11.6429V12.3429ZM73.8598 12.7906C74.5046 13.0837 75.0038 13.4798 75.3693 13.9752L75.9326 13.5596C75.4884 12.9575 74.8901 12.49 74.1494 12.1533L73.8598 12.7906ZM75.3704 13.9767C75.7361 14.4669 75.9286 15.0205 75.9488 15.6476L76.6485 15.6251C76.6237 14.8578 76.3844 14.1654 75.9315 13.5581L75.3704 13.9767ZM76.2987 15.2864H74.6793V15.9864H76.2987V15.2864Z" fill="#391561" mask="url(#path-2-outside-1_538_574)"/>
</svg>
