<svg width="93" height="37" viewBox="0 0 93 37" fill="none" xmlns="http://www.w3.org/2000/svg">
<rect width="93" height="37" rx="10" fill="white"/>
<mask id="path-2-outside-1_103_12721" maskUnits="userSpaceOnUse" x="23" y="8" width="47" height="24" fill="black">
<rect fill="white" x="23" y="8" width="47" height="24"/>
<path d="M34.3476 13.4545C34.2496 12.6269 33.8521 11.9844 33.1551 11.527C32.4582 11.0696 31.6033 10.8409 30.5905 10.8409C29.85 10.8409 29.202 10.9607 28.6466 11.2003C28.0967 11.4399 27.6665 11.7693 27.3561 12.1886C27.0512 12.6078 26.8987 13.0843 26.8987 13.6179C26.8987 14.0644 27.0049 14.4483 27.2173 14.7695C27.4351 15.0853 27.7128 15.3494 28.0504 15.5618C28.388 15.7687 28.7419 15.9402 29.1122 16.0763C29.4824 16.207 29.8228 16.3132 30.1331 16.3949L31.832 16.8523C32.2676 16.9666 32.7522 17.1245 33.2858 17.326C33.8249 17.5275 34.3394 17.8024 34.8295 18.1509C35.325 18.494 35.7334 18.935 36.0546 19.4741C36.3759 20.0131 36.5365 20.6747 36.5365 21.4588C36.5365 22.3627 36.2997 23.1795 35.826 23.9091C35.3577 24.6387 34.6716 25.2186 33.7677 25.6488C32.8693 26.079 31.7775 26.294 30.4925 26.294C29.2946 26.294 28.2573 26.1007 27.3806 25.7141C26.5094 25.3275 25.8233 24.7885 25.3224 24.0969C24.8269 23.4054 24.5465 22.6023 24.4811 21.6875H26.572C26.6265 22.3191 26.8389 22.8419 27.2091 23.2557C27.5848 23.6641 28.0585 23.969 28.6303 24.1705C29.2075 24.3665 29.8282 24.4645 30.4925 24.4645C31.2657 24.4645 31.9599 24.3393 32.5752 24.0888C33.1905 23.8329 33.6779 23.4789 34.0372 23.027C34.3966 22.5696 34.5763 22.036 34.5763 21.4261C34.5763 20.8707 34.4211 20.4188 34.1108 20.0703C33.8004 19.7218 33.392 19.4387 32.8856 19.2209C32.3792 19.0031 31.832 18.8125 31.2439 18.6491L29.1857 18.0611C27.8789 17.6854 26.8443 17.149 26.082 16.4521C25.3197 15.7551 24.9385 14.843 24.9385 13.7159C24.9385 12.7794 25.1917 11.9626 25.6981 11.2656C26.2099 10.5632 26.896 10.0187 27.7563 9.6321C28.6221 9.24006 29.5886 9.04403 30.6559 9.04403C31.734 9.04403 32.6923 9.23733 33.5309 9.62393C34.3694 10.0051 35.0337 10.5278 35.5237 11.1921C36.0193 11.8564 36.2806 12.6106 36.3078 13.4545H34.3476ZM41.4024 21.4261L41.3697 19.0412H41.7618L47.2504 13.4545H49.6353L43.7873 19.3679H43.624L41.4024 21.4261ZM39.6055 26V9.27273H41.5331V26H39.6055ZM47.5771 26L42.6765 19.7926L44.0487 18.4531L50.0274 26H47.5771ZM52.1163 26V13.4545H54.0438V26H52.1163ZM53.0964 11.3636C52.7207 11.3636 52.3967 11.2357 52.1244 10.9798C51.8576 10.7238 51.7242 10.4162 51.7242 10.0568C51.7242 9.69744 51.8576 9.3898 52.1244 9.13388C52.3967 8.87796 52.7207 8.75 53.0964 8.75C53.4721 8.75 53.7933 8.87796 54.0601 9.13388C54.3324 9.3898 54.4685 9.69744 54.4685 10.0568C54.4685 10.4162 54.3324 10.7238 54.0601 10.9798C53.7933 11.2357 53.4721 11.3636 53.0964 11.3636ZM57.5743 30.7045V13.4545H59.4365V15.4474H59.6652C59.8067 15.2296 60.0028 14.9519 60.2532 14.6143C60.5092 14.2713 60.874 13.9664 61.3477 13.6996C61.8269 13.4273 62.4748 13.2912 63.2916 13.2912C64.3479 13.2912 65.279 13.5553 66.0849 14.0835C66.8908 14.6116 67.5197 15.3603 67.9716 16.3295C68.4236 17.2988 68.6495 18.4422 68.6495 19.7599C68.6495 21.0885 68.4236 22.2402 67.9716 23.2148C67.5197 24.1841 66.8935 24.9355 66.0931 25.4691C65.2927 25.9973 64.3697 26.2614 63.3243 26.2614C62.5184 26.2614 61.8732 26.128 61.3885 25.8612C60.9039 25.5889 60.5309 25.2812 60.2696 24.9382C60.0082 24.5897 59.8067 24.3011 59.6652 24.0724H59.5018V30.7045H57.5743ZM59.4691 19.7273C59.4691 20.6747 59.608 21.5105 59.8857 22.2347C60.1634 22.9535 60.5691 23.517 61.1027 23.9254C61.6363 24.3284 62.2897 24.5298 63.0629 24.5298C63.8688 24.5298 64.5412 24.3175 65.0803 23.8928C65.6248 23.4626 66.0332 22.8854 66.3054 22.1612C66.5831 21.4316 66.722 20.6203 66.722 19.7273C66.722 18.8452 66.5859 18.0502 66.3136 17.3423C66.0468 16.629 65.6411 16.0655 65.0966 15.6516C64.5576 15.2324 63.8797 15.0227 63.0629 15.0227C62.2788 15.0227 61.62 15.2215 61.0863 15.619C60.5527 16.011 60.1498 16.561 59.8775 17.2688C59.6053 17.9712 59.4691 18.7907 59.4691 19.7273Z"/>
</mask>
<path d="M34.3476 13.4545C34.2496 12.6269 33.8521 11.9844 33.1551 11.527C32.4582 11.0696 31.6033 10.8409 30.5905 10.8409C29.85 10.8409 29.202 10.9607 28.6466 11.2003C28.0967 11.4399 27.6665 11.7693 27.3561 12.1886C27.0512 12.6078 26.8987 13.0843 26.8987 13.6179C26.8987 14.0644 27.0049 14.4483 27.2173 14.7695C27.4351 15.0853 27.7128 15.3494 28.0504 15.5618C28.388 15.7687 28.7419 15.9402 29.1122 16.0763C29.4824 16.207 29.8228 16.3132 30.1331 16.3949L31.832 16.8523C32.2676 16.9666 32.7522 17.1245 33.2858 17.326C33.8249 17.5275 34.3394 17.8024 34.8295 18.1509C35.325 18.494 35.7334 18.935 36.0546 19.4741C36.3759 20.0131 36.5365 20.6747 36.5365 21.4588C36.5365 22.3627 36.2997 23.1795 35.826 23.9091C35.3577 24.6387 34.6716 25.2186 33.7677 25.6488C32.8693 26.079 31.7775 26.294 30.4925 26.294C29.2946 26.294 28.2573 26.1007 27.3806 25.7141C26.5094 25.3275 25.8233 24.7885 25.3224 24.0969C24.8269 23.4054 24.5465 22.6023 24.4811 21.6875H26.572C26.6265 22.3191 26.8389 22.8419 27.2091 23.2557C27.5848 23.6641 28.0585 23.969 28.6303 24.1705C29.2075 24.3665 29.8282 24.4645 30.4925 24.4645C31.2657 24.4645 31.9599 24.3393 32.5752 24.0888C33.1905 23.8329 33.6779 23.4789 34.0372 23.027C34.3966 22.5696 34.5763 22.036 34.5763 21.4261C34.5763 20.8707 34.4211 20.4188 34.1108 20.0703C33.8004 19.7218 33.392 19.4387 32.8856 19.2209C32.3792 19.0031 31.832 18.8125 31.2439 18.6491L29.1857 18.0611C27.8789 17.6854 26.8443 17.149 26.082 16.4521C25.3197 15.7551 24.9385 14.843 24.9385 13.7159C24.9385 12.7794 25.1917 11.9626 25.6981 11.2656C26.2099 10.5632 26.896 10.0187 27.7563 9.6321C28.6221 9.24006 29.5886 9.04403 30.6559 9.04403C31.734 9.04403 32.6923 9.23733 33.5309 9.62393C34.3694 10.0051 35.0337 10.5278 35.5237 11.1921C36.0193 11.8564 36.2806 12.6106 36.3078 13.4545H34.3476ZM41.4024 21.4261L41.3697 19.0412H41.7618L47.2504 13.4545H49.6353L43.7873 19.3679H43.624L41.4024 21.4261ZM39.6055 26V9.27273H41.5331V26H39.6055ZM47.5771 26L42.6765 19.7926L44.0487 18.4531L50.0274 26H47.5771ZM52.1163 26V13.4545H54.0438V26H52.1163ZM53.0964 11.3636C52.7207 11.3636 52.3967 11.2357 52.1244 10.9798C51.8576 10.7238 51.7242 10.4162 51.7242 10.0568C51.7242 9.69744 51.8576 9.3898 52.1244 9.13388C52.3967 8.87796 52.7207 8.75 53.0964 8.75C53.4721 8.75 53.7933 8.87796 54.0601 9.13388C54.3324 9.3898 54.4685 9.69744 54.4685 10.0568C54.4685 10.4162 54.3324 10.7238 54.0601 10.9798C53.7933 11.2357 53.4721 11.3636 53.0964 11.3636ZM57.5743 30.7045V13.4545H59.4365V15.4474H59.6652C59.8067 15.2296 60.0028 14.9519 60.2532 14.6143C60.5092 14.2713 60.874 13.9664 61.3477 13.6996C61.8269 13.4273 62.4748 13.2912 63.2916 13.2912C64.3479 13.2912 65.279 13.5553 66.0849 14.0835C66.8908 14.6116 67.5197 15.3603 67.9716 16.3295C68.4236 17.2988 68.6495 18.4422 68.6495 19.7599C68.6495 21.0885 68.4236 22.2402 67.9716 23.2148C67.5197 24.1841 66.8935 24.9355 66.0931 25.4691C65.2927 25.9973 64.3697 26.2614 63.3243 26.2614C62.5184 26.2614 61.8732 26.128 61.3885 25.8612C60.9039 25.5889 60.5309 25.2812 60.2696 24.9382C60.0082 24.5897 59.8067 24.3011 59.6652 24.0724H59.5018V30.7045H57.5743ZM59.4691 19.7273C59.4691 20.6747 59.608 21.5105 59.8857 22.2347C60.1634 22.9535 60.5691 23.517 61.1027 23.9254C61.6363 24.3284 62.2897 24.5298 63.0629 24.5298C63.8688 24.5298 64.5412 24.3175 65.0803 23.8928C65.6248 23.4626 66.0332 22.8854 66.3054 22.1612C66.5831 21.4316 66.722 20.6203 66.722 19.7273C66.722 18.8452 66.5859 18.0502 66.3136 17.3423C66.0468 16.629 65.6411 16.0655 65.0966 15.6516C64.5576 15.2324 63.8797 15.0227 63.0629 15.0227C62.2788 15.0227 61.62 15.2215 61.0863 15.619C60.5527 16.011 60.1498 16.561 59.8775 17.2688C59.6053 17.9712 59.4691 18.7907 59.4691 19.7273Z" fill="#391561"/>
<path d="M34.3476 13.4545L33.6028 13.5427L33.6812 14.2045H34.3476V13.4545ZM33.1551 11.527L32.7436 12.154H32.7436L33.1551 11.527ZM28.6466 11.2003L28.3495 10.5116L28.3471 10.5127L28.6466 11.2003ZM27.3561 12.1886L26.7533 11.7423L26.7496 11.7474L27.3561 12.1886ZM27.2173 14.7695L26.5916 15.1831L26.5957 15.1893L26.5999 15.1953L27.2173 14.7695ZM28.0504 15.5618L27.651 16.1967L27.6585 16.2012L28.0504 15.5618ZM29.1122 16.0763L28.8534 16.7803L28.8626 16.7836L29.1122 16.0763ZM30.1331 16.3949L30.3281 15.6707L30.324 15.6696L30.1331 16.3949ZM31.832 16.8523L31.637 17.5765L31.6416 17.5777L31.832 16.8523ZM33.2858 17.326L33.0209 18.0277L33.0233 18.0285L33.2858 17.326ZM34.8295 18.1509L34.3948 18.7622L34.4026 18.7676L34.8295 18.1509ZM36.0546 19.4741L36.6989 19.0901L36.6989 19.0901L36.0546 19.4741ZM35.826 23.9091L35.1969 23.5007L35.1948 23.504L35.826 23.9091ZM33.7677 25.6488L33.4454 24.9716L33.4438 24.9723L33.7677 25.6488ZM27.3806 25.7141L27.0764 26.3997L27.078 26.4004L27.3806 25.7141ZM25.3224 24.0969L24.7127 24.5338L24.715 24.5369L25.3224 24.0969ZM24.4811 21.6875V20.9375H23.6757L23.733 21.7409L24.4811 21.6875ZM26.572 21.6875L27.3193 21.6231L27.2602 20.9375H26.572V21.6875ZM27.2091 23.2557L26.6501 23.7558L26.6572 23.7635L27.2091 23.2557ZM28.6303 24.1705L28.381 24.8779L28.3891 24.8806L28.6303 24.1705ZM32.5752 24.0888L32.858 24.7834L32.8633 24.7813L32.5752 24.0888ZM34.0372 23.027L34.6243 23.4938L34.627 23.4904L34.0372 23.027ZM34.1108 20.0703L34.6708 19.5715L34.6708 19.5715L34.1108 20.0703ZM32.8856 19.2209L32.5893 19.9099H32.5893L32.8856 19.2209ZM31.2439 18.6491L31.0379 19.3703L31.0432 19.3718L31.2439 18.6491ZM29.1857 18.0611L28.9784 18.7819L28.9796 18.7822L29.1857 18.0611ZM26.082 16.4521L25.5759 17.0056H25.5759L26.082 16.4521ZM25.6981 11.2656L25.092 10.8239L25.0914 10.8248L25.6981 11.2656ZM27.7563 9.6321L28.0638 10.3162L28.0657 10.3153L27.7563 9.6321ZM33.5309 9.62393L33.2168 10.305L33.2205 10.3067L33.5309 9.62393ZM35.5237 11.1921L34.9202 11.6374L34.9226 11.6405L35.5237 11.1921ZM36.3078 13.4545V14.2045H37.0824L37.0574 13.4304L36.3078 13.4545ZM35.0924 13.3663C34.9683 12.3186 34.4488 11.4789 33.5666 10.9L32.7436 12.154C33.2554 12.4899 33.5309 12.9352 33.6028 13.5427L35.0924 13.3663ZM33.5666 10.9C32.7234 10.3466 31.7178 10.0909 30.5905 10.0909V11.5909C31.4888 11.5909 32.193 11.7927 32.7436 12.154L33.5666 10.9ZM30.5905 10.0909C29.7701 10.0909 29.0173 10.2236 28.3495 10.5116L28.9437 11.8889C29.3867 11.6978 29.9298 11.5909 30.5905 11.5909V10.0909ZM28.3471 10.5127C27.695 10.7968 27.153 11.2025 26.7533 11.7423L27.9589 12.6348C28.18 12.3361 28.4984 12.0829 28.9462 11.8879L28.3471 10.5127ZM26.7496 11.7474C26.3485 12.2989 26.1487 12.9307 26.1487 13.6179H27.6487C27.6487 13.2378 27.7539 12.9168 27.9627 12.6297L26.7496 11.7474ZM26.1487 13.6179C26.1487 14.1874 26.2859 14.7205 26.5916 15.1831L27.8429 14.356C27.724 14.176 27.6487 13.9414 27.6487 13.6179H26.1487ZM26.5999 15.1953C26.8777 15.5982 27.2308 15.9323 27.651 16.1966L28.4497 14.9269C28.1948 14.7666 27.9924 14.5725 27.8347 14.3437L26.5999 15.1953ZM27.6585 16.2012C28.038 16.4339 28.4365 16.627 28.8534 16.7803L29.371 15.3724C29.0473 15.2534 28.7379 15.1035 28.4423 14.9223L27.6585 16.2012ZM28.8626 16.7836C29.2481 16.9197 29.6083 17.0323 29.9423 17.1202L30.324 15.6696C30.0372 15.5941 29.7168 15.4944 29.3618 15.3691L28.8626 16.7836ZM29.9381 17.1191L31.637 17.5765L32.027 16.1281L30.3281 15.6707L29.9381 17.1191ZM31.6416 17.5777C32.0463 17.684 32.5056 17.8331 33.0209 18.0277L33.5507 16.6243C32.9988 16.416 32.4888 16.2493 32.0224 16.1268L31.6416 17.5777ZM33.0233 18.0285C33.4985 18.2062 33.9556 18.4497 34.3949 18.7621L35.2641 17.5397C34.7233 17.1551 34.1512 16.8488 33.5484 16.6235L33.0233 18.0285ZM34.4026 18.7676C34.8062 19.047 35.1418 19.4073 35.4104 19.858L36.6989 19.0901C36.325 18.4627 35.8438 17.941 35.2564 17.5343L34.4026 18.7676ZM35.4104 19.858C35.6471 20.2553 35.7865 20.7765 35.7865 21.4588H37.2865C37.2865 20.573 37.1047 19.771 36.6989 19.0901L35.4104 19.858ZM35.7865 21.4588C35.7865 22.2237 35.5885 22.8975 35.1969 23.5007L36.455 24.3175C37.0108 23.4614 37.2865 22.5017 37.2865 21.4588H35.7865ZM35.1948 23.504C34.8131 24.0986 34.2429 24.5921 33.4454 24.9716L34.09 26.326C35.1003 25.8452 35.9022 25.1788 36.4571 24.3142L35.1948 23.504ZM33.4438 24.9723C32.6714 25.3422 31.6968 25.544 30.4925 25.544V27.044C31.8583 27.044 33.0671 26.8157 34.0916 26.3253L33.4438 24.9723ZM30.4925 25.544C29.3735 25.544 28.4439 25.3633 27.6833 25.0279L27.078 26.4004C28.0707 26.8381 29.2156 27.044 30.4925 27.044V25.544ZM27.6848 25.0286C26.9202 24.6893 26.3444 24.2293 25.9298 23.657L24.715 24.5369C25.3023 25.3477 26.0987 25.9658 27.0764 26.3997L27.6848 25.0286ZM25.932 23.6601C25.5235 23.0899 25.2855 22.4219 25.2292 21.6341L23.733 21.7409C23.8074 22.7826 24.1303 23.7209 24.7127 24.5338L25.932 23.6601ZM24.4811 22.4375H26.572V20.9375H24.4811V22.4375ZM25.8248 21.7519C25.8911 22.5214 26.1567 23.2042 26.6502 23.7558L27.768 22.7556C27.5211 22.4795 27.3618 22.1169 27.3193 21.6231L25.8248 21.7519ZM26.6572 23.7635C27.1234 24.2703 27.7045 24.6394 28.381 24.8778L28.8795 23.4631C28.4126 23.2985 28.0462 23.0578 27.7611 22.7479L26.6572 23.7635ZM28.3891 24.8806C29.0506 25.1053 29.7535 25.2145 30.4925 25.2145V23.7145C29.9029 23.7145 29.3643 23.6277 28.8715 23.4603L28.3891 24.8806ZM30.4925 25.2145C31.347 25.2145 32.1395 25.0759 32.858 24.7834L32.2925 23.3941C31.7804 23.6026 31.1844 23.7145 30.4925 23.7145V25.2145ZM32.8633 24.7813C33.5775 24.4842 34.1745 24.0594 34.6243 23.4938L33.4502 22.5602C33.1812 22.8984 32.8036 23.1815 32.2872 23.3963L32.8633 24.7813ZM34.627 23.4904C35.0955 22.8941 35.3263 22.1953 35.3263 21.4261H33.8263C33.8263 21.8767 33.6978 22.2451 33.4475 22.5636L34.627 23.4904ZM35.3263 21.4261C35.3263 20.7237 35.126 20.0826 34.6708 19.5715L33.5507 20.5691C33.7162 20.755 33.8263 21.0178 33.8263 21.4261H35.3263ZM34.6708 19.5715C34.2755 19.1276 33.771 18.7853 33.1819 18.5319L32.5893 19.9099C33.013 20.0921 33.3253 20.3161 33.5507 20.5691L34.6708 19.5715ZM33.1819 18.5319C32.6414 18.2994 32.0619 18.098 31.4447 17.9265L31.0432 19.3718C31.6021 19.527 32.117 19.7067 32.5893 19.9099L33.1819 18.5319ZM31.45 17.928L29.3917 17.3399L28.9796 18.7822L31.0379 19.3703L31.45 17.928ZM29.3929 17.3403C28.1635 16.9868 27.2424 16.4968 26.5881 15.8985L25.5759 17.0056C26.4462 17.8013 27.5942 18.3839 28.9784 18.7819L29.3929 17.3403ZM26.5881 15.8985C25.9963 15.3575 25.6885 14.6539 25.6885 13.7159H24.1885C24.1885 15.0321 24.643 16.1527 25.5759 17.0056L26.5881 15.8985ZM25.6885 13.7159C25.6885 12.9232 25.8998 12.264 26.3049 11.7065L25.0914 10.8248C24.4837 11.6612 24.1885 12.6355 24.1885 13.7159H25.6885ZM26.3043 11.7073C26.7328 11.1192 27.312 10.654 28.0638 10.3162L27.4489 8.948C26.4801 9.38336 25.6871 10.0072 25.092 10.8239L26.3043 11.7073ZM28.0657 10.3153C28.823 9.97241 29.6822 9.79403 30.6559 9.79403V8.29403C29.4951 8.29403 28.4212 8.5077 27.447 8.94889L28.0657 10.3153ZM30.6559 9.79403C31.6436 9.79403 32.4919 9.97082 33.2168 10.305L33.8449 8.94283C32.8927 8.50385 31.8244 8.29403 30.6559 8.29403V9.79403ZM33.2205 10.3067C33.9564 10.6412 34.5145 11.0874 34.9202 11.6374L36.1273 10.7469C35.5529 9.9682 34.7824 9.36896 33.8412 8.94116L33.2205 10.3067ZM34.9226 11.6405C35.3246 12.1795 35.5358 12.7849 35.5582 13.4787L37.0574 13.4304C37.0254 12.4362 36.7139 11.5334 36.1249 10.7437L34.9226 11.6405ZM36.3078 12.7045H34.3476V14.2045H36.3078V12.7045ZM41.4024 21.4261L40.6525 21.4364L40.6755 23.1219L41.9121 21.9763L41.4024 21.4261ZM41.3697 19.0412V18.2912H40.6094L40.6198 19.0515L41.3697 19.0412ZM41.7618 19.0412V19.7912H42.0763L42.2968 19.5668L41.7618 19.0412ZM47.2504 13.4545V12.7045H46.9358L46.7154 12.9289L47.2504 13.4545ZM49.6353 13.4545L50.1686 13.9819L51.4319 12.7045H49.6353V13.4545ZM43.7873 19.3679V20.1179H44.1004L44.3206 19.8953L43.7873 19.3679ZM43.624 19.3679V18.6179H43.33L43.1143 18.8177L43.624 19.3679ZM39.6055 26H38.8555V26.75H39.6055V26ZM39.6055 9.27273V8.52273H38.8555V9.27273H39.6055ZM41.5331 9.27273H42.2831V8.52273H41.5331V9.27273ZM41.5331 26V26.75H42.2831V26H41.5331ZM47.5771 26L46.9884 26.4647L47.2137 26.75H47.5771V26ZM42.6765 19.7926L42.1526 19.2559L41.6696 19.7275L42.0879 20.2573L42.6765 19.7926ZM44.0487 18.4531L44.6366 17.9874L44.12 17.3354L43.5248 17.9164L44.0487 18.4531ZM50.0274 26V26.75H51.5784L50.6153 25.5343L50.0274 26ZM42.1523 21.4159L42.1196 19.0309L40.6198 19.0515L40.6525 21.4364L42.1523 21.4159ZM41.3697 19.7912H41.7618V18.2912H41.3697V19.7912ZM42.2968 19.5668L47.7854 13.9802L46.7154 12.9289L41.2268 18.5156L42.2968 19.5668ZM47.2504 14.2045H49.6353V12.7045H47.2504V14.2045ZM49.1021 12.9272L43.2541 18.8405L44.3206 19.8953L50.1686 13.9819L49.1021 12.9272ZM43.7873 18.6179H43.624V20.1179H43.7873V18.6179ZM43.1143 18.8177L40.8927 20.876L41.9121 21.9763L44.1337 19.9181L43.1143 18.8177ZM40.3555 26V9.27273H38.8555V26H40.3555ZM39.6055 10.0227H41.5331V8.52273H39.6055V10.0227ZM40.7831 9.27273V26H42.2831V9.27273H40.7831ZM41.5331 25.25H39.6055V26.75H41.5331V25.25ZM48.1658 25.5353L43.2652 19.3279L42.0879 20.2573L46.9884 26.4647L48.1658 25.5353ZM43.2004 20.3293L44.5726 18.9898L43.5248 17.9164L42.1526 19.2559L43.2004 20.3293ZM43.4608 18.9188L49.4395 26.4657L50.6153 25.5343L44.6366 17.9874L43.4608 18.9188ZM50.0274 25.25H47.5771V26.75H50.0274V25.25ZM52.1163 26H51.3663V26.75H52.1163V26ZM52.1163 13.4545V12.7045H51.3663V13.4545H52.1163ZM54.0438 13.4545H54.7938V12.7045H54.0438V13.4545ZM54.0438 26V26.75H54.7938V26H54.0438ZM52.1244 10.9798L51.6052 11.521L51.6107 11.5262L52.1244 10.9798ZM52.1244 9.13388L51.6107 8.58738L51.6053 8.59262L52.1244 9.13388ZM54.0601 9.13388L53.541 9.67517L53.5465 9.68035L54.0601 9.13388ZM54.0601 10.9798L53.5464 10.4333L53.541 10.4385L54.0601 10.9798ZM52.8663 26V13.4545H51.3663V26H52.8663ZM52.1163 14.2045H54.0438V12.7045H52.1163V14.2045ZM53.2938 13.4545V26H54.7938V13.4545H53.2938ZM54.0438 25.25H52.1163V26.75H54.0438V25.25ZM53.0964 10.6136C52.9104 10.6136 52.7704 10.5577 52.6381 10.4333L51.6107 11.5262C52.0229 11.9137 52.5309 12.1136 53.0964 12.1136V10.6136ZM52.6436 10.4385C52.5195 10.3194 52.4742 10.2053 52.4742 10.0568H50.9742C50.9742 10.627 51.1958 11.1282 51.6053 11.521L52.6436 10.4385ZM52.4742 10.0568C52.4742 9.9083 52.5195 9.79419 52.6436 9.67514L51.6053 8.59262C51.1958 8.9854 50.9742 9.48659 50.9742 10.0568H52.4742ZM52.6381 9.68035C52.7704 9.55597 52.9104 9.5 53.0964 9.5V8C52.5309 8 52.0229 8.19995 51.6107 8.58741L52.6381 9.68035ZM53.0964 9.5C53.2821 9.5 53.4163 9.55558 53.541 9.67514L54.5793 8.59262C54.1703 8.20034 53.6621 8 53.0964 8V9.5ZM53.5465 9.68035C53.6747 9.80086 53.7185 9.91349 53.7185 10.0568H55.2185C55.2185 9.4814 54.9901 8.97873 54.5738 8.58741L53.5465 9.68035ZM53.7185 10.0568C53.7185 10.2001 53.6747 10.3128 53.5465 10.4333L54.5738 11.5262C54.9901 11.1349 55.2185 10.6322 55.2185 10.0568H53.7185ZM53.541 10.4385C53.4163 10.5581 53.2821 10.6136 53.0964 10.6136V12.1136C53.6621 12.1136 54.1704 11.9133 54.5793 11.521L53.541 10.4385ZM57.5743 30.7045H56.8243V31.4545H57.5743V30.7045ZM57.5743 13.4545V12.7045H56.8243V13.4545H57.5743ZM59.4365 13.4545H60.1865V12.7045H59.4365V13.4545ZM59.4365 15.4474H58.6865V16.1974H59.4365V15.4474ZM59.6652 15.4474V16.1974H60.0722L60.294 15.8562L59.6652 15.4474ZM60.2532 14.6143L59.6521 14.1659L59.6509 14.1675L60.2532 14.6143ZM61.3477 13.6996L61.7158 14.3531L61.7182 14.3517L61.3477 13.6996ZM66.0849 14.0835L66.496 13.4562V13.4562L66.0849 14.0835ZM67.9716 16.3295L68.6514 16.0126V16.0126L67.9716 16.3295ZM67.9716 23.2148L68.6514 23.5318L68.6521 23.5303L67.9716 23.2148ZM66.0931 25.4691L66.5062 26.0951L66.5091 26.0931L66.0931 25.4691ZM61.3885 25.8612L61.0212 26.5151L61.0268 26.5182L61.3885 25.8612ZM60.2696 24.9382L59.6696 25.3882L59.673 25.3927L60.2696 24.9382ZM59.6652 24.0724L60.3029 23.6777L60.083 23.3224H59.6652V24.0724ZM59.5018 24.0724V23.3224H58.7518V24.0724H59.5018ZM59.5018 30.7045V31.4545H60.2518V30.7045H59.5018ZM59.8857 22.2347L59.1854 22.5033L59.1861 22.505L59.8857 22.2347ZM61.1027 23.9254L60.6469 24.521L60.6507 24.524L61.1027 23.9254ZM65.0803 23.8928L65.5445 24.4819L65.5452 24.4813L65.0803 23.8928ZM66.3054 22.1612L65.6045 21.8944L65.6034 21.8973L66.3054 22.1612ZM66.3136 17.3423L65.6111 17.6051L65.6136 17.6116L66.3136 17.3423ZM65.0966 15.6516L64.6362 16.2437L64.6428 16.2488L65.0966 15.6516ZM61.0863 15.619L61.5304 16.2234L61.5344 16.2204L61.0863 15.619ZM59.8775 17.2688L60.5768 17.5399L60.5775 17.5381L59.8775 17.2688ZM58.3243 30.7045V13.4545H56.8243V30.7045H58.3243ZM57.5743 14.2045H59.4365V12.7045H57.5743V14.2045ZM58.6865 13.4545V15.4474H60.1865V13.4545H58.6865ZM59.4365 16.1974H59.6652V14.6974H59.4365V16.1974ZM60.294 15.8562C60.4236 15.6568 60.6094 15.393 60.8556 15.0612L59.6509 14.1675C59.3961 14.5109 59.1899 14.8025 59.0363 15.0387L60.294 15.8562ZM60.8544 15.0628C61.0333 14.823 61.3094 14.5819 61.7158 14.3531L60.9796 13.0461C60.4385 13.3509 59.985 13.7196 59.6521 14.1659L60.8544 15.0628ZM61.7182 14.3517C62.0428 14.1672 62.5466 14.0412 63.2916 14.0412V12.5412C62.4031 12.5412 61.6109 12.6874 60.9772 13.0475L61.7182 14.3517ZM63.2916 14.0412C64.2165 14.0412 65.0018 14.2703 65.6738 14.7107L66.496 13.4562C65.5563 12.8403 64.4794 12.5412 63.2916 12.5412V14.0412ZM65.6738 14.7107C66.3505 15.1542 66.8922 15.7894 67.2919 16.6465L68.6514 16.0126C68.1472 14.9313 67.4311 14.069 66.496 13.4562L65.6738 14.7107ZM67.2919 16.6465C67.6881 17.4962 67.8995 18.5269 67.8995 19.7599H69.3995C69.3995 18.3576 69.1591 17.1014 68.6514 16.0126L67.2919 16.6465ZM67.8995 19.7599C67.8995 21.0047 67.6878 22.0441 67.2912 22.8993L68.6521 23.5303C69.1593 22.4363 69.3995 21.1724 69.3995 19.7599H67.8995ZM67.2919 22.8979C66.8914 23.7568 66.3506 24.396 65.6771 24.8451L66.5091 26.0931C67.4364 25.475 68.148 24.6113 68.6514 23.5318L67.2919 22.8979ZM65.68 24.8431C65.0132 25.2831 64.2367 25.5114 63.3243 25.5114V27.0114C64.5028 27.0114 65.5721 26.7114 66.5062 26.0951L65.68 24.8431ZM63.3243 25.5114C62.591 25.5114 62.0849 25.3884 61.7503 25.2041L61.0268 26.5182C61.6614 26.8675 62.4458 27.0114 63.3243 27.0114V25.5114ZM61.7559 25.2073C61.3358 24.9713 61.0504 24.7255 60.8661 24.4837L59.673 25.3927C60.0115 25.837 60.4721 26.2065 61.0212 26.515L61.7559 25.2073ZM60.8696 24.4882C60.6145 24.1481 60.4278 23.8795 60.3029 23.6777L59.0275 24.4672C59.1857 24.7228 59.4019 25.0313 59.6696 25.3882L60.8696 24.4882ZM59.6652 23.3224H59.5018V24.8224H59.6652V23.3224ZM58.7518 24.0724V30.7045H60.2518V24.0724H58.7518ZM59.5018 29.9545H57.5743V31.4545H59.5018V29.9545ZM58.7192 19.7273C58.7192 20.7468 58.8685 21.6767 59.1854 22.5033L60.586 21.9662C60.3475 21.3444 60.2192 20.6026 60.2192 19.7273H58.7192ZM59.1861 22.505C59.5061 23.3333 59.9883 24.017 60.6469 24.521L61.5585 23.3298C61.1499 23.0171 60.8207 22.5737 60.5853 21.9644L59.1861 22.505ZM60.6507 24.524C61.3342 25.0401 62.1531 25.2798 63.0629 25.2798V23.7798C62.4263 23.7798 61.9384 23.6167 61.5546 23.3269L60.6507 24.524ZM63.0629 25.2798C64.0066 25.2798 64.851 25.0283 65.5445 24.4819L64.6161 23.3036C64.2315 23.6067 63.7309 23.7798 63.0629 23.7798V25.2798ZM65.5452 24.4813C66.2088 23.957 66.6929 23.262 67.0075 22.4251L65.6034 21.8973C65.3735 22.5088 65.0408 22.9682 64.6154 23.3042L65.5452 24.4813ZM67.0064 22.428C67.3208 21.6018 67.472 20.6985 67.472 19.7273H65.972C65.972 20.5421 65.8455 21.2613 65.6045 21.8944L67.0064 22.428ZM67.472 19.7273C67.472 18.7679 67.3238 17.8797 67.0136 17.0731L65.6136 17.6116C65.8479 18.2207 65.972 18.9224 65.972 19.7273H67.472ZM67.0161 17.0796C66.7054 16.2491 66.2203 15.5636 65.5504 15.0545L64.6428 16.2488C65.062 16.5673 65.3882 17.0089 65.6111 17.6051L67.0161 17.0796ZM65.5571 15.0596C64.862 14.519 64.0126 14.2727 63.0629 14.2727V15.7727C63.7467 15.7727 64.2532 15.9458 64.6362 16.2436L65.5571 15.0596ZM63.0629 14.2727C62.1471 14.2727 61.3234 14.5072 60.6383 15.0175L61.5344 16.2204C61.9165 15.9358 62.4105 15.7727 63.0629 15.7727V14.2727ZM60.6423 15.0146C59.9769 15.5034 59.4936 16.1778 59.1775 16.9996L60.5775 17.5381C60.806 16.9441 61.1285 16.5186 61.5304 16.2234L60.6423 15.0146ZM59.1782 16.9978C58.8654 17.8048 58.7192 18.7198 58.7192 19.7273H60.2192C60.2192 18.8617 60.3451 18.1377 60.5768 17.5399L59.1782 16.9978Z" fill="#391561" mask="url(#path-2-outside-1_103_12721)"/>
</svg>
