<svg width="93" height="37" viewBox="0 0 93 37" fill="none" xmlns="http://www.w3.org/2000/svg">
<rect width="93" height="37" rx="10" fill="white"/>
<mask id="path-2-outside-1_103_12720" maskUnits="userSpaceOnUse" x="8" y="8" width="77" height="20" fill="black">
<rect fill="white" x="8" y="8" width="77" height="20"/>
<path d="M19.6132 13.4545C19.5152 12.6269 19.1177 11.9844 18.4208 11.527C17.7238 11.0696 16.8689 10.8409 15.8561 10.8409C15.1156 10.8409 14.4676 10.9607 13.9122 11.2003C13.3623 11.4399 12.9321 11.7693 12.6218 12.1886C12.3168 12.6078 12.1644 13.0843 12.1644 13.6179C12.1644 14.0644 12.2706 14.4483 12.4829 14.7695C12.7007 15.0853 12.9784 15.3494 13.316 15.5618C13.6536 15.7687 14.0075 15.9402 14.3778 16.0763C14.7481 16.207 15.0884 16.3132 15.3987 16.3949L17.0976 16.8523C17.5332 16.9666 18.0178 17.1245 18.5514 17.326C19.0905 17.5275 19.6051 17.8024 20.0951 18.1509C20.5906 18.494 20.999 18.935 21.3203 19.4741C21.6415 20.0131 21.8022 20.6747 21.8022 21.4588C21.8022 22.3627 21.5653 23.1795 21.0916 23.9091C20.6233 24.6387 19.9372 25.2186 19.0333 25.6488C18.1349 26.079 17.0432 26.294 15.7581 26.294C14.5602 26.294 13.5229 26.1007 12.6463 25.7141C11.7751 25.3275 11.089 24.7885 10.588 24.0969C10.0925 23.4054 9.8121 22.6023 9.74676 21.6875H11.8377C11.8921 22.3191 12.1045 22.8419 12.4747 23.2557C12.8505 23.6641 13.3242 23.969 13.8959 24.1705C14.4731 24.3665 15.0938 24.4645 15.7581 24.4645C16.5313 24.4645 17.2256 24.3393 17.8409 24.0888C18.4562 23.8329 18.9435 23.4789 19.3029 23.027C19.6622 22.5696 19.8419 22.036 19.8419 21.4261C19.8419 20.8707 19.6867 20.4188 19.3764 20.0703C19.066 19.7218 18.6576 19.4387 18.1512 19.2209C17.6448 19.0031 17.0976 18.8125 16.5095 18.6491L14.4513 18.0611C13.1445 17.6854 12.1099 17.149 11.3476 16.4521C10.5853 15.7551 10.2041 14.843 10.2041 13.7159C10.2041 12.7794 10.4573 11.9626 10.9637 11.2656C11.4756 10.5632 12.1617 10.0187 13.022 9.6321C13.8877 9.24006 14.8542 9.04403 15.9215 9.04403C16.9996 9.04403 17.9579 9.23733 18.7965 9.62393C19.635 10.0051 20.2993 10.5278 20.7894 11.1921C21.2849 11.8564 21.5462 12.6106 21.5735 13.4545H19.6132ZM32.7774 20.8707V13.4545H34.7049V26H32.7774V23.8764H32.6467C32.3527 24.5135 31.8953 25.0553 31.2745 25.5018C30.6538 25.9428 29.8697 26.1634 28.9223 26.1634C28.1382 26.1634 27.4412 25.9918 26.8314 25.6488C26.2215 25.3003 25.7424 24.7776 25.3939 24.0806C25.0454 23.3782 24.8711 22.4934 24.8711 21.4261V13.4545H26.7987V21.2955C26.7987 22.2102 27.0546 22.9399 27.5665 23.4844C28.0837 24.0289 28.7426 24.3011 29.543 24.3011C30.0222 24.3011 30.5095 24.1786 31.005 23.9336C31.506 23.6886 31.9252 23.3129 32.2628 22.8065C32.6059 22.3001 32.7774 21.6548 32.7774 20.8707ZM38.4968 26V9.27273H40.4243V15.4474H40.5877C40.7292 15.2296 40.9253 14.9519 41.1757 14.6143C41.4317 14.2713 41.7965 13.9664 42.2702 13.6996C42.7494 13.4273 43.3973 13.2912 44.2141 13.2912C45.2704 13.2912 46.2015 13.5553 47.0074 14.0835C47.8133 14.6116 48.4422 15.3603 48.8941 16.3295C49.3461 17.2988 49.572 18.4422 49.572 19.7599C49.572 21.0885 49.3461 22.2402 48.8941 23.2148C48.4422 24.1841 47.816 24.9355 47.0156 25.4691C46.2152 25.9973 45.2922 26.2614 44.2468 26.2614C43.4409 26.2614 42.7956 26.128 42.311 25.8612C41.8264 25.5889 41.4534 25.2812 41.1921 24.9382C40.9307 24.5897 40.7292 24.3011 40.5877 24.0724H40.359V26H38.4968ZM40.3916 19.7273C40.3916 20.6747 40.5305 21.5105 40.8082 22.2347C41.0859 22.9535 41.4916 23.517 42.0252 23.9254C42.5588 24.3284 43.2122 24.5298 43.9854 24.5298C44.7913 24.5298 45.4637 24.3175 46.0028 23.8928C46.5473 23.4626 46.9557 22.8854 47.2279 22.1612C47.5056 21.4316 47.6445 20.6203 47.6445 19.7273C47.6445 18.8452 47.5084 18.0502 47.2361 17.3423C46.9693 16.629 46.5636 16.0655 46.0191 15.6516C45.4801 15.2324 44.8022 15.0227 43.9854 15.0227C43.2013 15.0227 42.5425 15.2215 42.0088 15.619C41.4752 16.011 41.0723 16.561 40.8 17.2688C40.5278 17.9712 40.3916 18.7907 40.3916 19.7273ZM52.5206 26V13.4545H54.3828V15.4148H54.5461C54.8075 14.745 55.2295 14.225 55.8121 13.8548C56.3947 13.479 57.0944 13.2912 57.9112 13.2912C58.7388 13.2912 59.4276 13.479 59.9776 13.8548C60.533 14.225 60.9659 14.745 61.2762 15.4148H61.4069C61.7282 14.7668 62.2101 14.2522 62.8526 13.8711C63.4951 13.4845 64.2656 13.2912 65.164 13.2912C66.2857 13.2912 67.2032 13.6424 67.9165 14.3448C68.6298 15.0418 68.9865 16.1281 68.9865 17.6037V26H67.0589V17.6037C67.0589 16.678 66.8057 16.0165 66.2993 15.619C65.7929 15.2215 65.1967 15.0227 64.5106 15.0227C63.6285 15.0227 62.9452 15.2895 62.4605 15.8232C61.9759 16.3513 61.7336 17.0211 61.7336 17.8324V26H59.7734V17.4077C59.7734 16.6944 59.542 16.1199 59.0791 15.6843C58.6163 15.2433 58.0201 15.0227 57.2904 15.0227C56.7895 15.0227 56.3212 15.1561 55.8856 15.4229C55.4554 15.6897 55.107 16.06 54.8402 16.5337C54.5788 17.002 54.4481 17.5438 54.4481 18.1591V26H52.5206ZM72.5108 26V13.4545H74.4383V26H72.5108ZM73.4909 11.3636C73.1152 11.3636 72.7912 11.2357 72.519 10.9798C72.2521 10.7238 72.1187 10.4162 72.1187 10.0568C72.1187 9.69744 72.2521 9.3898 72.519 9.13388C72.7912 8.87796 73.1152 8.75 73.4909 8.75C73.8666 8.75 74.1879 8.87796 74.4547 9.13388C74.7269 9.3898 74.8631 9.69744 74.8631 10.0568C74.8631 10.4162 74.7269 10.7238 74.4547 10.9798C74.1879 11.2357 73.8666 11.3636 73.4909 11.3636ZM83.4248 13.4545V15.0881H76.9233V13.4545H83.4248ZM78.8182 10.4489H80.7458V22.4062C80.7458 22.9508 80.8247 23.3591 80.9826 23.6314C81.146 23.8982 81.3529 24.0779 81.6034 24.1705C81.8593 24.2576 82.1288 24.3011 82.412 24.3011C82.6243 24.3011 82.7986 24.2902 82.9347 24.2685C83.0708 24.2412 83.1797 24.2195 83.2614 24.2031L83.6535 25.9347C83.5228 25.9837 83.3404 26.0327 83.1062 26.0817C82.8721 26.1361 82.5753 26.1634 82.216 26.1634C81.6714 26.1634 81.1378 26.0463 80.6151 25.8121C80.0978 25.578 79.6677 25.2214 79.3246 24.7422C78.987 24.263 78.8182 23.6586 78.8182 22.929V10.4489Z"/>
</mask>
<path d="M19.6132 13.4545C19.5152 12.6269 19.1177 11.9844 18.4208 11.527C17.7238 11.0696 16.8689 10.8409 15.8561 10.8409C15.1156 10.8409 14.4676 10.9607 13.9122 11.2003C13.3623 11.4399 12.9321 11.7693 12.6218 12.1886C12.3168 12.6078 12.1644 13.0843 12.1644 13.6179C12.1644 14.0644 12.2706 14.4483 12.4829 14.7695C12.7007 15.0853 12.9784 15.3494 13.316 15.5618C13.6536 15.7687 14.0075 15.9402 14.3778 16.0763C14.7481 16.207 15.0884 16.3132 15.3987 16.3949L17.0976 16.8523C17.5332 16.9666 18.0178 17.1245 18.5514 17.326C19.0905 17.5275 19.6051 17.8024 20.0951 18.1509C20.5906 18.494 20.999 18.935 21.3203 19.4741C21.6415 20.0131 21.8022 20.6747 21.8022 21.4588C21.8022 22.3627 21.5653 23.1795 21.0916 23.9091C20.6233 24.6387 19.9372 25.2186 19.0333 25.6488C18.1349 26.079 17.0432 26.294 15.7581 26.294C14.5602 26.294 13.5229 26.1007 12.6463 25.7141C11.7751 25.3275 11.089 24.7885 10.588 24.0969C10.0925 23.4054 9.8121 22.6023 9.74676 21.6875H11.8377C11.8921 22.3191 12.1045 22.8419 12.4747 23.2557C12.8505 23.6641 13.3242 23.969 13.8959 24.1705C14.4731 24.3665 15.0938 24.4645 15.7581 24.4645C16.5313 24.4645 17.2256 24.3393 17.8409 24.0888C18.4562 23.8329 18.9435 23.4789 19.3029 23.027C19.6622 22.5696 19.8419 22.036 19.8419 21.4261C19.8419 20.8707 19.6867 20.4188 19.3764 20.0703C19.066 19.7218 18.6576 19.4387 18.1512 19.2209C17.6448 19.0031 17.0976 18.8125 16.5095 18.6491L14.4513 18.0611C13.1445 17.6854 12.1099 17.149 11.3476 16.4521C10.5853 15.7551 10.2041 14.843 10.2041 13.7159C10.2041 12.7794 10.4573 11.9626 10.9637 11.2656C11.4756 10.5632 12.1617 10.0187 13.022 9.6321C13.8877 9.24006 14.8542 9.04403 15.9215 9.04403C16.9996 9.04403 17.9579 9.23733 18.7965 9.62393C19.635 10.0051 20.2993 10.5278 20.7894 11.1921C21.2849 11.8564 21.5462 12.6106 21.5735 13.4545H19.6132ZM32.7774 20.8707V13.4545H34.7049V26H32.7774V23.8764H32.6467C32.3527 24.5135 31.8953 25.0553 31.2745 25.5018C30.6538 25.9428 29.8697 26.1634 28.9223 26.1634C28.1382 26.1634 27.4412 25.9918 26.8314 25.6488C26.2215 25.3003 25.7424 24.7776 25.3939 24.0806C25.0454 23.3782 24.8711 22.4934 24.8711 21.4261V13.4545H26.7987V21.2955C26.7987 22.2102 27.0546 22.9399 27.5665 23.4844C28.0837 24.0289 28.7426 24.3011 29.543 24.3011C30.0222 24.3011 30.5095 24.1786 31.005 23.9336C31.506 23.6886 31.9252 23.3129 32.2628 22.8065C32.6059 22.3001 32.7774 21.6548 32.7774 20.8707ZM38.4968 26V9.27273H40.4243V15.4474H40.5877C40.7292 15.2296 40.9253 14.9519 41.1757 14.6143C41.4317 14.2713 41.7965 13.9664 42.2702 13.6996C42.7494 13.4273 43.3973 13.2912 44.2141 13.2912C45.2704 13.2912 46.2015 13.5553 47.0074 14.0835C47.8133 14.6116 48.4422 15.3603 48.8941 16.3295C49.3461 17.2988 49.572 18.4422 49.572 19.7599C49.572 21.0885 49.3461 22.2402 48.8941 23.2148C48.4422 24.1841 47.816 24.9355 47.0156 25.4691C46.2152 25.9973 45.2922 26.2614 44.2468 26.2614C43.4409 26.2614 42.7956 26.128 42.311 25.8612C41.8264 25.5889 41.4534 25.2812 41.1921 24.9382C40.9307 24.5897 40.7292 24.3011 40.5877 24.0724H40.359V26H38.4968ZM40.3916 19.7273C40.3916 20.6747 40.5305 21.5105 40.8082 22.2347C41.0859 22.9535 41.4916 23.517 42.0252 23.9254C42.5588 24.3284 43.2122 24.5298 43.9854 24.5298C44.7913 24.5298 45.4637 24.3175 46.0028 23.8928C46.5473 23.4626 46.9557 22.8854 47.2279 22.1612C47.5056 21.4316 47.6445 20.6203 47.6445 19.7273C47.6445 18.8452 47.5084 18.0502 47.2361 17.3423C46.9693 16.629 46.5636 16.0655 46.0191 15.6516C45.4801 15.2324 44.8022 15.0227 43.9854 15.0227C43.2013 15.0227 42.5425 15.2215 42.0088 15.619C41.4752 16.011 41.0723 16.561 40.8 17.2688C40.5278 17.9712 40.3916 18.7907 40.3916 19.7273ZM52.5206 26V13.4545H54.3828V15.4148H54.5461C54.8075 14.745 55.2295 14.225 55.8121 13.8548C56.3947 13.479 57.0944 13.2912 57.9112 13.2912C58.7388 13.2912 59.4276 13.479 59.9776 13.8548C60.533 14.225 60.9659 14.745 61.2762 15.4148H61.4069C61.7282 14.7668 62.2101 14.2522 62.8526 13.8711C63.4951 13.4845 64.2656 13.2912 65.164 13.2912C66.2857 13.2912 67.2032 13.6424 67.9165 14.3448C68.6298 15.0418 68.9865 16.1281 68.9865 17.6037V26H67.0589V17.6037C67.0589 16.678 66.8057 16.0165 66.2993 15.619C65.7929 15.2215 65.1967 15.0227 64.5106 15.0227C63.6285 15.0227 62.9452 15.2895 62.4605 15.8232C61.9759 16.3513 61.7336 17.0211 61.7336 17.8324V26H59.7734V17.4077C59.7734 16.6944 59.542 16.1199 59.0791 15.6843C58.6163 15.2433 58.0201 15.0227 57.2904 15.0227C56.7895 15.0227 56.3212 15.1561 55.8856 15.4229C55.4554 15.6897 55.107 16.06 54.8402 16.5337C54.5788 17.002 54.4481 17.5438 54.4481 18.1591V26H52.5206ZM72.5108 26V13.4545H74.4383V26H72.5108ZM73.4909 11.3636C73.1152 11.3636 72.7912 11.2357 72.519 10.9798C72.2521 10.7238 72.1187 10.4162 72.1187 10.0568C72.1187 9.69744 72.2521 9.3898 72.519 9.13388C72.7912 8.87796 73.1152 8.75 73.4909 8.75C73.8666 8.75 74.1879 8.87796 74.4547 9.13388C74.7269 9.3898 74.8631 9.69744 74.8631 10.0568C74.8631 10.4162 74.7269 10.7238 74.4547 10.9798C74.1879 11.2357 73.8666 11.3636 73.4909 11.3636ZM83.4248 13.4545V15.0881H76.9233V13.4545H83.4248ZM78.8182 10.4489H80.7458V22.4062C80.7458 22.9508 80.8247 23.3591 80.9826 23.6314C81.146 23.8982 81.3529 24.0779 81.6034 24.1705C81.8593 24.2576 82.1288 24.3011 82.412 24.3011C82.6243 24.3011 82.7986 24.2902 82.9347 24.2685C83.0708 24.2412 83.1797 24.2195 83.2614 24.2031L83.6535 25.9347C83.5228 25.9837 83.3404 26.0327 83.1062 26.0817C82.8721 26.1361 82.5753 26.1634 82.216 26.1634C81.6714 26.1634 81.1378 26.0463 80.6151 25.8121C80.0978 25.578 79.6677 25.2214 79.3246 24.7422C78.987 24.263 78.8182 23.6586 78.8182 22.929V10.4489Z" fill="#391561"/>
<path d="M19.6132 13.4545L18.8684 13.5427L18.9468 14.2045H19.6132V13.4545ZM18.4208 11.527L18.0093 12.154H18.0093L18.4208 11.527ZM13.9122 11.2003L13.6152 10.5116L13.6127 10.5127L13.9122 11.2003ZM12.6218 12.1886L12.0189 11.7423L12.0152 11.7474L12.6218 12.1886ZM12.4829 14.7695L11.8572 15.1831L11.8613 15.1893L11.8655 15.1953L12.4829 14.7695ZM13.316 15.5618L12.9166 16.1967L12.9241 16.2012L13.316 15.5618ZM14.3778 16.0763L14.119 16.7803L14.1282 16.7836L14.3778 16.0763ZM15.3987 16.3949L15.5937 15.6707L15.5896 15.6696L15.3987 16.3949ZM17.0976 16.8523L16.9026 17.5765L16.9072 17.5777L17.0976 16.8523ZM18.5514 17.326L18.2865 18.0277L18.2889 18.0285L18.5514 17.326ZM20.0951 18.1509L19.6604 18.7622L19.6682 18.7676L20.0951 18.1509ZM21.3203 19.4741L21.9645 19.0901L21.9645 19.0901L21.3203 19.4741ZM21.0916 23.9091L20.4625 23.5007L20.4604 23.504L21.0916 23.9091ZM19.0333 25.6488L18.711 24.9716L18.7095 24.9723L19.0333 25.6488ZM12.6463 25.7141L12.3421 26.3997L12.3436 26.4004L12.6463 25.7141ZM10.588 24.0969L9.97836 24.5338L9.98065 24.5369L10.588 24.0969ZM9.74676 21.6875V20.9375H8.94128L8.99867 21.7409L9.74676 21.6875ZM11.8377 21.6875L12.5849 21.6231L12.5258 20.9375H11.8377V21.6875ZM12.4747 23.2557L11.9158 23.7558L11.9228 23.7635L12.4747 23.2557ZM13.8959 24.1705L13.6466 24.8779L13.6547 24.8806L13.8959 24.1705ZM17.8409 24.0888L18.1237 24.7834L18.1289 24.7813L17.8409 24.0888ZM19.3029 23.027L19.8899 23.4938L19.8926 23.4904L19.3029 23.027ZM19.3764 20.0703L19.9365 19.5715L19.9365 19.5715L19.3764 20.0703ZM18.1512 19.2209L17.8549 19.9099H17.8549L18.1512 19.2209ZM16.5095 18.6491L16.3035 19.3703L16.3088 19.3718L16.5095 18.6491ZM14.4513 18.0611L14.2441 18.7819L14.2453 18.7822L14.4513 18.0611ZM11.3476 16.4521L10.8415 17.0056H10.8415L11.3476 16.4521ZM10.9637 11.2656L10.3576 10.8239L10.357 10.8248L10.9637 11.2656ZM13.022 9.6321L13.3294 10.3162L13.3314 10.3153L13.022 9.6321ZM18.7965 9.62393L18.4825 10.305L18.4861 10.3067L18.7965 9.62393ZM20.7894 11.1921L20.1858 11.6374L20.1882 11.6405L20.7894 11.1921ZM21.5735 13.4545V14.2045H22.348L22.3231 13.4304L21.5735 13.4545ZM20.358 13.3663C20.234 12.3186 19.7144 11.4789 18.8323 10.9L18.0093 12.154C18.5211 12.4899 18.7965 12.9352 18.8684 13.5427L20.358 13.3663ZM18.8323 10.9C17.989 10.3466 16.9834 10.0909 15.8561 10.0909V11.5909C16.7544 11.5909 17.4586 11.7927 18.0093 12.154L18.8323 10.9ZM15.8561 10.0909C15.0358 10.0909 14.2829 10.2236 13.6152 10.5116L14.2093 11.8889C14.6524 11.6978 15.1954 11.5909 15.8561 11.5909V10.0909ZM13.6127 10.5127C12.9606 10.7968 12.4186 11.2025 12.019 11.7423L13.2246 12.6348C13.4457 12.3361 13.764 12.0829 14.2118 11.8879L13.6127 10.5127ZM12.0152 11.7474C11.6142 12.2989 11.4144 12.9307 11.4144 13.6179H12.9144C12.9144 13.2378 13.0195 12.9168 13.2283 12.6297L12.0152 11.7474ZM11.4144 13.6179C11.4144 14.1874 11.5515 14.7205 11.8572 15.1831L13.1086 14.356C12.9896 14.176 12.9144 13.9414 12.9144 13.6179H11.4144ZM11.8655 15.1953C12.1434 15.5982 12.4964 15.9323 12.9167 16.1966L13.7153 14.9269C13.4604 14.7666 13.2581 14.5725 13.1003 14.3437L11.8655 15.1953ZM12.9241 16.2012C13.3037 16.4339 13.7022 16.627 14.119 16.7803L14.6366 15.3724C14.3129 15.2534 14.0035 15.1035 13.7079 14.9223L12.9241 16.2012ZM14.1282 16.7836C14.5137 16.9197 14.8739 17.0323 15.2079 17.1202L15.5896 15.6696C15.3029 15.5941 14.9824 15.4944 14.6274 15.3691L14.1282 16.7836ZM15.2038 17.1191L16.9026 17.5765L17.2926 16.1281L15.5937 15.6707L15.2038 17.1191ZM16.9072 17.5777C17.312 17.684 17.7712 17.8331 18.2865 18.0277L18.8164 16.6243C18.2644 16.416 17.7545 16.2493 17.288 16.1268L16.9072 17.5777ZM18.2889 18.0285C18.7642 18.2062 19.2212 18.4497 19.6605 18.7621L20.5298 17.5397C19.989 17.1551 19.4168 16.8488 18.814 16.6235L18.2889 18.0285ZM19.6682 18.7676C20.0718 19.047 20.4074 19.4073 20.676 19.858L21.9645 19.0901C21.5906 18.4627 21.1095 17.941 20.522 17.5343L19.6682 18.7676ZM20.676 19.858C20.9128 20.2553 21.0522 20.7765 21.0522 21.4588H22.5522C22.5522 20.573 22.3703 19.771 21.9645 19.0901L20.676 19.858ZM21.0522 21.4588C21.0522 22.2237 20.8541 22.8975 20.4625 23.5007L21.7206 24.3175C22.2765 23.4614 22.5522 22.5017 22.5522 21.4588H21.0522ZM20.4604 23.504C20.0788 24.0986 19.5085 24.5921 18.711 24.9716L19.3556 26.326C20.3659 25.8452 21.1678 25.1788 21.7228 24.3142L20.4604 23.504ZM18.7095 24.9723C17.937 25.3422 16.9624 25.544 15.7581 25.544V27.044C17.1239 27.044 18.3328 26.8157 19.3572 26.3253L18.7095 24.9723ZM15.7581 25.544C14.6391 25.544 13.7095 25.3633 12.9489 25.0279L12.3436 26.4004C13.3363 26.8381 14.4813 27.044 15.7581 27.044V25.544ZM12.9505 25.0286C12.1858 24.6893 11.61 24.2293 11.1954 23.657L9.98065 24.5369C10.568 25.3477 11.3643 25.9658 12.3421 26.3997L12.9505 25.0286ZM11.1977 23.6601C10.7891 23.0899 10.5511 22.4219 10.4949 21.6341L8.99867 21.7409C9.07307 22.7826 9.39592 23.7209 9.97837 24.5338L11.1977 23.6601ZM9.74676 22.4375H11.8377V20.9375H9.74676V22.4375ZM11.0904 21.7519C11.1568 22.5214 11.4223 23.2042 11.9158 23.7558L13.0337 22.7556C12.7867 22.4795 12.6275 22.1169 12.5849 21.6231L11.0904 21.7519ZM11.9228 23.7635C12.3891 24.2703 12.9701 24.6394 13.6466 24.8778L14.1452 23.4631C13.6782 23.2985 13.3118 23.0578 13.0267 22.7479L11.9228 23.7635ZM13.6547 24.8806C14.3162 25.1053 15.0191 25.2145 15.7581 25.2145V23.7145C15.1685 23.7145 14.6299 23.6277 14.1371 23.4603L13.6547 24.8806ZM15.7581 25.2145C16.6126 25.2145 17.4051 25.0759 18.1236 24.7834L17.5581 23.3941C17.0461 23.6026 16.4501 23.7145 15.7581 23.7145V25.2145ZM18.1289 24.7813C18.8431 24.4842 19.4401 24.0594 19.8899 23.4938L18.7158 22.5602C18.4469 22.8984 18.0692 23.1815 17.5528 23.3963L18.1289 24.7813ZM19.8926 23.4904C20.3611 22.8941 20.5919 22.1953 20.5919 21.4261H19.0919C19.0919 21.8767 18.9634 22.2451 18.7131 22.5636L19.8926 23.4904ZM20.5919 21.4261C20.5919 20.7237 20.3916 20.0826 19.9365 19.5715L18.8163 20.5691C18.9818 20.755 19.0919 21.0178 19.0919 21.4261H20.5919ZM19.9365 19.5715C19.5411 19.1276 19.0366 18.7853 18.4476 18.5319L17.8549 19.9099C18.2786 20.0921 18.5909 20.3161 18.8163 20.5691L19.9365 19.5715ZM18.4476 18.5319C17.907 18.2994 17.3275 18.098 16.7103 17.9265L16.3088 19.3718C16.8677 19.527 17.3827 19.7067 17.8549 19.9099L18.4476 18.5319ZM16.7156 17.928L14.6573 17.3399L14.2453 18.7822L16.3035 19.3703L16.7156 17.928ZM14.6585 17.3403C13.4291 16.9868 12.508 16.4968 11.8537 15.8985L10.8415 17.0056C11.7118 17.8013 12.8598 18.3839 14.2441 18.7819L14.6585 17.3403ZM11.8537 15.8985C11.2619 15.3575 10.9541 14.6539 10.9541 13.7159H9.45415C9.45415 15.0321 9.90866 16.1527 10.8415 17.0056L11.8537 15.8985ZM10.9541 13.7159C10.9541 12.9232 11.1654 12.264 11.5705 11.7065L10.357 10.8248C9.74928 11.6612 9.45415 12.6355 9.45415 13.7159H10.9541ZM11.5699 11.7073C11.9984 11.1192 12.5776 10.654 13.3294 10.3162L12.7146 8.948C11.7457 9.38336 10.9527 10.0072 10.3576 10.8239L11.5699 11.7073ZM13.3314 10.3153C14.0886 9.97241 14.9478 9.79403 15.9215 9.79403V8.29403C14.7607 8.29403 13.6869 8.5077 12.7126 8.94889L13.3314 10.3153ZM15.9215 9.79403C16.9092 9.79403 17.7575 9.97082 18.4825 10.305L19.1105 8.94283C18.1583 8.50385 17.09 8.29403 15.9215 8.29403V9.79403ZM18.4861 10.3067C19.222 10.6412 19.7801 11.0874 20.1858 11.6374L21.3929 10.7469C20.8185 9.9682 20.048 9.36896 19.1068 8.94116L18.4861 10.3067ZM20.1882 11.6405C20.5902 12.1795 20.8015 12.7849 20.8239 13.4787L22.3231 13.4304C22.291 12.4362 21.9796 11.5334 21.3906 10.7437L20.1882 11.6405ZM21.5735 12.7045H19.6132V14.2045H21.5735V12.7045ZM32.7774 13.4545V12.7045H32.0274V13.4545H32.7774ZM34.7049 13.4545H35.4549V12.7045H34.7049V13.4545ZM34.7049 26V26.75H35.4549V26H34.7049ZM32.7774 26H32.0274V26.75H32.7774V26ZM32.7774 23.8764H33.5274V23.1264H32.7774V23.8764ZM32.6467 23.8764V23.1264H32.1668L31.9657 23.5621L32.6467 23.8764ZM31.2745 25.5018L31.709 26.1132L31.7125 26.1106L31.2745 25.5018ZM26.8314 25.6488L26.4593 26.3L26.4637 26.3025L26.8314 25.6488ZM25.3939 24.0806L24.722 24.4139L24.723 24.416L25.3939 24.0806ZM24.8711 13.4545V12.7045H24.1211V13.4545H24.8711ZM26.7987 13.4545H27.5487V12.7045H26.7987V13.4545ZM27.5665 23.4844L27.02 23.9981L27.0227 24.0009L27.5665 23.4844ZM31.005 23.9336L30.6755 23.2599L30.6726 23.2613L31.005 23.9336ZM32.2628 22.8065L31.6419 22.3858L31.6388 22.3904L32.2628 22.8065ZM33.5274 20.8707V13.4545H32.0274V20.8707H33.5274ZM32.7774 14.2045H34.7049V12.7045H32.7774V14.2045ZM33.9549 13.4545V26H35.4549V13.4545H33.9549ZM34.7049 25.25H32.7774V26.75H34.7049V25.25ZM33.5274 26V23.8764H32.0274V26H33.5274ZM32.7774 23.1264H32.6467V24.6264H32.7774V23.1264ZM31.9657 23.5621C31.7307 24.0713 31.362 24.515 30.8366 24.8929L31.7125 26.1106C32.4286 25.5955 32.9746 24.9557 33.3277 24.1907L31.9657 23.5621ZM30.8401 24.8904C30.3744 25.2213 29.7524 25.4134 28.9223 25.4134V26.9134C29.987 26.9134 30.9332 26.6643 31.709 26.1132L30.8401 24.8904ZM28.9223 25.4134C28.2512 25.4134 27.6836 25.2677 27.1991 24.9951L26.4637 26.3025C27.1988 26.716 28.0252 26.9134 28.9223 26.9134V25.4134ZM27.2035 24.9976C26.7361 24.7305 26.3545 24.3248 26.0647 23.7452L24.723 24.416C25.1302 25.2304 25.707 25.8701 26.4593 26.3L27.2035 24.9976ZM26.0657 23.7473C25.7837 23.1789 25.6211 22.4173 25.6211 21.4261H24.1211C24.1211 22.5694 24.307 23.5775 24.722 24.4139L26.0657 23.7473ZM25.6211 21.4261V13.4545H24.1211V21.4261H25.6211ZM24.8711 14.2045H26.7987V12.7045H24.8711V14.2045ZM26.0487 13.4545V21.2955H27.5487V13.4545H26.0487ZM26.0487 21.2955C26.0487 22.356 26.3495 23.2848 27.02 23.9981L28.1129 22.9707C27.7597 22.595 27.5487 22.0644 27.5487 21.2955H26.0487ZM27.0227 24.0009C27.6917 24.7051 28.5521 25.0511 29.543 25.0511V23.5511C28.9331 23.5511 28.4758 23.3527 28.1102 22.9678L27.0227 24.0009ZM29.543 25.0511C30.154 25.0511 30.7545 24.8942 31.3375 24.6059L30.6726 23.2613C30.2645 23.4631 29.8904 23.5511 29.543 23.5511V25.0511ZM31.3346 24.6073C31.9655 24.2987 32.4826 23.8289 32.8869 23.2225L31.6388 22.3904C31.3679 22.7968 31.0464 23.0784 30.6755 23.2599L31.3346 24.6073ZM32.8838 23.2271C33.3318 22.5658 33.5274 21.7627 33.5274 20.8707H32.0274C32.0274 21.5469 31.88 22.0344 31.6419 22.3858L32.8838 23.2271ZM38.4968 26H37.7468V26.75H38.4968V26ZM38.4968 9.27273V8.52273H37.7468V9.27273H38.4968ZM40.4243 9.27273H41.1743V8.52273H40.4243V9.27273ZM40.4243 15.4474H39.6743V16.1974H40.4243V15.4474ZM40.5877 15.4474V16.1974H40.9947L41.2165 15.8562L40.5877 15.4474ZM41.1757 14.6143L40.5746 14.1659L40.5734 14.1675L41.1757 14.6143ZM42.2702 13.6996L42.6383 14.3531L42.6407 14.3517L42.2702 13.6996ZM47.0074 14.0835L47.4185 13.4562L47.0074 14.0835ZM48.8941 23.2148L49.5739 23.5318L49.5745 23.5303L48.8941 23.2148ZM47.0156 25.4691L47.4287 26.0951L47.4316 26.0931L47.0156 25.4691ZM42.311 25.8612L41.9437 26.5151L41.9493 26.5182L42.311 25.8612ZM41.1921 24.9382L40.5921 25.3882L40.5955 25.3927L41.1921 24.9382ZM40.5877 24.0724L41.2254 23.6777L41.0055 23.3224H40.5877V24.0724ZM40.359 24.0724V23.3224H39.609V24.0724H40.359ZM40.359 26V26.75H41.109V26H40.359ZM40.8082 22.2347L40.1079 22.5033L40.1086 22.505L40.8082 22.2347ZM42.0252 23.9254L41.5693 24.521L41.5732 24.524L42.0252 23.9254ZM46.0028 23.8928L46.467 24.4819L46.4677 24.4813L46.0028 23.8928ZM47.2279 22.1612L46.527 21.8944L46.5259 21.8973L47.2279 22.1612ZM47.2361 17.3423L46.5336 17.6051L46.5361 17.6116L47.2361 17.3423ZM46.0191 15.6516L45.5586 16.2437L45.5653 16.2488L46.0191 15.6516ZM42.0088 15.619L42.4529 16.2234L42.4569 16.2204L42.0088 15.619ZM40.8 17.2688L41.4993 17.5399L41.5 17.5381L40.8 17.2688ZM39.2468 26V9.27273H37.7468V26H39.2468ZM38.4968 10.0227H40.4243V8.52273H38.4968V10.0227ZM39.6743 9.27273V15.4474H41.1743V9.27273H39.6743ZM40.4243 16.1974H40.5877V14.6974H40.4243V16.1974ZM41.2165 15.8562C41.3461 15.6568 41.5319 15.393 41.7781 15.0612L40.5734 14.1675C40.3186 14.5109 40.1124 14.8025 39.9588 15.0387L41.2165 15.8562ZM41.7769 15.0628C41.9558 14.823 42.2319 14.5819 42.6382 14.3531L41.9021 13.0461C41.361 13.3509 40.9075 13.7196 40.5746 14.1659L41.7769 15.0628ZM42.6407 14.3517C42.9653 14.1672 43.4691 14.0412 44.2141 14.0412V12.5412C43.3256 12.5412 42.5334 12.6874 41.8997 13.0475L42.6407 14.3517ZM44.2141 14.0412C45.139 14.0412 45.9243 14.2703 46.5963 14.7107L47.4185 13.4562C46.4788 12.8403 45.4019 12.5412 44.2141 12.5412V14.0412ZM46.5963 14.7107C47.273 15.1542 47.8147 15.7894 48.2144 16.6465L49.5739 16.0126C49.0697 14.9313 48.3536 14.069 47.4185 13.4562L46.5963 14.7107ZM48.2144 16.6465C48.6106 17.4962 48.822 18.5269 48.822 19.7599H50.322C50.322 18.3576 50.0816 17.1014 49.5739 16.0126L48.2144 16.6465ZM48.822 19.7599C48.822 21.0047 48.6103 22.0441 48.2137 22.8993L49.5745 23.5303C50.0818 22.4363 50.322 21.1724 50.322 19.7599H48.822ZM48.2144 22.8979C47.8139 23.7568 47.2731 24.396 46.5996 24.8451L47.4316 26.0931C48.3589 25.475 49.0705 24.6113 49.5739 23.5318L48.2144 22.8979ZM46.6025 24.8431C45.9357 25.2831 45.1592 25.5114 44.2468 25.5114V27.0114C45.4253 27.0114 46.4946 26.7114 47.4287 26.0951L46.6025 24.8431ZM44.2468 25.5114C43.5135 25.5114 43.0074 25.3884 42.6728 25.2041L41.9493 26.5182C42.5839 26.8675 43.3683 27.0114 44.2468 27.0114V25.5114ZM42.6784 25.2073C42.2583 24.9713 41.9729 24.7255 41.7886 24.4837L40.5955 25.3927C40.934 25.837 41.3946 26.2065 41.9437 26.515L42.6784 25.2073ZM41.7921 24.4882C41.537 24.1481 41.3503 23.8795 41.2254 23.6777L39.95 24.4672C40.1082 24.7228 40.3244 25.0313 40.5921 25.3882L41.7921 24.4882ZM40.5877 23.3224H40.359V24.8224H40.5877V23.3224ZM39.609 24.0724V26H41.109V24.0724H39.609ZM40.359 25.25H38.4968V26.75H40.359V25.25ZM39.6416 19.7273C39.6416 20.7468 39.791 21.6767 40.1079 22.5033L41.5085 21.9662C41.27 21.3444 41.1416 20.6026 41.1416 19.7273H39.6416ZM40.1086 22.505C40.4286 23.3333 40.9108 24.017 41.5694 24.521L42.481 23.3298C42.0723 23.0171 41.7432 22.5737 41.5078 21.9644L40.1086 22.505ZM41.5732 24.524C42.2567 25.0401 43.0756 25.2798 43.9854 25.2798V23.7798C43.3488 23.7798 42.8609 23.6167 42.4771 23.3269L41.5732 24.524ZM43.9854 25.2798C44.9291 25.2798 45.7735 25.0283 46.4669 24.4819L45.5386 23.3036C45.154 23.6067 44.6534 23.7798 43.9854 23.7798V25.2798ZM46.4677 24.4813C47.1313 23.957 47.6154 23.262 47.93 22.4251L46.5259 21.8973C46.296 22.5088 45.9633 22.9682 45.5379 23.3042L46.4677 24.4813ZM47.9289 22.428C48.2433 21.6018 48.3945 20.6985 48.3945 19.7273H46.8945C46.8945 20.5421 46.7679 21.2613 46.527 21.8944L47.9289 22.428ZM48.3945 19.7273C48.3945 18.7679 48.2463 17.8797 47.9361 17.0731L46.5361 17.6116C46.7704 18.2207 46.8945 18.9224 46.8945 19.7273H48.3945ZM47.9386 17.0796C47.6279 16.2491 47.1428 15.5636 46.4729 15.0545L45.5653 16.2488C45.9845 16.5673 46.3106 17.0089 46.5336 17.6051L47.9386 17.0796ZM46.4796 15.0596C45.7845 14.519 44.9351 14.2727 43.9854 14.2727V15.7727C44.6692 15.7727 45.1757 15.9458 45.5587 16.2436L46.4796 15.0596ZM43.9854 14.2727C43.0696 14.2727 42.2459 14.5072 41.5608 15.0175L42.4569 16.2204C42.839 15.9358 43.333 15.7727 43.9854 15.7727V14.2727ZM41.5648 15.0146C40.8994 15.5034 40.4161 16.1778 40.1 16.9996L41.5 17.5381C41.7285 16.9441 42.051 16.5186 42.4529 16.2234L41.5648 15.0146ZM40.1007 16.9978C39.7879 17.8048 39.6416 18.7198 39.6416 19.7273H41.1416C41.1416 18.8617 41.2676 18.1377 41.4993 17.5399L40.1007 16.9978ZM52.5206 26H51.7706V26.75H52.5206V26ZM52.5206 13.4545V12.7045H51.7706V13.4545H52.5206ZM54.3828 13.4545H55.1328V12.7045H54.3828V13.4545ZM54.3828 15.4148H53.6328V16.1648H54.3828V15.4148ZM54.5461 15.4148V16.1648H55.0585L55.2448 15.6874L54.5461 15.4148ZM55.8121 13.8548L56.2144 14.4878L56.2186 14.4851L55.8121 13.8548ZM59.9776 13.8548L59.5545 14.4741L59.5616 14.4788L59.9776 13.8548ZM61.2762 15.4148L60.5958 15.7301L60.7972 16.1648H61.2762V15.4148ZM61.4069 15.4148V16.1648H61.8722L62.0789 15.7479L61.4069 15.4148ZM62.8526 13.8711L63.2352 14.5161L63.2393 14.5137L62.8526 13.8711ZM67.9165 14.3448L67.3903 14.8792L67.3924 14.8813L67.9165 14.3448ZM68.9865 26V26.75H69.7365V26H68.9865ZM67.0589 26H66.3089V26.75H67.0589V26ZM66.2993 15.619L65.8362 16.2089L66.2993 15.619ZM62.4605 15.8232L63.0132 16.3302L63.0158 16.3274L62.4605 15.8232ZM61.7336 26V26.75H62.4836V26H61.7336ZM59.7734 26H59.0234V26.75H59.7734V26ZM59.0791 15.6843L58.5617 16.2273L58.5651 16.2305L59.0791 15.6843ZM55.8856 15.4229L55.4939 14.7834L55.4903 14.7856L55.8856 15.4229ZM54.8402 16.5337L54.1867 16.1657L54.1853 16.1682L54.8402 16.5337ZM54.4481 26V26.75H55.1981V26H54.4481ZM53.2706 26V13.4545H51.7706V26H53.2706ZM52.5206 14.2045H54.3828V12.7045H52.5206V14.2045ZM53.6328 13.4545V15.4148H55.1328V13.4545H53.6328ZM54.3828 16.1648H54.5461V14.6648H54.3828V16.1648ZM55.2448 15.6874C55.4508 15.1597 55.7722 14.7688 56.2144 14.4877L55.4098 13.2218C54.6868 13.6813 54.1642 14.3304 53.8474 15.1421L55.2448 15.6874ZM56.2186 14.4851C56.6598 14.2005 57.2125 14.0412 57.9112 14.0412V12.5412C56.9764 12.5412 56.1297 12.7576 55.4056 13.2244L56.2186 14.4851ZM57.9112 14.0412C58.6247 14.0412 59.1565 14.2021 59.5545 14.474L60.4007 13.2355C59.6987 12.7559 58.8529 12.5412 57.9112 12.5412V14.0412ZM59.5616 14.4788C59.9901 14.7645 60.3371 15.172 60.5958 15.7301L61.9567 15.0994C61.5946 14.3181 61.0758 13.6855 60.3936 13.2307L59.5616 14.4788ZM61.2762 16.1648H61.4069V14.6648H61.2762V16.1648ZM62.0789 15.7479C62.3336 15.2341 62.7129 14.826 63.2352 14.5161L62.4699 13.2261C61.7072 13.6785 61.1227 14.2995 60.735 15.0816L62.0789 15.7479ZM63.2393 14.5137C63.7438 14.2102 64.3747 14.0412 65.164 14.0412V12.5412C64.1565 12.5412 63.2464 12.7588 62.4659 13.2285L63.2393 14.5137ZM65.164 14.0412C66.1147 14.0412 66.8347 14.3321 67.3903 14.8792L68.4427 13.8104C67.5717 12.9527 66.4568 12.5412 65.164 12.5412V14.0412ZM67.3924 14.8813C67.9043 15.3815 68.2365 16.2334 68.2365 17.6037H69.7365C69.7365 16.0227 69.3553 14.7021 68.4407 13.8084L67.3924 14.8813ZM68.2365 17.6037V26H69.7365V17.6037H68.2365ZM68.9865 25.25H67.0589V26.75H68.9865V25.25ZM67.8089 26V17.6037H66.3089V26H67.8089ZM67.8089 17.6037C67.8089 16.5532 67.5192 15.6231 66.7624 15.029L65.8362 16.2089C66.0922 16.4098 66.3089 16.8029 66.3089 17.6037H67.8089ZM66.7624 15.029C66.1149 14.5208 65.3528 14.2727 64.5106 14.2727V15.7727C65.0406 15.7727 65.4709 15.9222 65.8362 16.2089L66.7624 15.029ZM64.5106 14.2727C63.4682 14.2727 62.5632 14.5946 61.9053 15.3189L63.0158 16.3274C63.3271 15.9845 63.7888 15.7727 64.5106 15.7727V14.2727ZM61.9079 15.3161C61.2794 16.0011 60.9836 16.8599 60.9836 17.8324H62.4836C62.4836 17.1822 62.6724 16.7016 63.0132 16.3302L61.9079 15.3161ZM60.9836 17.8324V26H62.4836V17.8324H60.9836ZM61.7336 25.25H59.7734V26.75H61.7336V25.25ZM60.5234 26V17.4077H59.0234V26H60.5234ZM60.5234 17.4077C60.5234 16.5155 60.2258 15.7335 59.5932 15.1382L58.5651 16.2305C58.8582 16.5063 59.0234 16.8733 59.0234 17.4077H60.5234ZM59.5965 15.1414C58.9743 14.5484 58.1834 14.2727 57.2904 14.2727V15.7727C57.8568 15.7727 58.2583 15.9381 58.5617 16.2273L59.5965 15.1414ZM57.2904 14.2727C56.6484 14.2727 56.0449 14.4459 55.4939 14.7834L56.2773 16.0625C56.5975 15.8664 56.9306 15.7727 57.2904 15.7727V14.2727ZM55.4903 14.7856C54.9449 15.1239 54.5107 15.5903 54.1867 16.1657L55.4936 16.9018C55.7032 16.5297 55.966 16.2556 56.2809 16.0603L55.4903 14.7856ZM54.1853 16.1682C53.8528 16.7638 53.6981 17.4349 53.6981 18.1591H55.1981C55.1981 17.6527 55.3047 17.2403 55.4951 16.8993L54.1853 16.1682ZM53.6981 18.1591V26H55.1981V18.1591H53.6981ZM54.4481 25.25H52.5206V26.75H54.4481V25.25ZM72.5108 26H71.7608V26.75H72.5108V26ZM72.5108 13.4545V12.7045H71.7608V13.4545H72.5108ZM74.4383 13.4545H75.1883V12.7045H74.4383V13.4545ZM74.4383 26V26.75H75.1883V26H74.4383ZM72.519 10.9798L71.9998 11.521L72.0053 11.5262L72.519 10.9798ZM72.519 9.13388L72.0052 8.58738L71.9998 8.59262L72.519 9.13388ZM74.4547 9.13388L73.9355 9.67517L73.941 9.68035L74.4547 9.13388ZM74.4547 10.9798L73.941 10.4333L73.9355 10.4385L74.4547 10.9798ZM73.2608 26V13.4545H71.7608V26H73.2608ZM72.5108 14.2045H74.4383V12.7045H72.5108V14.2045ZM73.6883 13.4545V26H75.1883V13.4545H73.6883ZM74.4383 25.25H72.5108V26.75H74.4383V25.25ZM73.4909 10.6136C73.3049 10.6136 73.165 10.5577 73.0326 10.4333L72.0053 11.5262C72.4175 11.9137 72.9255 12.1136 73.4909 12.1136V10.6136ZM73.0381 10.4385C72.914 10.3194 72.8687 10.2053 72.8687 10.0568H71.3687C71.3687 10.627 71.5903 11.1282 71.9998 11.521L73.0381 10.4385ZM72.8687 10.0568C72.8687 9.9083 72.914 9.79419 73.0381 9.67514L71.9998 8.59262C71.5903 8.9854 71.3687 9.48659 71.3687 10.0568H72.8687ZM73.0326 9.68035C73.165 9.55597 73.3049 9.5 73.4909 9.5V8C72.9255 8 72.4175 8.19995 72.0053 8.58741L73.0326 9.68035ZM73.4909 9.5C73.6766 9.5 73.8109 9.55558 73.9355 9.67514L74.9738 8.59262C74.5649 8.20034 74.0566 8 73.4909 8V9.5ZM73.941 9.68035C74.0692 9.80086 74.1131 9.91349 74.1131 10.0568H75.6131C75.6131 9.4814 75.3847 8.97873 74.9684 8.58741L73.941 9.68035ZM74.1131 10.0568C74.1131 10.2001 74.0692 10.3128 73.941 10.4333L74.9684 11.5262C75.3847 11.1349 75.6131 10.6322 75.6131 10.0568H74.1131ZM73.9355 10.4385C73.8109 10.5581 73.6766 10.6136 73.4909 10.6136V12.1136C74.0566 12.1136 74.5649 11.9133 74.9738 11.521L73.9355 10.4385ZM83.4248 13.4545H84.1748V12.7045H83.4248V13.4545ZM83.4248 15.0881V15.8381H84.1748V15.0881H83.4248ZM76.9233 15.0881H76.1733V15.8381H76.9233V15.0881ZM76.9233 13.4545V12.7045H76.1733V13.4545H76.9233ZM78.8182 10.4489V9.69886H78.0682V10.4489H78.8182ZM80.7458 10.4489H81.4958V9.69886H80.7458V10.4489ZM80.9826 23.6314L80.3339 24.0077L80.3383 24.0154L80.343 24.023L80.9826 23.6314ZM81.6034 24.1705L81.3434 24.874L81.3525 24.8773L81.3617 24.8804L81.6034 24.1705ZM82.9347 24.2685L83.0532 25.009L83.0675 25.0068L83.0818 25.0039L82.9347 24.2685ZM83.2614 24.2031L83.9929 24.0375L83.8314 23.3243L83.1143 23.4677L83.2614 24.2031ZM83.6535 25.9347L83.9168 26.6369L84.5294 26.4072L84.3849 25.769L83.6535 25.9347ZM83.1062 26.0817L82.9526 25.3476L82.9444 25.3493L82.9363 25.3512L83.1062 26.0817ZM80.6151 25.8121L80.3058 26.4954L80.3085 26.4966L80.6151 25.8121ZM79.3246 24.7422L78.7115 25.1742L78.7148 25.1788L79.3246 24.7422ZM82.6748 13.4545V15.0881H84.1748V13.4545H82.6748ZM83.4248 14.3381H76.9233V15.8381H83.4248V14.3381ZM77.6733 15.0881V13.4545H76.1733V15.0881H77.6733ZM76.9233 14.2045H83.4248V12.7045H76.9233V14.2045ZM78.8182 11.1989H80.7458V9.69886H78.8182V11.1989ZM79.9958 10.4489V22.4062H81.4958V10.4489H79.9958ZM79.9958 22.4062C79.9958 22.9987 80.0774 23.5654 80.3339 24.0077L81.6314 23.2551C81.5721 23.1529 81.4958 22.9028 81.4958 22.4062H79.9958ZM80.343 24.023C80.5786 24.4078 80.9088 24.7134 81.3434 24.874L81.8634 23.467C81.797 23.4424 81.7134 23.3886 81.6223 23.2398L80.343 24.023ZM81.3617 24.8804C81.6991 24.9953 82.0505 25.0511 82.412 25.0511V23.5511C82.2071 23.5511 82.0195 23.5199 81.8451 23.4605L81.3617 24.8804ZM82.412 25.0511C82.6453 25.0511 82.8629 25.0395 83.0532 25.009L82.8162 23.5279C82.7342 23.541 82.6034 23.5511 82.412 23.5511V25.0511ZM83.0818 25.0039C83.2179 24.9767 83.3268 24.9549 83.4085 24.9386L83.1143 23.4677C83.0326 23.484 82.9237 23.5058 82.7876 23.533L83.0818 25.0039ZM82.5299 24.3687L82.922 26.1003L84.3849 25.769L83.9929 24.0375L82.5299 24.3687ZM83.3901 25.2324C83.3115 25.2619 83.1717 25.3017 82.9526 25.3476L83.2599 26.8158C83.509 26.7636 83.734 26.7054 83.9168 26.6369L83.3901 25.2324ZM82.9363 25.3512C82.778 25.388 82.5433 25.4134 82.216 25.4134V26.9134C82.6073 26.9134 82.9662 26.8843 83.2761 26.8122L82.9363 25.3512ZM82.216 25.4134C81.7826 25.4134 81.3531 25.3209 80.9217 25.1277L80.3085 26.4966C80.9226 26.7717 81.5603 26.9134 82.216 26.9134V25.4134ZM80.9244 25.1289C80.5319 24.9512 80.2038 24.6818 79.9344 24.3056L78.7148 25.1788C79.1316 25.7609 79.6638 26.2048 80.3058 26.4954L80.9244 25.1289ZM79.9377 24.3102C79.7089 23.9855 79.5682 23.5422 79.5682 22.929H78.0682C78.0682 23.7751 78.2651 24.5406 78.7115 25.1742L79.9377 24.3102ZM79.5682 22.929V10.4489H78.0682V22.929H79.5682Z" fill="#391561" mask="url(#path-2-outside-1_103_12720)"/>
</svg>
