<svg width="205" height="97" viewBox="0 0 205 97" fill="none" xmlns="http://www.w3.org/2000/svg">
<rect y="10" width="204" height="87" rx="10" fill="white"/>
<mask id="path-2-outside-1_189_659" maskUnits="userSpaceOnUse" x="0" y="36" width="205" height="51" fill="black">
<rect fill="white" y="36" width="205" height="51"/>
<path d="M23.8236 65.56H9.23156L6.54356 73H1.93556L14.0316 39.736H19.0716L31.1196 73H26.5116L23.8236 65.56ZM22.5756 62.008L16.5276 45.112L10.4796 62.008H22.5756ZM40.7593 37.48V73H36.3913V37.48H40.7593ZM52.5718 51.592C53.4678 50.024 54.7798 48.744 56.5078 47.752C58.2358 46.76 60.2038 46.264 62.4118 46.264C64.7798 46.264 66.9078 46.824 68.7958 47.944C70.6838 49.064 72.1718 50.648 73.2598 52.696C74.3478 54.712 74.8918 57.064 74.8918 59.752C74.8918 62.408 74.3478 64.776 73.2598 66.856C72.1718 68.936 70.6678 70.552 68.7478 71.704C66.8598 72.856 64.7478 73.432 62.4118 73.432C60.1398 73.432 58.1398 72.936 56.4118 71.944C54.7158 70.952 53.4358 69.688 52.5718 68.152V73H48.2038V37.48H52.5718V51.592ZM70.4278 59.752C70.4278 57.768 70.0278 56.04 69.2278 54.568C68.4278 53.096 67.3398 51.976 65.9638 51.208C64.6198 50.44 63.1318 50.056 61.4998 50.056C59.8998 50.056 58.4118 50.456 57.0358 51.256C55.6918 52.024 54.6038 53.16 53.7718 54.664C52.9718 56.136 52.5718 57.848 52.5718 59.8C52.5718 61.784 52.9718 63.528 53.7718 65.032C54.6038 66.504 55.6918 67.64 57.0358 68.44C58.4118 69.208 59.8998 69.592 61.4998 69.592C63.1318 69.592 64.6198 69.208 65.9638 68.44C67.3398 67.64 68.4278 66.504 69.2278 65.032C70.0278 63.528 70.4278 61.768 70.4278 59.752ZM150.664 46.216C152.712 46.216 154.536 46.648 156.136 47.512C157.736 48.344 159 49.608 159.928 51.304C160.856 53 161.32 55.064 161.32 57.496V73H157V58.12C157 55.496 156.344 53.496 155.032 52.12C153.752 50.712 152.008 50.008 149.8 50.008C147.528 50.008 145.72 50.744 144.376 52.216C143.032 53.656 142.36 55.752 142.36 58.504V73H138.04V58.12C138.04 55.496 137.384 53.496 136.072 52.12C134.792 50.712 133.048 50.008 130.84 50.008C128.568 50.008 126.76 50.744 125.416 52.216C124.072 53.656 123.4 55.752 123.4 58.504V73H119.032V46.696H123.4V50.488C124.264 49.112 125.416 48.056 126.856 47.32C128.328 46.584 129.944 46.216 131.704 46.216C133.912 46.216 135.864 46.712 137.56 47.704C139.256 48.696 140.52 50.152 141.352 52.072C142.088 50.216 143.304 48.776 145 47.752C146.696 46.728 148.584 46.216 150.664 46.216ZM172.853 37.48V73H168.485V37.48H172.853ZM202.954 46.696L187.114 85.384H182.602L187.786 72.712L177.178 46.696H182.026L190.282 68.008L198.442 46.696H202.954Z"/>
</mask>
<path d="M23.8236 65.56H9.23156L6.54356 73H1.93556L14.0316 39.736H19.0716L31.1196 73H26.5116L23.8236 65.56ZM22.5756 62.008L16.5276 45.112L10.4796 62.008H22.5756ZM40.7593 37.48V73H36.3913V37.48H40.7593ZM52.5718 51.592C53.4678 50.024 54.7798 48.744 56.5078 47.752C58.2358 46.76 60.2038 46.264 62.4118 46.264C64.7798 46.264 66.9078 46.824 68.7958 47.944C70.6838 49.064 72.1718 50.648 73.2598 52.696C74.3478 54.712 74.8918 57.064 74.8918 59.752C74.8918 62.408 74.3478 64.776 73.2598 66.856C72.1718 68.936 70.6678 70.552 68.7478 71.704C66.8598 72.856 64.7478 73.432 62.4118 73.432C60.1398 73.432 58.1398 72.936 56.4118 71.944C54.7158 70.952 53.4358 69.688 52.5718 68.152V73H48.2038V37.48H52.5718V51.592ZM70.4278 59.752C70.4278 57.768 70.0278 56.04 69.2278 54.568C68.4278 53.096 67.3398 51.976 65.9638 51.208C64.6198 50.44 63.1318 50.056 61.4998 50.056C59.8998 50.056 58.4118 50.456 57.0358 51.256C55.6918 52.024 54.6038 53.16 53.7718 54.664C52.9718 56.136 52.5718 57.848 52.5718 59.8C52.5718 61.784 52.9718 63.528 53.7718 65.032C54.6038 66.504 55.6918 67.64 57.0358 68.44C58.4118 69.208 59.8998 69.592 61.4998 69.592C63.1318 69.592 64.6198 69.208 65.9638 68.44C67.3398 67.64 68.4278 66.504 69.2278 65.032C70.0278 63.528 70.4278 61.768 70.4278 59.752ZM150.664 46.216C152.712 46.216 154.536 46.648 156.136 47.512C157.736 48.344 159 49.608 159.928 51.304C160.856 53 161.32 55.064 161.32 57.496V73H157V58.12C157 55.496 156.344 53.496 155.032 52.12C153.752 50.712 152.008 50.008 149.8 50.008C147.528 50.008 145.72 50.744 144.376 52.216C143.032 53.656 142.36 55.752 142.36 58.504V73H138.04V58.12C138.04 55.496 137.384 53.496 136.072 52.12C134.792 50.712 133.048 50.008 130.84 50.008C128.568 50.008 126.76 50.744 125.416 52.216C124.072 53.656 123.4 55.752 123.4 58.504V73H119.032V46.696H123.4V50.488C124.264 49.112 125.416 48.056 126.856 47.32C128.328 46.584 129.944 46.216 131.704 46.216C133.912 46.216 135.864 46.712 137.56 47.704C139.256 48.696 140.52 50.152 141.352 52.072C142.088 50.216 143.304 48.776 145 47.752C146.696 46.728 148.584 46.216 150.664 46.216ZM172.853 37.48V73H168.485V37.48H172.853ZM202.954 46.696L187.114 85.384H182.602L187.786 72.712L177.178 46.696H182.026L190.282 68.008L198.442 46.696H202.954Z" fill="#391561"/>
<path d="M23.8236 65.56L24.7641 65.2202L24.5255 64.56H23.8236V65.56ZM9.23156 65.56V64.56H8.52959L8.29106 65.2202L9.23156 65.56ZM6.54356 73V74H7.24554L7.48406 73.3398L6.54356 73ZM1.93556 73L0.995769 72.6583L0.507862 74H1.93556V73ZM14.0316 39.736V38.736H13.3311L13.0918 39.3943L14.0316 39.736ZM19.0716 39.736L20.0118 39.3955L19.7729 38.736H19.0716V39.736ZM31.1196 73V74H32.5453L32.0598 72.6595L31.1196 73ZM26.5116 73L25.5711 73.3398L25.8096 74H26.5116V73ZM22.5756 62.008V63.008H23.9957L23.5171 61.671L22.5756 62.008ZM16.5276 45.112L17.4691 44.775L16.5276 42.1448L15.5861 44.775L16.5276 45.112ZM10.4796 62.008L9.53806 61.671L9.05947 63.008H10.4796V62.008ZM23.8236 64.56H9.23156V66.56H23.8236V64.56ZM8.29106 65.2202L5.60306 72.6602L7.48406 73.3398L10.1721 65.8998L8.29106 65.2202ZM6.54356 72H1.93556V74H6.54356V72ZM2.87536 73.3417L14.9714 40.0777L13.0918 39.3943L0.995769 72.6583L2.87536 73.3417ZM14.0316 40.736H19.0716V38.736H14.0316V40.736ZM18.1313 40.0765L30.1793 73.3405L32.0598 72.6595L20.0118 39.3955L18.1313 40.0765ZM31.1196 72H26.5116V74H31.1196V72ZM27.4521 72.6602L24.7641 65.2202L22.8831 65.8998L25.5711 73.3398L27.4521 72.6602ZM23.5171 61.671L17.4691 44.775L15.5861 45.449L21.6341 62.345L23.5171 61.671ZM15.5861 44.775L9.53806 61.671L11.4211 62.345L17.4691 45.449L15.5861 44.775ZM10.4796 63.008H22.5756V61.008H10.4796V63.008ZM40.7593 37.48H41.7593V36.48H40.7593V37.48ZM40.7593 73V74H41.7593V73H40.7593ZM36.3913 73H35.3913V74H36.3913V73ZM36.3913 37.48V36.48H35.3913V37.48H36.3913ZM39.7593 37.48V73H41.7593V37.48H39.7593ZM40.7593 72H36.3913V74H40.7593V72ZM37.3913 73V37.48H35.3913V73H37.3913ZM36.3913 38.48H40.7593V36.48H36.3913V38.48ZM52.5718 51.592H51.5718V55.3576L53.4401 52.0881L52.5718 51.592ZM56.5078 47.752L57.0057 48.6193L56.5078 47.752ZM68.7958 47.944L69.306 47.0839L68.7958 47.944ZM73.2598 52.696L72.3767 53.1652L72.3798 53.1709L73.2598 52.696ZM73.2598 66.856L74.1459 67.3195L73.2598 66.856ZM68.7478 71.704L68.2333 70.8465L68.2269 70.8504L68.7478 71.704ZM56.4118 71.944L55.9069 72.8072L55.9139 72.8113L56.4118 71.944ZM52.5718 68.152L53.4434 67.6617L51.5718 64.3345V68.152H52.5718ZM52.5718 73V74H53.5718V73H52.5718ZM48.2038 73H47.2038V74H48.2038V73ZM48.2038 37.48V36.48H47.2038V37.48H48.2038ZM52.5718 37.48H53.5718V36.48H52.5718V37.48ZM69.2278 54.568L70.1064 54.0905V54.0905L69.2278 54.568ZM65.9638 51.208L65.4677 52.0763L65.4764 52.0812L65.9638 51.208ZM57.0358 51.256L57.532 52.1243L57.5384 52.1205L57.0358 51.256ZM53.7718 54.664L52.8968 54.1799L52.8932 54.1865L53.7718 54.664ZM53.7718 65.032L52.8889 65.5016L52.895 65.5129L52.9012 65.5241L53.7718 65.032ZM57.0358 68.44L56.5243 69.2993L56.5363 69.3064L56.5484 69.3132L57.0358 68.44ZM65.9638 68.44L66.46 69.3083L66.4664 69.3045L65.9638 68.44ZM69.2278 65.032L70.1065 65.5095L70.1107 65.5016L69.2278 65.032ZM53.4401 52.0881C54.2389 50.6902 55.4156 49.5321 57.0057 48.6193L56.0099 46.8847C54.1441 47.9559 52.6967 49.3578 51.7036 51.0959L53.4401 52.0881ZM57.0057 48.6193C58.5662 47.7234 60.3592 47.264 62.4118 47.264V45.264C60.0485 45.264 57.9054 45.7966 56.0099 46.8847L57.0057 48.6193ZM62.4118 47.264C64.6149 47.264 66.5641 47.7828 68.2856 48.8041L69.306 47.0839C67.2515 45.8652 64.9447 45.264 62.4118 45.264V47.264ZM68.2856 48.8041C70.0068 49.8251 71.3697 51.2697 72.3767 53.1652L74.1429 52.2268C72.9739 50.0263 71.3609 48.3029 69.306 47.0839L68.2856 48.8041ZM72.3798 53.1709C73.3764 55.0176 73.8918 57.201 73.8918 59.752H75.8918C75.8918 56.927 75.3192 54.4064 74.1398 52.2211L72.3798 53.1709ZM73.8918 59.752C73.8918 62.268 73.3775 64.4734 72.3737 66.3925L74.1459 67.3195C75.3181 65.0786 75.8918 62.548 75.8918 59.752H73.8918ZM72.3737 66.3925C71.3667 68.3177 69.9878 69.7938 68.2333 70.8465L69.2623 72.5615C71.3479 71.3102 72.977 69.5543 74.1459 67.3195L72.3737 66.3925ZM68.2269 70.8504C66.5048 71.9012 64.5748 72.432 62.4118 72.432V74.432C64.9208 74.432 67.2148 73.8108 69.2687 72.5576L68.2269 70.8504ZM62.4118 72.432C60.2896 72.432 58.4659 71.9702 56.9097 71.0767L55.9139 72.8113C57.8137 73.9018 59.99 74.432 62.4118 74.432V72.432ZM56.9167 71.0808C55.3558 70.1678 54.2107 69.0259 53.4434 67.6617L51.7002 68.6423C52.6609 70.3501 54.0758 71.7362 55.9069 72.8072L56.9167 71.0808ZM51.5718 68.152V73H53.5718V68.152H51.5718ZM52.5718 72H48.2038V74H52.5718V72ZM49.2038 73V37.48H47.2038V73H49.2038ZM48.2038 38.48H52.5718V36.48H48.2038V38.48ZM51.5718 37.48V51.592H53.5718V37.48H51.5718ZM71.4278 59.752C71.4278 57.6319 70.9996 55.7339 70.1064 54.0905L68.3492 55.0455C69.0561 56.3461 69.4278 57.9041 69.4278 59.752H71.4278ZM70.1064 54.0905C69.222 52.4632 68.003 51.2009 66.4512 50.3348L65.4764 52.0812C66.6766 52.7511 67.6336 53.7288 68.3492 55.0455L70.1064 54.0905ZM66.46 50.3398C64.9566 49.4807 63.296 49.056 61.4998 49.056V51.056C62.9676 51.056 64.2831 51.3993 65.4677 52.0762L66.46 50.3398ZM61.4998 49.056C59.7242 49.056 58.0627 49.5023 56.5332 50.3915L57.5384 52.1205C58.761 51.4097 60.0754 51.056 61.4998 51.056V49.056ZM56.5397 50.3878C55.0194 51.2565 53.8074 52.5338 52.8968 54.1799L54.6468 55.1481C55.4002 53.7862 56.3642 52.7915 57.532 52.1242L56.5397 50.3878ZM52.8932 54.1865C52.0013 55.8276 51.5718 57.7089 51.5718 59.8H53.5718C53.5718 57.9871 53.9423 56.4444 54.6504 55.1415L52.8932 54.1865ZM51.5718 59.8C51.5718 61.9207 52.0003 63.8309 52.8889 65.5016L54.6547 64.5624C53.9434 63.2251 53.5718 61.6473 53.5718 59.8H51.5718ZM52.9012 65.5241C53.8118 67.135 55.0187 68.4031 56.5243 69.2993L57.5473 67.5807C56.365 66.8769 55.3959 65.873 54.6424 64.5399L52.9012 65.5241ZM56.5484 69.3132C58.0758 70.1657 59.7319 70.592 61.4998 70.592V68.592C60.0677 68.592 58.7478 68.2503 57.5232 67.5668L56.5484 69.3132ZM61.4998 70.592C63.296 70.592 64.9566 70.1673 66.46 69.3082L65.4677 67.5718C64.2831 68.2487 62.9676 68.592 61.4998 68.592V70.592ZM66.4664 69.3045C68.0093 68.4075 69.2237 67.1337 70.1064 65.5095L68.3492 64.5545C67.6319 65.8743 66.6703 66.8725 65.4612 67.5755L66.4664 69.3045ZM70.1107 65.5016C71.0005 63.8287 71.4278 61.9018 71.4278 59.752H69.4278C69.4278 61.6342 69.0551 63.2273 68.3449 64.5624L70.1107 65.5016ZM156.136 47.512L155.661 48.3919L155.668 48.3956L155.675 48.3992L156.136 47.512ZM159.928 51.304L159.051 51.784V51.784L159.928 51.304ZM161.32 73V74H162.32V73H161.32ZM157 73H156V74H157V73ZM155.032 52.12L154.292 52.7927L154.3 52.8015L154.308 52.8101L155.032 52.12ZM144.376 52.216L145.107 52.8984L145.114 52.8903L144.376 52.216ZM142.36 73V74H143.36V73H142.36ZM138.04 73H137.04V74H138.04V73ZM136.072 52.12L135.332 52.7927L135.34 52.8015L135.348 52.8101L136.072 52.12ZM125.416 52.216L126.147 52.8984L126.154 52.8903L125.416 52.216ZM123.4 73V74H124.4V73H123.4ZM119.032 73H118.032V74H119.032V73ZM119.032 46.696V45.696H118.032V46.696H119.032ZM123.4 46.696H124.4V45.696H123.4V46.696ZM123.4 50.488H122.4V53.9611L124.247 51.0198L123.4 50.488ZM126.856 47.32L126.409 46.4255L126.401 46.4296L126.856 47.32ZM137.56 47.704L137.055 48.5672L137.56 47.704ZM141.352 52.072L140.434 52.4696L141.393 54.6815L142.282 52.4406L141.352 52.072ZM145 47.752L145.517 48.6081L145 47.752ZM150.664 47.216C152.567 47.216 154.224 47.6162 155.661 48.3919L156.611 46.6321C154.847 45.6798 152.857 45.216 150.664 45.216V47.216ZM155.675 48.3992C157.086 49.133 158.211 50.2488 159.051 51.784L160.805 50.824C159.789 48.9672 158.386 47.555 156.597 46.6248L155.675 48.3992ZM159.051 51.784C159.88 53.2996 160.32 55.1893 160.32 57.496H162.32C162.32 54.9387 161.832 52.7004 160.805 50.824L159.051 51.784ZM160.32 57.496V73H162.32V57.496H160.32ZM161.32 72H157V74H161.32V72ZM158 73V58.12H156V73H158ZM158 58.12C158 55.338 157.303 53.0529 155.756 51.4299L154.308 52.8101C155.385 53.9391 156 55.654 156 58.12H158ZM155.772 51.4473C154.271 49.7968 152.24 49.008 149.8 49.008V51.008C151.776 51.008 153.233 51.6272 154.292 52.7927L155.772 51.4473ZM149.8 49.008C147.29 49.008 145.198 49.8322 143.637 51.5417L145.114 52.8903C146.242 51.6558 147.766 51.008 149.8 51.008V49.008ZM143.645 51.5337C142.07 53.2215 141.36 55.5998 141.36 58.504H143.36C143.36 55.9042 143.994 54.0905 145.107 52.8983L143.645 51.5337ZM141.36 58.504V73H143.36V58.504H141.36ZM142.36 72H138.04V74H142.36V72ZM139.04 73V58.12H137.04V73H139.04ZM139.04 58.12C139.04 55.338 138.343 53.0529 136.796 51.4299L135.348 52.8101C136.425 53.9391 137.04 55.654 137.04 58.12H139.04ZM136.812 51.4473C135.311 49.7968 133.28 49.008 130.84 49.008V51.008C132.816 51.008 134.273 51.6272 135.332 52.7927L136.812 51.4473ZM130.84 49.008C128.33 49.008 126.238 49.8322 124.677 51.5417L126.154 52.8903C127.282 51.6558 128.806 51.008 130.84 51.008V49.008ZM124.685 51.5337C123.11 53.2215 122.4 55.5998 122.4 58.504H124.4C124.4 55.9042 125.034 54.0905 126.147 52.8983L124.685 51.5337ZM122.4 58.504V73H124.4V58.504H122.4ZM123.4 72H119.032V74H123.4V72ZM120.032 73V46.696H118.032V73H120.032ZM119.032 47.696H123.4V45.696H119.032V47.696ZM122.4 46.696V50.488H124.4V46.696H122.4ZM124.247 51.0198C125.015 49.7957 126.032 48.864 127.311 48.2104L126.401 46.4296C124.799 47.248 123.512 48.4283 122.553 49.9562L124.247 51.0198ZM127.303 48.2144C128.627 47.5526 130.088 47.216 131.704 47.216V45.216C129.8 45.216 128.029 45.6154 126.409 46.4256L127.303 48.2144ZM131.704 47.216C133.757 47.216 135.531 47.6755 137.055 48.5672L138.065 46.8408C136.197 45.7485 134.067 45.216 131.704 45.216V47.216ZM137.055 48.5672C138.555 49.4446 139.681 50.7313 140.434 52.4696L142.27 51.6744C141.359 49.5727 139.957 47.9474 138.065 46.8408L137.055 48.5672ZM142.282 52.4406C142.938 50.7861 144.01 49.5181 145.517 48.6081L144.483 46.8959C142.598 48.0339 141.238 49.6459 140.422 51.7034L142.282 52.4406ZM145.517 48.6081C147.049 47.683 148.757 47.216 150.664 47.216V45.216C148.411 45.216 146.343 45.773 144.483 46.8959L145.517 48.6081ZM172.853 37.48H173.853V36.48H172.853V37.48ZM172.853 73V74H173.853V73H172.853ZM168.485 73H167.485V74H168.485V73ZM168.485 37.48V36.48H167.485V37.48H168.485ZM171.853 37.48V73H173.853V37.48H171.853ZM172.853 72H168.485V74H172.853V72ZM169.485 73V37.48H167.485V73H169.485ZM168.485 38.48H172.853V36.48H168.485V38.48ZM202.954 46.696L203.879 47.0749L204.444 45.696H202.954V46.696ZM187.114 85.384V86.384H187.785L188.039 85.7629L187.114 85.384ZM182.602 85.384L181.676 85.0054L181.112 86.384H182.602V85.384ZM187.786 72.712L188.711 73.0906L188.866 72.7126L188.712 72.3344L187.786 72.712ZM177.178 46.696V45.696H175.69L176.252 47.0736L177.178 46.696ZM182.026 46.696L182.958 46.3348L182.711 45.696H182.026V46.696ZM190.282 68.008L189.349 68.3692L190.287 70.7904L191.215 68.3656L190.282 68.008ZM198.442 46.696V45.696H197.754L197.508 46.3384L198.442 46.696ZM202.028 46.3171L186.188 85.0051L188.039 85.7629L203.879 47.0749L202.028 46.3171ZM187.114 84.384H182.602V86.384H187.114V84.384ZM183.527 85.7626L188.711 73.0906L186.86 72.3334L181.676 85.0054L183.527 85.7626ZM188.712 72.3344L178.104 46.3184L176.252 47.0736L186.86 73.0896L188.712 72.3344ZM177.178 47.696H182.026V45.696H177.178V47.696ZM181.093 47.0572L189.349 68.3692L191.214 67.6468L182.958 46.3348L181.093 47.0572ZM191.215 68.3656L199.375 47.0536L197.508 46.3384L189.348 67.6504L191.215 68.3656ZM198.442 47.696H202.954V45.696H198.442V47.696Z" fill="#391561" mask="url(#path-2-outside-1_189_659)"/>
<path d="M96.75 76.25C107.106 76.25 115.5 67.8556 115.5 57.5C115.5 47.1444 107.106 38.75 96.75 38.75C86.3944 38.75 78 47.1444 78 57.5C78 67.8556 86.3944 76.25 96.75 76.25Z" stroke="#391561" stroke-width="4" stroke-linejoin="round"/>
<path d="M96.75 46.25C90.5372 46.25 85.5 51.2872 85.5 57.5M96.75 68.75C102.963 68.75 108 63.7128 108 57.5" stroke="#391561" stroke-width="4" stroke-linecap="round" stroke-linejoin="round"/>
<path d="M96.75 61.25C97.7446 61.25 98.6984 60.8549 99.4016 60.1516C100.105 59.4484 100.5 58.4946 100.5 57.5C100.5 56.5054 100.105 55.5516 99.4016 54.8484C98.6984 54.1451 97.7446 53.75 96.75 53.75C95.7554 53.75 94.8016 54.1451 94.0984 54.8484C93.3951 55.5516 93 56.5054 93 57.5C93 58.4946 93.3951 59.4484 94.0984 60.1516C94.8016 60.8549 95.7554 61.25 96.75 61.25Z" stroke="#391561" stroke-width="4" stroke-linejoin="round"/>
</svg>
