<svg width="205" height="97" viewBox="0 0 205 97" fill="none" xmlns="http://www.w3.org/2000/svg">
<rect x="1" y="10" width="204" height="87" rx="10" fill="white"/>
<mask id="path-2-outside-1_189_657" maskUnits="userSpaceOnUse" x="40" y="33" width="162" height="52" fill="black">
<rect fill="white" x="40" y="33" width="162" height="52"/>
<path d="M63.4876 63.56H48.8956L46.2076 71H41.5996L53.6956 37.736H58.7356L70.7836 71H66.1756L63.4876 63.56ZM62.2396 60.008L56.1916 43.112L50.1436 60.008H62.2396ZM80.4234 48.968C81.1914 47.464 82.2794 46.296 83.6874 45.464C85.1274 44.632 86.8714 44.216 88.9194 44.216V48.728H87.7674C82.8714 48.728 80.4234 51.384 80.4234 56.696V71H76.0554V44.696H80.4234V48.968ZM99.2896 48.296V63.8C99.2896 65.08 99.5616 65.992 100.106 66.536C100.65 67.048 101.594 67.304 102.938 67.304H106.154V71H102.218C99.7856 71 97.9616 70.44 96.7456 69.32C95.5296 68.2 94.9216 66.36 94.9216 63.8V48.296H91.5136V44.696H94.9216V38.072H99.2896V44.696H106.154V48.296H99.2896ZM113.702 40.424C112.87 40.424 112.166 40.136 111.59 39.56C111.014 38.984 110.726 38.28 110.726 37.448C110.726 36.616 111.014 35.912 111.59 35.336C112.166 34.76 112.87 34.472 113.702 34.472C114.502 34.472 115.174 34.76 115.718 35.336C116.294 35.912 116.582 36.616 116.582 37.448C116.582 38.28 116.294 38.984 115.718 39.56C115.174 40.136 114.502 40.424 113.702 40.424ZM115.814 44.696V71H111.446V44.696H115.814ZM132.571 71.432C130.555 71.432 128.747 71.096 127.147 70.424C125.547 69.72 124.283 68.76 123.355 67.544C122.427 66.296 121.915 64.872 121.819 63.272H126.331C126.459 64.584 127.067 65.656 128.155 66.488C129.275 67.32 130.731 67.736 132.523 67.736C134.187 67.736 135.499 67.368 136.459 66.632C137.419 65.896 137.899 64.968 137.899 63.848C137.899 62.696 137.387 61.848 136.363 61.304C135.339 60.728 133.755 60.168 131.611 59.624C129.659 59.112 128.059 58.6 126.811 58.088C125.595 57.544 124.539 56.76 123.643 55.736C122.779 54.68 122.347 53.304 122.347 51.608C122.347 50.264 122.747 49.032 123.547 47.912C124.347 46.792 125.483 45.912 126.955 45.272C128.427 44.6 130.107 44.264 131.995 44.264C134.907 44.264 137.259 45 139.051 46.472C140.843 47.944 141.803 49.96 141.931 52.52H137.563C137.467 51.144 136.907 50.04 135.883 49.208C134.891 48.376 133.547 47.96 131.851 47.96C130.283 47.96 129.035 48.296 128.107 48.968C127.179 49.64 126.715 50.52 126.715 51.608C126.715 52.472 126.987 53.192 127.531 53.768C128.107 54.312 128.811 54.76 129.643 55.112C130.507 55.432 131.691 55.8 133.195 56.216C135.083 56.728 136.619 57.24 137.803 57.752C138.987 58.232 139.995 58.968 140.827 59.96C141.691 60.952 142.139 62.248 142.171 63.848C142.171 65.288 141.771 66.584 140.971 67.736C140.171 68.888 139.035 69.8 137.563 70.472C136.123 71.112 134.459 71.432 132.571 71.432ZM153.665 48.296V63.8C153.665 65.08 153.937 65.992 154.481 66.536C155.025 67.048 155.969 67.304 157.313 67.304H160.529V71H156.593C154.161 71 152.337 70.44 151.121 69.32C149.905 68.2 149.297 66.36 149.297 63.8V48.296H145.889V44.696H149.297V38.072H153.665V44.696H160.529V48.296H153.665ZM170.189 35.48V71H165.821V35.48H170.189ZM200.29 44.696L184.45 83.384H179.938L185.122 70.712L174.514 44.696H179.362L187.618 66.008L195.778 44.696H200.29Z"/>
</mask>
<path d="M63.4876 63.56H48.8956L46.2076 71H41.5996L53.6956 37.736H58.7356L70.7836 71H66.1756L63.4876 63.56ZM62.2396 60.008L56.1916 43.112L50.1436 60.008H62.2396ZM80.4234 48.968C81.1914 47.464 82.2794 46.296 83.6874 45.464C85.1274 44.632 86.8714 44.216 88.9194 44.216V48.728H87.7674C82.8714 48.728 80.4234 51.384 80.4234 56.696V71H76.0554V44.696H80.4234V48.968ZM99.2896 48.296V63.8C99.2896 65.08 99.5616 65.992 100.106 66.536C100.65 67.048 101.594 67.304 102.938 67.304H106.154V71H102.218C99.7856 71 97.9616 70.44 96.7456 69.32C95.5296 68.2 94.9216 66.36 94.9216 63.8V48.296H91.5136V44.696H94.9216V38.072H99.2896V44.696H106.154V48.296H99.2896ZM113.702 40.424C112.87 40.424 112.166 40.136 111.59 39.56C111.014 38.984 110.726 38.28 110.726 37.448C110.726 36.616 111.014 35.912 111.59 35.336C112.166 34.76 112.87 34.472 113.702 34.472C114.502 34.472 115.174 34.76 115.718 35.336C116.294 35.912 116.582 36.616 116.582 37.448C116.582 38.28 116.294 38.984 115.718 39.56C115.174 40.136 114.502 40.424 113.702 40.424ZM115.814 44.696V71H111.446V44.696H115.814ZM132.571 71.432C130.555 71.432 128.747 71.096 127.147 70.424C125.547 69.72 124.283 68.76 123.355 67.544C122.427 66.296 121.915 64.872 121.819 63.272H126.331C126.459 64.584 127.067 65.656 128.155 66.488C129.275 67.32 130.731 67.736 132.523 67.736C134.187 67.736 135.499 67.368 136.459 66.632C137.419 65.896 137.899 64.968 137.899 63.848C137.899 62.696 137.387 61.848 136.363 61.304C135.339 60.728 133.755 60.168 131.611 59.624C129.659 59.112 128.059 58.6 126.811 58.088C125.595 57.544 124.539 56.76 123.643 55.736C122.779 54.68 122.347 53.304 122.347 51.608C122.347 50.264 122.747 49.032 123.547 47.912C124.347 46.792 125.483 45.912 126.955 45.272C128.427 44.6 130.107 44.264 131.995 44.264C134.907 44.264 137.259 45 139.051 46.472C140.843 47.944 141.803 49.96 141.931 52.52H137.563C137.467 51.144 136.907 50.04 135.883 49.208C134.891 48.376 133.547 47.96 131.851 47.96C130.283 47.96 129.035 48.296 128.107 48.968C127.179 49.64 126.715 50.52 126.715 51.608C126.715 52.472 126.987 53.192 127.531 53.768C128.107 54.312 128.811 54.76 129.643 55.112C130.507 55.432 131.691 55.8 133.195 56.216C135.083 56.728 136.619 57.24 137.803 57.752C138.987 58.232 139.995 58.968 140.827 59.96C141.691 60.952 142.139 62.248 142.171 63.848C142.171 65.288 141.771 66.584 140.971 67.736C140.171 68.888 139.035 69.8 137.563 70.472C136.123 71.112 134.459 71.432 132.571 71.432ZM153.665 48.296V63.8C153.665 65.08 153.937 65.992 154.481 66.536C155.025 67.048 155.969 67.304 157.313 67.304H160.529V71H156.593C154.161 71 152.337 70.44 151.121 69.32C149.905 68.2 149.297 66.36 149.297 63.8V48.296H145.889V44.696H149.297V38.072H153.665V44.696H160.529V48.296H153.665ZM170.189 35.48V71H165.821V35.48H170.189ZM200.29 44.696L184.45 83.384H179.938L185.122 70.712L174.514 44.696H179.362L187.618 66.008L195.778 44.696H200.29Z" fill="#391561"/>
<path d="M63.4876 63.56L64.4281 63.2202L64.1896 62.56H63.4876V63.56ZM48.8956 63.56V62.56H48.1937L47.9551 63.2202L48.8956 63.56ZM46.2076 71V72H46.9096L47.1481 71.3398L46.2076 71ZM41.5996 71L40.6598 70.6583L40.1719 72H41.5996V71ZM53.6956 37.736V36.736H52.9952L52.7558 37.3943L53.6956 37.736ZM58.7356 37.736L59.6759 37.3955L59.437 36.736H58.7356V37.736ZM70.7836 71V72H72.2094L71.7239 70.6595L70.7836 71ZM66.1756 71L65.2351 71.3398L65.4737 72H66.1756V71ZM62.2396 60.008V61.008H63.6597L63.1811 59.671L62.2396 60.008ZM56.1916 43.112L57.1331 42.775L56.1916 40.1448L55.2501 42.775L56.1916 43.112ZM50.1436 60.008L49.2021 59.671L48.7235 61.008H50.1436V60.008ZM63.4876 62.56H48.8956V64.56H63.4876V62.56ZM47.9551 63.2202L45.2671 70.6602L47.1481 71.3398L49.8361 63.8998L47.9551 63.2202ZM46.2076 70H41.5996V72H46.2076V70ZM42.5394 71.3417L54.6354 38.0777L52.7558 37.3943L40.6598 70.6583L42.5394 71.3417ZM53.6956 38.736H58.7356V36.736H53.6956V38.736ZM57.7954 38.0765L69.8434 71.3405L71.7239 70.6595L59.6759 37.3955L57.7954 38.0765ZM70.7836 70H66.1756V72H70.7836V70ZM67.1161 70.6602L64.4281 63.2202L62.5471 63.8998L65.2351 71.3398L67.1161 70.6602ZM63.1811 59.671L57.1331 42.775L55.2501 43.449L61.2981 60.345L63.1811 59.671ZM55.2501 42.775L49.2021 59.671L51.0851 60.345L57.1331 43.449L55.2501 42.775ZM50.1436 61.008H62.2396V59.008H50.1436V61.008ZM80.4234 48.968H79.4234L81.314 49.4228L80.4234 48.968ZM83.6874 45.464L83.1871 44.5981L83.1786 44.6031L83.6874 45.464ZM88.9194 44.216H89.9194V43.216H88.9194V44.216ZM88.9194 48.728V49.728H89.9194V48.728H88.9194ZM80.4234 71V72H81.4234V71H80.4234ZM76.0554 71H75.0554V72H76.0554V71ZM76.0554 44.696V43.696H75.0554V44.696H76.0554ZM80.4234 44.696H81.4234V43.696H80.4234V44.696ZM81.314 49.4228C81.9987 48.0818 82.9568 47.0572 84.1961 46.3249L83.1786 44.6031C81.6019 45.5348 80.384 46.8462 79.5328 48.5132L81.314 49.4228ZM84.1877 46.3299C85.4441 45.6039 87.0067 45.216 88.9194 45.216V43.216C86.7361 43.216 84.8107 43.6601 83.1871 44.5981L84.1877 46.3299ZM87.9194 44.216V48.728H89.9194V44.216H87.9194ZM88.9194 47.728H87.7674V49.728H88.9194V47.728ZM87.7674 47.728C85.1433 47.728 82.9976 48.4435 81.5241 50.0423C80.0647 51.6256 79.4234 53.9052 79.4234 56.696H81.4234C81.4234 54.1748 82.006 52.4704 82.9947 51.3977C83.9692 50.3405 85.4954 49.728 87.7674 49.728V47.728ZM79.4234 56.696V71H81.4234V56.696H79.4234ZM80.4234 70H76.0554V72H80.4234V70ZM77.0554 71V44.696H75.0554V71H77.0554ZM76.0554 45.696H80.4234V43.696H76.0554V45.696ZM79.4234 44.696V48.968H81.4234V44.696H79.4234ZM99.2896 48.296V47.296H98.2896V48.296H99.2896ZM100.106 66.536L99.3985 67.2431L99.4092 67.2538L99.4203 67.2642L100.106 66.536ZM106.154 67.304H107.154V66.304H106.154V67.304ZM106.154 71V72H107.154V71H106.154ZM94.9216 48.296H95.9216V47.296H94.9216V48.296ZM91.5136 48.296H90.5136V49.296H91.5136V48.296ZM91.5136 44.696V43.696H90.5136V44.696H91.5136ZM94.9216 44.696V45.696H95.9216V44.696H94.9216ZM94.9216 38.072V37.072H93.9216V38.072H94.9216ZM99.2896 38.072H100.29V37.072H99.2896V38.072ZM99.2896 44.696H98.2896V45.696H99.2896V44.696ZM106.154 44.696H107.154V43.696H106.154V44.696ZM106.154 48.296V49.296H107.154V48.296H106.154ZM98.2896 48.296V63.8H100.29V48.296H98.2896ZM98.2896 63.8C98.2896 65.1786 98.5752 66.4198 99.3985 67.2431L100.813 65.8289C100.548 65.5642 100.29 64.9814 100.29 63.8H98.2896ZM99.4203 67.2642C100.251 68.0456 101.523 68.304 102.938 68.304V66.304C101.664 66.304 101.049 66.0504 100.791 65.8078L99.4203 67.2642ZM102.938 68.304H106.154V66.304H102.938V68.304ZM105.154 67.304V71H107.154V67.304H105.154ZM106.154 70H102.218V72H106.154V70ZM102.218 70C99.9203 70 98.3838 69.4693 97.4231 68.5845L96.0681 70.0555C97.5395 71.4107 99.6509 72 102.218 72V70ZM97.4231 68.5845C96.5025 67.7365 95.9216 66.232 95.9216 63.8H93.9216C93.9216 66.488 94.5568 68.6635 96.0681 70.0555L97.4231 68.5845ZM95.9216 63.8V48.296H93.9216V63.8H95.9216ZM94.9216 47.296H91.5136V49.296H94.9216V47.296ZM92.5136 48.296V44.696H90.5136V48.296H92.5136ZM91.5136 45.696H94.9216V43.696H91.5136V45.696ZM95.9216 44.696V38.072H93.9216V44.696H95.9216ZM94.9216 39.072H99.2896V37.072H94.9216V39.072ZM98.2896 38.072V44.696H100.29V38.072H98.2896ZM99.2896 45.696H106.154V43.696H99.2896V45.696ZM105.154 44.696V48.296H107.154V44.696H105.154ZM106.154 47.296H99.2896V49.296H106.154V47.296ZM111.59 39.56L112.297 38.8529L111.59 39.56ZM111.59 35.336L112.297 36.0431L111.59 35.336ZM115.718 35.336L114.991 36.0226L115.001 36.033L115.011 36.0431L115.718 35.336ZM115.718 39.56L115.011 38.8529L115.001 38.863L114.991 38.8734L115.718 39.56ZM115.814 44.696H116.814V43.696H115.814V44.696ZM115.814 71V72H116.814V71H115.814ZM111.446 71H110.446V72H111.446V71ZM111.446 44.696V43.696H110.446V44.696H111.446ZM113.702 39.424C113.129 39.424 112.681 39.2369 112.297 38.8529L110.883 40.2671C111.651 41.0351 112.611 41.424 113.702 41.424V39.424ZM112.297 38.8529C111.913 38.4689 111.726 38.0211 111.726 37.448H109.726C109.726 38.5389 110.115 39.4991 110.883 40.2671L112.297 38.8529ZM111.726 37.448C111.726 36.8749 111.913 36.4271 112.297 36.0431L110.883 34.6289C110.115 35.3969 109.726 36.3571 109.726 37.448H111.726ZM112.297 36.0431C112.681 35.6591 113.129 35.472 113.702 35.472V33.472C112.611 33.472 111.651 33.8609 110.883 34.6289L112.297 36.0431ZM113.702 35.472C114.23 35.472 114.638 35.6488 114.991 36.0226L116.445 34.6494C115.71 33.8712 114.774 33.472 113.702 33.472V35.472ZM115.011 36.0431C115.395 36.4271 115.582 36.8749 115.582 37.448H117.582C117.582 36.3571 117.193 35.3969 116.425 34.6289L115.011 36.0431ZM115.582 37.448C115.582 38.0211 115.395 38.4689 115.011 38.8529L116.425 40.2671C117.193 39.4991 117.582 38.5389 117.582 37.448H115.582ZM114.991 38.8734C114.638 39.2472 114.23 39.424 113.702 39.424V41.424C114.774 41.424 115.71 41.0248 116.445 40.2466L114.991 38.8734ZM114.814 44.696V71H116.814V44.696H114.814ZM115.814 70H111.446V72H115.814V70ZM112.446 71V44.696H110.446V71H112.446ZM111.446 45.696H115.814V43.696H111.446V45.696ZM127.146 70.424L126.744 71.3393L126.751 71.3427L126.759 71.346L127.146 70.424ZM123.354 67.544L122.552 68.1408L122.56 68.1507L123.354 67.544ZM121.818 63.272V62.272H120.757L120.82 63.3319L121.818 63.272ZM126.33 63.272L127.326 63.1749L127.238 62.272H126.33V63.272ZM128.155 66.488L127.547 67.2824L127.558 67.2907L128.155 66.488ZM136.363 61.304L135.872 62.1756L135.883 62.1815L135.893 62.1871L136.363 61.304ZM131.611 59.624L131.357 60.5913L131.365 60.5933L131.611 59.624ZM126.811 58.088L126.402 59.0008L126.416 59.0072L126.431 59.0132L126.811 58.088ZM123.643 55.736L122.869 56.3692L122.879 56.382L122.89 56.3945L123.643 55.736ZM123.547 47.912L122.733 47.3308L123.547 47.912ZM126.954 45.272L127.353 46.1891L127.362 46.1855L127.37 46.1817L126.954 45.272ZM141.931 52.52V53.52H142.982L142.929 52.4701L141.931 52.52ZM137.562 52.52L136.565 52.5896L136.63 53.52H137.562V52.52ZM135.882 49.208L135.24 49.9742L135.246 49.9792L135.252 49.9841L135.882 49.208ZM128.106 48.968L127.52 48.1581L128.106 48.968ZM127.531 53.768L126.803 54.4546L126.823 54.4754L126.844 54.495L127.531 53.768ZM129.643 55.112L129.253 56.033L129.274 56.0418L129.295 56.0497L129.643 55.112ZM133.195 56.216L132.928 57.1798L132.933 57.1811L133.195 56.216ZM137.802 57.752L137.406 58.6699L137.416 58.6744L137.427 58.6787L137.802 57.752ZM140.826 59.96L140.06 60.6026L140.066 60.6098L140.072 60.6168L140.826 59.96ZM142.171 63.848H143.171V63.838L143.17 63.828L142.171 63.848ZM140.97 67.736L140.149 67.1656L140.97 67.736ZM137.562 70.472L137.969 71.3859L137.978 71.3817L137.562 70.472ZM132.571 70.432C130.666 70.432 128.993 70.1149 127.534 69.502L126.759 71.346C128.5 72.0771 130.443 72.432 132.571 72.432V70.432ZM127.549 69.5087C126.082 68.8629 124.961 68.0008 124.149 66.9373L122.56 68.1507C123.604 69.5192 125.011 70.5771 126.744 71.3393L127.549 69.5087ZM124.157 66.9473C123.349 65.8604 122.901 64.6242 122.817 63.2121L120.82 63.3319C120.928 65.1198 121.504 66.7316 122.552 68.1407L124.157 66.9473ZM121.818 64.272H126.33V62.272H121.818V64.272ZM125.335 63.3691C125.491 64.9692 126.248 66.2892 127.547 67.2824L128.762 65.6936C127.885 65.0228 127.426 64.1988 127.326 63.1749L125.335 63.3691ZM127.558 67.2907C128.894 68.2831 130.577 68.736 132.522 68.736V66.736C130.884 66.736 129.655 66.3568 128.751 65.6853L127.558 67.2907ZM132.522 68.736C134.325 68.736 135.877 68.3377 137.067 67.4256L135.85 65.8384C135.12 66.3983 134.048 66.736 132.522 66.736V68.736ZM137.067 67.4256C138.251 66.5179 138.898 65.3067 138.898 63.848H136.898C136.898 64.6293 136.586 65.2741 135.85 65.8384L137.067 67.4256ZM138.898 63.848C138.898 63.1199 138.735 62.435 138.371 61.8311C138.006 61.2276 137.476 60.7631 136.832 60.4209L135.893 62.1871C136.273 62.3889 136.511 62.6204 136.658 62.8649C136.806 63.109 136.898 63.4241 136.898 63.848H138.898ZM136.853 60.4324C135.712 59.7906 134.025 59.2049 131.856 58.6547L131.365 60.5933C133.484 61.1311 134.965 61.6654 135.872 62.1756L136.853 60.4324ZM131.864 58.6567C129.936 58.151 128.382 57.652 127.19 57.1628L126.431 59.0132C127.735 59.548 129.381 60.073 131.357 60.5913L131.864 58.6567ZM127.219 57.1752C126.137 56.6914 125.198 55.9953 124.395 55.0775L122.89 56.3945C123.879 57.5247 125.052 58.3966 126.402 59.0008L127.219 57.1752ZM124.416 55.1028C123.731 54.2655 123.346 53.1308 123.346 51.608H121.346C121.346 53.4772 121.826 55.0945 122.869 56.3692L124.416 55.1028ZM123.346 51.608C123.346 50.4777 123.678 49.448 124.36 48.4932L122.733 47.3308C121.815 48.616 121.346 50.0503 121.346 51.608H123.346ZM124.36 48.4932C125.038 47.5437 126.019 46.769 127.353 46.1891L126.556 44.3549C124.946 45.055 123.655 46.0403 122.733 47.3308L124.36 48.4932ZM127.37 46.1817C128.691 45.5783 130.226 45.264 131.994 45.264V43.264C129.987 43.264 128.162 43.6217 126.539 44.3623L127.37 46.1817ZM131.994 45.264C134.736 45.264 136.845 45.9541 138.416 47.2447L139.685 45.6993C137.672 44.0459 135.077 43.264 131.994 43.264V45.264ZM138.416 47.2447C139.966 48.5179 140.816 50.2584 140.932 52.5699L142.929 52.4701C142.789 49.6616 141.719 47.3701 139.685 45.6993L138.416 47.2447ZM141.931 51.52H137.562V53.52H141.931V51.52ZM138.56 52.4504C138.446 50.8124 137.763 49.4472 136.513 48.4319L135.252 49.9841C136.05 50.6328 136.487 51.4756 136.565 52.5896L138.56 52.4504ZM136.525 48.4418C135.304 47.4173 133.708 46.96 131.851 46.96V48.96C133.385 48.96 134.477 49.3347 135.24 49.9742L136.525 48.4418ZM131.851 46.96C130.148 46.96 128.671 47.3243 127.52 48.1581L128.693 49.7779C129.398 49.2677 130.417 48.96 131.851 48.96V46.96ZM127.52 48.1581C126.348 49.0064 125.715 50.1798 125.715 51.608H127.715C127.715 50.8602 128.009 50.2736 128.693 49.7779L127.52 48.1581ZM125.715 51.608C125.715 52.7021 126.068 53.6754 126.803 54.4546L128.258 53.0814C127.905 52.7086 127.715 52.2419 127.715 51.608H125.715ZM126.844 54.495C127.518 55.1315 128.326 55.641 129.253 56.033L130.032 54.191C129.295 53.879 128.695 53.4925 128.217 53.041L126.844 54.495ZM129.295 56.0497C130.198 56.384 131.413 56.7607 132.928 57.1798L133.461 55.2522C131.968 54.8393 130.815 54.48 129.99 54.1743L129.295 56.0497ZM132.933 57.1811C134.796 57.6863 136.282 58.1838 137.406 58.6699L138.199 56.8341C136.955 56.2962 135.369 55.7697 133.456 55.2509L132.933 57.1811ZM137.427 58.6787C138.457 59.0965 139.332 59.7341 140.06 60.6026L141.593 59.3174C140.657 58.202 139.516 57.3675 138.178 56.8253L137.427 58.6787ZM140.072 60.6168C140.751 61.3958 141.142 62.4498 141.171 63.868L143.17 63.828C143.135 62.0462 142.63 60.5082 141.581 59.3032L140.072 60.6168ZM141.171 63.848C141.171 65.0899 140.83 66.1858 140.149 67.1656L141.792 68.3064C142.711 66.9822 143.171 65.4861 143.171 63.848H141.171ZM140.149 67.1656C139.466 68.1487 138.481 68.9533 137.147 69.5623L137.978 71.3817C139.588 70.6467 140.875 69.6273 141.792 68.3064L140.149 67.1656ZM137.156 69.5582C135.867 70.1313 134.346 70.432 132.571 70.432V72.432C134.571 72.432 136.378 72.0927 137.969 71.3858L137.156 69.5582ZM153.665 48.296V47.296H152.665V48.296H153.665ZM154.481 66.536L153.774 67.2431L153.784 67.2538L153.795 67.2642L154.481 66.536ZM160.529 67.304H161.529V66.304H160.529V67.304ZM160.529 71V72H161.529V71H160.529ZM149.297 48.296H150.297V47.296H149.297V48.296ZM145.889 48.296H144.889V49.296H145.889V48.296ZM145.889 44.696V43.696H144.889V44.696H145.889ZM149.297 44.696V45.696H150.297V44.696H149.297ZM149.297 38.072V37.072H148.297V38.072H149.297ZM153.665 38.072H154.665V37.072H153.665V38.072ZM153.665 44.696H152.665V45.696H153.665V44.696ZM160.529 44.696H161.529V43.696H160.529V44.696ZM160.529 48.296V49.296H161.529V48.296H160.529ZM152.665 48.296V63.8H154.665V48.296H152.665ZM152.665 63.8C152.665 65.1786 152.95 66.4198 153.774 67.2431L155.188 65.8289C154.923 65.5642 154.665 64.9814 154.665 63.8H152.665ZM153.795 67.2642C154.626 68.0456 155.898 68.304 157.313 68.304V66.304C156.039 66.304 155.424 66.0504 155.166 65.8078L153.795 67.2642ZM157.313 68.304H160.529V66.304H157.313V68.304ZM159.529 67.304V71H161.529V67.304H159.529ZM160.529 70H156.593V72H160.529V70ZM156.593 70C154.295 70 152.759 69.4693 151.798 68.5845L150.443 70.0555C151.914 71.4107 154.026 72 156.593 72V70ZM151.798 68.5845C150.877 67.7365 150.297 66.232 150.297 63.8H148.297C148.297 66.488 148.932 68.6635 150.443 70.0555L151.798 68.5845ZM150.297 63.8V48.296H148.297V63.8H150.297ZM149.297 47.296H145.889V49.296H149.297V47.296ZM146.889 48.296V44.696H144.889V48.296H146.889ZM145.889 45.696H149.297V43.696H145.889V45.696ZM150.297 44.696V38.072H148.297V44.696H150.297ZM149.297 39.072H153.665V37.072H149.297V39.072ZM152.665 38.072V44.696H154.665V38.072H152.665ZM153.665 45.696H160.529V43.696H153.665V45.696ZM159.529 44.696V48.296H161.529V44.696H159.529ZM160.529 47.296H153.665V49.296H160.529V47.296ZM170.189 35.48H171.189V34.48H170.189V35.48ZM170.189 71V72H171.189V71H170.189ZM165.821 71H164.821V72H165.821V71ZM165.821 35.48V34.48H164.821V35.48H165.821ZM169.189 35.48V71H171.189V35.48H169.189ZM170.189 70H165.821V72H170.189V70ZM166.821 71V35.48H164.821V71H166.821ZM165.821 36.48H170.189V34.48H165.821V36.48ZM200.29 44.696L201.215 45.0749L201.779 43.696H200.29V44.696ZM184.449 83.384V84.384H185.121L185.375 83.7629L184.449 83.384ZM179.938 83.384L179.012 83.0054L178.448 84.384H179.938V83.384ZM185.122 70.712L186.047 71.0906L186.202 70.7126L186.047 70.3344L185.122 70.712ZM174.514 44.696V43.696H173.026L173.588 45.0736L174.514 44.696ZM179.361 44.696L180.294 44.3348L180.047 43.696H179.361V44.696ZM187.618 66.008L186.685 66.3692L187.623 68.7904L188.551 66.3656L187.618 66.008ZM195.777 44.696V43.696H195.09L194.844 44.3384L195.777 44.696ZM199.364 44.3171L183.524 83.0051L185.375 83.7629L201.215 45.0749L199.364 44.3171ZM184.449 82.384H179.938V84.384H184.449V82.384ZM180.863 83.7626L186.047 71.0906L184.196 70.3334L179.012 83.0054L180.863 83.7626ZM186.047 70.3344L175.439 44.3184L173.588 45.0736L184.196 71.0896L186.047 70.3344ZM174.514 45.696H179.361V43.696H174.514V45.696ZM178.429 45.0572L186.685 66.3692L188.55 65.6468L180.294 44.3348L178.429 45.0572ZM188.551 66.3656L196.711 45.0536L194.844 44.3384L186.684 65.6504L188.551 66.3656ZM195.777 45.696H200.29V43.696H195.777V45.696Z" fill="#391561" mask="url(#path-2-outside-1_189_657)"/>
<path d="M22.5 35.2188C12.4198 35.2188 4.21875 43.4198 4.21875 53.5C4.21875 63.5802 12.4198 71.7812 22.5 71.7812C32.5802 71.7812 40.7812 63.5802 40.7812 53.5C40.7812 43.4198 32.5802 35.2188 22.5 35.2188ZM18.2812 46.4688C18.2845 45.3509 18.73 44.2797 19.5205 43.4892C20.3109 42.6988 21.3821 42.2532 22.5 42.25C23.6179 42.2532 24.6891 42.6988 25.4795 43.4892C26.27 44.2797 26.7155 45.3509 26.7188 46.4688V52.0938C26.7155 53.2116 26.27 54.2828 25.4795 55.0733C24.6891 55.8637 23.6179 56.3093 22.5 56.3125C21.3821 56.3093 20.3109 55.8637 19.5205 55.0733C18.73 54.2828 18.2845 53.2116 18.2812 52.0938V46.4688ZM30.9375 52.8162C30.9375 54.8693 29.976 56.8249 28.2313 58.3234C26.9986 59.3816 25.5053 60.0911 23.9062 60.3783V61.9375H25.3125C25.6855 61.9375 26.0431 62.0857 26.3069 62.3494C26.5706 62.6131 26.7188 62.9708 26.7188 63.3438C26.7188 63.7167 26.5706 64.0744 26.3069 64.3381C26.0431 64.6018 25.6855 64.75 25.3125 64.75H19.6875C19.3145 64.75 18.9569 64.6018 18.6931 64.3381C18.4294 64.0744 18.2812 63.7167 18.2812 63.3438C18.2812 62.9708 18.4294 62.6131 18.6931 62.3494C18.9569 62.0857 19.3145 61.9375 19.6875 61.9375H21.0938V60.3783C19.4947 60.0911 18.0014 59.3816 16.7687 58.3234C15.024 56.8249 14.0625 54.8693 14.0625 52.8162V50.7139C14.0625 50.3409 14.2107 49.9832 14.4744 49.7195C14.7381 49.4558 15.0958 49.3076 15.4688 49.3076C15.8417 49.3076 16.1994 49.4558 16.4631 49.7195C16.7268 49.9832 16.875 50.3409 16.875 50.7139V52.8162C16.875 55.0715 19.3359 57.6924 22.5 57.6924C25.1016 57.6924 28.125 55.5628 28.125 52.8162V50.7139C28.125 50.3409 28.2732 49.9832 28.5369 49.7195C28.8006 49.4558 29.1583 49.3076 29.5312 49.3076C29.9042 49.3076 30.2619 49.4558 30.5256 49.7195C30.7893 49.9832 30.9375 50.3409 30.9375 50.7139V52.8162Z" fill="#391561"/>
</svg>
