<svg width="204" height="97" viewBox="0 0 204 97" fill="none" xmlns="http://www.w3.org/2000/svg">
<rect x="0.995117" y="10" width="203.005" height="87" rx="10" fill="white"/>
<mask id="path-2-outside-1_189_657" maskUnits="userSpaceOnUse" x="39.8049" y="33" width="162" height="52" fill="black">
<rect fill="white" x="39.8049" y="33" width="162" height="52"/>
<path d="M63.2926 63.56H48.7006L46.0126 71H41.4046L53.5006 37.736H58.5406L70.5886 71H65.9806L63.2926 63.56ZM62.0446 60.008L55.9966 43.112L49.9486 60.008H62.0446ZM80.2283 48.968C80.9963 47.464 82.0843 46.296 83.4923 45.464C84.9323 44.632 86.6763 44.216 88.7243 44.216V48.728H87.5723C82.6763 48.728 80.2283 51.384 80.2283 56.696V71H75.8603V44.696H80.2283V48.968ZM99.0946 48.296V63.8C99.0946 65.08 99.3666 65.992 99.9106 66.536C100.455 67.048 101.399 67.304 102.743 67.304H105.959V71H102.023C99.5906 71 97.7666 70.44 96.5506 69.32C95.3346 68.2 94.7266 66.36 94.7266 63.8V48.296H91.3186V44.696H94.7266V38.072H99.0946V44.696H105.959V48.296H99.0946ZM113.507 40.424C112.675 40.424 111.971 40.136 111.395 39.56C110.819 38.984 110.531 38.28 110.531 37.448C110.531 36.616 110.819 35.912 111.395 35.336C111.971 34.76 112.675 34.472 113.507 34.472C114.307 34.472 114.979 34.76 115.523 35.336C116.099 35.912 116.387 36.616 116.387 37.448C116.387 38.28 116.099 38.984 115.523 39.56C114.979 40.136 114.307 40.424 113.507 40.424ZM115.619 44.696V71H111.251V44.696H115.619ZM132.375 71.432C130.359 71.432 128.551 71.096 126.951 70.424C125.351 69.72 124.087 68.76 123.159 67.544C122.231 66.296 121.719 64.872 121.623 63.272H126.135C126.263 64.584 126.871 65.656 127.959 66.488C129.079 67.32 130.535 67.736 132.327 67.736C133.991 67.736 135.303 67.368 136.263 66.632C137.223 65.896 137.703 64.968 137.703 63.848C137.703 62.696 137.191 61.848 136.167 61.304C135.143 60.728 133.559 60.168 131.415 59.624C129.463 59.112 127.863 58.6 126.615 58.088C125.399 57.544 124.343 56.76 123.447 55.736C122.583 54.68 122.151 53.304 122.151 51.608C122.151 50.264 122.551 49.032 123.351 47.912C124.151 46.792 125.287 45.912 126.759 45.272C128.231 44.6 129.911 44.264 131.799 44.264C134.711 44.264 137.063 45 138.855 46.472C140.647 47.944 141.607 49.96 141.735 52.52H137.367C137.271 51.144 136.711 50.04 135.687 49.208C134.695 48.376 133.351 47.96 131.655 47.96C130.087 47.96 128.839 48.296 127.911 48.968C126.983 49.64 126.519 50.52 126.519 51.608C126.519 52.472 126.791 53.192 127.335 53.768C127.911 54.312 128.615 54.76 129.447 55.112C130.311 55.432 131.495 55.8 132.999 56.216C134.887 56.728 136.423 57.24 137.607 57.752C138.791 58.232 139.799 58.968 140.631 59.96C141.495 60.952 141.943 62.248 141.975 63.848C141.975 65.288 141.575 66.584 140.775 67.736C139.975 68.888 138.839 69.8 137.367 70.472C135.927 71.112 134.263 71.432 132.375 71.432ZM153.47 48.296V63.8C153.47 65.08 153.742 65.992 154.286 66.536C154.83 67.048 155.774 67.304 157.118 67.304H160.334V71H156.398C153.966 71 152.142 70.44 150.926 69.32C149.71 68.2 149.102 66.36 149.102 63.8V48.296H145.694V44.696H149.102V38.072H153.47V44.696H160.334V48.296H153.47ZM169.994 35.48V71H165.626V35.48H169.994ZM200.094 44.696L184.254 83.384H179.742L184.926 70.712L174.318 44.696H179.166L187.422 66.008L195.582 44.696H200.094Z"/>
</mask>
<path d="M63.2926 63.56H48.7006L46.0126 71H41.4046L53.5006 37.736H58.5406L70.5886 71H65.9806L63.2926 63.56ZM62.0446 60.008L55.9966 43.112L49.9486 60.008H62.0446ZM80.2283 48.968C80.9963 47.464 82.0843 46.296 83.4923 45.464C84.9323 44.632 86.6763 44.216 88.7243 44.216V48.728H87.5723C82.6763 48.728 80.2283 51.384 80.2283 56.696V71H75.8603V44.696H80.2283V48.968ZM99.0946 48.296V63.8C99.0946 65.08 99.3666 65.992 99.9106 66.536C100.455 67.048 101.399 67.304 102.743 67.304H105.959V71H102.023C99.5906 71 97.7666 70.44 96.5506 69.32C95.3346 68.2 94.7266 66.36 94.7266 63.8V48.296H91.3186V44.696H94.7266V38.072H99.0946V44.696H105.959V48.296H99.0946ZM113.507 40.424C112.675 40.424 111.971 40.136 111.395 39.56C110.819 38.984 110.531 38.28 110.531 37.448C110.531 36.616 110.819 35.912 111.395 35.336C111.971 34.76 112.675 34.472 113.507 34.472C114.307 34.472 114.979 34.76 115.523 35.336C116.099 35.912 116.387 36.616 116.387 37.448C116.387 38.28 116.099 38.984 115.523 39.56C114.979 40.136 114.307 40.424 113.507 40.424ZM115.619 44.696V71H111.251V44.696H115.619ZM132.375 71.432C130.359 71.432 128.551 71.096 126.951 70.424C125.351 69.72 124.087 68.76 123.159 67.544C122.231 66.296 121.719 64.872 121.623 63.272H126.135C126.263 64.584 126.871 65.656 127.959 66.488C129.079 67.32 130.535 67.736 132.327 67.736C133.991 67.736 135.303 67.368 136.263 66.632C137.223 65.896 137.703 64.968 137.703 63.848C137.703 62.696 137.191 61.848 136.167 61.304C135.143 60.728 133.559 60.168 131.415 59.624C129.463 59.112 127.863 58.6 126.615 58.088C125.399 57.544 124.343 56.76 123.447 55.736C122.583 54.68 122.151 53.304 122.151 51.608C122.151 50.264 122.551 49.032 123.351 47.912C124.151 46.792 125.287 45.912 126.759 45.272C128.231 44.6 129.911 44.264 131.799 44.264C134.711 44.264 137.063 45 138.855 46.472C140.647 47.944 141.607 49.96 141.735 52.52H137.367C137.271 51.144 136.711 50.04 135.687 49.208C134.695 48.376 133.351 47.96 131.655 47.96C130.087 47.96 128.839 48.296 127.911 48.968C126.983 49.64 126.519 50.52 126.519 51.608C126.519 52.472 126.791 53.192 127.335 53.768C127.911 54.312 128.615 54.76 129.447 55.112C130.311 55.432 131.495 55.8 132.999 56.216C134.887 56.728 136.423 57.24 137.607 57.752C138.791 58.232 139.799 58.968 140.631 59.96C141.495 60.952 141.943 62.248 141.975 63.848C141.975 65.288 141.575 66.584 140.775 67.736C139.975 68.888 138.839 69.8 137.367 70.472C135.927 71.112 134.263 71.432 132.375 71.432ZM153.47 48.296V63.8C153.47 65.08 153.742 65.992 154.286 66.536C154.83 67.048 155.774 67.304 157.118 67.304H160.334V71H156.398C153.966 71 152.142 70.44 150.926 69.32C149.71 68.2 149.102 66.36 149.102 63.8V48.296H145.694V44.696H149.102V38.072H153.47V44.696H160.334V48.296H153.47ZM169.994 35.48V71H165.626V35.48H169.994ZM200.094 44.696L184.254 83.384H179.742L184.926 70.712L174.318 44.696H179.166L187.422 66.008L195.582 44.696H200.094Z" fill="#391561"/>
<path d="M63.2926 63.56L64.2331 63.2202L63.9945 62.56H63.2926V63.56ZM48.7006 63.56V62.56H47.9986L47.7601 63.2202L48.7006 63.56ZM46.0126 71V72H46.7145L46.9531 71.3398L46.0126 71ZM41.4046 71L40.4648 70.6583L39.9769 72H41.4046V71ZM53.5006 37.736V36.736H52.8001L52.5608 37.3943L53.5006 37.736ZM58.5406 37.736L59.4808 37.3955L59.2419 36.736H58.5406V37.736ZM70.5886 71V72H72.0143L71.5288 70.6595L70.5886 71ZM65.9806 71L65.0401 71.3398L65.2786 72H65.9806V71ZM62.0446 60.008V61.008H63.4646L62.9861 59.671L62.0446 60.008ZM55.9966 43.112L56.9381 42.775L55.9966 40.1448L55.0551 42.775L55.9966 43.112ZM49.9486 60.008L49.0071 59.671L48.5285 61.008H49.9486V60.008ZM63.2926 62.56H48.7006V64.56H63.2926V62.56ZM47.7601 63.2202L45.0721 70.6602L46.9531 71.3398L49.6411 63.8998L47.7601 63.2202ZM46.0126 70H41.4046V72H46.0126V70ZM42.3444 71.3417L54.4404 38.0777L52.5608 37.3943L40.4648 70.6583L42.3444 71.3417ZM53.5006 38.736H58.5406V36.736H53.5006V38.736ZM57.6003 38.0765L69.6483 71.3405L71.5288 70.6595L59.4808 37.3955L57.6003 38.0765ZM70.5886 70H65.9806V72H70.5886V70ZM66.9211 70.6602L64.2331 63.2202L62.3521 63.8998L65.0401 71.3398L66.9211 70.6602ZM62.9861 59.671L56.9381 42.775L55.0551 43.449L61.1031 60.345L62.9861 59.671ZM55.0551 42.775L49.0071 59.671L50.8901 60.345L56.9381 43.449L55.0551 42.775ZM49.9486 61.008H62.0446V59.008H49.9486V61.008ZM80.2283 48.968H79.2283L81.1189 49.4228L80.2283 48.968ZM83.4923 45.464L82.992 44.5981L82.9836 44.6031L83.4923 45.464ZM88.7243 44.216H89.7243V43.216H88.7243V44.216ZM88.7243 48.728V49.728H89.7243V48.728H88.7243ZM80.2283 71V72H81.2283V71H80.2283ZM75.8603 71H74.8603V72H75.8603V71ZM75.8603 44.696V43.696H74.8603V44.696H75.8603ZM80.2283 44.696H81.2283V43.696H80.2283V44.696ZM81.1189 49.4228C81.8037 48.0818 82.7618 47.0572 84.001 46.3249L82.9836 44.6031C81.4068 45.5348 80.189 46.8462 79.3377 48.5132L81.1189 49.4228ZM83.9926 46.3299C85.249 45.6039 86.8116 45.216 88.7243 45.216V43.216C86.541 43.216 84.6156 43.6601 82.992 44.5981L83.9926 46.3299ZM87.7243 44.216V48.728H89.7243V44.216H87.7243ZM88.7243 47.728H87.5723V49.728H88.7243V47.728ZM87.5723 47.728C84.9483 47.728 82.8025 48.4435 81.329 50.0423C79.8697 51.6256 79.2283 53.9052 79.2283 56.696H81.2283C81.2283 54.1748 81.8109 52.4704 82.7996 51.3977C83.7741 50.3405 85.3004 49.728 87.5723 49.728V47.728ZM79.2283 56.696V71H81.2283V56.696H79.2283ZM80.2283 70H75.8603V72H80.2283V70ZM76.8603 71V44.696H74.8603V71H76.8603ZM75.8603 45.696H80.2283V43.696H75.8603V45.696ZM79.2283 44.696V48.968H81.2283V44.696H79.2283ZM99.0946 48.296V47.296H98.0946V48.296H99.0946ZM99.9106 66.536L99.2034 67.2431L99.2142 67.2538L99.2252 67.2642L99.9106 66.536ZM105.959 67.304H106.959V66.304H105.959V67.304ZM105.959 71V72H106.959V71H105.959ZM94.7266 48.296H95.7266V47.296H94.7266V48.296ZM91.3186 48.296H90.3186V49.296H91.3186V48.296ZM91.3186 44.696V43.696H90.3186V44.696H91.3186ZM94.7266 44.696V45.696H95.7266V44.696H94.7266ZM94.7266 38.072V37.072H93.7266V38.072H94.7266ZM99.0946 38.072H100.095V37.072H99.0946V38.072ZM99.0946 44.696H98.0946V45.696H99.0946V44.696ZM105.959 44.696H106.959V43.696H105.959V44.696ZM105.959 48.296V49.296H106.959V48.296H105.959ZM98.0946 48.296V63.8H100.095V48.296H98.0946ZM98.0946 63.8C98.0946 65.1786 98.3802 66.4198 99.2034 67.2431L100.618 65.8289C100.353 65.5642 100.095 64.9814 100.095 63.8H98.0946ZM99.2252 67.2642C100.055 68.0456 101.328 68.304 102.743 68.304V66.304C101.469 66.304 100.854 66.0504 100.596 65.8078L99.2252 67.2642ZM102.743 68.304H105.959V66.304H102.743V68.304ZM104.959 67.304V71H106.959V67.304H104.959ZM105.959 70H102.023V72H105.959V70ZM102.023 70C99.7252 70 98.1887 69.4693 97.228 68.5845L95.8731 70.0555C97.3444 71.4107 99.4559 72 102.023 72V70ZM97.228 68.5845C96.3074 67.7365 95.7266 66.232 95.7266 63.8H93.7266C93.7266 66.488 94.3617 68.6635 95.8731 70.0555L97.228 68.5845ZM95.7266 63.8V48.296H93.7266V63.8H95.7266ZM94.7266 47.296H91.3186V49.296H94.7266V47.296ZM92.3186 48.296V44.696H90.3186V48.296H92.3186ZM91.3186 45.696H94.7266V43.696H91.3186V45.696ZM95.7266 44.696V38.072H93.7266V44.696H95.7266ZM94.7266 39.072H99.0946V37.072H94.7266V39.072ZM98.0946 38.072V44.696H100.095V38.072H98.0946ZM99.0946 45.696H105.959V43.696H99.0946V45.696ZM104.959 44.696V48.296H106.959V44.696H104.959ZM105.959 47.296H99.0946V49.296H105.959V47.296ZM111.395 39.56L112.102 38.8529L111.395 39.56ZM111.395 35.336L112.102 36.0431L111.395 35.336ZM115.523 35.336L114.796 36.0226L114.806 36.033L114.816 36.0431L115.523 35.336ZM115.523 39.56L114.816 38.8529L114.806 38.863L114.796 38.8734L115.523 39.56ZM115.619 44.696H116.619V43.696H115.619V44.696ZM115.619 71V72H116.619V71H115.619ZM111.251 71H110.251V72H111.251V71ZM111.251 44.696V43.696H110.251V44.696H111.251ZM113.507 39.424C112.934 39.424 112.486 39.2369 112.102 38.8529L110.688 40.2671C111.456 41.0351 112.416 41.424 113.507 41.424V39.424ZM112.102 38.8529C111.718 38.4689 111.531 38.0211 111.531 37.448H109.531C109.531 38.5389 109.92 39.4991 110.688 40.2671L112.102 38.8529ZM111.531 37.448C111.531 36.8749 111.718 36.4271 112.102 36.0431L110.688 34.6289C109.92 35.3969 109.531 36.3571 109.531 37.448H111.531ZM112.102 36.0431C112.486 35.6591 112.934 35.472 113.507 35.472V33.472C112.416 33.472 111.456 33.8609 110.688 34.6289L112.102 36.0431ZM113.507 35.472C114.035 35.472 114.443 35.6488 114.796 36.0226L116.25 34.6494C115.515 33.8712 114.579 33.472 113.507 33.472V35.472ZM114.816 36.0431C115.2 36.4271 115.387 36.8749 115.387 37.448H117.387C117.387 36.3571 116.998 35.3969 116.23 34.6289L114.816 36.0431ZM115.387 37.448C115.387 38.0211 115.2 38.4689 114.816 38.8529L116.23 40.2671C116.998 39.4991 117.387 38.5389 117.387 37.448H115.387ZM114.796 38.8734C114.443 39.2472 114.035 39.424 113.507 39.424V41.424C114.579 41.424 115.515 41.0248 116.25 40.2466L114.796 38.8734ZM114.619 44.696V71H116.619V44.696H114.619ZM115.619 70H111.251V72H115.619V70ZM112.251 71V44.696H110.251V71H112.251ZM111.251 45.696H115.619V43.696H111.251V45.696ZM126.951 70.424L126.549 71.3393L126.556 71.3427L126.564 71.346L126.951 70.424ZM123.159 67.544L122.357 68.1408L122.364 68.1507L123.159 67.544ZM121.623 63.272V62.272H120.562L120.625 63.3319L121.623 63.272ZM126.135 63.272L127.131 63.1749L127.043 62.272H126.135V63.272ZM127.959 66.488L127.352 67.2824L127.363 67.2907L127.959 66.488ZM136.167 61.304L135.677 62.1756L135.688 62.1815L135.698 62.1871L136.167 61.304ZM131.415 59.624L131.162 60.5913L131.169 60.5933L131.415 59.624ZM126.615 58.088L126.207 59.0008L126.221 59.0072L126.236 59.0132L126.615 58.088ZM123.447 55.736L122.673 56.3692L122.684 56.382L122.695 56.3945L123.447 55.736ZM123.351 47.912L122.538 47.3308L123.351 47.912ZM126.759 45.272L127.158 46.1891L127.166 46.1855L127.175 46.1817L126.759 45.272ZM141.735 52.52V53.52H142.787L142.734 52.4701L141.735 52.52ZM137.367 52.52L136.37 52.5896L136.435 53.52H137.367V52.52ZM135.687 49.208L135.045 49.9742L135.051 49.9792L135.057 49.9841L135.687 49.208ZM127.911 48.968L127.325 48.1581L127.911 48.968ZM127.335 53.768L126.608 54.4546L126.628 54.4754L126.649 54.495L127.335 53.768ZM129.447 55.112L129.058 56.033L129.079 56.0418L129.1 56.0497L129.447 55.112ZM132.999 56.216L132.733 57.1798L132.738 57.1811L132.999 56.216ZM137.607 57.752L137.211 58.6699L137.221 58.6744L137.232 58.6787L137.607 57.752ZM140.631 59.96L139.865 60.6026L139.871 60.6098L139.877 60.6168L140.631 59.96ZM141.975 63.848H142.975V63.838L142.975 63.828L141.975 63.848ZM140.775 67.736L139.954 67.1656L140.775 67.736ZM137.367 70.472L137.774 71.3859L137.783 71.3817L137.367 70.472ZM132.375 70.432C130.471 70.432 128.798 70.1149 127.339 69.502L126.564 71.346C128.305 72.0771 130.248 72.432 132.375 72.432V70.432ZM127.354 69.5087C125.887 68.8629 124.766 68.0008 123.954 66.9373L122.364 68.1507C123.409 69.5192 124.816 70.5771 126.549 71.3393L127.354 69.5087ZM123.962 66.9473C123.154 65.8604 122.706 64.6242 122.622 63.2121L120.625 63.3319C120.732 65.1198 121.309 66.7316 122.357 68.1407L123.962 66.9473ZM121.623 64.272H126.135V62.272H121.623V64.272ZM125.14 63.3691C125.296 64.9692 126.053 66.2892 127.352 67.2824L128.567 65.6936C127.69 65.0228 127.231 64.1988 127.131 63.1749L125.14 63.3691ZM127.363 67.2907C128.699 68.2831 130.382 68.736 132.327 68.736V66.736C130.689 66.736 129.46 66.3568 128.556 65.6853L127.363 67.2907ZM132.327 68.736C134.13 68.736 135.682 68.3377 136.872 67.4256L135.655 65.8384C134.925 66.3983 133.853 66.736 132.327 66.736V68.736ZM136.872 67.4256C138.056 66.5179 138.703 65.3067 138.703 63.848H136.703C136.703 64.6293 136.391 65.2741 135.655 65.8384L136.872 67.4256ZM138.703 63.848C138.703 63.1199 138.54 62.435 138.175 61.8311C137.811 61.2276 137.281 60.7631 136.637 60.4209L135.698 62.1871C136.078 62.3889 136.316 62.6204 136.463 62.8649C136.611 63.109 136.703 63.4241 136.703 63.848H138.703ZM136.658 60.4324C135.517 59.7906 133.83 59.2049 131.661 58.6547L131.169 60.5933C133.289 61.1311 134.77 61.6654 135.677 62.1756L136.658 60.4324ZM131.669 58.6567C129.741 58.151 128.187 57.652 126.995 57.1628L126.236 59.0132C127.54 59.548 129.186 60.073 131.162 60.5913L131.669 58.6567ZM127.024 57.1752C125.942 56.6914 125.003 55.9953 124.2 55.0775L122.695 56.3945C123.684 57.5247 124.856 58.3966 126.207 59.0008L127.024 57.1752ZM124.221 55.1028C123.536 54.2655 123.151 53.1308 123.151 51.608H121.151C121.151 53.4772 121.631 55.0945 122.673 56.3692L124.221 55.1028ZM123.151 51.608C123.151 50.4777 123.483 49.448 124.165 48.4932L122.538 47.3308C121.62 48.616 121.151 50.0503 121.151 51.608H123.151ZM124.165 48.4932C124.843 47.5437 125.824 46.769 127.158 46.1891L126.361 44.3549C124.75 45.055 123.459 46.0403 122.538 47.3308L124.165 48.4932ZM127.175 46.1817C128.496 45.5783 130.031 45.264 131.799 45.264V43.264C129.792 43.264 127.966 43.6217 126.344 44.3623L127.175 46.1817ZM131.799 45.264C134.541 45.264 136.649 45.9541 138.221 47.2447L139.49 45.6993C137.477 44.0459 134.882 43.264 131.799 43.264V45.264ZM138.221 47.2447C139.771 48.5179 140.621 50.2584 140.737 52.5699L142.734 52.4701C142.594 49.6616 141.524 47.3701 139.49 45.6993L138.221 47.2447ZM141.735 51.52H137.367V53.52H141.735V51.52ZM138.365 52.4504C138.251 50.8124 137.568 49.4472 136.318 48.4319L135.057 49.9841C135.855 50.6328 136.292 51.4756 136.37 52.5896L138.365 52.4504ZM136.33 48.4418C135.109 47.4173 133.513 46.96 131.655 46.96V48.96C133.19 48.96 134.282 49.3347 135.045 49.9742L136.33 48.4418ZM131.655 46.96C129.953 46.96 128.476 47.3243 127.325 48.1581L128.498 49.7779C129.203 49.2677 130.222 48.96 131.655 48.96V46.96ZM127.325 48.1581C126.153 49.0064 125.519 50.1798 125.519 51.608H127.519C127.519 50.8602 127.813 50.2736 128.498 49.7779L127.325 48.1581ZM125.519 51.608C125.519 52.7021 125.873 53.6754 126.608 54.4546L128.062 53.0814C127.71 52.7086 127.519 52.2419 127.519 51.608H125.519ZM126.649 54.495C127.323 55.1315 128.131 55.641 129.058 56.033L129.837 54.191C129.1 53.879 128.5 53.4925 128.022 53.041L126.649 54.495ZM129.1 56.0497C130.003 56.384 131.217 56.7607 132.733 57.1798L133.266 55.2522C131.773 54.8393 130.62 54.48 129.795 54.1743L129.1 56.0497ZM132.738 57.1811C134.601 57.6863 136.087 58.1838 137.211 58.6699L138.004 56.8341C136.76 56.2962 135.174 55.7697 133.261 55.2509L132.738 57.1811ZM137.232 58.6787C138.262 59.0965 139.137 59.7341 139.865 60.6026L141.398 59.3174C140.462 58.202 139.321 57.3675 137.983 56.8253L137.232 58.6787ZM139.877 60.6168C140.556 61.3958 140.947 62.4498 140.976 63.868L142.975 63.828C142.94 62.0462 142.435 60.5082 141.386 59.3032L139.877 60.6168ZM140.975 63.848C140.975 65.0899 140.634 66.1858 139.954 67.1656L141.597 68.3064C142.516 66.9822 142.975 65.4861 142.975 63.848H140.975ZM139.954 67.1656C139.271 68.1487 138.286 68.9533 136.952 69.5623L137.783 71.3817C139.393 70.6467 140.679 69.6273 141.597 68.3064L139.954 67.1656ZM136.961 69.5582C135.672 70.1313 134.151 70.432 132.375 70.432V72.432C134.376 72.432 136.183 72.0927 137.774 71.3858L136.961 69.5582ZM153.47 48.296V47.296H152.47V48.296H153.47ZM154.286 66.536L153.578 67.2431L153.589 67.2538L153.6 67.2642L154.286 66.536ZM160.334 67.304H161.334V66.304H160.334V67.304ZM160.334 71V72H161.334V71H160.334ZM149.102 48.296H150.102V47.296H149.102V48.296ZM145.694 48.296H144.694V49.296H145.694V48.296ZM145.694 44.696V43.696H144.694V44.696H145.694ZM149.102 44.696V45.696H150.102V44.696H149.102ZM149.102 38.072V37.072H148.102V38.072H149.102ZM153.47 38.072H154.47V37.072H153.47V38.072ZM153.47 44.696H152.47V45.696H153.47V44.696ZM160.334 44.696H161.334V43.696H160.334V44.696ZM160.334 48.296V49.296H161.334V48.296H160.334ZM152.47 48.296V63.8H154.47V48.296H152.47ZM152.47 63.8C152.47 65.1786 152.755 66.4198 153.578 67.2431L154.993 65.8289C154.728 65.5642 154.47 64.9814 154.47 63.8H152.47ZM153.6 67.2642C154.43 68.0456 155.703 68.304 157.118 68.304V66.304C155.844 66.304 155.229 66.0504 154.971 65.8078L153.6 67.2642ZM157.118 68.304H160.334V66.304H157.118V68.304ZM159.334 67.304V71H161.334V67.304H159.334ZM160.334 70H156.398V72H160.334V70ZM156.398 70C154.1 70 152.564 69.4693 151.603 68.5845L150.248 70.0555C151.719 71.4107 153.831 72 156.398 72V70ZM151.603 68.5845C150.682 67.7365 150.102 66.232 150.102 63.8H148.102C148.102 66.488 148.737 68.6635 150.248 70.0555L151.603 68.5845ZM150.102 63.8V48.296H148.102V63.8H150.102ZM149.102 47.296H145.694V49.296H149.102V47.296ZM146.694 48.296V44.696H144.694V48.296H146.694ZM145.694 45.696H149.102V43.696H145.694V45.696ZM150.102 44.696V38.072H148.102V44.696H150.102ZM149.102 39.072H153.47V37.072H149.102V39.072ZM152.47 38.072V44.696H154.47V38.072H152.47ZM153.47 45.696H160.334V43.696H153.47V45.696ZM159.334 44.696V48.296H161.334V44.696H159.334ZM160.334 47.296H153.47V49.296H160.334V47.296ZM169.994 35.48H170.994V34.48H169.994V35.48ZM169.994 71V72H170.994V71H169.994ZM165.626 71H164.626V72H165.626V71ZM165.626 35.48V34.48H164.626V35.48H165.626ZM168.994 35.48V71H170.994V35.48H168.994ZM169.994 70H165.626V72H169.994V70ZM166.626 71V35.48H164.626V71H166.626ZM165.626 36.48H169.994V34.48H165.626V36.48ZM200.094 44.696L201.02 45.0749L201.584 43.696H200.094V44.696ZM184.254 83.384V84.384H184.926L185.18 83.7629L184.254 83.384ZM179.742 83.384L178.817 83.0054L178.253 84.384H179.742V83.384ZM184.926 70.712L185.852 71.0906L186.007 70.7126L185.852 70.3344L184.926 70.712ZM174.318 44.696V43.696H172.831L173.392 45.0736L174.318 44.696ZM179.166 44.696L180.099 44.3348L179.851 43.696H179.166V44.696ZM187.422 66.008L186.49 66.3692L187.428 68.7904L188.356 66.3656L187.422 66.008ZM195.582 44.696V43.696H194.895L194.649 44.3384L195.582 44.696ZM199.169 44.3171L183.329 83.0051L185.18 83.7629L201.02 45.0749L199.169 44.3171ZM184.254 82.384H179.742V84.384H184.254V82.384ZM180.668 83.7626L185.852 71.0906L184.001 70.3334L178.817 83.0054L180.668 83.7626ZM185.852 70.3344L175.244 44.3184L173.392 45.0736L184 71.0896L185.852 70.3344ZM174.318 45.696H179.166V43.696H174.318V45.696ZM178.234 45.0572L186.49 66.3692L188.355 65.6468L180.099 44.3348L178.234 45.0572ZM188.356 66.3656L196.516 45.0536L194.649 44.3384L186.489 65.6504L188.356 66.3656ZM195.582 45.696H200.094V43.696H195.582V45.696Z" fill="#391561" mask="url(#path-2-outside-1_189_657)"/>
<path d="M22.3902 35.2188C12.3592 35.2188 4.19812 43.4198 4.19812 53.5C4.19812 63.5802 12.3592 71.7812 22.3902 71.7812C32.4212 71.7812 40.5823 63.5802 40.5823 53.5C40.5823 43.4198 32.4212 35.2188 22.3902 35.2188ZM18.192 46.4688C18.1953 45.3509 18.6386 44.2797 19.4252 43.4892C20.2118 42.6988 21.2778 42.2532 22.3902 42.25C23.5026 42.2532 24.5686 42.6988 25.3552 43.4892C26.1418 44.2797 26.5851 45.3509 26.5884 46.4688V52.0938C26.5851 53.2116 26.1418 54.2828 25.3552 55.0733C24.5686 55.8637 23.5026 56.3093 22.3902 56.3125C21.2778 56.3093 20.2118 55.8637 19.4252 55.0733C18.6386 54.2828 18.1953 53.2116 18.192 52.0938V46.4688ZM30.7865 52.8162C30.7865 54.8693 29.8297 56.8249 28.0936 58.3234C26.8668 59.3816 25.3809 60.0911 23.7896 60.3783V61.9375H25.189C25.5601 61.9375 25.9161 62.0857 26.1785 62.3494C26.4409 62.6131 26.5884 62.9708 26.5884 63.3438C26.5884 63.7167 26.4409 64.0744 26.1785 64.3381C25.9161 64.6018 25.5601 64.75 25.189 64.75H19.5914C19.2203 64.75 18.8643 64.6018 18.6019 64.3381C18.3395 64.0744 18.192 63.7167 18.192 63.3438C18.192 62.9708 18.3395 62.6131 18.6019 62.3494C18.8643 62.0857 19.2203 61.9375 19.5914 61.9375H20.9908V60.3783C19.3995 60.0911 17.9136 59.3816 16.6868 58.3234C14.9507 56.8249 13.9939 54.8693 13.9939 52.8162V50.7139C13.9939 50.3409 14.1413 49.9832 14.4037 49.7195C14.6662 49.4558 15.0221 49.3076 15.3932 49.3076C15.7644 49.3076 16.1203 49.4558 16.3828 49.7195C16.6452 49.9832 16.7926 50.3409 16.7926 50.7139V52.8162C16.7926 55.0715 19.2416 57.6924 22.3902 57.6924C24.9791 57.6924 27.9878 55.5628 27.9878 52.8162V50.7139C27.9878 50.3409 28.1352 49.9832 28.3976 49.7195C28.6601 49.4558 29.016 49.3076 29.3871 49.3076C29.7583 49.3076 30.1142 49.4558 30.3767 49.7195C30.6391 49.9832 30.7865 50.3409 30.7865 50.7139V52.8162Z" fill="#391561"/>
</svg>
