<svg width="206" height="97" viewBox="0 0 206 97" fill="none" xmlns="http://www.w3.org/2000/svg">
<rect y="10" width="204" height="87" rx="10" fill="white"/>
<mask id="path-2-outside-1_189_658" maskUnits="userSpaceOnUse" x="22" y="45" width="161" height="51" fill="black">
<rect fill="white" x="22" y="45" width="161" height="51"/>
<path d="M35.3665 82.336C33.1585 82.336 31.1745 81.952 29.4145 81.184C27.6865 80.384 26.3265 79.296 25.3345 77.92C24.3425 76.512 23.8305 74.896 23.7985 73.072H28.4545C28.6145 74.64 29.2545 75.968 30.3745 77.056C31.5265 78.112 33.1905 78.64 35.3665 78.64C37.4465 78.64 39.0785 78.128 40.2625 77.104C41.4785 76.048 42.0865 74.704 42.0865 73.072C42.0865 71.792 41.7345 70.752 41.0305 69.952C40.3265 69.152 39.4465 68.544 38.3905 68.128C37.3345 67.712 35.9105 67.264 34.1185 66.784C31.9105 66.208 30.1345 65.632 28.7905 65.056C27.4785 64.48 26.3425 63.584 25.3825 62.368C24.4545 61.12 23.9905 59.456 23.9905 57.376C23.9905 55.552 24.4545 53.936 25.3825 52.528C26.3105 51.12 27.6065 50.032 29.2705 49.264C30.9665 48.496 32.9025 48.112 35.0785 48.112C38.2145 48.112 40.7745 48.896 42.7585 50.464C44.7745 52.032 45.9105 54.112 46.1665 56.704H41.3665C41.2065 55.424 40.5345 54.304 39.3505 53.344C38.1665 52.352 36.5985 51.856 34.6465 51.856C32.8225 51.856 31.3345 52.336 30.1825 53.296C29.0305 54.224 28.4545 55.536 28.4545 57.232C28.4545 58.448 28.7905 59.44 29.4625 60.208C30.1665 60.976 31.0145 61.568 32.0065 61.984C33.0305 62.368 34.4545 62.816 36.2785 63.328C38.4865 63.936 40.2625 64.544 41.6065 65.152C42.9505 65.728 44.1025 66.64 45.0625 67.888C46.0225 69.104 46.5025 70.768 46.5025 72.88C46.5025 74.512 46.0705 76.048 45.2065 77.488C44.3425 78.928 43.0625 80.096 41.3665 80.992C39.6705 81.888 37.6705 82.336 35.3665 82.336ZM64.4024 82.432C61.9384 82.432 59.6984 81.872 57.6824 80.752C55.6984 79.632 54.1304 78.048 52.9784 76C51.8584 73.92 51.2984 71.52 51.2984 68.8C51.2984 66.112 51.8744 63.744 53.0264 61.696C54.2104 59.616 55.8104 58.032 57.8264 56.944C59.8424 55.824 62.0984 55.264 64.5944 55.264C67.0904 55.264 69.3464 55.824 71.3624 56.944C73.3784 58.032 74.9624 59.6 76.1144 61.648C77.2984 63.696 77.8904 66.08 77.8904 68.8C77.8904 71.52 77.2824 73.92 76.0664 76C74.8824 78.048 73.2664 79.632 71.2184 80.752C69.1704 81.872 66.8984 82.432 64.4024 82.432ZM64.4024 78.592C65.9704 78.592 67.4424 78.224 68.8184 77.488C70.1944 76.752 71.2984 75.648 72.1304 74.176C72.9944 72.704 73.4264 70.912 73.4264 68.8C73.4264 66.688 73.0104 64.896 72.1784 63.424C71.3464 61.952 70.2584 60.864 68.9144 60.16C67.5704 59.424 66.1144 59.056 64.5464 59.056C62.9464 59.056 61.4744 59.424 60.1304 60.16C58.8184 60.864 57.7624 61.952 56.9624 63.424C56.1624 64.896 55.7624 66.688 55.7624 68.8C55.7624 70.944 56.1464 72.752 56.9144 74.224C57.7144 75.696 58.7704 76.8 60.0824 77.536C61.3944 78.24 62.8344 78.592 64.4024 78.592ZM96.4495 55.216C99.6495 55.216 102.242 56.192 104.226 58.144C106.21 60.064 107.202 62.848 107.202 66.496V82H102.882V67.12C102.882 64.496 102.226 62.496 100.914 61.12C99.6015 59.712 97.8095 59.008 95.5375 59.008C93.2335 59.008 91.3935 59.728 90.0175 61.168C88.6735 62.608 88.0015 64.704 88.0015 67.456V82H83.6335V55.696H88.0015V59.44C88.8655 58.096 90.0335 57.056 91.5055 56.32C93.0095 55.584 94.6575 55.216 96.4495 55.216ZM125.185 55.264C127.457 55.264 129.441 55.76 131.137 56.752C132.865 57.744 134.145 58.992 134.977 60.496V55.696H139.393V82.576C139.393 84.976 138.881 87.104 137.857 88.96C136.833 90.848 135.361 92.32 133.441 93.376C131.553 94.432 129.345 94.96 126.817 94.96C123.361 94.96 120.481 94.144 118.177 92.512C115.873 90.88 114.513 88.656 114.097 85.84H118.417C118.897 87.44 119.889 88.72 121.393 89.68C122.897 90.672 124.705 91.168 126.817 91.168C129.217 91.168 131.169 90.416 132.673 88.912C134.209 87.408 134.977 85.296 134.977 82.576V77.056C134.113 78.592 132.833 79.872 131.137 80.896C129.441 81.92 127.457 82.432 125.185 82.432C122.849 82.432 120.721 81.856 118.801 80.704C116.913 79.552 115.425 77.936 114.337 75.856C113.249 73.776 112.705 71.408 112.705 68.752C112.705 66.064 113.249 63.712 114.337 61.696C115.425 59.648 116.913 58.064 118.801 56.944C120.721 55.824 122.849 55.264 125.185 55.264ZM134.977 68.8C134.977 66.816 134.577 65.088 133.777 63.616C132.977 62.144 131.889 61.024 130.513 60.256C129.169 59.456 127.681 59.056 126.049 59.056C124.417 59.056 122.929 59.44 121.585 60.208C120.241 60.976 119.169 62.096 118.369 63.568C117.569 65.04 117.169 66.768 117.169 68.752C117.169 70.768 117.569 72.528 118.369 74.032C119.169 75.504 120.241 76.64 121.585 77.44C122.929 78.208 124.417 78.592 126.049 78.592C127.681 78.592 129.169 78.208 130.513 77.44C131.889 76.64 132.977 75.504 133.777 74.032C134.577 72.528 134.977 70.784 134.977 68.8ZM151.142 46.48V82H146.774V46.48H151.142ZM181.243 55.696L165.403 94.384H160.891L166.075 81.712L155.467 55.696H160.315L168.571 77.008L176.731 55.696H181.243Z"/>
</mask>
<path d="M35.3665 82.336C33.1585 82.336 31.1745 81.952 29.4145 81.184C27.6865 80.384 26.3265 79.296 25.3345 77.92C24.3425 76.512 23.8305 74.896 23.7985 73.072H28.4545C28.6145 74.64 29.2545 75.968 30.3745 77.056C31.5265 78.112 33.1905 78.64 35.3665 78.64C37.4465 78.64 39.0785 78.128 40.2625 77.104C41.4785 76.048 42.0865 74.704 42.0865 73.072C42.0865 71.792 41.7345 70.752 41.0305 69.952C40.3265 69.152 39.4465 68.544 38.3905 68.128C37.3345 67.712 35.9105 67.264 34.1185 66.784C31.9105 66.208 30.1345 65.632 28.7905 65.056C27.4785 64.48 26.3425 63.584 25.3825 62.368C24.4545 61.12 23.9905 59.456 23.9905 57.376C23.9905 55.552 24.4545 53.936 25.3825 52.528C26.3105 51.12 27.6065 50.032 29.2705 49.264C30.9665 48.496 32.9025 48.112 35.0785 48.112C38.2145 48.112 40.7745 48.896 42.7585 50.464C44.7745 52.032 45.9105 54.112 46.1665 56.704H41.3665C41.2065 55.424 40.5345 54.304 39.3505 53.344C38.1665 52.352 36.5985 51.856 34.6465 51.856C32.8225 51.856 31.3345 52.336 30.1825 53.296C29.0305 54.224 28.4545 55.536 28.4545 57.232C28.4545 58.448 28.7905 59.44 29.4625 60.208C30.1665 60.976 31.0145 61.568 32.0065 61.984C33.0305 62.368 34.4545 62.816 36.2785 63.328C38.4865 63.936 40.2625 64.544 41.6065 65.152C42.9505 65.728 44.1025 66.64 45.0625 67.888C46.0225 69.104 46.5025 70.768 46.5025 72.88C46.5025 74.512 46.0705 76.048 45.2065 77.488C44.3425 78.928 43.0625 80.096 41.3665 80.992C39.6705 81.888 37.6705 82.336 35.3665 82.336ZM64.4024 82.432C61.9384 82.432 59.6984 81.872 57.6824 80.752C55.6984 79.632 54.1304 78.048 52.9784 76C51.8584 73.92 51.2984 71.52 51.2984 68.8C51.2984 66.112 51.8744 63.744 53.0264 61.696C54.2104 59.616 55.8104 58.032 57.8264 56.944C59.8424 55.824 62.0984 55.264 64.5944 55.264C67.0904 55.264 69.3464 55.824 71.3624 56.944C73.3784 58.032 74.9624 59.6 76.1144 61.648C77.2984 63.696 77.8904 66.08 77.8904 68.8C77.8904 71.52 77.2824 73.92 76.0664 76C74.8824 78.048 73.2664 79.632 71.2184 80.752C69.1704 81.872 66.8984 82.432 64.4024 82.432ZM64.4024 78.592C65.9704 78.592 67.4424 78.224 68.8184 77.488C70.1944 76.752 71.2984 75.648 72.1304 74.176C72.9944 72.704 73.4264 70.912 73.4264 68.8C73.4264 66.688 73.0104 64.896 72.1784 63.424C71.3464 61.952 70.2584 60.864 68.9144 60.16C67.5704 59.424 66.1144 59.056 64.5464 59.056C62.9464 59.056 61.4744 59.424 60.1304 60.16C58.8184 60.864 57.7624 61.952 56.9624 63.424C56.1624 64.896 55.7624 66.688 55.7624 68.8C55.7624 70.944 56.1464 72.752 56.9144 74.224C57.7144 75.696 58.7704 76.8 60.0824 77.536C61.3944 78.24 62.8344 78.592 64.4024 78.592ZM96.4495 55.216C99.6495 55.216 102.242 56.192 104.226 58.144C106.21 60.064 107.202 62.848 107.202 66.496V82H102.882V67.12C102.882 64.496 102.226 62.496 100.914 61.12C99.6015 59.712 97.8095 59.008 95.5375 59.008C93.2335 59.008 91.3935 59.728 90.0175 61.168C88.6735 62.608 88.0015 64.704 88.0015 67.456V82H83.6335V55.696H88.0015V59.44C88.8655 58.096 90.0335 57.056 91.5055 56.32C93.0095 55.584 94.6575 55.216 96.4495 55.216ZM125.185 55.264C127.457 55.264 129.441 55.76 131.137 56.752C132.865 57.744 134.145 58.992 134.977 60.496V55.696H139.393V82.576C139.393 84.976 138.881 87.104 137.857 88.96C136.833 90.848 135.361 92.32 133.441 93.376C131.553 94.432 129.345 94.96 126.817 94.96C123.361 94.96 120.481 94.144 118.177 92.512C115.873 90.88 114.513 88.656 114.097 85.84H118.417C118.897 87.44 119.889 88.72 121.393 89.68C122.897 90.672 124.705 91.168 126.817 91.168C129.217 91.168 131.169 90.416 132.673 88.912C134.209 87.408 134.977 85.296 134.977 82.576V77.056C134.113 78.592 132.833 79.872 131.137 80.896C129.441 81.92 127.457 82.432 125.185 82.432C122.849 82.432 120.721 81.856 118.801 80.704C116.913 79.552 115.425 77.936 114.337 75.856C113.249 73.776 112.705 71.408 112.705 68.752C112.705 66.064 113.249 63.712 114.337 61.696C115.425 59.648 116.913 58.064 118.801 56.944C120.721 55.824 122.849 55.264 125.185 55.264ZM134.977 68.8C134.977 66.816 134.577 65.088 133.777 63.616C132.977 62.144 131.889 61.024 130.513 60.256C129.169 59.456 127.681 59.056 126.049 59.056C124.417 59.056 122.929 59.44 121.585 60.208C120.241 60.976 119.169 62.096 118.369 63.568C117.569 65.04 117.169 66.768 117.169 68.752C117.169 70.768 117.569 72.528 118.369 74.032C119.169 75.504 120.241 76.64 121.585 77.44C122.929 78.208 124.417 78.592 126.049 78.592C127.681 78.592 129.169 78.208 130.513 77.44C131.889 76.64 132.977 75.504 133.777 74.032C134.577 72.528 134.977 70.784 134.977 68.8ZM151.142 46.48V82H146.774V46.48H151.142ZM181.243 55.696L165.403 94.384H160.891L166.075 81.712L155.467 55.696H160.315L168.571 77.008L176.731 55.696H181.243Z" fill="#391561"/>
<path d="M29.4145 81.184L28.9944 82.0915L29.0044 82.0961L29.0146 82.1005L29.4145 81.184ZM25.3345 77.92L24.517 78.496L24.5233 78.5048L25.3345 77.92ZM23.7985 73.072V72.072H22.7808L22.7987 73.0895L23.7985 73.072ZM28.4545 73.072L29.4493 72.9705L29.3577 72.072H28.4545V73.072ZM30.3745 77.056L29.6777 77.7733L29.6881 77.7834L29.6988 77.7932L30.3745 77.056ZM40.2625 77.104L40.9167 77.8604L40.9182 77.859L40.2625 77.104ZM41.0305 69.952L40.2798 70.6126V70.6126L41.0305 69.952ZM38.3905 68.128L38.024 69.0584L38.3905 68.128ZM34.1185 66.784L34.3772 65.818L34.3709 65.8164L34.1185 66.784ZM28.7905 65.056L28.3885 65.9717L28.3966 65.9751L28.7905 65.056ZM25.3825 62.368L24.58 62.9647L24.5887 62.9763L24.5976 62.9876L25.3825 62.368ZM25.3825 52.528L26.2175 53.0783H26.2175L25.3825 52.528ZM29.2705 49.264L28.858 48.353L28.8514 48.356L29.2705 49.264ZM42.7585 50.464L42.1384 51.2486L42.1446 51.2534L42.7585 50.464ZM46.1665 56.704V57.704H47.2701L47.1617 56.6057L46.1665 56.704ZM41.3665 56.704L40.3742 56.828L40.4837 57.704H41.3665V56.704ZM39.3505 53.344L38.7083 54.1105L38.7144 54.1157L38.7207 54.1208L39.3505 53.344ZM30.1825 53.296L30.8098 54.0748L30.8163 54.0695L30.8227 54.0642L30.1825 53.296ZM29.4625 60.208L28.7099 60.8665L28.7175 60.8752L28.7253 60.8837L29.4625 60.208ZM32.0065 61.984L31.6198 62.9062L31.6374 62.9136L31.6554 62.9203L32.0065 61.984ZM36.2785 63.328L36.0082 64.2908L36.013 64.2921L36.2785 63.328ZM41.6065 65.152L41.1943 66.0631L41.2034 66.0672L41.2126 66.0711L41.6065 65.152ZM45.0625 67.888L44.2698 68.4978L44.2776 68.5076L45.0625 67.888ZM45.2065 77.488L46.064 78.0025L45.2065 77.488ZM41.3665 80.992L40.8994 80.1078L41.3665 80.992ZM35.3665 81.336C33.2756 81.336 31.4308 80.9728 29.8144 80.2675L29.0146 82.1005C30.9182 82.9312 33.0414 83.336 35.3665 83.336V81.336ZM29.8346 80.2765C28.2431 79.5397 27.0254 78.5554 26.1457 77.3352L24.5233 78.5048C25.6276 80.0366 27.1299 81.2283 28.9944 82.0915L29.8346 80.2765ZM26.152 77.344C25.2823 76.1097 24.8271 74.6908 24.7983 73.0545L22.7987 73.0895C22.8339 75.1012 23.4027 76.9143 24.517 78.496L26.152 77.344ZM23.7985 74.072H28.4545V72.072H23.7985V74.072ZM27.4597 73.1735C27.6433 74.973 28.3873 76.5198 29.6777 77.7733L31.0713 76.3387C30.1217 75.4162 29.5857 74.307 29.4493 72.9705L27.4597 73.1735ZM29.6988 77.7932C31.0969 79.0747 33.0389 79.64 35.3665 79.64V77.64C33.3421 77.64 31.9561 77.1493 31.0502 76.3188L29.6988 77.7932ZM35.3665 79.64C37.6068 79.64 39.4984 79.0869 40.9167 77.8604L39.6083 76.3476C38.6586 77.1691 37.2862 77.64 35.3665 77.64V79.64ZM40.9182 77.859C42.3562 76.6102 43.0865 74.9892 43.0865 73.072H41.0865C41.0865 74.4188 40.6008 75.4858 39.6068 76.349L40.9182 77.859ZM43.0865 73.072C43.0865 71.6002 42.6768 70.3091 41.7812 69.2914L40.2798 70.6126C40.7922 71.1949 41.0865 71.9838 41.0865 73.072H43.0865ZM41.7812 69.2914C40.9656 68.3645 39.9508 67.6679 38.757 67.1976L38.024 69.0584C38.9422 69.4201 39.6874 69.9395 40.2798 70.6126L41.7812 69.2914ZM38.757 67.1976C37.6508 66.7618 36.186 66.3025 34.3772 65.8181L33.8598 67.7499C35.635 68.2255 37.0182 68.6622 38.024 69.0584L38.757 67.1976ZM34.3709 65.8164C32.1877 65.2468 30.4646 64.6855 29.1844 64.1369L28.3966 65.9751C29.8044 66.5785 31.6333 67.1692 33.8661 67.7516L34.3709 65.8164ZM29.1925 64.1404C28.0424 63.6355 27.0344 62.8465 26.1674 61.7484L24.5976 62.9876C25.6506 64.3215 26.9146 65.3245 28.3885 65.9716L29.1925 64.1404ZM26.185 61.7713C25.4224 60.7457 24.9905 59.3129 24.9905 57.376H22.9905C22.9905 59.5991 23.4866 61.4943 24.58 62.9647L26.185 61.7713ZM24.9905 57.376C24.9905 55.7309 25.406 54.3096 26.2175 53.0783L24.5475 51.9777C23.503 53.5624 22.9905 55.3731 22.9905 57.376H24.9905ZM26.2175 53.0783C27.034 51.8394 28.1796 50.8689 29.6896 50.172L28.8514 48.356C27.0334 49.1951 25.587 50.4006 24.5475 51.9777L26.2175 53.0783ZM29.683 50.175C31.2293 49.4747 33.021 49.112 35.0785 49.112V47.112C32.784 47.112 30.7037 47.5173 28.858 48.353L29.683 50.175ZM35.0785 49.112C38.0448 49.112 40.37 49.8509 42.1384 51.2486L43.3786 49.6794C41.179 47.9411 38.3842 47.112 35.0785 47.112V49.112ZM42.1446 51.2534C43.9393 52.6493 44.9417 54.477 45.1713 56.8023L47.1617 56.6057C46.8793 53.7469 45.6097 51.4147 43.3724 49.6746L42.1446 51.2534ZM46.1665 55.704H41.3665V57.704H46.1665V55.704ZM42.3588 56.58C42.161 54.998 41.3259 53.6583 39.9803 52.5672L38.7207 54.1208C39.7431 54.9497 40.252 55.85 40.3742 56.828L42.3588 56.58ZM39.9927 52.5775C38.5854 51.3983 36.7698 50.856 34.6465 50.856V52.856C36.4272 52.856 37.7476 53.3057 38.7083 54.1105L39.9927 52.5775ZM34.6465 50.856C32.6411 50.856 30.9106 51.3875 29.5423 52.5278L30.8227 54.0642C31.7584 53.2845 33.0039 52.856 34.6465 52.856V50.856ZM29.5552 52.5172C28.1312 53.6643 27.4545 55.2833 27.4545 57.232H29.4545C29.4545 55.7887 29.9298 54.7837 30.8098 54.0748L29.5552 52.5172ZM27.4545 57.232C27.4545 58.6414 27.849 59.8826 28.7099 60.8665L30.2151 59.5495C29.732 58.9974 29.4545 58.2546 29.4545 57.232H27.4545ZM28.7253 60.8837C29.5302 61.7617 30.499 62.4362 31.6198 62.9062L32.3932 61.0618C31.53 60.6998 30.8028 60.1903 30.1997 59.5323L28.7253 60.8837ZM31.6554 62.9203C32.7183 63.3189 34.1736 63.7758 36.0082 64.2908L36.5488 62.3652C34.7354 61.8562 33.3427 61.4171 32.3576 61.0477L31.6554 62.9203ZM36.013 64.2921C38.195 64.893 39.9162 65.4849 41.1943 66.0631L42.0187 64.2409C40.6088 63.6031 38.778 62.979 36.544 62.3639L36.013 64.2921ZM41.2126 66.0711C42.3874 66.5746 43.4059 67.3745 44.2699 68.4977L45.8551 67.2783C44.7991 65.9055 43.5136 64.8814 42.0004 64.2329L41.2126 66.0711ZM44.2776 68.5076C45.0553 69.4927 45.5025 70.9119 45.5025 72.88H47.5025C47.5025 70.6241 46.9897 68.7153 45.8474 67.2684L44.2776 68.5076ZM45.5025 72.88C45.5025 74.3253 45.1226 75.6842 44.349 76.9735L46.064 78.0025C47.0184 76.4118 47.5025 74.6987 47.5025 72.88H45.5025ZM44.349 76.9735C43.5917 78.2357 42.4574 79.2847 40.8994 80.1078L41.8336 81.8762C43.6676 80.9073 45.0933 79.6203 46.064 78.0025L44.349 76.9735ZM40.8994 80.1078C39.3736 80.9139 37.5402 81.336 35.3665 81.336V83.336C37.8008 83.336 39.9674 82.8621 41.8336 81.8762L40.8994 80.1078ZM57.6824 80.752L57.1908 81.6228L57.1967 81.6262L57.6824 80.752ZM52.9784 76L52.0979 76.4741L52.1023 76.4822L52.1068 76.4903L52.9784 76ZM53.0264 61.696L52.1573 61.2013L52.1548 61.2057L53.0264 61.696ZM57.8264 56.944L58.3013 57.8241L58.312 57.8182L57.8264 56.944ZM71.3624 56.944L70.8767 57.8182L70.8874 57.824L71.3624 56.944ZM76.1144 61.648L75.2427 62.1383L75.2486 62.1485L76.1144 61.648ZM76.0664 76L75.2031 75.4953L75.2006 75.4995L76.0664 76ZM71.2184 80.752L71.6982 81.6294L71.2184 80.752ZM72.1304 74.176L71.268 73.6698L71.2638 73.6768L71.2598 73.6839L72.1304 74.176ZM68.9144 60.16L68.4341 61.0371L68.4422 61.0415L68.4504 61.0458L68.9144 60.16ZM60.1304 60.16L60.6032 61.0412L60.6107 61.0371L60.1304 60.16ZM56.9624 63.424L57.841 63.9015L56.9624 63.424ZM56.9144 74.224L56.0278 74.6866L56.0317 74.6941L56.0358 74.7015L56.9144 74.224ZM60.0824 77.536L59.5931 78.4081L59.6013 78.4127L59.6096 78.4172L60.0824 77.536ZM64.4024 81.432C62.0963 81.432 60.0253 80.9097 58.168 79.8778L57.1967 81.6262C59.3714 82.8343 61.7804 83.432 64.4024 83.432V81.432ZM58.174 79.8812C56.3542 78.8539 54.9154 77.4038 53.8499 75.5097L52.1068 76.4903C53.3454 78.6922 55.0426 80.4101 57.1908 81.6228L58.174 79.8812ZM53.8588 75.5259C52.8285 73.6123 52.2984 71.3798 52.2984 68.8H50.2984C50.2984 71.6602 50.8883 74.2277 52.0979 76.4741L53.8588 75.5259ZM52.2984 68.8C52.2984 66.2587 52.8416 64.0642 53.8979 62.1863L52.1548 61.2057C50.9071 63.4238 50.2984 65.9653 50.2984 68.8H52.2984ZM53.8954 62.1907C54.9911 60.2659 56.4578 58.8189 58.3013 57.824L57.3514 56.064C55.163 57.245 53.4296 58.9661 52.1573 61.2013L53.8954 62.1907ZM58.312 57.8182C60.1674 56.7874 62.2539 56.264 64.5944 56.264V54.264C61.9428 54.264 59.5174 54.8606 57.3407 56.0698L58.312 57.8182ZM64.5944 56.264C66.9348 56.264 69.0214 56.7874 70.8767 57.8182L71.848 56.0698C69.6714 54.8606 67.2459 54.264 64.5944 54.264V56.264ZM70.8874 57.824C72.7326 58.8198 74.181 60.2506 75.2428 62.1383L76.986 61.1577C75.7438 58.9494 74.0242 57.2442 71.8373 56.064L70.8874 57.824ZM75.2486 62.1485C76.3322 64.0228 76.8904 66.229 76.8904 68.8H78.8904C78.8904 65.931 78.2645 63.3692 76.9801 61.1475L75.2486 62.1485ZM76.8904 68.8C76.8904 71.366 76.3185 73.5874 75.2031 75.4953L76.9297 76.5047C78.2463 74.2526 78.8904 71.674 78.8904 68.8H76.8904ZM75.2006 75.4995C74.107 77.3911 72.6236 78.8438 70.7386 79.8746L71.6982 81.6294C73.9092 80.4202 75.6577 78.7049 76.9321 76.5005L75.2006 75.4995ZM70.7386 79.8746C68.8479 80.9086 66.7427 81.432 64.4024 81.432V83.432C67.0541 83.432 69.4929 82.8354 71.6982 81.6294L70.7386 79.8746ZM64.4024 79.592C66.1341 79.592 67.7682 79.1838 69.29 78.3698L68.3467 76.6062C67.1166 77.2642 65.8067 77.592 64.4024 77.592V79.592ZM69.29 78.3698C70.8472 77.5369 72.0837 76.2908 73.0009 74.6681L71.2598 73.6839C70.513 75.0052 69.5415 75.9671 68.3467 76.6062L69.29 78.3698ZM72.9928 74.6822C73.966 73.0242 74.4264 71.048 74.4264 68.8H72.4264C72.4264 70.776 72.0228 72.3838 71.268 73.6698L72.9928 74.6822ZM74.4264 68.8C74.4264 66.5579 73.9844 64.5871 73.0489 62.9319L71.3078 63.9161C72.0363 65.2049 72.4264 66.8181 72.4264 68.8H74.4264ZM73.0489 62.9319C72.1334 61.3121 70.9121 60.0776 69.3784 59.2742L68.4504 61.0458C69.6046 61.6504 70.5594 62.5919 71.3078 63.9161L73.0489 62.9319ZM69.3947 59.2829C67.8999 58.4643 66.2782 58.056 64.5464 58.056V60.056C65.9506 60.056 67.2408 60.3837 68.4341 61.0371L69.3947 59.2829ZM64.5464 58.056C62.7862 58.056 61.1479 58.4627 59.6501 59.2829L60.6107 61.0371C61.8008 60.3853 63.1066 60.056 64.5464 60.056V58.056ZM59.6576 59.2788C58.1529 60.0862 56.9648 61.3254 56.0838 62.9465L57.841 63.9015C58.56 62.5786 59.4838 61.6418 60.6032 61.0412L59.6576 59.2788ZM56.0838 62.9465C55.186 64.5984 54.7624 66.5638 54.7624 68.8H56.7624C56.7624 66.8122 57.1388 65.1936 57.841 63.9015L56.0838 62.9465ZM54.7624 68.8C54.7624 71.0596 55.1668 73.0362 56.0278 74.6866L57.801 73.7614C57.126 72.4678 56.7624 70.8284 56.7624 68.8H54.7624ZM56.0358 74.7015C56.9152 76.3197 58.0985 77.5697 59.5931 78.4081L60.5716 76.6639C59.4423 76.0303 58.5135 75.0723 57.793 73.7465L56.0358 74.7015ZM59.6096 78.4172C61.0747 79.2033 62.6784 79.592 64.4024 79.592V77.592C62.9903 77.592 61.714 77.2767 60.5552 76.6548L59.6096 78.4172ZM104.226 58.144L103.524 58.8569L103.53 58.8626L104.226 58.144ZM107.201 82V83H108.201V82H107.201ZM102.882 82H101.882V83H102.882V82ZM100.913 61.12L100.182 61.8018L100.19 61.8101L100.913 61.12ZM90.0175 61.168L89.2945 60.4771L89.2864 60.4857L90.0175 61.168ZM88.0015 82V83H89.0015V82H88.0015ZM83.6335 82H82.6335V83H83.6335V82ZM83.6335 55.696V54.696H82.6335V55.696H83.6335ZM88.0015 55.696H89.0015V54.696H88.0015V55.696ZM88.0015 59.44H87.0015V62.8448L88.8427 59.9808L88.0015 59.44ZM91.5055 56.32L91.0659 55.4217L91.0583 55.4256L91.5055 56.32ZM96.4495 56.216C99.4296 56.216 101.755 57.1167 103.524 58.8568L104.927 57.4312C102.728 55.2673 99.8694 54.216 96.4495 54.216V56.216ZM103.53 58.8626C105.263 60.5393 106.201 63.0282 106.201 66.496H108.201C108.201 62.6678 107.156 59.5887 104.921 57.4254L103.53 58.8626ZM106.201 66.496V82H108.201V66.496H106.201ZM107.201 81H102.882V83H107.201V81ZM103.882 82V67.12H101.882V82H103.882ZM103.882 67.12C103.882 64.338 103.185 62.0529 101.637 60.4299L100.19 61.8101C101.266 62.9391 101.882 64.654 101.882 67.12H103.882ZM101.645 60.4383C100.11 58.7906 98.0325 58.008 95.5375 58.008V60.008C97.5865 60.008 99.0933 60.6334 100.182 61.8017L101.645 60.4383ZM95.5375 58.008C93.0071 58.008 90.8892 58.8083 89.2945 60.4771L90.7405 61.8589C91.8978 60.6477 93.4599 60.008 95.5375 60.008V58.008ZM89.2864 60.4857C87.7112 62.1735 87.0015 64.5518 87.0015 67.456H89.0015C89.0015 64.8562 89.6358 63.0425 90.7486 61.8503L89.2864 60.4857ZM87.0015 67.456V82H89.0015V67.456H87.0015ZM88.0015 81H83.6335V83H88.0015V81ZM84.6335 82V55.696H82.6335V82H84.6335ZM83.6335 56.696H88.0015V54.696H83.6335V56.696ZM87.0015 55.696V59.44H89.0015V55.696H87.0015ZM88.8427 59.9808C89.6065 58.7926 90.6364 57.8726 91.9527 57.2144L91.0583 55.4256C89.4306 56.2394 88.1245 57.3994 87.1603 58.8992L88.8427 59.9808ZM91.9451 57.2182C93.3027 56.5538 94.7989 56.216 96.4495 56.216V54.216C94.5161 54.216 92.7163 54.6142 91.0659 55.4218L91.9451 57.2182ZM131.137 56.752L130.632 57.6152L130.639 57.6193L131.137 56.752ZM134.977 60.496L134.102 60.9801L135.977 60.496H134.977ZM134.977 55.696V54.696H133.977V55.696H134.977ZM139.393 55.696H140.393V54.696H139.393V55.696ZM137.857 88.96L136.981 88.4769L136.978 88.4832L137.857 88.96ZM133.441 93.376L132.959 92.4998L132.952 92.5032L133.441 93.376ZM118.177 92.512L117.599 93.328L118.177 92.512ZM114.097 85.84V84.84H112.938L113.107 85.9861L114.097 85.84ZM118.417 85.84L119.374 85.5527L119.161 84.84H118.417V85.84ZM121.393 89.68L121.943 88.8452L121.937 88.8411L121.931 88.8371L121.393 89.68ZM132.673 88.912L131.973 88.1974L131.966 88.2049L132.673 88.912ZM134.977 77.056H135.977V73.2385L134.105 76.5657L134.977 77.056ZM131.137 80.896L130.62 80.0399L131.137 80.896ZM118.801 80.704L118.28 81.5577L118.286 81.5615L118.801 80.704ZM114.337 75.856L115.223 75.3925L114.337 75.856ZM114.337 61.696L115.217 62.1709L115.22 62.1652L114.337 61.696ZM118.801 56.944L118.297 56.0802L118.29 56.0839L118.801 56.944ZM130.513 60.256L130.001 61.1153L130.013 61.1224L130.025 61.1292L130.513 60.256ZM121.585 60.208L121.088 59.3398L121.585 60.208ZM118.369 63.568L119.247 64.0455L118.369 63.568ZM118.369 74.032L117.486 74.5016L117.49 74.5095L118.369 74.032ZM121.585 77.44L121.073 78.2993L121.081 78.3038L121.088 78.3082L121.585 77.44ZM130.513 77.44L131.009 78.3083L131.015 78.3045L130.513 77.44ZM133.777 74.032L134.655 74.5095L134.66 74.5016L133.777 74.032ZM125.185 56.264C127.307 56.264 129.111 56.726 130.632 57.6152L131.642 55.8888C129.77 54.794 127.606 54.264 125.185 54.264V56.264ZM130.639 57.6193C132.234 58.5351 133.371 59.6598 134.102 60.9801L135.852 60.0119C134.918 58.3242 133.495 56.9529 131.634 55.8847L130.639 57.6193ZM135.977 60.496V55.696H133.977V60.496H135.977ZM134.977 56.696H139.393V54.696H134.977V56.696ZM138.393 55.696V82.576H140.393V55.696H138.393ZM138.393 82.576C138.393 84.8297 137.913 86.7875 136.981 88.4769L138.732 89.4431C139.848 87.4205 140.393 85.1223 140.393 82.576H138.393ZM136.978 88.4832C136.047 90.1992 134.714 91.5342 132.959 92.4998L133.923 94.2522C136.007 93.1058 137.618 91.4968 138.736 89.4368L136.978 88.4832ZM132.952 92.5032C131.237 93.4627 129.203 93.96 126.817 93.96V95.96C129.487 95.96 131.868 95.4013 133.929 94.2488L132.952 92.5032ZM126.817 93.96C123.521 93.96 120.855 93.1837 118.755 91.696L117.599 93.328C120.106 95.1043 123.201 95.96 126.817 95.96V93.96ZM118.755 91.696C116.675 90.2232 115.462 88.2423 115.086 85.6939L113.107 85.9861C113.563 89.0697 115.07 91.5368 117.599 93.328L118.755 91.696ZM114.097 86.84H118.417V84.84H114.097V86.84ZM117.459 86.1273C118.013 87.9732 119.164 89.4435 120.855 90.5229L121.931 88.8371C120.614 87.9965 119.781 86.9068 119.374 85.5527L117.459 86.1273ZM120.842 90.5148C122.536 91.6321 124.543 92.168 126.817 92.168V90.168C124.866 90.168 123.257 89.7119 121.943 88.8452L120.842 90.5148ZM126.817 92.168C129.445 92.168 131.663 91.3354 133.38 89.6191L131.966 88.2049C130.674 89.4966 128.989 90.168 126.817 90.168V92.168ZM133.372 89.6265C135.148 87.8876 135.977 85.4896 135.977 82.576H133.977C133.977 85.1024 133.269 86.9284 131.973 88.1975L133.372 89.6265ZM135.977 82.576V77.056H133.977V82.576H135.977ZM134.105 76.5657C133.336 77.9333 132.187 79.0939 130.62 80.0399L131.653 81.7521C133.479 80.6501 134.889 79.2507 135.848 77.5463L134.105 76.5657ZM130.62 80.0399C129.102 80.9566 127.302 81.432 125.185 81.432V83.432C127.612 83.432 129.78 82.8834 131.653 81.7521L130.62 80.0399ZM125.185 81.432C123.022 81.432 121.073 80.9011 119.315 79.8465L118.286 81.5615C120.368 82.8109 122.676 83.432 125.185 83.432V81.432ZM119.321 79.8504C117.598 78.7987 116.232 77.322 115.223 75.3925L113.451 76.3195C114.617 78.55 116.227 80.3053 118.28 81.5576L119.321 79.8504ZM115.223 75.3925C114.219 73.4734 113.705 71.268 113.705 68.752H111.705C111.705 71.548 112.278 74.0786 113.451 76.3195L115.223 75.3925ZM113.705 68.752C113.705 66.201 114.22 64.0176 115.217 62.1709L113.457 61.2211C112.277 63.4064 111.705 65.927 111.705 68.752H113.705ZM115.22 62.1652C116.227 60.2697 117.59 58.8251 119.311 57.8041L118.29 56.0839C116.236 57.3029 114.623 59.0263 113.454 61.2268L115.22 62.1652ZM119.304 57.8078C121.064 56.7816 123.016 56.264 125.185 56.264V54.264C122.681 54.264 120.378 54.8664 118.297 56.0802L119.304 57.8078ZM135.977 68.8C135.977 66.6799 135.548 64.7819 134.655 63.1385L132.898 64.0935C133.605 65.3941 133.977 66.9521 133.977 68.8H135.977ZM134.655 63.1385C133.771 61.5112 132.552 60.2489 131 59.3828L130.025 61.1292C131.225 61.7991 132.182 62.7768 132.898 64.0935L134.655 63.1385ZM131.024 59.3967C129.519 58.5005 127.853 58.056 126.049 58.056V60.056C127.509 60.056 128.819 60.4115 130.001 61.1153L131.024 59.3967ZM126.049 58.056C124.252 58.056 122.592 58.4807 121.088 59.3398L122.081 61.0762C123.265 60.3993 124.581 60.056 126.049 60.056V58.056ZM121.088 59.3398C119.57 60.2075 118.371 61.4692 117.49 63.0905L119.247 64.0455C119.966 62.7228 120.911 61.7445 122.081 61.0762L121.088 59.3398ZM117.49 63.0905C116.597 64.7339 116.169 66.6319 116.169 68.752H118.169C118.169 66.9041 118.54 65.3461 119.247 64.0455L117.49 63.0905ZM116.169 68.752C116.169 70.9018 116.596 72.8287 117.486 74.5016L119.251 73.5624C118.541 72.2273 118.169 70.6342 118.169 68.752H116.169ZM117.49 74.5095C118.37 76.1278 119.564 77.4008 121.073 78.2993L122.096 76.5807C120.918 75.8792 119.968 74.8802 119.247 73.5545L117.49 74.5095ZM121.088 78.3082C122.592 79.1673 124.252 79.592 126.049 79.592V77.592C124.581 77.592 123.265 77.2487 122.081 76.5718L121.088 78.3082ZM126.049 79.592C127.845 79.592 129.505 79.1673 131.009 78.3082L130.016 76.5718C128.832 77.2487 127.516 77.592 126.049 77.592V79.592ZM131.015 78.3045C132.558 77.4075 133.773 76.1337 134.655 74.5095L132.898 73.5545C132.181 74.8743 131.219 75.8725 130.01 76.5755L131.015 78.3045ZM134.66 74.5016C135.548 72.8309 135.977 70.9207 135.977 68.8H133.977C133.977 70.6473 133.605 72.2251 132.894 73.5624L134.66 74.5016ZM151.142 46.48H152.142V45.48H151.142V46.48ZM151.142 82V83H152.142V82H151.142ZM146.774 82H145.774V83H146.774V82ZM146.774 46.48V45.48H145.774V46.48H146.774ZM150.142 46.48V82H152.142V46.48H150.142ZM151.142 81H146.774V83H151.142V81ZM147.774 82V46.48H145.774V82H147.774ZM146.774 47.48H151.142V45.48H146.774V47.48ZM181.243 55.696L182.168 56.0749L182.733 54.696H181.243V55.696ZM165.403 94.384V95.384H166.074L166.328 94.7629L165.403 94.384ZM160.891 94.384L159.965 94.0054L159.401 95.384H160.891V94.384ZM166.075 81.712L167 82.0906L167.155 81.7126L167.001 81.3344L166.075 81.712ZM155.467 55.696V54.696H153.979L154.541 56.0736L155.467 55.696ZM160.315 55.696L161.247 55.3348L161 54.696H160.315V55.696ZM168.571 77.008L167.638 77.3692L168.576 79.7904L169.505 77.3656L168.571 77.008ZM176.731 55.696V54.696H176.043L175.797 55.3384L176.731 55.696ZM180.317 55.3171L164.477 94.0051L166.328 94.7629L182.168 56.0749L180.317 55.3171ZM165.403 93.384H160.891V95.384H165.403V93.384ZM161.816 94.7626L167 82.0906L165.149 81.3334L159.965 94.0054L161.816 94.7626ZM167.001 81.3344L156.393 55.3184L154.541 56.0736L165.149 82.0896L167.001 81.3344ZM155.467 56.696H160.315V54.696H155.467V56.696ZM159.382 56.0572L167.638 77.3692L169.503 76.6468L161.247 55.3348L159.382 56.0572ZM169.505 77.3656L177.665 56.0536L175.797 55.3384L167.637 76.6504L169.505 77.3656ZM176.731 56.696H181.243V54.696H176.731V56.696Z" fill="#391561" mask="url(#path-2-outside-1_189_658)"/>
<path d="M0 34.5L70 34.5" stroke="black"/>
<line x1="138" y1="34.5" x2="206" y2="34.5" stroke="black"/>
<path fill-rule="evenodd" clip-rule="evenodd" d="M104.031 19.25C104.703 19.25 105.346 19.3883 105.821 19.6344C106.296 19.8806 106.562 20.2144 106.562 20.5625V49.4375C106.562 49.7856 106.296 50.1194 105.821 50.3656C105.346 50.6117 104.703 50.75 104.031 50.75C103.36 50.75 102.716 50.6117 102.241 50.3656C101.767 50.1194 101.5 49.7856 101.5 49.4375V20.5625C101.5 20.2144 101.767 19.8806 102.241 19.6344C102.716 19.3883 103.36 19.25 104.031 19.25ZM93.9062 24.5C94.5776 24.5 95.2214 24.6383 95.6961 24.8844C96.1708 25.1306 96.4375 25.4644 96.4375 25.8125V44.1875C96.4375 44.5356 96.1708 44.8694 95.6961 45.1156C95.2214 45.3617 94.5776 45.5 93.9062 45.5C93.2349 45.5 92.5911 45.3617 92.1164 45.1156C91.6417 44.8694 91.375 44.5356 91.375 44.1875V25.8125C91.375 25.4644 91.6417 25.1306 92.1164 24.8844C92.5911 24.6383 93.2349 24.5 93.9062 24.5ZM114.156 24.5C114.828 24.5 115.471 24.6383 115.946 24.8844C116.421 25.1306 116.688 25.4644 116.688 25.8125V44.1875C116.688 44.5356 116.421 44.8694 115.946 45.1156C115.471 45.3617 114.828 45.5 114.156 45.5C113.485 45.5 112.841 45.3617 112.366 45.1156C111.892 44.8694 111.625 44.5356 111.625 44.1875V25.8125C111.625 25.4644 111.892 25.1306 112.366 24.8844C112.841 24.6383 113.485 24.5 114.156 24.5ZM83.7812 28.4375C84.4526 28.4375 85.0964 28.5758 85.5711 28.8219C86.0458 29.0681 86.3125 29.4019 86.3125 29.75V40.25C86.3125 40.5981 86.0458 40.9319 85.5711 41.1781C85.0964 41.4242 84.4526 41.5625 83.7812 41.5625C83.1099 41.5625 82.4661 41.4242 81.9914 41.1781C81.5167 40.9319 81.25 40.5981 81.25 40.25V29.75C81.25 29.4019 81.5167 29.0681 81.9914 28.8219C82.4661 28.5758 83.1099 28.4375 83.7812 28.4375ZM124.281 28.4375C124.953 28.4375 125.596 28.5758 126.071 28.8219C126.546 29.0681 126.812 29.4019 126.812 29.75V40.25C126.812 40.5981 126.546 40.9319 126.071 41.1781C125.596 41.4242 124.953 41.5625 124.281 41.5625C123.61 41.5625 122.966 41.4242 122.491 41.1781C122.017 40.9319 121.75 40.5981 121.75 40.25V29.75C121.75 29.4019 122.017 29.0681 122.491 28.8219C122.966 28.5758 123.61 28.4375 124.281 28.4375ZM73.6562 31.0625C74.3276 31.0625 74.9714 31.2008 75.4461 31.4469C75.9208 31.6931 76.1875 32.0269 76.1875 32.375V37.625C76.1875 37.9731 75.9208 38.3069 75.4461 38.5531C74.9714 38.7992 74.3276 38.9375 73.6562 38.9375C72.9849 38.9375 72.3411 38.7992 71.8664 38.5531C71.3917 38.3069 71.125 37.9731 71.125 37.625V32.375C71.125 32.0269 71.3917 31.6931 71.8664 31.4469C72.3411 31.2008 72.9849 31.0625 73.6562 31.0625ZM134.406 31.0625C135.078 31.0625 135.721 31.2008 136.196 31.4469C136.671 31.6931 136.938 32.0269 136.938 32.375V37.625C136.938 37.9731 136.671 38.3069 136.196 38.5531C135.721 38.7992 135.078 38.9375 134.406 38.9375C133.735 38.9375 133.091 38.7992 132.616 38.5531C132.142 38.3069 131.875 37.9731 131.875 37.625V32.375C131.875 32.0269 132.142 31.6931 132.616 31.4469C133.091 31.2008 133.735 31.0625 134.406 31.0625Z" fill="#391561"/>
</svg>
