<svg width="46" height="46" viewBox="0 0 46 46" fill="none" xmlns="http://www.w3.org/2000/svg">
<path fill-rule="evenodd" clip-rule="evenodd" d="M20.445 11.7568L19.4829 11.0764C18.1098 10.1047 16.4691 9.58304 14.787 9.58331H13.614C12.8378 9.58331 12.0558 9.63123 11.3255 9.88998C6.75812 11.5115 3.6167 17.4321 3.84479 30.8641C3.89079 33.5704 4.52329 36.5604 6.96512 37.7276C7.79809 38.1281 8.7108 38.3352 9.63504 38.3333C10.6739 38.3503 11.6944 38.0589 12.5675 37.4957C13.3534 36.9821 14.0434 36.3151 14.7334 35.6481C15.5844 34.8239 16.4354 33.9997 17.4627 33.4669C18.5818 32.886 19.8243 32.583 21.0852 32.5833H24.9166C26.1778 32.5833 27.4198 32.8861 28.5391 33.465C29.5665 33.9997 30.4175 34.8239 31.2704 35.6481C31.9604 36.3151 32.6504 36.9821 33.4324 37.4957C34.1799 37.9864 35.1478 38.3333 36.3668 38.3333C37.291 38.3352 38.2037 38.1281 39.0367 37.7276C41.4785 36.5604 42.111 33.5685 42.157 30.8641C42.3851 17.4321 39.2437 11.5115 34.6763 9.8919C33.9441 9.63123 33.1583 9.58331 32.3859 9.58331H31.2129C29.5306 9.5836 27.8898 10.106 26.517 11.0783L25.5549 11.7568C24.8076 12.2848 23.915 12.5684 23 12.5684C22.0849 12.5684 21.1924 12.2848 20.445 11.7568ZM32.1041 17.25C32.4854 17.25 32.851 17.4014 33.1206 17.671C33.3902 17.9406 33.5416 18.3062 33.5416 18.6875C33.5416 19.0687 33.3902 19.4344 33.1206 19.7039C32.851 19.9735 32.4854 20.125 32.1041 20.125C31.7229 20.125 31.3572 19.9735 31.0877 19.7039C30.8181 19.4344 30.6666 19.0687 30.6666 18.6875C30.6666 18.3062 30.8181 17.9406 31.0877 17.671C31.3572 17.4014 31.7229 17.25 32.1041 17.25ZM14.375 17.7291C14.7562 17.7291 15.1218 17.8806 15.3914 18.1502C15.661 18.4198 15.8125 18.7854 15.8125 19.1666V20.6041H17.25C17.6312 20.6041 17.9968 20.7556 18.2664 21.0252C18.536 21.2948 18.6875 21.6604 18.6875 22.0416C18.6875 22.4229 18.536 22.7885 18.2664 23.0581C17.9968 23.3277 17.6312 23.4791 17.25 23.4791H15.8125V24.9166C15.8125 25.2979 15.661 25.6635 15.3914 25.9331C15.1218 26.2027 14.7562 26.3541 14.375 26.3541C13.9937 26.3541 13.6281 26.2027 13.3585 25.9331C13.0889 25.6635 12.9375 25.2979 12.9375 24.9166V23.4791H11.5C11.1187 23.4791 10.7531 23.3277 10.4835 23.0581C10.2139 22.7885 10.0625 22.4229 10.0625 22.0416C10.0625 21.6604 10.2139 21.2948 10.4835 21.0252C10.7531 20.7556 11.1187 20.6041 11.5 20.6041H12.9375V19.1666C12.9375 18.7854 13.0889 18.4198 13.3585 18.1502C13.6281 17.8806 13.9937 17.7291 14.375 17.7291ZM36.4166 21.5625C36.4166 21.9437 36.2652 22.3094 35.9956 22.5789C35.726 22.8485 35.3604 23 34.9791 23C34.5979 23 34.2322 22.8485 33.9627 22.5789C33.6931 22.3094 33.5416 21.9437 33.5416 21.5625C33.5416 21.1812 33.6931 20.8156 33.9627 20.546C34.2322 20.2764 34.5979 20.125 34.9791 20.125C35.3604 20.125 35.726 20.2764 35.9956 20.546C36.2652 20.8156 36.4166 21.1812 36.4166 21.5625ZM29.2291 23C29.6104 23 29.976 22.8485 30.2456 22.5789C30.5152 22.3094 30.6666 21.9437 30.6666 21.5625C30.6666 21.1812 30.5152 20.8156 30.2456 20.546C29.976 20.2764 29.6104 20.125 29.2291 20.125C28.8479 20.125 28.4822 20.2764 28.2127 20.546C27.9431 20.8156 27.7916 21.1812 27.7916 21.5625C27.7916 21.9437 27.9431 22.3094 28.2127 22.5789C28.4822 22.8485 28.8479 23 29.2291 23ZM33.5416 24.4375C33.5416 24.0562 33.3902 23.6906 33.1206 23.421C32.851 23.1514 32.4854 23 32.1041 23C31.7229 23 31.3572 23.1514 31.0877 23.421C30.8181 23.6906 30.6666 24.0562 30.6666 24.4375C30.6666 24.8187 30.8181 25.1844 31.0877 25.4539C31.3572 25.7235 31.7229 25.875 32.1041 25.875C32.4854 25.875 32.851 25.7235 33.1206 25.4539C33.3902 25.1844 33.5416 24.8187 33.5416 24.4375Z" fill="white"/>
</svg>
