<svg width="44" height="44" viewBox="0 0 44 44" fill="none" xmlns="http://www.w3.org/2000/svg">
<path d="M40.6699 21.6992L22.9711 4.01327C22.8437 3.88558 22.6923 3.78428 22.5257 3.71517C22.359 3.64605 22.1804 3.61047 22 3.61047C21.8196 3.61047 21.641 3.64605 21.4744 3.71517C21.3077 3.78428 21.1564 3.88558 21.0289 4.01327L3.33009 21.6992C2.81447 22.2148 2.52228 22.9152 2.52228 23.6457C2.52228 25.1625 3.75548 26.3957 5.27228 26.3957H7.13712V39.0156C7.13712 39.7762 7.75157 40.3906 8.51212 40.3906H19.25V30.7656H24.0625V40.3906H35.4879C36.2485 40.3906 36.8629 39.7762 36.8629 39.0156V26.3957H38.7277C39.4582 26.3957 40.1586 26.1078 40.6742 25.5879C41.7442 24.5137 41.7442 22.7734 40.6699 21.6992Z" fill="white"/>
</svg>
