<svg width="44" height="44" viewBox="0 0 44 44" fill="none" xmlns="http://www.w3.org/2000/svg">
<path d="M22 7.33335C30.0868 7.33335 36.6666 13.9132 36.6666 22C36.6666 30.0869 30.0868 36.6667 22 36.6667C13.9131 36.6667 7.33329 30.0869 7.33329 22C7.33329 13.9132 13.9131 7.33335 22 7.33335ZM22 3.66669C11.8745 3.66669 3.66663 11.8745 3.66663 22C3.66663 32.1255 11.8745 40.3334 22 40.3334C32.1255 40.3334 40.3333 32.1255 40.3333 22C40.3333 11.8745 32.1255 3.66669 22 3.66669ZM31.1666 20.1667H23.8333V12.8334H20.1666V20.1667H12.8333V23.8334H20.1666V31.1667H23.8333V23.8334H31.1666V20.1667Z" fill="white"/>
</svg>
