<svg width="48" height="48" viewBox="0 0 48 48" fill="none" xmlns="http://www.w3.org/2000/svg">
<path d="M38.6545 41.4545L26.0545 28.8545C25.0545 29.6545 23.9045 30.2879 22.6045 30.7545C21.3045 31.2212 19.9212 31.4545 18.4545 31.4545C14.8212 31.4545 11.7465 30.1959 9.23053 27.6785C6.71453 25.1612 5.45586 22.0865 5.45453 18.4545C5.4532 14.8225 6.71186 11.7479 9.23053 9.23053C11.7492 6.7132 14.8239 5.45453 18.4545 5.45453C22.0852 5.45453 25.1605 6.7132 27.6805 9.23053C30.2005 11.7479 31.4585 14.8225 31.4545 18.4545C31.4545 19.9212 31.2212 21.3045 30.7545 22.6045C30.2879 23.9045 29.6545 25.0545 28.8545 26.0545L41.4545 38.6545L38.6545 41.4545ZM18.4545 27.4545C20.9545 27.4545 23.0799 26.5799 24.8305 24.8305C26.5812 23.0812 27.4559 20.9559 27.4545 18.4545C27.4532 15.9532 26.5785 13.8285 24.8305 12.0805C23.0825 10.3325 20.9572 9.4572 18.4545 9.45453C15.9519 9.45186 13.8272 10.3272 12.0805 12.0805C10.3339 13.8339 9.45853 15.9585 9.45453 18.4545C9.45053 20.9505 10.3259 23.0759 12.0805 24.8305C13.8352 26.5852 15.9599 27.4599 18.4545 27.4545Z" fill="white"/>
</svg>
